<svg width="272" height="143" viewBox="0 0 272 143" fill="none" xmlns="http://www.w3.org/2000/svg">
<rect width="272" height="143" fill="#212121"/>
<path d="M77.3953 84.8006H73.8908V82.4975L71.71 84.8006H63.6869L61 81.9727V65.897L63.6869 63.1104H73.4997V57.5899H77.3953V84.8006ZM71.6304 81.0057L73.4997 79.2686V66.7884H64.8933V81.0057H71.6304Z" fill="#FA5F5F"/>
<path d="M73.4997 53.7972V50H77.3953V53.7972H73.4997Z" fill="#FA5F5F"/>
<path d="M93.3928 79.2686L81.0875 70.5444V65.8993L83.7744 63.1127H94.2104L96.937 65.8993V69.9784H93.1984V66.3026H84.9433V68.6446L97.2486 77.3276V81.9727L94.5617 84.8006H83.6573L80.9306 81.9727V78.4184H84.6295V81.6083H93.3928V79.2663V79.2686Z" fill="#FA5F5F"/>
<path d="M113.352 76.8441H117.131V81.9727L114.444 84.8006H103.928L101.241 81.9727V65.897L103.928 63.1104H114.444L117.131 65.897V71.0256H113.352V66.7838H105.057V81.0813H113.352V76.8395V76.8441Z" fill="#FA5F5F"/>
<path d="M120.863 84.8029V63.1127H124.367V65.8603L127.054 63.1127H131.882V66.9901H126.974L124.754 69.1717V84.8029H120.858H120.863Z" fill="#FA5F5F"/>
<path d="M146.585 77.4926H150.401V81.975L147.674 84.8029H136.964L134.277 81.975V65.8993L136.964 63.1127H147.674L150.401 65.8993V74.7449H138.095V81.409H146.585V77.4903V77.4926ZM138.095 66.5478V72.3227H146.585V66.5478H138.095Z" fill="#FA5F5F"/>
<path d="M166.29 77.4926H170.106V81.975L167.379 84.8029H156.669L153.982 81.975V65.8993L156.669 63.1127H167.379L170.106 65.8993V74.7449H157.801V81.409H166.29V77.4903V77.4926ZM157.801 66.5478V72.3227H166.29V66.5478H157.801Z" fill="#FA5F5F"/>
<path d="M177.848 84.8029L175.122 81.975V66.4653H172.24V63.1127H175.122V57.5921H179.017V63.1127H184.391V66.4653H179.017V81.0056H184.82V84.8029H177.848Z" fill="#FA5F5F"/>
<path d="M187.783 84.8029V57.5921H191.678V84.8006H187.783V84.8029Z" fill="#FA5F5F"/>
<path d="M199.339 86.1755V89.4869H208.102V83.6296H197.978L195.291 80.8429V63.1127H199.187V80.0775H208.104V63.1127H212V90.2134L209.236 93H198.331L195.567 90.2134V86.1755H199.346H199.339Z" fill="#FA5F5F"/>
</svg>
