<svg width="1200" height="630" viewBox="0 0 1200 630" fill="none" xmlns="http://www.w3.org/2000/svg">
<rect width="1200" height="630" fill="#212121"/>
<path d="M307.633 378.79C301.893 378.79 296.609 377.424 291.78 374.69C286.951 371.957 283.124 367.994 280.3 362.8C277.476 357.607 276.063 351.457 276.063 344.35V342.574C276.063 335.467 277.476 329.362 280.3 324.26C283.124 319.067 286.906 315.104 291.643 312.37C296.472 309.546 301.802 308.134 307.633 308.134C312.28 308.134 316.198 308.771 319.387 310.047C322.667 311.231 325.309 312.78 327.313 314.694C329.318 316.516 330.867 318.475 331.96 320.57H333.873V281.21H344.67V376.877H334.147V365.807H332.233C330.411 369.178 327.587 372.185 323.76 374.827C319.933 377.469 314.558 378.79 307.633 378.79ZM310.503 369.224C317.428 369.224 323.031 367.037 327.313 362.664C331.687 358.199 333.873 352.004 333.873 344.077V342.847C333.873 334.92 331.687 328.77 327.313 324.397C323.031 319.932 317.428 317.7 310.503 317.7C303.67 317.7 298.021 319.932 293.557 324.397C289.183 328.77 286.997 334.92 286.997 342.847V344.077C286.997 352.004 289.183 358.199 293.557 362.664C298.021 367.037 303.67 369.224 310.503 369.224ZM367.296 376.877V310.047H378.093V376.877H367.296ZM372.763 299.66C370.394 299.66 368.389 298.886 366.749 297.337C365.2 295.788 364.426 293.829 364.426 291.46C364.426 289 365.2 286.996 366.749 285.447C368.389 283.898 370.394 283.124 372.763 283.124C375.131 283.124 377.09 283.898 378.639 285.447C380.188 286.996 380.963 289 380.963 291.46C380.963 293.829 380.188 295.788 378.639 297.337C377.09 298.886 375.131 299.66 372.763 299.66ZM427.719 378.79C419.428 378.79 412.412 376.877 406.672 373.05C401.023 369.224 397.606 363.165 396.422 354.874L406.672 352.55C407.401 356.924 408.768 360.386 410.772 362.937C412.776 365.397 415.236 367.174 418.152 368.267C421.159 369.269 424.348 369.77 427.719 369.77C432.73 369.77 436.693 368.768 439.609 366.764C442.524 364.759 443.982 362.071 443.982 358.7C443.982 355.238 442.57 352.824 439.745 351.457C437.012 349.999 433.231 348.815 428.402 347.904L422.799 346.947C418.516 346.218 414.599 345.079 411.045 343.53C407.492 341.981 404.668 339.886 402.572 337.244C400.476 334.601 399.429 331.276 399.429 327.267C399.429 321.254 401.752 316.561 406.399 313.19C411.045 309.819 417.195 308.134 424.849 308.134C432.411 308.134 438.515 309.865 443.162 313.327C447.9 316.698 450.952 321.481 452.319 327.677L442.205 330.274C441.385 325.445 439.426 322.074 436.329 320.16C433.231 318.156 429.404 317.154 424.849 317.154C420.293 317.154 416.694 318.019 414.052 319.75C411.41 321.39 410.089 323.85 410.089 327.13C410.089 330.319 411.319 332.688 413.779 334.237C416.33 335.695 419.701 336.788 423.892 337.517L429.495 338.474C434.233 339.294 438.47 340.432 442.205 341.89C446.032 343.257 449.039 345.261 451.225 347.904C453.503 350.546 454.642 354.008 454.642 358.29C454.642 364.85 452.182 369.907 447.262 373.46C442.433 377.014 435.919 378.79 427.719 378.79ZM503.616 378.79C497.147 378.79 491.316 377.424 486.122 374.69C481.02 371.866 476.966 367.857 473.959 362.664C471.043 357.47 469.586 351.32 469.586 344.214V342.71C469.586 335.512 471.043 329.362 473.959 324.26C476.966 319.067 481.02 315.104 486.122 312.37C491.316 309.546 497.147 308.134 503.616 308.134C509.993 308.134 515.415 309.318 519.879 311.687C524.435 314.056 527.988 317.199 530.539 321.117C533.181 325.035 534.867 329.226 535.596 333.69L525.072 335.877C524.617 332.597 523.523 329.59 521.792 326.857C520.152 324.124 517.829 321.937 514.822 320.297C511.816 318.657 508.126 317.837 503.752 317.837C499.288 317.837 495.279 318.839 491.726 320.844C488.263 322.848 485.485 325.718 483.389 329.454C481.385 333.189 480.382 337.654 480.382 342.847V344.077C480.382 349.27 481.385 353.735 483.389 357.47C485.485 361.206 488.263 364.076 491.726 366.08C495.279 368.085 499.288 369.087 503.752 369.087C510.403 369.087 515.46 367.356 518.922 363.894C522.476 360.431 524.662 356.149 525.482 351.047L536.142 353.37C535.14 357.744 533.318 361.889 530.676 365.807C528.033 369.725 524.435 372.868 519.879 375.237C515.415 377.606 509.993 378.79 503.616 378.79ZM554.545 376.877V310.047H565.069V318.247H566.982C568.167 315.331 569.989 313.19 572.449 311.824C574.909 310.457 578.143 309.774 582.152 309.774H590.079V319.614H581.469C576.64 319.614 572.722 320.98 569.715 323.714C566.8 326.356 565.342 330.501 565.342 336.15V376.877H554.545ZM634.273 378.79C627.531 378.79 621.609 377.378 616.507 374.554C611.405 371.638 607.441 367.584 604.617 362.39C601.792 357.197 600.38 351.184 600.38 344.35V342.71C600.38 335.786 601.792 329.727 604.617 324.534C607.441 319.34 611.359 315.331 616.37 312.507C621.381 309.591 627.121 308.134 633.59 308.134C639.877 308.134 645.435 309.5 650.263 312.234C655.092 314.876 658.873 318.702 661.607 323.714C664.34 328.725 665.707 334.601 665.707 341.344V346.264H611.177C611.45 353.461 613.773 359.11 618.147 363.21C622.52 367.219 627.987 369.224 634.547 369.224C640.287 369.224 644.706 367.903 647.803 365.26C650.901 362.618 653.27 359.475 654.91 355.83L664.203 360.34C662.837 363.165 660.923 365.989 658.463 368.814C656.095 371.638 652.951 374.007 649.033 375.92C645.207 377.834 640.287 378.79 634.273 378.79ZM611.313 337.38H654.773C654.409 331.185 652.268 326.356 648.35 322.894C644.523 319.431 639.603 317.7 633.59 317.7C627.486 317.7 622.475 319.431 618.557 322.894C614.639 326.356 612.225 331.185 611.313 337.38ZM715.152 378.79C708.41 378.79 702.488 377.378 697.386 374.554C692.283 371.638 688.32 367.584 685.496 362.39C682.671 357.197 681.259 351.184 681.259 344.35V342.71C681.259 335.786 682.671 329.727 685.496 324.534C688.32 319.34 692.238 315.331 697.249 312.507C702.26 309.591 708 308.134 714.469 308.134C720.756 308.134 726.314 309.5 731.142 312.234C735.971 314.876 739.752 318.702 742.486 323.714C745.219 328.725 746.586 334.601 746.586 341.344V346.264H692.056C692.329 353.461 694.652 359.11 699.026 363.21C703.399 367.219 708.866 369.224 715.426 369.224C721.166 369.224 725.585 367.903 728.682 365.26C731.78 362.618 734.149 359.475 735.789 355.83L745.082 360.34C743.716 363.165 741.802 365.989 739.342 368.814C736.974 371.638 733.83 374.007 729.912 375.92C726.086 377.834 721.166 378.79 715.152 378.79ZM692.192 337.38H735.652C735.288 331.185 733.147 326.356 729.229 322.894C725.402 319.431 720.482 317.7 714.469 317.7C708.365 317.7 703.353 319.431 699.436 322.894C695.518 326.356 693.103 331.185 692.192 337.38ZM787.215 376.877C783.389 376.877 780.428 375.829 778.332 373.734C776.328 371.638 775.325 368.768 775.325 365.124V319.477H755.235V310.047H775.325V286.267H786.122V310.047H807.989V319.477H786.122V363.484C786.122 366.217 787.443 367.584 790.085 367.584H804.982V376.877H787.215ZM825.477 376.877V281.21H836.273V376.877H825.477ZM867.039 404.21V394.644H905.306C907.948 394.644 909.269 393.277 909.269 390.544V366.217H907.356C906.445 368.13 905.033 370.044 903.119 371.957C901.297 373.779 898.883 375.283 895.876 376.467C892.869 377.56 889.088 378.107 884.533 378.107C879.704 378.107 875.239 377.059 871.139 374.964C867.13 372.868 863.942 369.77 861.573 365.67C859.295 361.57 858.156 356.559 858.156 350.637V310.047H868.953V349.817C868.953 356.377 870.593 361.16 873.873 364.167C877.244 367.174 881.754 368.677 887.403 368.677C893.781 368.677 899.019 366.581 903.119 362.39C907.219 358.199 909.269 351.958 909.269 343.667V310.047H920.066V392.457C920.066 396.101 919.018 398.971 916.923 401.067C914.918 403.163 911.957 404.21 908.039 404.21H867.039Z" fill="#FA5F5F"/>
</svg>
