<svg width="360" height="161" viewBox="0 0 360 161" fill="none" xmlns="http://www.w3.org/2000/svg">
<rect y="0.683105" width="360" height="160" rx="4" fill="#4865FF"/>
<path fillRule="evenodd" clipRule="evenodd" d="M79.1491 60.8848C79.9107 60.1737 80.2914 59.2855 80.2914 58.2194C80.2914 57.1533 79.9107 56.29 79.1491 55.63C78.3876 54.9193 77.55 54.5639 76.6362 54.5639C75.7222 54.5639 74.8845 54.9193 74.123 55.63C73.3614 56.29 72.9807 57.1533 72.9807 58.2194C72.9807 59.2855 73.3614 60.1737 74.123 60.8848C74.8845 61.5449 75.7222 61.8749 76.6362 61.8749C77.55 61.8749 78.3876 61.5449 79.1491 60.8848ZM79.3086 70.1408H68.4452L50.6987 100.107H79.3086V70.1408ZM95.5737 65.9208C95.5395 65.467 95.5005 65.0322 95.4564 64.6164H90.5064C90.608 65.8346 90.6841 67.2053 90.735 68.7286C90.7857 70.2515 90.8111 71.4955 90.8111 72.4602V100.256H95.9895V81.9794C95.9895 79.5933 96.2941 77.5372 96.9033 75.8106C97.5125 74.0338 98.3247 72.587 99.3402 71.4702C100.356 70.3022 101.498 69.4394 102.767 68.8808C104.087 68.3222 105.433 68.0433 106.803 68.0433C108.682 68.0433 110.23 68.3479 111.449 68.9568C112.718 69.5662 113.708 70.4294 114.419 71.5462C115.18 72.6123 115.713 73.907 116.018 75.4299C116.323 76.9532 116.475 78.6539 116.475 80.5322V100.256H121.653V78.4C121.653 73.9831 120.511 70.4294 118.226 67.7386C115.992 65.0478 112.617 63.7024 108.098 63.7024C105.559 63.7024 103.148 64.3624 100.863 65.6825C98.5787 66.9514 96.9288 68.6268 95.9133 70.7083H95.761C95.761 69.9469 95.7355 68.9822 95.6849 67.8147C95.6559 67.1504 95.6187 66.5191 95.5737 65.9208ZM141.077 68.9568H151.129V64.6164H141.077V54.5639H135.898V64.6164H128.511V68.9568H135.898V91.194C135.898 93.174 136.177 94.773 136.736 95.9916C137.345 97.2099 138.107 98.1745 139.021 98.8854C139.935 99.5963 140.925 100.078 141.991 100.332C142.962 100.564 143.89 100.69 144.777 100.71C144.864 100.712 144.951 100.713 145.037 100.713C145.826 100.713 146.569 100.667 147.265 100.574C147.599 100.529 147.922 100.474 148.235 100.408C149.25 100.256 150.215 100.002 151.129 99.6469L150.901 95.1537C150.484 95.362 150.049 95.5446 149.597 95.7009C149.279 95.8108 148.952 95.908 148.616 95.9916C147.855 96.1945 147.118 96.2963 146.408 96.2963C145.646 96.2963 144.935 96.2202 144.275 96.0677C143.615 95.8649 143.031 95.5349 142.524 95.0776C142.243 94.7658 142.001 94.3872 141.796 93.941C141.668 93.6608 141.555 93.3545 141.458 93.0215C141.204 92.1583 141.077 91.0672 141.077 89.7467V68.9568ZM183.143 71.3941C185.173 73.577 186.265 76.3438 186.417 79.6947H162.124C162.226 78.1714 162.607 76.7246 163.267 75.3538C163.926 73.9324 164.815 72.6884 165.932 71.6223C167.049 70.5055 168.343 69.6422 169.816 69.0333C171.288 68.3733 172.888 68.0433 174.614 68.0433C178.32 68.0433 181.163 69.1601 183.143 71.3941ZM191.672 82.5123V81.3701C191.672 78.9332 191.291 76.6485 190.53 74.5163C189.819 72.3837 188.753 70.5308 187.331 68.9568C185.91 67.3326 184.133 66.0632 182 65.1492C179.868 64.1846 177.406 63.7024 174.614 63.7024C172.075 63.7024 169.714 64.1846 167.531 65.1492C165.348 66.0632 163.444 67.3579 161.82 69.0333C160.195 70.7083 158.926 72.6884 158.012 74.9731C157.098 77.2578 156.641 79.7454 156.641 82.4362C156.641 85.127 157.098 87.6146 158.012 89.8993C158.976 92.184 160.271 94.1637 161.896 95.8391C163.521 97.5145 165.45 98.8348 167.684 99.7993C169.968 100.713 172.431 101.17 175.07 101.17C178.015 101.17 180.756 100.586 183.295 99.4185C185.884 98.2507 188.245 96.3216 190.377 93.6308L186.493 90.5846C185.478 92.2094 183.98 93.6562 182 94.9255C180.071 96.1437 177.761 96.7531 175.07 96.7531C173.243 96.7531 171.542 96.423 169.968 95.763C168.394 95.0523 167.024 94.1134 165.856 92.9455C164.688 91.7775 163.774 90.4068 163.114 88.8332C162.454 87.2592 162.099 85.5838 162.048 83.807H191.596C191.646 83.3502 191.672 82.9183 191.672 82.5123ZM202.735 68.7286C202.785 70.2515 202.811 71.4955 202.811 72.4602V100.256H207.989V81.9794C207.989 79.5933 208.268 77.5625 208.827 75.8871C209.436 74.161 210.198 72.7649 211.112 71.6983C212.076 70.5816 213.193 69.7694 214.462 69.2615C215.731 68.754 217.051 68.5 218.422 68.5C219.133 68.5 219.844 68.5508 220.555 68.6522C221.265 68.754 221.773 68.8554 222.078 68.9568L222.763 64.0831C222.204 63.931 221.646 63.8292 221.088 63.7785C220.58 63.7278 219.996 63.7024 219.336 63.7024C216.798 63.7024 214.513 64.3624 212.482 65.6825C210.451 66.9514 208.928 68.6268 207.913 70.7083H207.761C207.761 69.9469 207.735 68.9822 207.685 67.8147C207.634 66.6472 207.557 65.5806 207.456 64.6164H202.506C202.607 65.8346 202.684 67.2053 202.735 68.7286ZM252.826 71.3941C254.857 73.577 255.949 76.3438 256.101 79.6947H231.808C231.91 78.1714 232.29 76.7246 232.95 75.3538C233.61 73.9324 234.499 72.6884 235.616 71.6223C236.733 70.5055 238.027 69.6422 239.5 69.0333C240.972 68.3733 242.571 68.0433 244.297 68.0433C248.003 68.0433 250.846 69.1601 252.826 71.3941ZM261.356 82.5123V81.3701C261.356 78.9332 260.975 76.6485 260.213 74.5163C259.502 72.3837 258.436 70.5308 257.015 68.9568C255.594 67.3326 253.816 66.0632 251.684 65.1492C249.552 64.1846 247.089 63.7024 244.297 63.7024C241.759 63.7024 239.398 64.1846 237.215 65.1492C235.032 66.0632 233.128 67.3579 231.503 69.0333C229.879 70.7083 228.61 72.6884 227.696 74.9731C226.782 77.2578 226.325 79.7454 226.325 82.4362C226.325 85.127 226.782 87.6146 227.696 89.8993C228.66 92.184 229.955 94.1637 231.58 95.8391C233.204 97.5145 235.133 98.8348 237.367 99.7993C239.652 100.713 242.114 101.17 244.754 101.17C247.699 101.17 250.44 100.586 252.979 99.4185C255.568 98.2507 257.929 96.3216 260.061 93.6308L256.177 90.5846C255.162 92.2094 253.664 93.6562 251.684 94.9255C249.755 96.1437 247.445 96.7531 244.754 96.7531C242.926 96.7531 241.226 96.423 239.652 95.763C238.078 95.0523 236.707 94.1134 235.54 92.9455C234.372 91.7775 233.458 90.4068 232.798 88.8332C232.138 87.2592 231.783 85.5838 231.732 83.807H261.28C261.33 83.3502 261.356 82.9183 261.356 82.5123ZM272.494 118.533H277.673V94.2402H277.901C279.373 96.4742 281.328 98.2 283.765 99.4185C286.253 100.586 288.766 101.17 291.304 101.17C294.097 101.17 296.61 100.688 298.844 99.7231C301.128 98.7586 303.057 97.4384 304.631 95.763C306.256 94.0876 307.5 92.1076 308.363 89.8232C309.277 87.5385 309.734 85.0763 309.734 82.4362C309.734 79.7961 309.277 77.3339 308.363 75.0492C307.5 72.7649 306.256 70.7848 304.631 69.1094C303.057 67.4339 301.128 66.1139 298.844 65.1492C296.61 64.1846 294.097 63.7024 291.304 63.7024C288.766 63.7024 286.253 64.3117 283.765 65.53C281.328 66.6979 279.373 68.4493 277.901 70.7848H277.673V64.6164H272.494V118.533ZM303.337 76.8771C303.946 78.6032 304.251 80.4561 304.251 82.4362C304.251 84.4163 303.946 86.2945 303.337 88.0717C302.728 89.7979 301.839 91.3207 300.671 92.6408C299.554 93.9097 298.158 94.9255 296.483 95.687C294.808 96.3977 292.904 96.7531 290.771 96.7531C288.791 96.7531 286.964 96.3977 285.288 95.687C283.613 94.9255 282.166 93.9097 280.948 92.6408C279.729 91.3719 278.764 89.874 278.054 88.1478C277.393 86.371 277.064 84.467 277.064 82.4362C277.064 80.4054 277.393 78.5268 278.054 76.8006C278.764 75.0238 279.729 73.5009 280.948 72.2316C282.166 70.9115 283.613 69.8962 285.288 69.1854C286.964 68.424 288.791 68.0433 290.771 68.0433C292.904 68.0433 294.808 68.424 296.483 69.1854C298.158 69.9469 299.554 70.9876 300.671 72.3077C301.839 73.577 302.728 75.0999 303.337 76.8771Z" fill="white"/>
</svg>
