<svg width="1200" height="630" viewBox="0 0 1200 630" fill="none" xmlns="http://www.w3.org/2000/svg">
<rect width="1200" height="630" fill="#151616"/>
<path fill-rule="evenodd" clip-rule="evenodd" d="M557.879 154.545C557.879 126.63 576.737 104 600 104C623.263 104 642.121 126.63 642.121 154.545C642.121 174.13 637.504 184.897 624.822 214.473C623.918 216.58 622.974 218.782 621.987 221.09C612.235 242.462 604.647 289.024 601.521 308.204L601.52 308.208L601.52 308.21L601.519 308.214L601.518 308.22L601.516 308.234C601.181 310.288 600.898 312.027 600.669 313.385C601.471 312.258 602.505 310.821 603.727 309.123L603.73 309.119C615.082 293.346 642.641 255.056 650.857 233.048C651.791 230.718 652.681 228.493 653.532 226.365C665.477 196.484 669.826 185.606 683.675 171.757C703.414 152.018 732.75 149.351 749.199 165.8C765.649 182.249 762.982 211.586 743.243 231.325C729.394 245.174 718.515 249.523 688.635 261.468L688.617 261.475L688.52 261.514L688.485 261.528C686.402 262.361 684.226 263.231 681.952 264.143C659.944 272.359 621.653 299.918 605.881 311.27L605.877 311.273C604.178 312.495 602.741 313.53 601.614 314.331C602.974 314.102 604.714 313.818 606.77 313.483L606.791 313.48L606.791 313.48L606.792 313.48L606.796 313.479C625.976 310.353 672.539 302.765 693.91 293.013C696.2 292.034 698.385 291.097 700.477 290.2L700.519 290.182L700.527 290.178C730.103 277.496 740.87 272.879 760.455 272.879C788.37 272.879 811 291.738 811 315C811 338.263 788.37 357.121 760.455 357.121C740.87 357.121 730.103 352.504 700.527 339.822L700.481 339.802C698.388 338.905 696.201 337.967 693.91 336.987C672.539 327.235 625.976 319.647 606.796 316.521L606.792 316.52L606.789 316.52C604.725 316.183 602.978 315.899 601.614 315.669C602.741 316.47 604.177 317.503 605.873 318.724L605.876 318.726L605.881 318.73C621.653 330.082 659.944 357.641 681.952 365.857C684.281 366.791 686.506 367.681 688.635 368.532C718.515 380.477 729.394 384.826 743.243 398.675C762.982 418.414 765.649 447.75 749.199 464.199C732.75 480.649 703.414 477.982 683.675 458.243C669.826 444.394 665.477 433.515 653.532 403.635L653.524 403.617L653.486 403.52C652.649 401.426 651.774 399.239 650.857 396.952C642.641 374.944 615.082 336.653 603.73 320.881L603.728 320.878C602.505 319.179 601.471 317.742 600.669 316.615C600.899 317.979 601.184 319.726 601.52 321.792L601.521 321.796C604.647 340.976 612.235 387.539 621.988 408.91C622.968 411.203 623.906 413.392 624.804 415.486L624.822 415.527C637.504 445.103 642.121 455.87 642.121 475.455C642.121 503.37 623.263 526 600 526C576.738 526 557.88 503.37 557.88 475.455C557.88 455.87 562.496 445.103 575.178 415.527C576.082 413.421 577.026 411.218 578.013 408.91C587.765 387.539 595.353 340.976 598.479 321.796L598.48 321.792L598.48 321.79L598.481 321.786C598.817 319.723 599.101 317.977 599.331 316.614C598.529 317.742 597.495 319.179 596.272 320.878L596.27 320.881C584.918 336.654 557.359 374.944 549.143 396.952C548.211 399.277 547.323 401.497 546.473 403.622L546.468 403.635C534.523 433.515 530.174 444.394 516.325 458.243C496.586 477.982 467.249 480.649 450.8 464.199C434.351 447.75 437.018 418.414 456.757 398.675C470.606 384.826 481.484 380.477 511.365 368.532L511.403 368.517C513.52 367.67 515.732 366.786 518.048 365.857C540.056 357.641 578.346 330.082 594.119 318.73L594.123 318.727L594.135 318.718C595.828 317.5 597.261 316.469 598.385 315.669C597.022 315.899 595.275 316.184 593.211 316.52L593.208 316.52L593.204 316.521C574.024 319.647 527.461 327.235 506.09 336.988C503.787 337.972 501.59 338.914 499.487 339.816L499.487 339.816L499.473 339.822C469.897 352.504 459.13 357.121 439.545 357.121C411.63 357.121 389 338.263 389 315C389 291.738 411.63 272.88 439.545 272.88C459.13 272.88 469.897 277.496 499.473 290.178L499.487 290.184L499.488 290.185C501.59 291.086 503.787 292.028 506.09 293.013C527.461 302.765 574.024 310.353 593.204 313.479L593.208 313.48L593.212 313.48C595.276 313.817 597.022 314.101 598.386 314.331C597.258 313.53 595.821 312.495 594.123 311.273L594.119 311.27C578.346 299.918 540.056 272.359 518.048 264.143C515.718 263.209 513.493 262.319 511.365 261.468C481.484 249.523 470.606 245.174 456.757 231.325C437.018 211.586 434.351 182.249 450.8 165.8C467.249 149.351 496.586 152.018 516.325 171.757C530.174 185.606 534.523 196.484 546.468 226.365C547.319 228.493 548.209 230.718 549.143 233.048C557.359 255.056 584.918 293.346 596.27 309.119L596.27 309.119L596.273 309.123C597.495 310.821 598.529 312.258 599.331 313.386C599.102 312.026 598.818 310.286 598.483 308.23L598.483 308.226L598.48 308.213L598.48 308.212L598.48 308.208L598.479 308.204C595.353 289.024 587.765 242.462 578.013 221.09C577.027 218.785 576.084 216.585 575.181 214.48L575.178 214.473C562.496 184.897 557.879 174.13 557.879 154.545Z" fill="#FCFCFC"/>
</svg>
