<svg width="1200" height="630" viewBox="0 0 1200 630" fill="none" xmlns="http://www.w3.org/2000/svg">
<rect width="1200" height="630" fill="#F6F7F7"/>
<path d="M98.9737 323.755C97.2505 323.755 95.9973 324.121 95.214 324.852C94.4829 325.583 94.039 326.444 93.8824 327.436C93.7257 328.376 93.6474 329.212 93.6474 329.943V349.682C93.6474 352.606 93.8302 355.452 94.1957 358.219C94.6135 360.935 95.3706 363.389 96.4672 365.582C97.5638 367.776 99.1826 369.525 101.324 370.83C103.517 372.136 106.363 372.789 109.861 372.789C113.621 372.789 116.676 371.901 119.026 370.125C121.428 368.35 123.177 365.896 124.274 362.763C125.423 359.629 126.023 356.026 126.075 351.953L126.31 329.943C126.31 328.899 126.336 327.906 126.389 326.966C126.441 325.974 126.493 325.087 126.545 324.303C125.605 324.356 124.665 324.408 123.725 324.46C122.838 324.512 121.924 324.564 120.984 324.617V321.17H135.553V323.755C133.569 323.807 132.185 324.251 131.402 325.087C130.671 325.922 130.253 327.045 130.148 328.455C130.096 329.865 130.07 331.509 130.07 333.389L129.913 351.562C129.913 354.956 129.548 358.193 128.817 361.274C128.086 364.355 126.885 367.097 125.214 369.499C123.595 371.901 121.428 373.807 118.712 375.217C116.049 376.574 112.76 377.253 108.843 377.253C104.666 377.253 101.141 376.705 98.2688 375.608C95.449 374.512 93.1774 372.815 91.4542 370.517C89.7832 368.219 88.5822 365.321 87.8511 361.823C87.12 358.324 86.7545 354.146 86.7545 349.29V333.389C86.7545 332.032 86.7806 330.439 86.8328 328.611C86.9373 326.731 87.0156 325.295 87.0678 324.303C86.1279 324.356 85.1879 324.408 84.248 324.46C83.3081 324.46 82.3681 324.486 81.4282 324.538V321.17H98.9737V323.755ZM141.346 376V373.65C142.964 373.65 144.087 373.259 144.714 372.475C145.34 371.64 145.706 370.517 145.81 369.107C145.915 367.645 145.967 365.974 145.967 364.094L146.045 346.235C146.045 345.4 146.045 344.564 146.045 343.729C146.098 342.893 146.202 342.032 146.359 341.144C145.419 341.196 144.479 341.248 143.539 341.301C142.651 341.353 141.737 341.405 140.797 341.457V338.167C143.095 338.167 144.818 338.063 145.967 337.854C147.168 337.645 148.056 337.384 148.63 337.071C149.205 336.757 149.675 336.418 150.04 336.053H152.312C152.364 336.418 152.39 336.836 152.39 337.306C152.442 337.776 152.494 338.298 152.547 338.872C152.599 339.447 152.625 340.1 152.625 340.831C153.774 339.838 155.027 338.951 156.385 338.167C157.795 337.384 159.257 336.757 160.771 336.288C162.338 335.818 163.878 335.583 165.393 335.583C169.936 335.583 173.251 337.019 175.34 339.891C177.429 342.71 178.473 347.123 178.473 353.128V367.697C178.473 368.742 178.447 369.682 178.395 370.517C178.395 371.3 178.317 372.136 178.16 373.024C178.996 372.971 179.805 372.945 180.588 372.945C181.424 372.893 182.259 372.841 183.095 372.789V376H167.116V373.65C168.735 373.65 169.857 373.259 170.484 372.475C171.11 371.64 171.476 370.517 171.58 369.107C171.685 367.645 171.737 365.974 171.737 364.094V353.128C171.685 348.637 170.928 345.243 169.466 342.945C168.056 340.648 165.81 339.525 162.729 339.577C160.849 339.63 158.996 340.126 157.168 341.066C155.393 342.005 153.904 343.207 152.703 344.669C152.756 345.086 152.782 345.556 152.782 346.079C152.782 346.601 152.782 347.149 152.782 347.723L152.703 367.697C152.703 368.742 152.677 369.682 152.625 370.517C152.625 371.3 152.547 372.136 152.39 373.024C153.225 372.971 154.035 372.945 154.818 372.945C155.654 372.893 156.489 372.841 157.325 372.789V376H141.346ZM188.924 373.65C190.543 373.65 191.666 373.259 192.292 372.475C192.919 371.64 193.284 370.517 193.389 369.107C193.493 367.645 193.545 365.974 193.545 364.094V346.235C193.545 345.4 193.572 344.616 193.624 343.885C193.676 343.102 193.754 342.188 193.859 341.144C192.919 341.196 191.979 341.248 191.039 341.301C190.151 341.353 189.237 341.405 188.297 341.457V338.167C190.595 338.167 192.37 338.063 193.624 337.854C194.877 337.645 195.817 337.384 196.444 337.071C197.122 336.757 197.645 336.418 198.01 336.053H200.282V367.697C200.282 368.742 200.256 369.682 200.203 370.517C200.203 371.3 200.125 372.136 199.968 373.024C200.804 372.971 201.613 372.945 202.397 372.945C203.232 372.893 204.068 372.841 204.903 372.789V376H188.924V373.65ZM196.522 328.298C195.425 328.298 194.459 327.854 193.624 326.966C192.788 326.079 192.37 324.982 192.37 323.677C192.37 322.371 192.788 321.275 193.624 320.387C194.511 319.447 195.504 318.977 196.6 318.977C197.801 318.977 198.793 319.447 199.577 320.387C200.412 321.275 200.83 322.371 200.83 323.677C200.83 324.982 200.386 326.079 199.498 326.966C198.663 327.854 197.671 328.298 196.522 328.298ZM226.904 377.253C225.702 377.253 224.475 377.07 223.222 376.705C221.969 376.392 220.794 375.739 219.697 374.747C218.653 373.755 217.817 372.319 217.191 370.439C216.564 368.507 216.251 365.974 216.251 362.841L216.408 340.126L210.376 340.204V336.836C211.734 336.784 213.118 336.288 214.528 335.348C215.938 334.355 217.191 333.024 218.287 331.353C219.436 329.682 220.219 327.854 220.637 325.87H223.3V336.836H236.46V339.891L223.3 340.047L223.144 361.823C223.144 364.172 223.327 366.183 223.692 367.854C224.11 369.473 224.763 370.7 225.65 371.535C226.538 372.371 227.687 372.789 229.097 372.789C230.559 372.789 231.917 372.371 233.17 371.535C234.475 370.7 235.624 369.551 236.616 368.089L238.731 369.812C237.582 371.535 236.433 372.893 235.285 373.885C234.188 374.877 233.118 375.608 232.073 376.078C231.029 376.601 230.063 376.914 229.175 377.018C228.287 377.175 227.53 377.253 226.904 377.253ZM261.424 377.253C257.821 377.253 254.557 376.418 251.633 374.747C248.761 373.024 246.49 370.621 244.819 367.541C243.148 364.407 242.312 360.726 242.312 356.496C242.312 352.841 243.122 349.421 244.74 346.235C246.411 343.05 248.735 340.491 251.712 338.559C254.688 336.575 258.134 335.583 262.051 335.583C264.244 335.583 266.281 335.948 268.161 336.679C270.093 337.358 271.79 338.428 273.252 339.891C274.714 341.301 275.863 343.102 276.698 345.295C277.534 347.436 277.952 349.969 277.952 352.893L250.38 353.363C250.38 357.332 250.798 360.83 251.633 363.859C252.521 366.836 253.931 369.159 255.863 370.83C257.795 372.449 260.275 373.259 263.304 373.259C264.923 373.259 266.568 372.971 268.239 372.397C269.962 371.822 271.555 371.039 273.017 370.047C274.479 369.055 275.654 367.958 276.542 366.757L278.422 368.324C277.012 370.517 275.315 372.266 273.33 373.572C271.346 374.877 269.309 375.817 267.221 376.392C265.132 376.966 263.2 377.253 261.424 377.253ZM250.615 350.073H270.589C270.589 348.193 270.301 346.392 269.727 344.669C269.205 342.893 268.317 341.457 267.064 340.361C265.811 339.212 264.166 338.637 262.129 338.637C259.101 338.637 256.568 339.551 254.531 341.379C252.547 343.154 251.242 346.052 250.615 350.073ZM301.302 377.253C298.117 377.253 295.245 376.47 292.686 374.903C290.127 373.285 288.091 370.987 286.576 368.011C285.114 365.034 284.383 361.535 284.383 357.515C284.383 353.233 285.245 349.447 286.968 346.157C288.691 342.867 291.067 340.282 294.096 338.402C297.177 336.523 300.649 335.583 304.513 335.583C306.237 335.583 307.934 335.818 309.605 336.288C311.328 336.705 312.686 337.201 313.678 337.776V327.045C313.678 326.209 313.678 325.426 313.678 324.695C313.73 323.912 313.808 322.998 313.913 321.953C312.973 322.006 312.033 322.058 311.093 322.11C310.205 322.162 309.291 322.215 308.352 322.267V318.977C310.649 318.977 312.425 318.873 313.678 318.664C314.931 318.455 315.871 318.194 316.498 317.88C317.177 317.567 317.699 317.228 318.064 316.862H320.336V367.697C320.336 368.533 320.31 369.368 320.257 370.204C320.205 371.039 320.127 371.979 320.022 373.024C320.962 372.971 321.876 372.919 322.764 372.867C323.704 372.815 324.644 372.762 325.584 372.71V376H314.383C314.226 375.217 314.096 374.512 313.991 373.885C313.939 373.206 313.887 372.554 313.835 371.927C312.372 373.546 310.571 374.851 308.43 375.843C306.289 376.783 303.913 377.253 301.302 377.253ZM304.122 373.415C305.845 373.415 307.568 372.919 309.291 371.927C311.067 370.935 312.529 369.708 313.678 368.245C313.626 367.619 313.6 366.966 313.6 366.287C313.6 365.556 313.6 364.773 313.6 363.937L313.678 341.379C312.425 340.439 311.041 339.76 309.526 339.342C308.064 338.872 306.55 338.637 304.983 338.637C302.372 338.637 300.101 339.395 298.169 340.909C296.237 342.423 294.775 344.538 293.782 347.253C292.79 349.969 292.346 353.154 292.451 356.81C292.555 359.995 293.051 362.841 293.939 365.347C294.879 367.854 296.185 369.838 297.856 371.3C299.579 372.71 301.668 373.415 304.122 373.415ZM373.705 376.783L355.924 335.113C354.776 332.449 353.966 330.308 353.496 328.69C353.026 327.019 352.713 325.609 352.556 324.46C351.825 324.512 351.094 324.538 350.363 324.538C349.632 324.538 348.901 324.564 348.17 324.617V321.17H366.342L366.264 323.833C363.653 323.99 362.086 324.799 361.564 326.261C361.042 327.671 361.303 329.682 362.347 332.293C363.601 335.374 364.802 338.35 365.95 341.222C367.099 344.094 368.379 347.201 369.788 350.543C371.042 353.468 372.243 356.287 373.392 359.003C374.593 361.666 375.506 363.885 376.133 365.661H376.29C376.864 363.833 377.439 362.084 378.013 360.413C378.64 358.742 379.371 356.757 380.206 354.46C381.773 350.073 383.078 346.366 384.123 343.337C385.219 340.308 386.159 337.724 386.942 335.583C387.726 333.442 388.378 331.614 388.901 330.1C389.371 328.742 389.788 327.593 390.154 326.653C390.519 325.713 390.859 324.93 391.172 324.303C390.18 324.356 389.188 324.408 388.196 324.46C387.204 324.512 386.185 324.564 385.141 324.617V321.17H401.042V323.755C398.744 323.859 396.968 324.46 395.715 325.557C394.514 326.653 393.418 328.611 392.425 331.431C392.321 331.692 392.19 332.058 392.034 332.528C391.877 332.946 391.616 333.65 391.25 334.643C390.885 335.635 390.363 337.097 389.684 339.029C389.005 340.909 388.065 343.468 386.864 346.705C385.715 349.943 384.227 354.016 382.399 358.924C380.624 363.833 378.457 369.786 375.898 376.783H373.705ZM419.469 377.253C415.814 377.253 412.498 376.418 409.521 374.747C406.545 373.024 404.169 370.674 402.393 367.697C400.67 364.668 399.808 361.222 399.808 357.358C399.808 353.233 400.67 349.525 402.393 346.235C404.117 342.945 406.466 340.361 409.443 338.481C412.419 336.549 415.761 335.583 419.469 335.583C423.124 335.583 426.44 336.47 429.417 338.246C432.393 339.969 434.769 342.319 436.544 345.295C438.32 348.272 439.208 351.666 439.208 355.478C439.208 359.499 438.32 363.18 436.544 366.522C434.821 369.812 432.471 372.423 429.495 374.355C426.518 376.287 423.176 377.253 419.469 377.253ZM420.095 374.12C422.863 374.12 425.056 373.337 426.675 371.77C428.294 370.204 429.443 368.167 430.122 365.661C430.853 363.154 431.218 360.517 431.218 357.749C431.218 355.4 430.983 353.102 430.513 350.857C430.095 348.559 429.417 346.496 428.477 344.669C427.537 342.789 426.31 341.301 424.795 340.204C423.333 339.107 421.558 338.559 419.469 338.559C416.753 338.559 414.534 339.342 412.811 340.909C411.088 342.475 409.808 344.512 408.973 347.019C408.19 349.525 407.798 352.214 407.798 355.086C407.798 358.324 408.242 361.405 409.13 364.329C410.017 367.201 411.375 369.551 413.203 371.379C415.03 373.206 417.328 374.12 420.095 374.12ZM445.862 373.65C447.481 373.65 448.604 373.259 449.231 372.475C449.857 371.64 450.223 370.517 450.327 369.107C450.432 367.645 450.484 365.974 450.484 364.094V346.235C450.484 345.4 450.51 344.616 450.562 343.885C450.614 343.102 450.693 342.188 450.797 341.144C449.857 341.196 448.917 341.248 447.977 341.301C447.09 341.353 446.176 341.405 445.236 341.457V338.167C447.533 338.167 449.309 338.063 450.562 337.854C451.815 337.645 452.755 337.384 453.382 337.071C454.061 336.757 454.583 336.418 454.949 336.053H457.22V367.697C457.22 368.742 457.194 369.682 457.142 370.517C457.142 371.3 457.063 372.136 456.907 373.024C457.742 372.971 458.552 372.945 459.335 372.945C460.17 372.893 461.006 372.841 461.841 372.789V376H445.862V373.65ZM453.46 328.298C452.364 328.298 451.398 327.854 450.562 326.966C449.727 326.079 449.309 324.982 449.309 323.677C449.309 322.371 449.727 321.275 450.562 320.387C451.45 319.447 452.442 318.977 453.539 318.977C454.74 318.977 455.732 319.447 456.515 320.387C457.351 321.275 457.768 322.371 457.768 323.677C457.768 324.982 457.325 326.079 456.437 326.966C455.601 327.854 454.609 328.298 453.46 328.298ZM487.004 377.253C483.506 377.253 480.268 376.47 477.292 374.903C474.367 373.285 472.018 370.987 470.242 368.011C468.519 364.982 467.657 361.353 467.657 357.123C467.657 354.407 468.153 351.77 469.146 349.212C470.138 346.653 471.522 344.355 473.297 342.319C475.125 340.23 477.292 338.585 479.798 337.384C482.305 336.183 485.072 335.583 488.101 335.583C491.025 335.583 493.558 336.026 495.699 336.914C497.892 337.802 499.589 338.977 500.79 340.439C501.991 341.901 502.592 343.494 502.592 345.217C502.592 346.366 502.278 347.358 501.652 348.193C501.025 348.977 500.111 349.368 498.91 349.368C497.605 349.421 496.665 349.029 496.091 348.193C495.568 347.306 495.307 346.522 495.307 345.844C495.307 345.321 495.386 344.799 495.542 344.277C495.699 343.703 496.012 343.18 496.482 342.71C496.064 341.457 495.333 340.543 494.289 339.969C493.245 339.342 492.148 338.951 490.999 338.794C489.903 338.585 488.989 338.481 488.258 338.481C484.707 338.481 481.704 339.917 479.25 342.789C476.848 345.609 475.647 349.734 475.647 355.165C475.647 358.663 476.195 361.77 477.292 364.486C478.441 367.201 480.033 369.342 482.07 370.909C484.106 372.423 486.456 373.18 489.119 373.18C491.574 373.18 493.923 372.527 496.169 371.222C498.414 369.916 500.164 368.324 501.417 366.444L503.453 368.011C502.096 370.204 500.451 371.979 498.519 373.337C496.639 374.695 494.681 375.687 492.644 376.313C490.66 376.94 488.78 377.253 487.004 377.253ZM528.154 377.253C524.551 377.253 521.287 376.418 518.363 374.747C515.491 373.024 513.219 370.621 511.548 367.541C509.877 364.407 509.042 360.726 509.042 356.496C509.042 352.841 509.851 349.421 511.47 346.235C513.141 343.05 515.465 340.491 518.441 338.559C521.418 336.575 524.864 335.583 528.78 335.583C530.974 335.583 533.01 335.948 534.89 336.679C536.822 337.358 538.519 338.428 539.981 339.891C541.443 341.301 542.592 343.102 543.428 345.295C544.263 347.436 544.681 349.969 544.681 352.893L517.109 353.363C517.109 357.332 517.527 360.83 518.363 363.859C519.25 366.836 520.66 369.159 522.592 370.83C524.525 372.449 527.005 373.259 530.034 373.259C531.652 373.259 533.297 372.971 534.968 372.397C536.692 371.822 538.284 371.039 539.746 370.047C541.208 369.055 542.383 367.958 543.271 366.757L545.151 368.324C543.741 370.517 542.044 372.266 540.06 373.572C538.075 374.877 536.039 375.817 533.95 376.392C531.861 376.966 529.929 377.253 528.154 377.253ZM517.344 350.073H537.318C537.318 348.193 537.031 346.392 536.457 344.669C535.934 342.893 535.047 341.457 533.793 340.361C532.54 339.212 530.895 338.637 528.859 338.637C525.83 338.637 523.297 339.551 521.261 341.379C519.277 343.154 517.971 346.052 517.344 350.073ZM567.709 377.253C565.098 377.253 562.774 376.888 560.738 376.157C558.701 375.478 557.03 374.695 555.725 373.807L556.038 376.548H552.748L552.278 363.076H554.706C554.811 365.217 555.411 367.149 556.508 368.872C557.605 370.543 559.015 371.849 560.738 372.789C562.461 373.728 564.315 374.198 566.299 374.198C567.657 374.198 568.988 373.99 570.294 373.572C571.599 373.102 572.696 372.423 573.584 371.535C574.471 370.595 574.915 369.42 574.915 368.011C574.915 366.548 574.471 365.347 573.584 364.407C572.748 363.415 571.625 362.554 570.215 361.823C568.806 361.092 567.291 360.413 565.672 359.786C564.106 359.159 562.539 358.507 560.973 357.828C559.406 357.149 557.944 356.34 556.586 355.4C555.281 354.46 554.236 353.311 553.453 351.953C552.67 350.596 552.278 348.924 552.278 346.94C552.278 345.844 552.487 344.643 552.905 343.337C553.323 342.032 554.028 340.804 555.02 339.656C556.012 338.455 557.37 337.489 559.093 336.757C560.816 335.974 563.009 335.583 565.672 335.583C567.082 335.583 568.649 335.818 570.372 336.288C572.095 336.757 573.766 337.645 575.385 338.951L575.228 335.974H578.518V349.682H576.012C575.907 347.854 575.49 346.105 574.759 344.434C574.027 342.71 572.957 341.301 571.547 340.204C570.137 339.055 568.309 338.481 566.064 338.481C563.662 338.481 561.782 339.081 560.424 340.282C559.067 341.483 558.388 342.867 558.388 344.434C558.388 346.052 558.884 347.41 559.876 348.507C560.921 349.551 562.252 350.465 563.871 351.248C565.49 352.032 567.213 352.789 569.041 353.52C571.025 354.355 572.957 355.269 574.837 356.261C576.717 357.253 578.257 358.507 579.458 360.021C580.659 361.483 581.26 363.389 581.26 365.739C581.26 368.35 580.581 370.517 579.223 372.24C577.918 373.963 576.221 375.217 574.132 376C572.095 376.836 569.954 377.253 567.709 377.253ZM593.705 390.021L591.591 388.454C592.165 387.723 592.765 386.679 593.392 385.321C594.019 383.963 594.515 382.449 594.88 380.778C595.298 379.159 595.403 377.567 595.194 376C594.828 376.157 594.489 376.261 594.175 376.313C593.862 376.418 593.549 376.47 593.235 376.47C592.243 376.47 591.382 376.104 590.651 375.373C589.972 374.642 589.632 373.728 589.632 372.632C589.632 371.17 590.05 370.047 590.886 369.264C591.773 368.48 592.792 368.089 593.94 368.089C595.768 368.089 597.152 368.794 598.092 370.204C599.032 371.561 599.502 373.232 599.502 375.217C599.502 376.522 599.241 378.115 598.718 379.995C598.248 381.875 597.57 383.702 596.682 385.478C595.846 387.305 594.854 388.82 593.705 390.021ZM644.824 323.755C643.101 323.755 641.848 324.121 641.065 324.852C640.334 325.583 639.89 326.444 639.733 327.436C639.576 328.376 639.498 329.212 639.498 329.943V349.682C639.498 352.606 639.681 355.452 640.046 358.219C640.464 360.935 641.221 363.389 642.318 365.582C643.415 367.776 645.033 369.525 647.174 370.83C649.367 372.136 652.213 372.789 655.712 372.789C659.472 372.789 662.527 371.901 664.876 370.125C667.279 368.35 669.028 365.896 670.124 362.763C671.273 359.629 671.874 356.026 671.926 351.953L672.161 329.943C672.161 328.899 672.187 327.906 672.239 326.966C672.292 325.974 672.344 325.087 672.396 324.303C671.456 324.356 670.516 324.408 669.576 324.46C668.688 324.512 667.775 324.564 666.835 324.617V321.17H681.404V323.755C679.419 323.807 678.036 324.251 677.252 325.087C676.521 325.922 676.104 327.045 675.999 328.455C675.947 329.865 675.921 331.509 675.921 333.389L675.764 351.562C675.764 354.956 675.399 358.193 674.668 361.274C673.936 364.355 672.735 367.097 671.064 369.499C669.446 371.901 667.279 373.807 664.563 375.217C661.9 376.574 658.61 377.253 654.694 377.253C650.516 377.253 646.992 376.705 644.119 375.608C641.3 374.512 639.028 372.815 637.305 370.517C635.634 368.219 634.433 365.321 633.702 361.823C632.971 358.324 632.605 354.146 632.605 349.29V333.389C632.605 332.032 632.631 330.439 632.684 328.611C632.788 326.731 632.866 325.295 632.919 324.303C631.979 324.356 631.039 324.408 630.099 324.46C629.159 324.46 628.219 324.486 627.279 324.538V321.17H644.824V323.755ZM687.196 376V373.65C688.815 373.65 689.938 373.259 690.565 372.475C691.191 371.64 691.557 370.517 691.661 369.107C691.766 367.645 691.818 365.974 691.818 364.094L691.896 346.235C691.896 345.4 691.896 344.564 691.896 343.729C691.948 342.893 692.053 342.032 692.209 341.144C691.27 341.196 690.33 341.248 689.39 341.301C688.502 341.353 687.588 341.405 686.648 341.457V338.167C688.946 338.167 690.669 338.063 691.818 337.854C693.019 337.645 693.907 337.384 694.481 337.071C695.055 336.757 695.525 336.418 695.891 336.053H698.162C698.215 336.418 698.241 336.836 698.241 337.306C698.293 337.776 698.345 338.298 698.397 338.872C698.45 339.447 698.476 340.1 698.476 340.831C699.625 339.838 700.878 338.951 702.235 338.167C703.645 337.384 705.108 336.757 706.622 336.288C708.188 335.818 709.729 335.583 711.243 335.583C715.786 335.583 719.102 337.019 721.191 339.891C723.28 342.71 724.324 347.123 724.324 353.128V367.697C724.324 368.742 724.298 369.682 724.246 370.517C724.246 371.3 724.167 372.136 724.011 373.024C724.846 372.971 725.656 372.945 726.439 372.945C727.274 372.893 728.11 372.841 728.945 372.789V376H712.966V373.65C714.585 373.65 715.708 373.259 716.335 372.475C716.961 371.64 717.327 370.517 717.431 369.107C717.536 367.645 717.588 365.974 717.588 364.094V353.128C717.536 348.637 716.778 345.243 715.316 342.945C713.906 340.648 711.661 339.525 708.58 339.577C706.7 339.63 704.846 340.126 703.019 341.066C701.243 342.005 699.755 343.207 698.554 344.669C698.606 345.086 698.632 345.556 698.632 346.079C698.632 346.601 698.632 347.149 698.632 347.723L698.554 367.697C698.554 368.742 698.528 369.682 698.476 370.517C698.476 371.3 698.397 372.136 698.241 373.024C699.076 372.971 699.886 372.945 700.669 372.945C701.504 372.893 702.34 372.841 703.175 372.789V376H687.196ZM733.991 373.65C735.61 373.65 736.733 373.259 737.36 372.475C737.986 371.64 738.352 370.517 738.456 369.107C738.561 367.645 738.613 365.974 738.613 364.094V327.045C738.613 326.209 738.613 325.426 738.613 324.695C738.665 323.912 738.743 322.998 738.848 321.953C737.908 322.006 736.968 322.058 736.028 322.11C735.14 322.162 734.226 322.215 733.287 322.267V318.977C735.584 318.977 737.36 318.873 738.613 318.664C739.918 318.455 740.884 318.194 741.511 317.88C742.19 317.567 742.712 317.228 743.078 316.862H745.349L745.427 367.697C745.427 368.742 745.401 369.682 745.349 370.517C745.297 371.3 745.192 372.136 745.036 373.024C745.871 372.971 746.681 372.945 747.464 372.945C748.299 372.893 749.135 372.841 749.97 372.789V376H733.991V373.65ZM756.116 373.65C757.735 373.65 758.858 373.259 759.484 372.475C760.111 371.64 760.476 370.517 760.581 369.107C760.685 367.645 760.738 365.974 760.738 364.094V346.235C760.738 345.4 760.764 344.616 760.816 343.885C760.868 343.102 760.946 342.188 761.051 341.144C760.111 341.196 759.171 341.248 758.231 341.301C757.343 341.353 756.429 341.405 755.49 341.457V338.167C757.787 338.167 759.563 338.063 760.816 337.854C762.069 337.645 763.009 337.384 763.636 337.071C764.315 336.757 764.837 336.418 765.202 336.053H767.474V367.697C767.474 368.742 767.448 369.682 767.395 370.517C767.395 371.3 767.317 372.136 767.16 373.024C767.996 372.971 768.805 372.945 769.589 372.945C770.424 372.893 771.26 372.841 772.095 372.789V376H756.116V373.65ZM763.714 328.298C762.617 328.298 761.651 327.854 760.816 326.966C759.98 326.079 759.563 324.982 759.563 323.677C759.563 322.371 759.98 321.275 760.816 320.387C761.704 319.447 762.696 318.977 763.792 318.977C764.993 318.977 765.986 319.447 766.769 320.387C767.604 321.275 768.022 322.371 768.022 323.677C768.022 324.982 767.578 326.079 766.691 326.966C765.855 327.854 764.863 328.298 763.714 328.298ZM778.146 376V373.65C779.765 373.65 780.888 373.259 781.514 372.475C782.141 371.64 782.506 370.517 782.611 369.107C782.715 367.645 782.767 365.974 782.767 364.094V346.235C782.767 345.4 782.767 344.564 782.767 343.729C782.82 342.893 782.924 342.032 783.081 341.144C782.141 341.196 781.201 341.248 780.261 341.301C779.373 341.353 778.459 341.405 777.519 341.457V338.167C779.817 338.167 781.54 338.063 782.689 337.854C783.89 337.645 784.778 337.384 785.352 337.071C785.927 336.757 786.397 336.418 786.762 336.053H789.034C789.138 336.575 789.19 337.175 789.19 337.854C789.243 338.533 789.295 339.316 789.347 340.204C790.914 338.846 792.715 337.75 794.752 336.914C796.788 336.026 798.825 335.583 800.861 335.583C803.472 335.583 805.665 336.053 807.441 336.992C809.216 337.932 810.6 339.212 811.592 340.831C813.368 339.368 815.404 338.141 817.702 337.149C820.052 336.105 822.349 335.583 824.595 335.583C829.138 335.583 832.48 336.966 834.621 339.734C836.762 342.449 837.78 346.914 837.676 353.128L837.597 367.697C837.597 368.742 837.571 369.682 837.519 370.517C837.519 371.3 837.441 372.136 837.284 373.024C838.119 372.971 838.929 372.945 839.712 372.945C840.548 372.893 841.383 372.841 842.219 372.789V376H826.24V373.65C827.858 373.65 828.981 373.259 829.608 372.475C830.234 371.64 830.6 370.517 830.704 369.107C830.809 367.645 830.861 365.974 830.861 364.094V353.128C830.861 348.637 830.13 345.269 828.668 343.024C827.258 340.778 825.013 339.682 821.932 339.734C820.313 339.734 818.694 340.1 817.075 340.831C815.456 341.562 814.047 342.475 812.845 343.572C813.107 344.408 813.289 345.321 813.394 346.314C813.55 347.253 813.629 348.246 813.629 349.29C813.577 352.319 813.55 355.374 813.55 358.454C813.55 361.535 813.524 364.616 813.472 367.697C813.472 368.742 813.446 369.682 813.394 370.517C813.394 371.3 813.315 372.136 813.159 373.024C813.994 372.971 814.804 372.945 815.587 372.945C816.422 372.893 817.258 372.841 818.093 372.789V376H802.115V373.65C803.733 373.65 804.83 373.259 805.404 372.475C806.031 371.64 806.396 370.517 806.501 369.107C806.658 367.645 806.736 365.974 806.736 364.094L806.814 353.128C806.866 348.637 806.214 345.243 804.856 342.945C803.498 340.648 801.279 339.525 798.198 339.577C796.579 339.577 794.987 339.943 793.42 340.674C791.853 341.353 790.522 342.24 789.425 343.337C789.425 343.964 789.425 344.643 789.425 345.374C789.478 346.052 789.504 346.784 789.504 347.567V367.697C789.504 368.742 789.478 369.682 789.425 370.517C789.425 371.3 789.347 372.136 789.19 373.024C790.026 372.971 790.835 372.945 791.619 372.945C792.454 372.893 793.29 372.841 794.125 372.789V376H778.146ZM848.137 373.65C849.755 373.65 850.878 373.259 851.505 372.475C852.131 371.64 852.497 370.517 852.601 369.107C852.706 367.645 852.758 365.974 852.758 364.094V346.235C852.758 345.4 852.784 344.616 852.836 343.885C852.889 343.102 852.967 342.188 853.071 341.144C852.131 341.196 851.192 341.248 850.252 341.301C849.364 341.353 848.45 341.405 847.51 341.457V338.167C849.808 338.167 851.583 338.063 852.836 337.854C854.09 337.645 855.03 337.384 855.656 337.071C856.335 336.757 856.857 336.418 857.223 336.053H859.494V367.697C859.494 368.742 859.468 369.682 859.416 370.517C859.416 371.3 859.338 372.136 859.181 373.024C860.016 372.971 860.826 372.945 861.609 372.945C862.445 372.893 863.28 372.841 864.116 372.789V376H848.137V373.65ZM855.735 328.298C854.638 328.298 853.672 327.854 852.836 326.966C852.001 326.079 851.583 324.982 851.583 323.677C851.583 322.371 852.001 321.275 852.836 320.387C853.724 319.447 854.716 318.977 855.813 318.977C857.014 318.977 858.006 319.447 858.789 320.387C859.625 321.275 860.043 322.371 860.043 323.677C860.043 324.982 859.599 326.079 858.711 326.966C857.876 327.854 856.883 328.298 855.735 328.298ZM886.116 377.253C884.915 377.253 883.688 377.07 882.435 376.705C881.181 376.392 880.007 375.739 878.91 374.747C877.866 373.755 877.03 372.319 876.403 370.439C875.777 368.507 875.463 365.974 875.463 362.841L875.62 340.126L869.589 340.204V336.836C870.947 336.784 872.33 336.288 873.74 335.348C875.15 334.355 876.403 333.024 877.5 331.353C878.649 329.682 879.432 327.854 879.85 325.87H882.513V336.836H895.672V339.891L882.513 340.047L882.356 361.823C882.356 364.172 882.539 366.183 882.905 367.854C883.322 369.473 883.975 370.7 884.863 371.535C885.751 372.371 886.899 372.789 888.309 372.789C889.771 372.789 891.129 372.371 892.382 371.535C893.688 370.7 894.837 369.551 895.829 368.089L897.944 369.812C896.795 371.535 895.646 372.893 894.497 373.885C893.401 374.877 892.33 375.608 891.286 376.078C890.241 376.601 889.275 376.914 888.388 377.018C887.5 377.175 886.743 377.253 886.116 377.253ZM920.637 377.253C917.034 377.253 913.77 376.418 910.846 374.747C907.974 373.024 905.702 370.621 904.031 367.541C902.36 364.407 901.525 360.726 901.525 356.496C901.525 352.841 902.334 349.421 903.953 346.235C905.624 343.05 907.948 340.491 910.924 338.559C913.901 336.575 917.347 335.583 921.264 335.583C923.457 335.583 925.493 335.948 927.373 336.679C929.305 337.358 931.002 338.428 932.465 339.891C933.927 341.301 935.075 343.102 935.911 345.295C936.746 347.436 937.164 349.969 937.164 352.893L909.593 353.363C909.593 357.332 910.01 360.83 910.846 363.859C911.734 366.836 913.144 369.159 915.076 370.83C917.008 372.449 919.488 373.259 922.517 373.259C924.136 373.259 925.781 372.971 927.452 372.397C929.175 371.822 930.767 371.039 932.23 370.047C933.692 369.055 934.867 367.958 935.754 366.757L937.634 368.324C936.224 370.517 934.527 372.266 932.543 373.572C930.559 374.877 928.522 375.817 926.433 376.392C924.344 376.966 922.412 377.253 920.637 377.253ZM909.828 350.073H929.801C929.801 348.193 929.514 346.392 928.94 344.669C928.418 342.893 927.53 341.457 926.277 340.361C925.023 339.212 923.378 338.637 921.342 338.637C918.313 338.637 915.781 339.551 913.744 341.379C911.76 343.154 910.454 346.052 909.828 350.073ZM960.515 377.253C957.329 377.253 954.457 376.47 951.899 374.903C949.34 373.285 947.303 370.987 945.789 368.011C944.327 365.034 943.596 361.535 943.596 357.515C943.596 353.233 944.457 349.447 946.181 346.157C947.904 342.867 950.28 340.282 953.308 338.402C956.389 336.523 959.862 335.583 963.726 335.583C965.449 335.583 967.146 335.818 968.817 336.288C970.541 336.705 971.898 337.201 972.891 337.776V327.045C972.891 326.209 972.891 325.426 972.891 324.695C972.943 323.912 973.021 322.998 973.125 321.953C972.186 322.006 971.246 322.058 970.306 322.11C969.418 322.162 968.504 322.215 967.564 322.267V318.977C969.862 318.977 971.637 318.873 972.891 318.664C974.144 318.455 975.084 318.194 975.71 317.88C976.389 317.567 976.911 317.228 977.277 316.862H979.548V367.697C979.548 368.533 979.522 369.368 979.47 370.204C979.418 371.039 979.34 371.979 979.235 373.024C980.175 372.971 981.089 372.919 981.977 372.867C982.917 372.815 983.856 372.762 984.796 372.71V376H973.595C973.439 375.217 973.308 374.512 973.204 373.885C973.152 373.206 973.099 372.554 973.047 371.927C971.585 373.546 969.783 374.851 967.643 375.843C965.502 376.783 963.126 377.253 960.515 377.253ZM963.334 373.415C965.058 373.415 966.781 372.919 968.504 371.927C970.28 370.935 971.742 369.708 972.891 368.245C972.838 367.619 972.812 366.966 972.812 366.287C972.812 365.556 972.812 364.773 972.812 363.937L972.891 341.379C971.637 340.439 970.253 339.76 968.739 339.342C967.277 338.872 965.763 338.637 964.196 338.637C961.585 338.637 959.314 339.395 957.381 340.909C955.449 342.423 953.987 344.538 952.995 347.253C952.003 349.969 951.559 353.154 951.664 356.81C951.768 359.995 952.264 362.841 953.152 365.347C954.092 367.854 955.397 369.838 957.068 371.3C958.791 372.71 960.88 373.415 963.334 373.415ZM83.3081 456.415C85.2924 456.311 86.6501 455.867 87.3811 455.084C88.1122 454.248 88.5038 453.125 88.5561 451.715C88.6605 450.253 88.7127 448.608 88.7127 446.781V412.943C88.7127 411.899 88.7388 410.906 88.791 409.966C88.8433 408.974 88.8955 408.087 88.9477 407.303C88.0078 407.356 87.0678 407.408 86.1279 407.46C85.1879 407.512 84.248 407.564 83.3081 407.617V404.17C86.0757 404.118 88.9216 404.092 91.8459 404.092C94.7701 404.04 97.7466 404.013 100.775 404.013C105.841 404.013 110.096 404.588 113.543 405.737C116.989 406.886 119.626 408.583 121.454 410.828C123.282 413.073 124.274 415.867 124.43 419.209C124.535 421.246 124.222 423.387 123.491 425.632C122.812 427.825 121.506 429.914 119.574 431.898C117.694 433.83 115.031 435.397 111.585 436.598C108.138 437.799 103.726 438.4 98.3471 438.4C98.1382 438.4 97.7466 438.4 97.1722 438.4C96.5978 438.4 96.0495 438.374 95.5273 438.321V449.679C95.5273 451.089 95.5012 452.316 95.449 453.36C95.449 454.353 95.3967 455.188 95.2923 455.867C96.1278 455.815 96.9372 455.762 97.7205 455.71C98.5038 455.658 99.287 455.632 100.07 455.632C100.906 455.58 101.715 455.527 102.499 455.475V459H83.3081V456.415ZM95.5273 435.11C96.5194 435.214 97.3549 435.293 98.0338 435.345C98.7649 435.345 99.6265 435.345 100.619 435.345C103.595 435.345 106.31 434.77 108.765 433.622C111.219 432.421 113.177 430.723 114.639 428.53C116.102 426.337 116.833 423.726 116.833 420.697C116.833 418.243 116.441 416.154 115.658 414.431C114.874 412.656 113.752 411.246 112.29 410.201C110.88 409.105 109.183 408.322 107.198 407.852C105.214 407.329 103.021 407.068 100.619 407.068C98.791 407.068 97.5116 407.46 96.7805 408.243C96.1017 409.027 95.7101 410.123 95.6056 411.533C95.5534 412.891 95.5273 414.509 95.5273 416.389V435.11ZM148.609 460.253C144.953 460.253 141.638 459.418 138.661 457.747C135.685 456.024 133.309 453.674 131.533 450.697C129.81 447.668 128.948 444.222 128.948 440.358C128.948 436.233 129.81 432.525 131.533 429.235C133.256 425.945 135.606 423.361 138.583 421.481C141.559 419.549 144.901 418.583 148.609 418.583C152.264 418.583 155.58 419.47 158.557 421.246C161.533 422.969 163.909 425.319 165.684 428.295C167.46 431.272 168.348 434.666 168.348 438.478C168.348 442.499 167.46 446.18 165.684 449.522C163.961 452.812 161.611 455.423 158.635 457.355C155.658 459.287 152.316 460.253 148.609 460.253ZM149.235 457.12C152.003 457.12 154.196 456.337 155.815 454.77C157.434 453.204 158.583 451.167 159.261 448.661C159.993 446.154 160.358 443.517 160.358 440.749C160.358 438.4 160.123 436.102 159.653 433.857C159.235 431.559 158.557 429.496 157.617 427.669C156.677 425.789 155.449 424.301 153.935 423.204C152.473 422.107 150.698 421.559 148.609 421.559C145.893 421.559 143.674 422.342 141.951 423.909C140.228 425.475 138.948 427.512 138.113 430.019C137.33 432.525 136.938 435.214 136.938 438.086C136.938 441.324 137.382 444.405 138.269 447.329C139.157 450.201 140.515 452.551 142.343 454.379C144.17 456.206 146.468 457.12 149.235 457.12ZM189.728 460.253C188.527 460.253 187.3 460.07 186.047 459.705C184.793 459.392 183.619 458.739 182.522 457.747C181.478 456.755 180.642 455.319 180.015 453.439C179.389 451.507 179.075 448.974 179.075 445.841L179.232 423.126L173.201 423.204V419.836C174.559 419.784 175.942 419.288 177.352 418.348C178.762 417.355 180.015 416.024 181.112 414.353C182.261 412.682 183.044 410.854 183.462 408.87H186.125V419.836H199.284V422.891L186.125 423.047L185.968 444.823C185.968 447.172 186.151 449.183 186.517 450.854C186.934 452.473 187.587 453.7 188.475 454.535C189.363 455.371 190.511 455.789 191.921 455.789C193.383 455.789 194.741 455.371 195.994 454.535C197.3 453.7 198.449 452.551 199.441 451.089L201.556 452.812C200.407 454.535 199.258 455.893 198.109 456.885C197.013 457.877 195.942 458.608 194.898 459.078C193.853 459.601 192.887 459.914 192 460.018C191.112 460.175 190.355 460.253 189.728 460.253ZM224.249 460.253C220.646 460.253 217.382 459.418 214.458 457.747C211.586 456.024 209.314 453.621 207.643 450.541C205.972 447.407 205.137 443.726 205.137 439.496C205.137 435.841 205.946 432.421 207.565 429.235C209.236 426.05 211.56 423.491 214.536 421.559C217.513 419.575 220.959 418.583 224.876 418.583C227.069 418.583 229.105 418.948 230.985 419.679C232.917 420.358 234.614 421.428 236.076 422.891C237.539 424.301 238.687 426.102 239.523 428.295C240.358 430.436 240.776 432.969 240.776 435.893L213.205 436.363C213.205 440.332 213.622 443.83 214.458 446.859C215.346 449.836 216.756 452.159 218.688 453.83C220.62 455.449 223.1 456.259 226.129 456.259C227.748 456.259 229.392 455.971 231.063 455.397C232.787 454.822 234.379 454.039 235.842 453.047C237.304 452.055 238.479 450.958 239.366 449.757L241.246 451.324C239.836 453.517 238.139 455.266 236.155 456.572C234.171 457.877 232.134 458.817 230.045 459.392C227.956 459.966 226.024 460.253 224.249 460.253ZM213.44 433.073H233.413C233.413 431.193 233.126 429.392 232.552 427.669C232.03 425.893 231.142 424.457 229.889 423.361C228.635 422.212 226.99 421.637 224.954 421.637C221.925 421.637 219.393 422.551 217.356 424.379C215.372 426.154 214.066 429.052 213.44 433.073ZM247.747 459V456.65C249.366 456.65 250.488 456.259 251.115 455.475C251.742 454.64 252.107 453.517 252.212 452.107C252.316 450.645 252.368 448.974 252.368 447.094L252.447 429.235C252.447 428.4 252.447 427.564 252.447 426.729C252.499 425.893 252.603 425.032 252.76 424.144C251.82 424.196 250.88 424.248 249.94 424.301C249.052 424.353 248.138 424.405 247.199 424.457V421.167C249.496 421.167 251.219 421.063 252.368 420.854C253.569 420.645 254.457 420.384 255.031 420.071C255.606 419.757 256.076 419.418 256.441 419.053H258.713C258.765 419.418 258.791 419.836 258.791 420.306C258.843 420.776 258.896 421.298 258.948 421.872C259 422.447 259.026 423.1 259.026 423.831C260.175 422.838 261.428 421.951 262.786 421.167C264.196 420.384 265.658 419.757 267.172 419.288C268.739 418.818 270.279 418.583 271.794 418.583C276.337 418.583 279.653 420.019 281.741 422.891C283.83 425.71 284.874 430.123 284.874 436.128V450.697C284.874 451.742 284.848 452.682 284.796 453.517C284.796 454.3 284.718 455.136 284.561 456.024C285.397 455.971 286.206 455.945 286.989 455.945C287.825 455.893 288.66 455.841 289.496 455.789V459H273.517V456.65C275.136 456.65 276.258 456.259 276.885 455.475C277.512 454.64 277.877 453.517 277.982 452.107C278.086 450.645 278.138 448.974 278.138 447.094V436.128C278.086 431.637 277.329 428.243 275.867 425.945C274.457 423.648 272.211 422.525 269.13 422.577C267.251 422.63 265.397 423.126 263.569 424.066C261.794 425.005 260.305 426.207 259.104 427.669C259.157 428.086 259.183 428.556 259.183 429.079C259.183 429.601 259.183 430.149 259.183 430.723L259.104 450.697C259.104 451.742 259.078 452.682 259.026 453.517C259.026 454.3 258.948 455.136 258.791 456.024C259.627 455.971 260.436 455.945 261.219 455.945C262.055 455.893 262.89 455.841 263.726 455.789V459H247.747ZM309.362 460.253C308.161 460.253 306.934 460.07 305.681 459.705C304.428 459.392 303.253 458.739 302.156 457.747C301.112 456.755 300.276 455.319 299.65 453.439C299.023 451.507 298.71 448.974 298.71 445.841L298.866 423.126L292.835 423.204V419.836C294.193 419.784 295.577 419.288 296.987 418.348C298.397 417.355 299.65 416.024 300.746 414.353C301.895 412.682 302.678 410.854 303.096 408.87H305.759V419.836H318.919V422.891L305.759 423.047L305.603 444.823C305.603 447.172 305.785 449.183 306.151 450.854C306.569 452.473 307.221 453.7 308.109 454.535C308.997 455.371 310.146 455.789 311.556 455.789C313.018 455.789 314.375 455.371 315.629 454.535C316.934 453.7 318.083 452.551 319.075 451.089L321.19 452.812C320.041 454.535 318.892 455.893 317.744 456.885C316.647 457.877 315.577 458.608 314.532 459.078C313.488 459.601 312.522 459.914 311.634 460.018C310.746 460.175 309.989 460.253 309.362 460.253ZM324.928 456.65C326.547 456.65 327.669 456.259 328.296 455.475C328.923 454.64 329.288 453.517 329.392 452.107C329.497 450.645 329.549 448.974 329.549 447.094V429.235C329.549 428.4 329.575 427.616 329.627 426.885C329.68 426.102 329.758 425.188 329.862 424.144C328.923 424.196 327.983 424.248 327.043 424.301C326.155 424.353 325.241 424.405 324.301 424.457V421.167C326.599 421.167 328.374 421.063 329.627 420.854C330.881 420.645 331.821 420.384 332.447 420.071C333.126 419.757 333.648 419.418 334.014 419.053H336.285V450.697C336.285 451.742 336.259 452.682 336.207 453.517C336.207 454.3 336.129 455.136 335.972 456.024C336.808 455.971 337.617 455.945 338.4 455.945C339.236 455.893 340.071 455.841 340.907 455.789V459H324.928V456.65ZM332.526 411.298C331.429 411.298 330.463 410.854 329.627 409.966C328.792 409.079 328.374 407.982 328.374 406.677C328.374 405.371 328.792 404.275 329.627 403.387C330.515 402.447 331.507 401.977 332.604 401.977C333.805 401.977 334.797 402.447 335.58 403.387C336.416 404.275 336.834 405.371 336.834 406.677C336.834 407.982 336.39 409.079 335.502 409.966C334.667 410.854 333.674 411.298 332.526 411.298ZM370.769 459C370.613 458.112 370.508 457.329 370.456 456.65C370.404 455.971 370.326 455.266 370.221 454.535C368.446 456.311 366.514 457.721 364.425 458.765C362.388 459.757 360.221 460.253 357.924 460.253C353.955 460.253 351.005 459.366 349.072 457.59C347.14 455.762 346.174 453.543 346.174 450.932C346.174 448.53 346.905 446.467 348.368 444.744C349.882 442.969 351.814 441.533 354.164 440.436C356.566 439.287 359.151 438.452 361.918 437.93C364.738 437.355 367.454 437.094 370.064 437.146V432.29C370.064 430.462 369.908 428.739 369.595 427.12C369.281 425.502 368.602 424.17 367.558 423.126C366.514 422.081 364.843 421.533 362.545 421.481C361.031 421.428 359.464 421.716 357.845 422.342C356.279 422.969 355.13 424.039 354.399 425.554C354.817 425.972 355.078 426.468 355.182 427.042C355.339 427.564 355.417 428.06 355.417 428.53C355.417 429.157 355.156 429.888 354.634 430.723C354.112 431.507 353.198 431.872 351.892 431.82C350.796 431.82 349.96 431.455 349.386 430.723C348.811 429.94 348.524 429.026 348.524 427.982C348.524 426.207 349.177 424.614 350.482 423.204C351.84 421.794 353.694 420.671 356.044 419.836C358.394 419 361.057 418.583 364.033 418.583C368.42 418.583 371.657 419.757 373.746 422.107C375.835 424.405 376.853 428.06 376.801 433.073C376.801 435.005 376.801 436.964 376.801 438.948C376.801 440.88 376.775 442.838 376.722 444.823C376.722 446.755 376.722 448.713 376.722 450.697C376.722 451.533 376.696 452.368 376.644 453.204C376.592 454.039 376.514 454.979 376.409 456.024C377.349 455.971 378.263 455.919 379.151 455.867C380.091 455.815 381.03 455.762 381.97 455.71V459H370.769ZM370.064 439.81C368.289 439.862 366.409 440.097 364.425 440.515C362.493 440.88 360.691 441.454 359.02 442.238C357.401 443.021 356.07 444.065 355.025 445.371C354.033 446.624 353.563 448.165 353.616 449.992C353.72 451.924 354.347 453.386 355.495 454.379C356.696 455.319 358.106 455.789 359.725 455.789C361.866 455.789 363.72 455.397 365.286 454.614C366.905 453.778 368.498 452.629 370.064 451.167C370.012 450.593 369.986 449.966 369.986 449.287C369.986 448.608 369.986 447.903 369.986 447.172C369.986 446.911 369.986 446.076 369.986 444.666C370.038 443.256 370.064 441.637 370.064 439.81ZM386.562 456.65C388.181 456.65 389.304 456.259 389.931 455.475C390.557 454.64 390.923 453.517 391.027 452.107C391.132 450.645 391.184 448.974 391.184 447.094V410.045C391.184 409.209 391.184 408.426 391.184 407.695C391.236 406.912 391.314 405.998 391.419 404.953C390.479 405.006 389.539 405.058 388.599 405.11C387.711 405.162 386.797 405.215 385.857 405.267V401.977C388.155 401.977 389.931 401.873 391.184 401.664C392.489 401.455 393.455 401.194 394.082 400.88C394.761 400.567 395.283 400.228 395.648 399.862H397.92L397.998 450.697C397.998 451.742 397.972 452.682 397.92 453.517C397.868 454.3 397.763 455.136 397.607 456.024C398.442 455.971 399.252 455.945 400.035 455.945C400.87 455.893 401.706 455.841 402.541 455.789V459H386.562V456.65ZM414.483 473.021L412.369 471.454C412.943 470.723 413.543 469.679 414.17 468.321C414.797 466.963 415.293 465.449 415.658 463.778C416.076 462.159 416.181 460.567 415.972 459C415.606 459.157 415.267 459.261 414.953 459.313C414.64 459.418 414.327 459.47 414.013 459.47C413.021 459.47 412.16 459.104 411.429 458.373C410.75 457.642 410.41 456.728 410.41 455.632C410.41 454.17 410.828 453.047 411.664 452.264C412.551 451.48 413.57 451.089 414.718 451.089C416.546 451.089 417.93 451.794 418.87 453.204C419.81 454.561 420.28 456.232 420.28 458.217C420.28 459.522 420.019 461.115 419.496 462.995C419.026 464.875 418.348 466.702 417.46 468.478C416.624 470.305 415.632 471.82 414.483 473.021ZM449.937 459V456.415C451.921 456.311 453.279 455.867 454.01 455.084C454.741 454.248 455.133 453.125 455.185 451.715C455.289 450.253 455.341 448.608 455.341 446.781V412.943C455.341 411.899 455.368 410.906 455.42 409.966C455.472 408.974 455.524 408.087 455.576 407.303C454.636 407.356 453.697 407.408 452.757 407.46C451.817 407.512 450.877 407.564 449.937 407.617V404.17H486.281L486.673 417.878H484.088C484.088 414.797 483.592 412.473 482.6 410.906C481.608 409.288 480.302 408.217 478.683 407.695C477.065 407.121 475.263 406.859 473.279 406.912L467.561 407.068C465.629 407.121 464.297 407.59 463.566 408.478C462.835 409.314 462.417 410.436 462.313 411.846C462.208 413.256 462.156 414.875 462.156 416.703V430.175L475.785 430.253L475.237 423.439H478.683V439.966H476.177C476.177 437.616 475.837 435.945 475.159 434.953C474.532 433.961 473.54 433.361 472.182 433.152C470.824 432.943 469.049 432.891 466.856 432.995L462.156 433.23V449.679C462.156 451.089 462.13 452.316 462.078 453.36C462.078 454.353 462.025 455.188 461.921 455.867C462.809 455.815 463.696 455.789 464.584 455.789C465.472 455.736 466.36 455.684 467.247 455.632C468.135 455.58 469.023 455.554 469.911 455.554V459H449.937ZM491.223 456.65C492.841 456.65 493.964 456.259 494.591 455.475C495.217 454.64 495.583 453.517 495.687 452.107C495.792 450.645 495.844 448.974 495.844 447.094V429.235C495.844 428.4 495.844 427.564 495.844 426.729C495.896 425.893 496.001 425.032 496.157 424.144C495.217 424.196 494.277 424.248 493.337 424.301C492.45 424.301 491.536 424.327 490.596 424.379V421.167H493.024C495.27 421.167 496.81 420.959 497.645 420.541C498.533 420.071 499.264 419.575 499.839 419.053H502.11C502.215 419.888 502.293 420.932 502.345 422.186C502.397 423.387 502.45 424.927 502.502 426.807C503.285 425.502 504.356 424.222 505.713 422.969C507.071 421.716 508.585 420.671 510.256 419.836C511.98 419 513.781 418.583 515.661 418.583C517.123 418.583 518.402 418.974 519.499 419.757C520.596 420.541 521.144 421.794 521.144 423.517C521.144 423.935 521.013 424.457 520.752 425.084C520.491 425.658 520.073 426.18 519.499 426.65C518.925 427.068 518.167 427.277 517.228 427.277C516.079 427.225 515.165 426.781 514.486 425.945C513.807 425.058 513.546 424.039 513.703 422.891C512.397 422.838 511.04 423.178 509.63 423.909C508.272 424.64 506.993 425.658 505.792 426.964C504.591 428.217 503.52 429.705 502.58 431.428L502.658 450.697C502.658 451.742 502.632 452.682 502.58 453.517C502.58 454.3 502.502 455.136 502.345 456.024C503.181 455.971 503.99 455.945 504.773 455.945C505.609 455.893 506.444 455.841 507.28 455.789V459H491.223V456.65ZM543.529 460.253C539.926 460.253 536.662 459.418 533.738 457.747C530.866 456.024 528.594 453.621 526.923 450.541C525.252 447.407 524.417 443.726 524.417 439.496C524.417 435.841 525.226 432.421 526.845 429.235C528.516 426.05 530.84 423.491 533.816 421.559C536.793 419.575 540.239 418.583 544.155 418.583C546.349 418.583 548.385 418.948 550.265 419.679C552.197 420.358 553.894 421.428 555.356 422.891C556.818 424.301 557.967 426.102 558.803 428.295C559.638 430.436 560.056 432.969 560.056 435.893L532.484 436.363C532.484 440.332 532.902 443.83 533.738 446.859C534.625 449.836 536.035 452.159 537.967 453.83C539.9 455.449 542.38 456.259 545.409 456.259C547.027 456.259 548.672 455.971 550.343 455.397C552.067 454.822 553.659 454.039 555.121 453.047C556.583 452.055 557.758 450.958 558.646 449.757L560.526 451.324C559.116 453.517 557.419 455.266 555.435 456.572C553.45 457.877 551.414 458.817 549.325 459.392C547.236 459.966 545.304 460.253 543.529 460.253ZM532.719 433.073H552.693C552.693 431.193 552.406 429.392 551.832 427.669C551.309 425.893 550.422 424.457 549.168 423.361C547.915 422.212 546.27 421.637 544.234 421.637C541.205 421.637 538.672 422.551 536.636 424.379C534.652 426.154 533.346 429.052 532.719 433.073ZM585.6 460.253C581.997 460.253 578.733 459.418 575.809 457.747C572.937 456.024 570.665 453.621 568.994 450.541C567.323 447.407 566.488 443.726 566.488 439.496C566.488 435.841 567.297 432.421 568.916 429.235C570.587 426.05 572.91 423.491 575.887 421.559C578.863 419.575 582.31 418.583 586.226 418.583C588.419 418.583 590.456 418.948 592.336 419.679C594.268 420.358 595.965 421.428 597.427 422.891C598.889 424.301 600.038 426.102 600.874 428.295C601.709 430.436 602.127 432.969 602.127 435.893L574.555 436.363C574.555 440.332 574.973 443.83 575.809 446.859C576.696 449.836 578.106 452.159 580.038 453.83C581.97 455.449 584.451 456.259 587.48 456.259C589.098 456.259 590.743 455.971 592.414 455.397C594.137 454.822 595.73 454.039 597.192 453.047C598.654 452.055 599.829 450.958 600.717 449.757L602.597 451.324C601.187 453.517 599.49 455.266 597.506 456.572C595.521 457.877 593.485 458.817 591.396 459.392C589.307 459.966 587.375 460.253 585.6 460.253ZM574.79 433.073H594.764C594.764 431.193 594.477 429.392 593.902 427.669C593.38 425.893 592.493 424.457 591.239 423.361C589.986 422.212 588.341 421.637 586.305 421.637C583.276 421.637 580.743 422.551 578.707 424.379C576.722 426.154 575.417 429.052 574.79 433.073ZM625.477 460.253C622.292 460.253 619.42 459.47 616.861 457.903C614.302 456.285 612.266 453.987 610.752 451.011C609.289 448.034 608.558 444.535 608.558 440.515C608.558 436.233 609.42 432.447 611.143 429.157C612.866 425.867 615.242 423.282 618.271 421.402C621.352 419.523 624.825 418.583 628.689 418.583C630.412 418.583 632.109 418.818 633.78 419.288C635.503 419.705 636.861 420.201 637.853 420.776V410.045C637.853 409.209 637.853 408.426 637.853 407.695C637.905 406.912 637.984 405.998 638.088 404.953C637.148 405.006 636.208 405.058 635.268 405.11C634.381 405.162 633.467 405.215 632.527 405.267V401.977C634.825 401.977 636.6 401.873 637.853 401.664C639.106 401.455 640.046 401.194 640.673 400.88C641.352 400.567 641.874 400.228 642.24 399.862H644.511V450.697C644.511 451.533 644.485 452.368 644.433 453.204C644.381 454.039 644.302 454.979 644.198 456.024C645.138 455.971 646.052 455.919 646.939 455.867C647.879 455.815 648.819 455.762 649.759 455.71V459H638.558C638.402 458.217 638.271 457.512 638.167 456.885C638.114 456.206 638.062 455.554 638.01 454.927C636.548 456.546 634.746 457.851 632.605 458.843C630.464 459.783 628.088 460.253 625.477 460.253ZM628.297 456.415C630.02 456.415 631.744 455.919 633.467 454.927C635.242 453.935 636.704 452.708 637.853 451.245C637.801 450.619 637.775 449.966 637.775 449.287C637.775 448.556 637.775 447.773 637.775 446.937L637.853 424.379C636.6 423.439 635.216 422.76 633.702 422.342C632.24 421.872 630.725 421.637 629.159 421.637C626.548 421.637 624.276 422.395 622.344 423.909C620.412 425.423 618.95 427.538 617.958 430.253C616.966 432.969 616.522 436.154 616.626 439.81C616.731 442.995 617.227 445.841 618.114 448.347C619.054 450.854 620.36 452.838 622.031 454.3C623.754 455.71 625.843 456.415 628.297 456.415ZM674.954 460.253C671.299 460.253 667.983 459.418 665.006 457.747C662.03 456.024 659.654 453.674 657.878 450.697C656.155 447.668 655.293 444.222 655.293 440.358C655.293 436.233 656.155 432.525 657.878 429.235C659.602 425.945 661.951 423.361 664.928 421.481C667.904 419.549 671.246 418.583 674.954 418.583C678.609 418.583 681.925 419.47 684.902 421.246C687.878 422.969 690.254 425.319 692.029 428.295C693.805 431.272 694.693 434.666 694.693 438.478C694.693 442.499 693.805 446.18 692.029 449.522C690.306 452.812 687.956 455.423 684.98 457.355C682.003 459.287 678.661 460.253 674.954 460.253ZM675.581 457.12C678.348 457.12 680.541 456.337 682.16 454.77C683.779 453.204 684.928 451.167 685.607 448.661C686.338 446.154 686.703 443.517 686.703 440.749C686.703 438.4 686.468 436.102 685.998 433.857C685.58 431.559 684.902 429.496 683.962 427.669C683.022 425.789 681.795 424.301 680.28 423.204C678.818 422.107 677.043 421.559 674.954 421.559C672.239 421.559 670.019 422.342 668.296 423.909C666.573 425.475 665.293 427.512 664.458 430.019C663.675 432.525 663.283 435.214 663.283 438.086C663.283 441.324 663.727 444.405 664.615 447.329C665.502 450.201 666.86 452.551 668.688 454.379C670.515 456.206 672.813 457.12 675.581 457.12ZM701.348 459V456.65C702.966 456.65 704.089 456.259 704.716 455.475C705.342 454.64 705.708 453.517 705.812 452.107C705.917 450.645 705.969 448.974 705.969 447.094V429.235C705.969 428.4 705.969 427.564 705.969 426.729C706.021 425.893 706.126 425.032 706.282 424.144C705.342 424.196 704.402 424.248 703.462 424.301C702.575 424.353 701.661 424.405 700.721 424.457V421.167C703.019 421.167 704.742 421.063 705.891 420.854C707.092 420.645 707.979 420.384 708.554 420.071C709.128 419.757 709.598 419.418 709.964 419.053H712.235C712.34 419.575 712.392 420.175 712.392 420.854C712.444 421.533 712.496 422.316 712.548 423.204C714.115 421.846 715.917 420.75 717.953 419.914C719.99 419.026 722.026 418.583 724.063 418.583C726.674 418.583 728.867 419.053 730.642 419.992C732.418 420.932 733.802 422.212 734.794 423.831C736.569 422.368 738.606 421.141 740.903 420.149C743.253 419.105 745.551 418.583 747.796 418.583C752.339 418.583 755.681 419.966 757.822 422.734C759.963 425.449 760.981 429.914 760.877 436.128L760.799 450.697C760.799 451.742 760.773 452.682 760.72 453.517C760.72 454.3 760.642 455.136 760.485 456.024C761.321 455.971 762.13 455.945 762.914 455.945C763.749 455.893 764.585 455.841 765.42 455.789V459H749.441V456.65C751.06 456.65 752.183 456.259 752.809 455.475C753.436 454.64 753.801 453.517 753.906 452.107C754.01 450.645 754.062 448.974 754.062 447.094V436.128C754.062 431.637 753.331 428.269 751.869 426.024C750.459 423.778 748.214 422.682 745.133 422.734C743.514 422.734 741.895 423.1 740.277 423.831C738.658 424.562 737.248 425.475 736.047 426.572C736.308 427.408 736.491 428.321 736.595 429.314C736.752 430.253 736.83 431.246 736.83 432.29C736.778 435.319 736.752 438.374 736.752 441.454C736.752 444.535 736.726 447.616 736.674 450.697C736.674 451.742 736.647 452.682 736.595 453.517C736.595 454.3 736.517 455.136 736.36 456.024C737.196 455.971 738.005 455.945 738.788 455.945C739.624 455.893 740.459 455.841 741.295 455.789V459H725.316V456.65C726.935 456.65 728.031 456.259 728.606 455.475C729.232 454.64 729.598 453.517 729.702 452.107C729.859 450.645 729.937 448.974 729.937 447.094L730.016 436.128C730.068 431.637 729.415 428.243 728.057 425.945C726.7 423.648 724.48 422.525 721.4 422.577C719.781 422.577 718.188 422.943 716.622 423.674C715.055 424.353 713.723 425.24 712.627 426.337C712.627 426.964 712.627 427.643 712.627 428.374C712.679 429.052 712.705 429.784 712.705 430.567V450.697C712.705 451.742 712.679 452.682 712.627 453.517C712.627 454.3 712.548 455.136 712.392 456.024C713.227 455.971 714.037 455.945 714.82 455.945C715.655 455.893 716.491 455.841 717.326 455.789V459H701.348ZM796.849 418.191C796.849 412.395 797.894 407.825 799.983 404.483C802.124 401.141 805.779 399.47 810.948 399.47C812.097 399.47 813.298 399.679 814.552 400.097C815.857 400.463 816.98 401.089 817.92 401.977C818.86 402.812 819.33 403.909 819.33 405.267C819.33 406.259 819.042 407.094 818.468 407.773C817.946 408.452 817.163 408.792 816.118 408.792C814.865 408.844 813.977 408.478 813.455 407.695C812.985 406.859 812.75 406.154 812.75 405.58C812.75 405.267 812.776 404.953 812.828 404.64C812.881 404.327 812.985 403.987 813.142 403.622C812.776 403.152 812.254 402.812 811.575 402.604C810.949 402.395 810.348 402.29 809.774 402.29C808.155 402.29 806.902 402.76 806.014 403.7C805.126 404.64 804.499 405.815 804.134 407.225C803.768 408.635 803.586 410.097 803.586 411.611V419.836H814.16V422.891L803.586 423.126L803.664 450.697C803.664 451.742 803.638 452.682 803.586 453.517C803.586 454.3 803.507 455.136 803.351 456.024C804.186 455.971 804.996 455.945 805.779 455.945C806.614 455.893 807.45 455.841 808.285 455.789V459H792.306V456.65C793.925 456.65 795.048 456.259 795.674 455.475C796.301 454.64 796.667 453.517 796.771 452.107C796.876 450.645 796.928 448.974 796.928 447.094L796.849 423.204L790.426 423.361V419.836H796.849V418.191ZM837.424 460.253C833.769 460.253 830.453 459.418 827.476 457.747C824.5 456.024 822.124 453.674 820.348 450.697C818.625 447.668 817.764 444.222 817.764 440.358C817.764 436.233 818.625 432.525 820.348 429.235C822.072 425.945 824.422 423.361 827.398 421.481C830.375 419.549 833.717 418.583 837.424 418.583C841.079 418.583 844.395 419.47 847.372 421.246C850.348 422.969 852.724 425.319 854.5 428.295C856.275 431.272 857.163 434.666 857.163 438.478C857.163 442.499 856.275 446.18 854.5 449.522C852.776 452.812 850.427 455.423 847.45 457.355C844.474 459.287 841.132 460.253 837.424 460.253ZM838.051 457.12C840.818 457.12 843.011 456.337 844.63 454.77C846.249 453.204 847.398 451.167 848.077 448.661C848.808 446.154 849.173 443.517 849.173 440.749C849.173 438.4 848.938 436.102 848.468 433.857C848.051 431.559 847.372 429.496 846.432 427.669C845.492 425.789 844.265 424.301 842.75 423.204C841.288 422.107 839.513 421.559 837.424 421.559C834.709 421.559 832.489 422.342 830.766 423.909C829.043 425.475 827.764 427.512 826.928 430.019C826.145 432.525 825.753 435.214 825.753 438.086C825.753 441.324 826.197 444.405 827.085 447.329C827.972 450.201 829.33 452.551 831.158 454.379C832.985 456.206 835.283 457.12 838.051 457.12ZM863.818 456.65C865.436 456.65 866.559 456.259 867.186 455.475C867.812 454.64 868.178 453.517 868.282 452.107C868.387 450.645 868.439 448.974 868.439 447.094V429.235C868.439 428.4 868.439 427.564 868.439 426.729C868.491 425.893 868.596 425.032 868.752 424.144C867.812 424.196 866.872 424.248 865.933 424.301C865.045 424.301 864.131 424.327 863.191 424.379V421.167H865.619C867.865 421.167 869.405 420.959 870.241 420.541C871.128 420.071 871.859 419.575 872.434 419.053H874.705C874.81 419.888 874.888 420.932 874.94 422.186C874.993 423.387 875.045 424.927 875.097 426.807C875.88 425.502 876.951 424.222 878.308 422.969C879.666 421.716 881.18 420.671 882.851 419.836C884.575 419 886.376 418.583 888.256 418.583C889.718 418.583 890.998 418.974 892.094 419.757C893.191 420.541 893.739 421.794 893.739 423.517C893.739 423.935 893.609 424.457 893.347 425.084C893.086 425.658 892.669 426.18 892.094 426.65C891.52 427.068 890.763 427.277 889.823 427.277C888.674 427.225 887.76 426.781 887.081 425.945C886.402 425.058 886.141 424.039 886.298 422.891C884.992 422.838 883.635 423.178 882.225 423.909C880.867 424.64 879.588 425.658 878.387 426.964C877.186 428.217 876.115 429.705 875.175 431.428L875.254 450.697C875.254 451.742 875.227 452.682 875.175 453.517C875.175 454.3 875.097 455.136 874.94 456.024C875.776 455.971 876.585 455.945 877.368 455.945C878.204 455.893 879.039 455.841 879.875 455.789V459H863.818V456.65ZM914.364 459V456.415C915.931 456.415 917.132 455.997 917.967 455.162C918.803 454.326 919.481 453.178 920.004 451.715C920.578 450.253 921.231 448.556 921.962 446.624L938.097 402.682H939.977L957.445 447.251C957.862 448.347 958.332 449.757 958.854 451.48C959.377 453.204 959.586 454.666 959.481 455.867C960.369 455.815 961.257 455.762 962.144 455.71C963.032 455.658 963.92 455.606 964.807 455.554V459H946.87V456.415C948.855 456.363 950.16 455.919 950.787 455.084C951.413 454.248 951.648 453.256 951.492 452.107C951.335 450.958 951.074 449.914 950.708 448.974L947.967 441.611L927.601 442.081L924.86 450.462C924.494 451.715 924.155 452.708 923.842 453.439C923.581 454.17 923.267 454.979 922.902 455.867C923.946 455.815 924.964 455.762 925.957 455.71C927.001 455.658 928.019 455.606 929.011 455.554V459H914.364ZM928.776 438.713H946.87L941.309 423.752C940.735 422.133 940.134 420.541 939.507 418.974C938.933 417.355 938.359 415.737 937.784 414.118H937.627C937.105 415.58 936.557 417.042 935.983 418.504C935.46 419.966 934.912 421.455 934.338 422.969L928.776 438.713ZM966.529 456.65C968.148 456.65 969.27 456.259 969.897 455.475C970.524 454.64 970.889 453.517 970.993 452.107C971.098 450.645 971.15 448.974 971.15 447.094V410.045C971.15 409.209 971.15 408.426 971.15 407.695C971.202 406.912 971.281 405.998 971.385 404.953C970.445 405.006 969.505 405.058 968.565 405.11C967.678 405.162 966.764 405.215 965.824 405.267V401.977C968.121 401.977 969.897 401.873 971.15 401.664C972.456 401.455 973.422 401.194 974.048 400.88C974.727 400.567 975.249 400.228 975.615 399.862H977.886L977.965 450.697C977.965 451.742 977.939 452.682 977.886 453.517C977.834 454.3 977.73 455.136 977.573 456.024C978.409 455.971 979.218 455.945 980.001 455.945C980.837 455.893 981.672 455.841 982.508 455.789V459H966.529V456.65ZM987.87 456.65C989.489 456.65 990.612 456.259 991.238 455.475C991.865 454.64 992.23 453.517 992.335 452.107C992.439 450.645 992.492 448.974 992.492 447.094V410.045C992.492 409.209 992.492 408.426 992.492 407.695C992.544 406.912 992.622 405.998 992.727 404.953C991.787 405.006 990.847 405.058 989.907 405.11C989.019 405.162 988.105 405.215 987.165 405.267V401.977C989.463 401.977 991.238 401.873 992.492 401.664C993.797 401.455 994.763 401.194 995.39 400.88C996.069 400.567 996.591 400.228 996.956 399.862H999.228L999.306 450.697C999.306 451.742 999.28 452.682 999.228 453.517C999.176 454.3 999.071 455.136 998.914 456.024C999.75 455.971 1000.56 455.945 1001.34 455.945C1002.18 455.893 1003.01 455.841 1003.85 455.789V459H987.87V456.65Z" fill="#151616"/>
<path d="M81.1145 540.908C81.715 540.882 82.2111 540.803 82.6027 540.673C83.0205 540.542 83.3338 540.242 83.5426 539.772C83.7776 539.302 83.8951 538.545 83.8951 537.501V522.501C83.8951 521.796 83.9082 521.117 83.9343 520.464C83.9865 519.811 84.0257 519.315 84.0518 518.976C83.634 519.002 83.1118 519.028 82.4852 519.054C81.8586 519.054 81.4017 519.067 81.1145 519.093V516.078C82.9682 516.052 84.822 516.039 86.6758 516.039C88.5296 516.039 90.3833 516.026 92.2371 515.999C94.5347 515.973 96.5321 516.274 98.2292 516.9C99.9524 517.527 101.271 518.493 102.185 519.798C103.125 521.104 103.569 522.801 103.516 524.89C103.49 525.934 103.242 526.965 102.772 527.984C102.302 528.976 101.61 529.89 100.697 530.725C99.7827 531.535 98.6339 532.2 97.2501 532.723C95.8663 533.245 94.2475 533.532 92.3938 533.584C91.8193 533.61 91.3102 533.623 90.8663 533.623C90.4486 533.623 90.0178 533.61 89.5739 533.584V537.031C89.5739 537.762 89.5609 538.454 89.5348 539.106C89.5087 539.759 89.4695 540.255 89.4173 540.595C89.7045 540.568 90.07 540.555 90.5139 540.555C90.9577 540.529 91.3885 540.516 91.8063 540.516C92.2501 540.49 92.5635 540.477 92.7462 540.477V543.493H81.1145V540.908ZM89.5739 530.647C89.8611 530.673 90.1483 530.699 90.4355 530.725C90.7227 530.751 91.023 530.764 91.3363 530.764C92.7723 530.764 93.9342 530.529 94.8219 530.059C95.7358 529.563 96.4016 528.858 96.8193 527.944C97.2371 527.005 97.4459 525.869 97.4459 524.537C97.4459 523.232 97.2632 522.187 96.8976 521.404C96.5582 520.621 96.1143 520.046 95.566 519.681C95.0178 519.289 94.4433 519.041 93.8428 518.937C93.2423 518.806 92.694 518.741 92.1979 518.741C91.6496 518.741 91.1797 518.806 90.788 518.937C90.3964 519.067 90.0961 519.354 89.8872 519.798C89.6784 520.242 89.5739 520.921 89.5739 521.835V530.647ZM114.72 544.119C112.84 544.119 111.143 543.715 109.629 542.905C108.114 542.096 106.913 540.947 106.026 539.459C105.164 537.944 104.733 536.169 104.733 534.132C104.733 531.965 105.177 530.072 106.065 528.454C106.979 526.809 108.18 525.542 109.668 524.655C111.182 523.741 112.827 523.284 114.603 523.284C116.482 523.284 118.167 523.689 119.655 524.498C121.143 525.307 122.318 526.469 123.18 527.984C124.041 529.472 124.472 531.26 124.472 533.349C124.472 535.542 124.054 537.448 123.219 539.067C122.383 540.686 121.234 541.939 119.772 542.827C118.31 543.688 116.626 544.119 114.72 544.119ZM114.877 541.339C115.921 541.313 116.704 540.947 117.227 540.242C117.775 539.537 118.153 538.649 118.362 537.579C118.571 536.508 118.676 535.425 118.676 534.328C118.676 533.362 118.597 532.383 118.441 531.391C118.31 530.399 118.088 529.498 117.775 528.689C117.462 527.879 117.031 527.226 116.482 526.73C115.96 526.234 115.308 525.999 114.524 526.025C113.506 526.052 112.697 526.417 112.096 527.122C111.522 527.827 111.104 528.715 110.843 529.785C110.608 530.83 110.49 531.926 110.49 533.075C110.49 534.407 110.634 535.712 110.921 536.991C111.208 538.271 111.665 539.328 112.292 540.164C112.945 540.973 113.806 541.365 114.877 541.339ZM126.528 540.947C127.259 540.947 127.781 540.803 128.095 540.516C128.434 540.229 128.643 539.824 128.721 539.302C128.8 538.754 128.839 538.14 128.839 537.461V521.365C128.839 520.895 128.852 520.36 128.878 519.759C128.904 519.133 128.943 518.532 128.995 517.958C128.578 517.984 128.082 518.01 127.507 518.036C126.959 518.036 126.541 518.049 126.254 518.075V515.099C127.481 515.099 128.499 515.033 129.309 514.903C130.144 514.772 130.797 514.616 131.267 514.433C131.763 514.25 132.102 514.08 132.285 513.924H134.4V537.187C134.4 537.553 134.387 538.075 134.361 538.754C134.335 539.407 134.296 540.033 134.243 540.634C134.687 540.581 135.157 540.555 135.653 540.555C136.149 540.529 136.528 540.516 136.789 540.516V543.493H126.528V540.947ZM138.729 540.947C139.46 540.947 139.982 540.803 140.295 540.516C140.635 540.229 140.844 539.824 140.922 539.302C141 538.754 141.039 538.14 141.039 537.461V521.365C141.039 520.895 141.052 520.36 141.078 519.759C141.105 519.133 141.144 518.532 141.196 517.958C140.778 517.984 140.282 518.01 139.708 518.036C139.159 518.036 138.742 518.049 138.454 518.075V515.099C139.682 515.099 140.7 515.033 141.509 514.903C142.345 514.772 142.998 514.616 143.468 514.433C143.964 514.25 144.303 514.08 144.486 513.924H146.601V537.187C146.601 537.553 146.588 538.075 146.561 538.754C146.535 539.407 146.496 540.033 146.444 540.634C146.888 540.581 147.358 540.555 147.854 540.555C148.35 540.529 148.729 540.516 148.99 540.516V543.493H138.729V540.947ZM160.838 544.119C158.932 544.119 157.248 543.702 155.786 542.866C154.323 542.004 153.188 540.803 152.378 539.263C151.569 537.696 151.164 535.856 151.164 533.741C151.164 531.913 151.569 530.203 152.378 528.61C153.188 527.018 154.323 525.738 155.786 524.772C157.274 523.78 158.997 523.284 160.955 523.284C162.052 523.284 163.122 523.441 164.167 523.754C165.211 524.041 166.151 524.55 166.987 525.281C167.848 526.012 168.527 527.005 169.023 528.258C169.545 529.511 169.793 531.078 169.767 532.958L156.921 533.192C156.921 534.602 157.091 535.869 157.43 536.991C157.796 538.114 158.383 539.002 159.193 539.655C160.002 540.307 161.086 540.634 162.443 540.634C162.966 540.634 163.553 540.542 164.206 540.36C164.885 540.177 165.564 539.877 166.242 539.459C166.947 539.015 167.6 538.427 168.201 537.696L169.963 539.341C169.023 540.673 168.018 541.691 166.947 542.396C165.877 543.075 164.806 543.532 163.736 543.767C162.692 544.002 161.725 544.119 160.838 544.119ZM157.156 530.451H164.363C164.336 529.354 164.18 528.493 163.893 527.866C163.631 527.213 163.266 526.743 162.796 526.456C162.326 526.169 161.778 526.025 161.151 526.025C160.002 526.025 159.101 526.443 158.449 527.279C157.796 528.088 157.365 529.146 157.156 530.451ZM172.63 543.493V540.947C173.361 540.947 173.883 540.803 174.196 540.516C174.509 540.229 174.705 539.824 174.784 539.302C174.888 538.754 174.94 538.14 174.94 537.461V530.882C174.94 530.412 174.953 529.89 174.979 529.315C175.005 528.715 175.045 528.127 175.097 527.553C174.679 527.579 174.183 527.605 173.609 527.631C173.06 527.631 172.643 527.644 172.355 527.67V524.694C173.556 524.694 174.575 524.629 175.41 524.498C176.246 524.368 176.898 524.211 177.368 524.028C177.864 523.845 178.204 523.676 178.387 523.519H180.306C180.358 523.858 180.384 524.106 180.384 524.263C180.384 524.42 180.384 524.576 180.384 524.733C180.41 524.864 180.462 525.112 180.541 525.477C181.063 525.059 181.663 524.694 182.342 524.381C183.021 524.041 183.7 523.78 184.379 523.597C185.058 523.388 185.658 523.284 186.18 523.284C188.582 523.284 190.28 523.976 191.272 525.36C192.29 526.717 192.799 528.911 192.799 531.939V537.187C192.799 537.553 192.786 538.075 192.76 538.754C192.734 539.407 192.695 540.033 192.642 540.634C193.086 540.581 193.556 540.555 194.052 540.555C194.548 540.529 194.927 540.516 195.188 540.516V543.493H184.927V540.947C185.658 540.947 186.18 540.803 186.494 540.516C186.833 540.229 187.042 539.824 187.12 539.302C187.225 538.754 187.277 538.14 187.277 537.461L187.238 531.9C187.238 530.203 186.99 528.95 186.494 528.14C186.024 527.305 185.214 526.887 184.065 526.887C183.413 526.887 182.76 527.031 182.107 527.318C181.481 527.605 180.945 527.944 180.502 528.336C180.502 528.702 180.502 529.08 180.502 529.472C180.502 529.837 180.502 530.203 180.502 530.568V537.187C180.502 537.553 180.488 538.075 180.462 538.754C180.436 539.407 180.397 540.033 180.345 540.634C180.763 540.581 181.22 540.555 181.716 540.555C182.238 540.529 182.629 540.516 182.891 540.516V543.493H172.63ZM208.169 543.493V540.908C208.769 540.882 209.265 540.803 209.657 540.673C210.075 540.542 210.388 540.242 210.597 539.772C210.832 539.302 210.949 538.545 210.949 537.501V522.501C210.949 521.796 210.962 521.117 210.988 520.464C211.041 519.811 211.08 519.315 211.106 518.976C210.688 519.002 210.166 519.028 209.539 519.054C208.913 519.054 208.456 519.067 208.169 519.093V516.078H219.409V518.663C218.834 518.689 218.338 518.767 217.92 518.898C217.503 519.028 217.176 519.328 216.941 519.798C216.732 520.242 216.628 520.999 216.628 522.07V537.07C216.628 537.775 216.615 538.44 216.589 539.067C216.563 539.694 216.524 540.177 216.471 540.516H221.719C223.26 540.49 224.461 539.955 225.322 538.91C226.21 537.84 226.654 536.234 226.654 534.093H229.278L229.043 543.493H208.169ZM242.34 543.493C242.288 543.127 242.249 542.827 242.222 542.592C242.222 542.331 242.209 542.031 242.183 541.691C241.296 542.579 240.356 543.205 239.363 543.571C238.371 543.937 237.366 544.119 236.348 544.119C234.677 544.119 233.371 543.623 232.431 542.631C231.491 541.639 231.021 540.399 231.021 538.91C231.021 537.657 231.335 536.587 231.961 535.699C232.614 534.811 233.463 534.093 234.507 533.545C235.578 532.971 236.753 532.54 238.032 532.253C239.337 531.939 240.643 531.756 241.948 531.704V529.668C241.948 528.989 241.857 528.375 241.674 527.827C241.517 527.279 241.23 526.848 240.813 526.535C240.421 526.221 239.86 526.078 239.128 526.104C238.632 526.13 238.149 526.234 237.679 526.417C237.209 526.6 236.805 526.861 236.465 527.2C236.674 527.435 236.805 527.696 236.857 527.984C236.909 528.245 236.935 528.48 236.935 528.689C236.935 529.211 236.726 529.759 236.309 530.334C235.891 530.882 235.225 531.143 234.311 531.117C233.528 531.091 232.927 530.817 232.51 530.294C232.092 529.772 231.883 529.159 231.883 528.454C231.883 527.409 232.249 526.508 232.98 525.751C233.737 524.968 234.742 524.368 235.995 523.95C237.249 523.506 238.632 523.284 240.147 523.284C242.444 523.284 244.22 523.884 245.473 525.086C246.752 526.26 247.392 528.153 247.392 530.764C247.392 531.652 247.392 532.409 247.392 533.036C247.392 533.662 247.379 534.289 247.353 534.916C247.353 535.542 247.353 536.3 247.353 537.187C247.353 537.553 247.34 538.075 247.314 538.754C247.288 539.407 247.249 540.033 247.196 540.634C247.64 540.581 248.11 540.555 248.606 540.555C249.102 540.529 249.481 540.516 249.742 540.516V543.493H242.34ZM241.909 534.485C241.178 534.563 240.486 534.694 239.833 534.877C239.181 535.059 238.606 535.307 238.11 535.621C237.64 535.934 237.262 536.313 236.974 536.756C236.713 537.2 236.583 537.696 236.583 538.245C236.609 538.976 236.844 539.498 237.288 539.811C237.732 540.125 238.241 540.281 238.815 540.281C239.416 540.281 239.977 540.151 240.499 539.89C241.021 539.628 241.491 539.289 241.909 538.871C241.909 538.61 241.909 538.362 241.909 538.127C241.909 537.866 241.909 537.605 241.909 537.344C241.909 536.874 241.909 536.404 241.909 535.934C241.909 535.438 241.909 534.955 241.909 534.485ZM252.852 521.365C252.852 520.895 252.852 520.36 252.852 519.759C252.878 519.133 252.917 518.532 252.97 517.958C252.552 517.984 252.056 518.01 251.481 518.036C250.933 518.036 250.515 518.049 250.228 518.075V515.099C251.455 515.099 252.474 515.033 253.283 514.903C254.118 514.772 254.771 514.616 255.241 514.433C255.737 514.25 256.077 514.08 256.259 513.924H258.374V525.399C259.262 524.616 260.163 524.067 261.077 523.754C261.99 523.441 262.852 523.284 263.661 523.284C265.228 523.284 266.599 523.689 267.774 524.498C268.975 525.307 269.902 526.456 270.554 527.944C271.233 529.433 271.573 531.182 271.573 533.192C271.573 535.281 271.181 537.161 270.398 538.832C269.641 540.477 268.557 541.769 267.147 542.709C265.737 543.649 264.04 544.119 262.056 544.119C261.351 544.119 260.45 543.963 259.353 543.649C258.283 543.362 257.291 542.736 256.377 541.769L255.202 543.493H252.852V521.365ZM258.374 537.618C258.374 538.506 258.518 539.211 258.805 539.733C259.092 540.255 259.458 540.634 259.902 540.869C260.346 541.104 260.789 541.234 261.233 541.26C262.408 541.286 263.322 540.947 263.975 540.242C264.654 539.537 265.124 538.61 265.385 537.461C265.672 536.286 265.815 535.059 265.815 533.78C265.815 532.579 265.672 531.443 265.385 530.373C265.097 529.302 264.641 528.441 264.014 527.788C263.387 527.109 262.565 526.783 261.547 526.809C260.894 526.835 260.293 527.005 259.745 527.318C259.197 527.605 258.74 527.997 258.374 528.493V537.618ZM283.449 544.119C282.326 544.119 281.23 543.976 280.159 543.688C279.089 543.401 278.253 543.036 277.653 542.592L277.731 543.767H274.754L274.598 537.031H277.143C277.222 537.814 277.535 538.532 278.083 539.185C278.632 539.837 279.35 540.36 280.237 540.751C281.125 541.117 282.117 541.299 283.214 541.299C283.658 541.299 284.075 541.234 284.467 541.104C284.885 540.973 285.224 540.764 285.485 540.477C285.773 540.164 285.916 539.785 285.916 539.341C285.916 538.845 285.733 538.44 285.368 538.127C285.028 537.814 284.519 537.514 283.84 537.226C283.188 536.939 282.365 536.613 281.373 536.247C280.564 535.934 279.741 535.608 278.906 535.268C278.096 534.929 277.339 534.524 276.634 534.054C275.955 533.558 275.407 532.958 274.989 532.253C274.572 531.521 274.363 530.634 274.363 529.589C274.363 528.832 274.506 528.088 274.794 527.357C275.081 526.6 275.525 525.921 276.125 525.32C276.726 524.694 277.483 524.198 278.397 523.832C279.337 523.467 280.446 523.284 281.726 523.284C282.431 523.284 283.227 523.401 284.115 523.636C285.028 523.845 285.799 524.172 286.425 524.616V523.48H289.402V530.412H286.856C286.699 529.498 286.373 528.715 285.877 528.062C285.407 527.409 284.793 526.913 284.036 526.574C283.279 526.208 282.431 526.025 281.491 526.025C280.838 526.025 280.237 526.182 279.689 526.495C279.167 526.809 278.906 527.344 278.906 528.101C278.906 528.702 279.115 529.185 279.532 529.55C279.95 529.89 280.525 530.177 281.256 530.412C281.987 530.647 282.796 530.921 283.684 531.234C285.015 531.678 286.19 532.2 287.209 532.801C288.253 533.401 289.075 534.132 289.676 534.994C290.276 535.83 290.577 536.861 290.577 538.088C290.577 539.446 290.237 540.568 289.558 541.456C288.88 542.344 287.992 543.01 286.895 543.454C285.825 543.897 284.676 544.119 283.449 544.119Z" fill="#151616"/>
</svg>
