<svg width="1200" height="630" viewBox="0 0 1200 630" fill="none" xmlns="http://www.w3.org/2000/svg">
<g clip-path="url(#clip0_3626_30935)">
<rect width="1200" height="630" fill="black"/>
<path fillRule="evenodd" clipRule="evenodd" d="M1413.67 -38.6946C1408.21 0.773336 1406.66 39.7446 1408.71 77.7237C1411.31 93.1049 1414.54 108.516 1418.41 123.92C1452.98 228.769 1521.75 327.875 1621.17 403.277C1666.27 437.484 1714.37 464.303 1763.76 483.864C1852.16 497.238 1947.45 489.837 2041.21 458.102C2080.31 444.868 2117.05 428.111 2151.11 408.406C2149.77 405.157 2149.69 401.392 2151.18 397.909C2154.13 391.051 2162.08 387.882 2168.94 390.831C2170.93 391.687 2172.61 392.964 2173.92 394.513C2201.1 377.106 2226.38 357.767 2249.59 336.823C2296.48 266.274 2329.23 182.281 2342.03 89.8219C2347.5 50.357 2349.04 11.3886 2347 -26.5876C2340.65 -64.0871 2330.59 -101.767 2316.59 -139.07C2287.25 -217.244 2243.82 -285.302 2191.15 -340.683C2189.95 -341.613 2188.73 -342.539 2187.52 -343.462C2103.18 -407.426 2008.36 -445.554 1914.21 -458.708C1834.88 -452.59 1753.82 -429.478 1677.12 -387.947C1633.18 -364.156 1593.53 -335.861 1558.55 -304.168C1556.98 -300.508 1553.97 -297.9 1550.48 -296.713C1506.6 -255.442 1470.46 -208.734 1442.9 -158.912C1429.41 -120.895 1419.48 -80.6669 1413.67 -38.6946ZM1559.66 -309.318C1594.04 -340.029 1632.83 -367.485 1675.65 -390.672C1748.16 -429.936 1824.6 -452.831 1899.87 -460.52C1899.35 -460.579 1898.83 -460.637 1898.31 -460.694C1846.3 -457.566 1793.28 -447.424 1740.74 -429.642C1667.91 -404.992 1603.27 -368.118 1548.93 -322.741C1549.79 -322.559 1550.64 -322.29 1551.48 -321.93C1556.66 -319.703 1559.73 -314.624 1559.66 -309.318ZM1532.65 -308.616C1532.98 -303.716 1535.98 -299.17 1540.8 -297.097C1542.25 -296.471 1543.76 -296.12 1545.26 -296.023C1507.26 -259.755 1475.14 -219.394 1449.44 -176.469C1463.49 -212.415 1480.77 -246.243 1500.8 -277.538C1510.93 -288.24 1521.55 -298.612 1532.65 -308.616ZM1544.33 -322.91C1539.78 -322.293 1535.67 -319.375 1533.72 -314.853C1533.48 -314.305 1533.29 -313.75 1533.13 -313.191C1525.14 -306.074 1517.39 -298.768 1509.88 -291.287C1543.43 -340.461 1583.9 -382.903 1629.28 -416.875C1704.8 -453.672 1791.46 -469.088 1879.92 -462.401C1833.49 -458.171 1786.42 -448.373 1739.75 -432.576C1665.41 -407.416 1599.52 -369.555 1544.33 -322.91ZM2042.2 461.037C2081.47 447.746 2118.38 430.912 2152.61 411.111C2153.99 413.053 2155.91 414.653 2158.26 415.665L2158.34 415.697L2158.41 415.728C2147.06 422.87 2135.39 429.7 2123.4 436.194C2032.37 485.484 1935.2 508.83 1842.05 508.614C1820.1 503.37 1798.22 496.756 1776.56 488.76C1861.7 499.567 1952.68 491.337 2042.2 461.037ZM2176.02 408.587C2173.68 414.022 2168.2 417.14 2162.62 416.731C2150.41 424.499 2137.83 431.904 2124.87 438.918C2037.69 486.128 1944.82 509.673 1855.15 511.577C1918.31 525.081 1981.87 527.284 2042.46 518.447C2111.91 486.058 2174.31 435.657 2224.34 371.792C2209.12 384.416 2193.11 396.421 2176.35 407.729C2176.25 408.017 2176.14 408.303 2176.02 408.587ZM2175.63 397.085C2176.63 399.043 2177.15 401.236 2177.12 403.469C2196.87 390.001 2215.55 375.561 2233.11 360.278C2236.31 355.962 2239.46 351.588 2242.55 347.159C2221.77 365.131 2199.42 381.846 2175.63 397.085ZM1750.15 481.631C1704.87 462.494 1660.81 437.23 1619.29 405.745C1531.45 339.125 1467.36 254.015 1429.53 162.704C1432.49 171.887 1435.69 181.056 1439.12 190.202C1477.33 292.032 1539.46 376.697 1614.77 438.537C1632.25 446.887 1650.33 454.281 1668.93 460.678C1671.42 460.251 1674.05 460.515 1676.54 461.586C1678.27 462.327 1679.76 463.383 1680.98 464.659C1703.39 471.768 1726.5 477.448 1750.15 481.631ZM1664.34 462.358C1650.89 457.626 1637.72 452.373 1624.85 446.614C1635.69 455.094 1646.79 463.111 1658.11 470.647C1658.28 469.98 1658.51 469.317 1658.79 468.664C1659.97 465.919 1661.95 463.765 1664.34 462.358ZM1681.01 483.311C1682.08 482.185 1682.97 480.853 1683.62 479.342C1685.14 475.82 1685.04 472.011 1683.65 468.738C1709.28 476.662 1735.79 482.737 1762.94 486.862C1784.63 495.433 1806.56 502.615 1828.6 508.418C1777.46 507.047 1727.69 498.545 1681.01 483.311ZM1658.53 478.685C1659.76 482.038 1662.32 484.896 1665.87 486.42C1669.56 488.009 1673.58 487.821 1676.95 486.236C1750.36 530.364 1832.06 554.952 1914.38 555.888C1878.45 560.506 1841.64 560.487 1804.51 555.347C1703.57 541.373 1615.16 491.612 1547.58 418.496C1581.29 443.442 1618.65 463.59 1658.53 478.685ZM1657.69 474.077C1657.69 474.405 1657.7 474.732 1657.73 475.057C1613.61 458.14 1572.65 434.985 1536.39 405.953C1528.66 396.978 1521.22 387.684 1514.11 378.093C1544.01 402.898 1577.3 424.048 1613.14 441.196C1627.54 452.997 1642.41 463.97 1657.69 474.077ZM1603.13 432.788C1531.74 371.375 1472.96 289.191 1436.22 191.291C1427.93 169.201 1421.01 146.976 1415.42 124.73C1414.11 120.749 1412.85 116.759 1411.64 112.763C1422.43 207.821 1455.84 295.441 1506.4 367.428C1535.45 392.938 1567.97 414.843 1603.13 432.788ZM1496.56 358.521C1446.89 283.82 1415.12 193.513 1406.88 96.1393C1396.76 58.3945 1391.01 20.1204 1389.79 -17.8767C1368.47 82.559 1380 186.559 1429.95 278.797C1430.73 280.231 1431.51 281.658 1432.3 283.08C1450.74 310.704 1472.33 335.925 1496.56 358.521ZM1452.83 316.2C1468.36 335.397 1485.53 353.212 1504.11 369.557C1510.23 378.257 1516.6 386.731 1523.21 394.963C1496.75 371.976 1473.06 345.67 1452.83 316.2ZM1429.71 284.797C1409.71 254.821 1393.4 222.026 1381.44 186.691C1371.86 158.386 1365.49 129.68 1362.14 100.894C1359.92 101.128 1357.6 100.812 1355.4 99.8652C1348.54 96.9165 1345.37 88.9669 1348.32 82.1094C1350.4 77.2724 1354.97 74.2707 1359.89 73.9565C1356.2 2.13758 1370.95 -69.5601 1401.26 -136.166C1411.75 -181.075 1429.37 -224.279 1454.41 -264.278C1504.1 -361.654 1584.51 -438.916 1688.86 -478.075C1731.42 -494.047 1775.16 -502.625 1818.91 -504.424C1862.01 -512.285 1906.57 -513.524 1951.62 -507.288C2021.95 -497.552 2086.2 -470.597 2141.63 -430.575C2239.57 -393.591 2322.32 -326.15 2373.29 -232.026C2420.74 -144.396 2433.77 -46.3316 2417.14 49.2799C2427.04 158.067 2400.25 266.231 2332.95 354.976C2279.23 425.804 2206.64 475.11 2124.9 502.203C2106.49 512.554 2087.12 521.6 2066.85 529.207C2024.27 545.184 1980.52 553.762 1936.75 555.558C1893.67 563.413 1849.12 564.65 1804.09 558.416C1696.73 543.553 1603.54 488.567 1534.25 408.225C1492.42 374.692 1456.79 333.372 1429.71 284.797ZM1384.37 185.698C1374.83 157.504 1368.5 128.901 1365.19 100.211C1368.64 99.0061 1371.6 96.4121 1373.15 92.7876C1376.1 85.93 1372.93 77.9805 1366.08 75.0318C1365.07 74.5992 1364.04 74.2982 1363.01 74.1213C1359.55 7.72874 1371.97 -58.6028 1397.98 -120.873C1392.19 -91.3965 1389.41 -61.2696 1389.55 -30.9059C1367 63.1464 1373.05 160.926 1412.33 249.911C1401.35 229.585 1391.97 208.156 1384.37 185.698ZM1404.23 -135.2C1397.26 -105.282 1393.47 -74.5969 1392.78 -43.5952C1394.73 -50.8862 1396.86 -58.1512 1399.16 -65.3844C1401.59 -95.9178 1406.47 -125.819 1413.67 -154.755C1410.37 -148.289 1407.23 -141.77 1404.23 -135.2ZM1420.03 -166.817C1412.14 -138.208 1406.57 -108.575 1403.43 -78.2532C1413.14 -106.211 1425.4 -133.635 1440.07 -160.177C1453.33 -197.499 1470.02 -232.711 1489.63 -265.371C1462.34 -234.747 1438.99 -201.635 1420.03 -166.817ZM1498.36 -279.451C1469.29 -248.702 1444.28 -215.233 1423.81 -179.878C1432.58 -208.757 1443.74 -236.516 1457.14 -262.796C1463.66 -273.189 1470.68 -283.362 1478.2 -293.289C1515.51 -342.471 1562.01 -381.218 1614.4 -409.273C1569.98 -373.67 1530.63 -329.818 1498.36 -279.451ZM1978.89 -463.031C1952.47 -465.13 1925.56 -465.413 1898.39 -463.792C1808.8 -473.608 1720.35 -460.947 1642.57 -426.486C1696.21 -463.929 1756.16 -489.777 1819.26 -501.326C1890.01 -504.192 1960.84 -489.219 2026.82 -459.019C2011.02 -461.055 1995.03 -462.397 1978.89 -463.031ZM1978.77 -459.945C2000.76 -458.193 2022.42 -455.177 2043.62 -450.948C2091.54 -426.818 2136.6 -394.559 2176.83 -355.214C2099.52 -410.859 2014.03 -445.47 1928.61 -459.633C1945.44 -460.498 1962.18 -460.597 1978.77 -459.945ZM2054.99 -448.553C2090.76 -440.62 2125.15 -429.204 2157.55 -414.556C2210.67 -372.009 2254.76 -316.915 2287.09 -253.383C2259.78 -285.722 2228.42 -315.878 2193.17 -343.038C2151.97 -386.309 2105.15 -421.889 2054.99 -448.553ZM2147.61 -422.286C2120.37 -433.818 2091.82 -443.12 2062.3 -450.052C2089.06 -444.686 2115.09 -437.255 2140.12 -427.824C2142.64 -426.005 2145.14 -424.159 2147.61 -422.286ZM2168.87 -409.266C2221.37 -364.869 2264.55 -308.052 2295.66 -242.992C2362.85 -159.659 2403.72 -62.7902 2415.55 34.2708C2424.2 -29.2069 2418.9 -94.2459 2397.58 -157.237C2359.19 -270.664 2275.5 -357.821 2168.87 -409.266ZM2410.89 -122.436C2407.99 -134.422 2404.53 -146.361 2400.52 -158.23C2360.5 -276.447 2271.76 -366.221 2159.23 -417.199C2156.55 -419.338 2153.85 -421.446 2151.13 -423.522C2243.8 -385.984 2321.85 -320.512 2370.57 -230.551C2389.33 -195.901 2402.67 -159.592 2410.89 -122.436ZM2413.74 46.2679C2404.32 -50.145 2365.96 -146.951 2301.27 -230.892C2329.11 -168.804 2346.14 -99.6598 2350.08 -26.9295C2366.13 68.1218 2358.43 162.081 2330.38 245.94C2373.42 184.92 2402.15 116.703 2413.74 46.2679ZM2326.85 256.13C2328.16 254.348 2329.46 252.559 2330.75 250.764C2329.4 252.739 2328.04 254.707 2326.66 256.668L2326.85 256.13ZM2320.35 264.789C2320.17 265.268 2319.99 265.747 2319.81 266.225C2297.78 296.263 2272.37 324.636 2243.81 350.736C2246.57 346.819 2249.28 342.858 2251.94 338.854C2277.3 315.936 2300.18 291.107 2320.35 264.789ZM2324.08 254.677C2304.88 280.76 2283.03 305.453 2258.77 328.352C2302.39 259.548 2332.85 178.725 2345.1 90.2467C2349.3 59.9458 2351.19 29.9286 2350.94 0.418916C2361.83 89.4582 2351.91 176.717 2324.08 254.677ZM1417.15 -168.013C1414.02 -162.263 1411.02 -156.467 1408.13 -150.628C1415.48 -177.625 1425.48 -203.92 1438.2 -229.175C1429.98 -209.421 1422.95 -188.99 1417.15 -168.013ZM1392.66 -30.5617C1392.86 5.67596 1397.23 42.2584 1405.65 78.472L1405.63 78.0658C1398.24 34.3157 1395.88 -9.20314 1398.23 -51.6121C1396.21 -44.6197 1394.36 -37.6011 1392.66 -30.5617ZM1475.74 -295.161C1516.81 -349.314 1568.91 -390.886 1627.7 -419.568C1678.89 -457.851 1736.29 -485.433 1797.02 -499.833C1760.95 -496.447 1725.04 -488.343 1689.95 -475.174C1596.99 -440.29 1523.09 -374.871 1473.23 -291.825C1474.06 -292.94 1474.89 -294.052 1475.74 -295.161ZM2319.49 -140.158C2292.53 -211.989 2253.71 -275.359 2206.75 -328.272C2239.11 -301.653 2267.92 -272.44 2293.03 -241.336C2320.28 -184.268 2338.2 -120.811 2344.91 -53.7989C2338.68 -82.6465 2330.24 -111.517 2319.49 -140.158ZM2322.56 267.681C2368.98 204.28 2400.48 133.5 2414.95 60.9992C2421.94 165.212 2394.89 268.175 2330.48 353.104C2280.47 419.043 2213.92 466.225 2138.8 494.031C2223.2 442.199 2286.19 362.161 2322.56 267.681ZM2315.44 277.202C2276.71 371.368 2210.96 450.163 2123.68 499.33C2100.82 506.896 2077.23 512.715 2053.14 516.77C2123.3 482.1 2185.89 429.044 2235.38 362.399C2265.4 336.24 2292.17 307.625 2315.44 277.202ZM2032.58 522.912C1970.62 530.628 1905.82 526.973 1841.69 511.7C1788.07 511.543 1735.76 503.624 1686.69 488.379C1764.12 533.011 1850.33 555.94 1936.41 552.46C1969.48 546.41 2001.69 536.431 2032.58 522.912ZM2109.25 507.087C2087.81 513.368 2065.8 518.158 2043.39 521.447C2016.12 534.136 1987.77 544.068 1958.65 550.969C1994.73 547.585 2030.65 539.48 2065.76 526.307C2080.76 520.677 2095.26 514.253 2109.25 507.087ZM1433.93 -142.006C1423.42 -109.142 1415.54 -74.7515 1410.6 -39.1194C1406.41 -8.81619 1404.51 21.2032 1404.77 50.7151C1400 11.6824 1399.22 -27.0081 1402.2 -64.7231C1410.56 -91.0005 1421.17 -116.857 1433.93 -142.006ZM2130.4 -434.66C2100.5 -445.123 2069.27 -452.797 2037.17 -457.58C1975.06 -487.532 1908.38 -503.999 1841.29 -504.756C1877.23 -509.379 1914.05 -509.361 1951.19 -504.22C2017.03 -495.106 2077.53 -470.77 2130.4 -434.66ZM1971.87 335.533C2139.94 278.646 2230.08 96.2789 2173.19 -71.7952C2116.3 -239.869 1933.94 -330.004 1765.86 -273.117C1597.79 -216.23 1507.65 -33.8631 1564.54 134.211C1621.43 302.285 1803.8 392.42 1971.87 335.533ZM1972.86 338.467C2142.56 281.032 2233.56 96.9063 2176.13 -72.7885C2118.69 -242.483 1934.56 -333.487 1764.87 -276.052C1595.18 -218.616 1504.17 -34.4906 1561.61 135.204C1619.04 304.899 1803.17 395.903 1972.86 338.467ZM1976.45 -406.963C1983.31 -404.014 1991.26 -407.183 1994.21 -414.041C1997.15 -420.898 1993.99 -428.848 1987.13 -431.796C1980.27 -434.745 1972.32 -431.576 1969.37 -424.719C1966.42 -417.861 1969.59 -409.912 1976.45 -406.963ZM2333.26 111.33C2330.31 118.188 2322.36 121.357 2315.5 118.408C2308.65 115.459 2305.48 107.51 2308.43 100.652C2311.37 93.7945 2319.32 90.6258 2326.18 93.5745C2333.04 96.5231 2336.21 104.473 2333.26 111.33ZM2373.69 -153.765C2380.54 -150.817 2388.49 -153.985 2391.44 -160.843C2394.39 -167.7 2391.22 -175.65 2384.36 -178.599C2377.51 -181.547 2369.56 -178.378 2366.61 -171.521C2363.66 -164.663 2366.83 -156.714 2373.69 -153.765Z" fill="#75DCE6"/>
<path d="M366.602 504.043V474.734H357.277V469.461H382.422V474.734H372.597V504.043H366.602ZM396.799 504.043V469.461H407.734C411.953 469.461 415.043 470.386 417.004 472.236C418.965 474.087 419.946 476.548 419.946 479.619C419.946 480.877 419.669 482.154 419.113 483.449C418.595 484.707 417.837 485.836 416.838 486.835C415.875 487.834 414.747 488.575 413.452 489.056L420.89 504.043H414.284L407.29 489.666H403.127V504.043H396.799ZM403.127 484.448H408.178C409.955 484.448 411.287 484.041 412.175 483.227C413.063 482.376 413.507 481.229 413.507 479.786C413.507 478.453 413.063 477.306 412.175 476.344C411.287 475.382 409.955 474.901 408.178 474.901H403.127V484.448ZM446.479 504.765C442.668 504.765 439.726 503.636 437.653 501.379C435.618 499.121 434.6 495.976 434.6 491.942V469.461H441.317V469.961C441.132 470.183 441.002 470.442 440.928 470.738C440.891 470.997 440.873 471.422 440.873 472.014V491.998C440.873 494.366 441.28 496.235 442.094 497.604C442.908 498.973 444.388 499.658 446.535 499.658C448.681 499.658 450.18 498.973 451.031 497.604C451.882 496.235 452.308 494.31 452.308 491.831V469.461H458.414V491.776C458.414 496.216 457.303 499.491 455.083 501.601C452.863 503.71 449.995 504.765 446.479 504.765ZM484.336 504.654C482.042 504.654 479.877 504.321 477.842 503.654C475.843 502.951 474.178 501.897 472.846 500.49L475.899 495.328L476.121 494.884L476.621 495.162C476.695 495.458 476.787 495.754 476.898 496.05C477.046 496.309 477.342 496.642 477.786 497.049C478.711 497.752 479.729 498.326 480.839 498.77C481.986 499.214 483.226 499.436 484.558 499.436C486.298 499.436 487.704 499.066 488.777 498.326C489.887 497.548 490.442 496.42 490.442 494.94C490.442 494.199 490.276 493.515 489.943 492.886C489.61 492.22 488.943 491.553 487.944 490.887C486.982 490.221 485.539 489.444 483.615 488.556C481.246 487.52 479.359 486.484 477.953 485.448C476.584 484.374 475.603 483.227 475.011 482.006C474.419 480.748 474.123 479.342 474.123 477.787C474.123 476.085 474.585 474.568 475.51 473.236C476.473 471.903 477.786 470.849 479.451 470.072C481.117 469.294 483.023 468.906 485.169 468.906C489.425 468.906 492.922 470.386 495.66 473.347L491.996 477.565L491.663 477.954L491.219 477.621C491.182 477.325 491.108 477.047 490.997 476.788C490.923 476.492 490.683 476.122 490.276 475.678C489.573 475.012 488.814 474.568 488 474.346C487.223 474.124 486.298 474.013 485.224 474.013C483.707 474.013 482.504 474.364 481.616 475.067C480.728 475.771 480.284 476.585 480.284 477.51C480.284 478.25 480.451 478.916 480.784 479.508C481.117 480.1 481.783 480.729 482.782 481.395C483.818 482.062 485.391 482.857 487.5 483.782C489.832 484.855 491.663 485.91 492.996 486.946C494.328 487.945 495.253 489.056 495.771 490.277C496.326 491.498 496.604 492.923 496.604 494.551C496.604 496.216 496.178 497.826 495.327 499.38C494.476 500.934 493.144 502.211 491.33 503.21C489.517 504.172 487.186 504.654 484.336 504.654ZM519.806 504.043V474.734H510.481V469.461H535.626V474.734H525.801V504.043H519.806ZM550.336 504.043V469.461H572.873V474.568H556.442V483.449H569.931V488.612H556.442V498.936H572.706V504.043H550.336ZM588.138 504.043V469.461H597.075C600.109 469.461 602.459 469.887 604.124 470.738C605.826 471.552 607.251 472.718 608.398 474.235C609.545 475.789 610.434 477.639 611.063 479.786C611.729 481.932 612.062 484.337 612.062 487.002C611.988 490.48 611.414 493.515 610.341 496.105C609.268 498.659 607.584 500.62 605.29 501.989C603.032 503.358 600.072 504.043 596.408 504.043H588.138ZM594.244 499.158H596.242C598.61 499.158 600.498 498.659 601.904 497.659C603.347 496.66 604.383 495.254 605.012 493.441C605.641 491.628 605.937 489.5 605.9 487.057C605.9 484.504 605.623 482.284 605.068 480.396C604.55 478.509 603.625 477.047 602.292 476.011C600.96 474.975 599.147 474.457 596.852 474.457H594.244V499.158ZM675.841 504.654C673.547 504.654 671.382 504.321 669.347 503.654C667.349 502.951 665.683 501.897 664.351 500.49L667.404 495.328L667.626 494.884L668.126 495.162C668.2 495.458 668.292 495.754 668.403 496.05C668.551 496.309 668.847 496.642 669.291 497.049C670.217 497.752 671.234 498.326 672.344 498.77C673.492 499.214 674.731 499.436 676.063 499.436C677.803 499.436 679.209 499.066 680.282 498.326C681.392 497.548 681.947 496.42 681.947 494.94C681.947 494.199 681.781 493.515 681.448 492.886C681.115 492.22 680.449 491.553 679.45 490.887C678.487 490.221 677.044 489.444 675.12 488.556C672.751 487.52 670.864 486.484 669.458 485.448C668.089 484.374 667.108 483.227 666.516 482.006C665.924 480.748 665.628 479.342 665.628 477.787C665.628 476.085 666.09 474.568 667.016 473.236C667.978 471.903 669.291 470.849 670.957 470.072C672.622 469.294 674.528 468.906 676.674 468.906C680.93 468.906 684.427 470.386 687.165 473.347L683.502 477.565L683.169 477.954L682.725 477.621C682.688 477.325 682.614 477.047 682.502 476.788C682.428 476.492 682.188 476.122 681.781 475.678C681.078 475.012 680.319 474.568 679.505 474.346C678.728 474.124 677.803 474.013 676.73 474.013C675.212 474.013 674.01 474.364 673.122 475.067C672.233 475.771 671.789 476.585 671.789 477.51C671.789 478.25 671.956 478.916 672.289 479.508C672.622 480.1 673.288 480.729 674.287 481.395C675.323 482.062 676.896 482.857 679.005 483.782C681.337 484.855 683.169 485.91 684.501 486.946C685.833 487.945 686.758 489.056 687.276 490.277C687.831 491.498 688.109 492.923 688.109 494.551C688.109 496.216 687.683 497.826 686.832 499.38C685.981 500.934 684.649 502.211 682.836 503.21C681.022 504.172 678.691 504.654 675.841 504.654ZM703.54 504.043V469.461H726.077V474.568H709.646V483.449H723.135V488.612H709.646V498.936H725.91V504.043H703.54ZM749.613 504.043V474.734H740.287V469.461H765.433V474.734H755.608V504.043H749.613ZM791.189 504.765C787.377 504.765 784.435 503.636 782.363 501.379C780.327 499.121 779.31 495.976 779.31 491.942V469.461H786.026V469.961C785.841 470.183 785.712 470.442 785.638 470.738C785.601 470.997 785.582 471.422 785.582 472.014V491.998C785.582 494.366 785.989 496.235 786.803 497.604C787.618 498.973 789.098 499.658 791.244 499.658C793.39 499.658 794.889 498.973 795.74 497.604C796.592 496.235 797.017 494.31 797.017 491.831V469.461H803.123V491.776C803.123 496.216 802.013 499.491 799.793 501.601C797.572 503.71 794.704 504.765 791.189 504.765ZM818.277 504.043V469.461H830.045C832.709 469.461 834.911 469.924 836.65 470.849C838.39 471.774 839.666 473.014 840.48 474.568C841.332 476.085 841.757 477.769 841.757 479.619C841.757 481.432 841.35 483.098 840.536 484.615C839.722 486.095 838.464 487.298 836.761 488.223C835.059 489.111 832.913 489.555 830.322 489.555H824.66V504.043H818.277ZM824.66 484.337H829.878C831.655 484.337 833.005 483.893 833.93 483.005C834.856 482.117 835.318 480.988 835.318 479.619C835.318 478.25 834.856 477.121 833.93 476.233C833.005 475.345 831.673 474.901 829.934 474.901H824.66V484.337ZM867.347 504.654C865.052 504.654 862.887 504.321 860.852 503.654C858.854 502.951 857.189 501.897 855.856 500.49L858.909 495.328L859.131 494.884L859.631 495.162C859.705 495.458 859.797 495.754 859.908 496.05C860.056 496.309 860.353 496.642 860.797 497.049C861.722 497.752 862.739 498.326 863.85 498.77C864.997 499.214 866.236 499.436 867.569 499.436C869.308 499.436 870.714 499.066 871.787 498.326C872.898 497.548 873.453 496.42 873.453 494.94C873.453 494.199 873.286 493.515 872.953 492.886C872.62 492.22 871.954 491.553 870.955 490.887C869.993 490.221 868.549 489.444 866.625 488.556C864.257 487.52 862.369 486.484 860.963 485.448C859.594 484.374 858.613 483.227 858.021 482.006C857.429 480.748 857.133 479.342 857.133 477.787C857.133 476.085 857.596 474.568 858.521 473.236C859.483 471.903 860.797 470.849 862.462 470.072C864.127 469.294 866.033 468.906 868.179 468.906C872.435 468.906 875.932 470.386 878.67 473.347L875.007 477.565L874.674 477.954L874.23 477.621C874.193 477.325 874.119 477.047 874.008 476.788C873.934 476.492 873.693 476.122 873.286 475.678C872.583 475.012 871.824 474.568 871.01 474.346C870.233 474.124 869.308 474.013 868.235 474.013C866.718 474.013 865.515 474.364 864.627 475.067C863.739 475.771 863.294 476.585 863.294 477.51C863.294 478.25 863.461 478.916 863.794 479.508C864.127 480.1 864.793 480.729 865.792 481.395C866.829 482.062 868.401 482.857 870.511 483.782C872.842 484.855 874.674 485.91 876.006 486.946C877.338 487.945 878.263 489.056 878.781 490.277C879.337 491.498 879.614 492.923 879.614 494.551C879.614 496.216 879.189 497.826 878.337 499.38C877.486 500.934 876.154 502.211 874.341 503.21C872.527 504.172 870.196 504.654 867.347 504.654Z" fill="white"/>
<circle cx="594.044" cy="390.784" r="11.4398" transform="rotate(82.1661 594.044 390.784)" fill="white"/>
<circle cx="601.159" cy="337.716" r="11.4398" transform="rotate(82.1661 601.159 337.716)" fill="white"/>
<circle cx="642.902" cy="363.939" r="11.4398" transform="rotate(82.1661 642.902 363.939)" fill="white"/>
<circle cx="677.546" cy="338.154" r="11.4398" transform="rotate(82.1661 677.546 338.154)" fill="white"/>
<circle cx="757.121" cy="305.782" r="11.4398" transform="rotate(82.1661 757.121 305.782)" fill="white"/>
<circle cx="680.665" cy="283.116" r="11.4398" transform="rotate(82.1661 680.665 283.116)" fill="white"/>
<circle cx="720.615" cy="266.266" r="11.4398" transform="rotate(82.1661 720.615 266.266)" fill="white"/>
<circle cx="735.666" cy="219.991" r="11.4398" transform="rotate(82.1661 735.666 219.991)" fill="white"/>
<circle cx="565.141" cy="118.849" r="11.4398" transform="rotate(82.1661 565.141 118.849)" fill="white"/>
<circle cx="494.935" cy="131.631" r="6.67725" transform="rotate(82.1661 494.935 131.631)" fill="white"/>
<circle cx="442.691" cy="146.681" r="6.67725" transform="rotate(82.1661 442.691 146.681)" fill="white"/>
<circle cx="529.473" cy="189.62" r="6.67725" transform="rotate(82.1661 529.473 189.62)" fill="white"/>
<circle cx="488.248" cy="213.263" r="6.67725" transform="rotate(82.1661 488.248 213.263)" fill="white"/>
<circle cx="459.561" cy="213.263" r="6.67725" transform="rotate(82.1661 459.561 213.263)" fill="white"/>
<circle cx="421.58" cy="207.558" r="6.67725" transform="rotate(82.1661 421.58 207.558)" fill="white"/>
<circle cx="457.741" cy="255.96" r="6.67725" transform="rotate(82.1661 457.741 255.96)" fill="white"/>
<circle cx="523.768" cy="281.745" r="6.67725" transform="rotate(82.1661 523.768 281.745)" fill="white"/>
<circle cx="595.455" cy="289.786" r="6.67725" transform="rotate(82.1661 595.455 289.786)" fill="white"/>
<circle cx="635.376" cy="291.607" r="6.67725" transform="rotate(82.1661 635.376 291.607)" fill="white"/>
<circle cx="650.427" cy="318.675" r="6.67725" transform="rotate(82.1661 650.427 318.675)" fill="white"/>
<circle cx="677.546" cy="250.772" r="6.67725" transform="rotate(82.1661 677.546 250.772)" fill="white"/>
<circle cx="715.248" cy="189.62" r="6.67725" transform="rotate(82.1661 715.248 189.62)" fill="white"/>
<circle cx="749.595" cy="254.14" r="6.67725" transform="rotate(82.1661 749.595 254.14)" fill="white"/>
<circle cx="778.42" cy="238.857" r="6.67725" transform="rotate(82.1661 778.42 238.857)" fill="white"/>
<circle cx="775.718" cy="183.915" r="6.67725" transform="rotate(82.1661 775.718 183.915)" fill="white"/>
<circle cx="712.687" cy="360.82" r="6.67725" transform="rotate(82.1661 712.687 360.82)" fill="white"/>
<circle cx="713.428" cy="299.132" r="6.67725" transform="rotate(82.1661 713.428 299.132)" fill="white"/>
<circle cx="476.338" cy="178.214" r="11.4398" transform="rotate(82.1661 476.338 178.214)" fill="white"/>
<circle cx="527.225" cy="152.429" r="11.4398" transform="rotate(82.1661 527.225 152.429)" fill="white"/>
<circle cx="550.975" cy="360.82" r="11.4398" transform="rotate(82.1661 550.975 360.82)" fill="white"/>
<circle cx="568.259" cy="305.782" r="11.4398" transform="rotate(82.1661 568.259 305.782)" fill="white"/>
<circle cx="558.486" cy="263.148" r="11.4398" transform="rotate(82.1661 558.486 263.148)" fill="white"/>
<circle cx="525.19" cy="315.556" r="11.4398" transform="rotate(82.1661 525.19 315.556)" fill="white"/>
<circle cx="495.435" cy="269.368" r="11.4398" transform="rotate(82.1661 495.435 269.368)" fill="white"/>
<circle cx="512.298" cy="237.363" r="11.4398" transform="rotate(82.1661 512.298 237.363)" fill="white"/>
<circle cx="476.338" cy="322.217" r="11.4398" transform="rotate(82.1661 476.338 322.217)" fill="white"/>
</g>
<defs>
<clipPath id="clip0_3626_30935">
<rect width="1200" height="630" fill="white"/>
</clipPath>
</defs>
</svg>
