<svg width="1200" height="630" viewBox="0 0 1200 630" fill="none" xmlns="http://www.w3.org/2000/svg">
<g clip-path="url(#clip0_3379_19686)">
<rect width="1200" height="630" fill="#151718"/>
<g opacity="0.8" filter="url(#filter0_f_3379_19686)">
<path d="M-1021.7 -70.0683C-1039.12 -75.6617 -1061.75 -79.088 -1077.93 -88.1902C-1070.96 -90.9354 -1064.64 -95.5638 -1058.94 -99.4502C-1048.42 -106.636 -1032.22 -110.691 -1019.68 -115.39C-1003.94 -121.289 -978.265 -114.089 -960.813 -108.817C-927.177 -98.6557 -894.122 -90.2919 -860.049 -88.9854C-828.313 -87.7686 -797.821 -98.8135 -771.613 -108.943C-722.084 -128.085 -671.149 -144.629 -619.089 -160.052C-512.976 -191.488 -404.352 -208.481 -281.468 -191.482C-206.995 -181.181 -85.1103 -221.846 -13.11 -195.79C28.5758 -180.704 258.323 -122.367 295.31 -98.5602C352.076 -62.0221 315.644 -7.92554 351.013 41.3924C366.403 62.8508 221.7 110.139 233.512 132.646C240.883 146.691 249.751 161.176 251.431 175.782C255.859 214.29 244.197 250.202 227.77 282.898C208.246 321.758 169.525 352.41 124.559 371.273C108.236 378.12 91.7602 385.325 73.0055 388.393C54.1322 391.48 33.7124 390.219 13.9425 390.401C-53.2768 391.021 -111.783 362.698 -171.653 330.17C-247.733 288.835 -540.172 292.813 -615.748 250.705C-734.304 184.651 -762.624 114.076 -889.44 63.0508C-974.695 28.7476 -934.402 -42.0416 -1021.7 -70.0683Z" fill="#28C7FA"/>
</g>
<g filter="url(#filter1_f_3379_19686)">
<ellipse cx="225.015" cy="296.05" rx="225.015" ry="296.05" transform="matrix(0.811861 0.583851 -0.480658 0.876908 1186.42 197.758)" fill="#F5841A"/>
</g>
<circle cx="717.167" cy="605.23" r="35.4767" transform="rotate(60 717.167 605.23)" fill="url(#paint0_radial_3379_19686)"/>
<circle cx="148.222" cy="556.768" r="42.3366" transform="rotate(102.722 148.222 556.768)" fill="url(#paint1_radial_3379_19686)"/>
<circle cx="1065.03" cy="159.603" r="55.7322" transform="rotate(46.6721 1065.03 159.603)" fill="url(#paint2_radial_3379_19686)"/>
<path d="M1053.56 57.2187L1121.61 56.9536L1157.49 114.487L1091.3 111.965L1053.56 57.2187Z" fill="url(#paint3_linear_3379_19686)" fillOpacity="0.4"/>
<path d="M910.709 251.399L1002.84 267.894L1065.19 335.566L974.142 319.985L910.709 251.399Z" fill="url(#paint4_linear_3379_19686)" fillOpacity="0.4"/>
<path opacity="0.8" d="M1119.66 55.8807L1156.06 113.061L1066.25 337.101L1002.71 268.138L1119.66 55.8807Z" fill="url(#paint5_linear_3379_19686)"/>
<path opacity="0.8" d="M1119.52 56.1343L1051.74 55.9126L910.326 251.52L1002.57 268.392L1119.52 56.1343Z" fill="url(#paint6_linear_3379_19686)"/>
<g clip-path="url(#clip1_3379_19686)">
<path fillRule="evenodd" clipRule="evenodd" d="M169.685 201C166.545 201 164 203.552 164 206.7V343.165C164 390.57 202.329 429 249.61 429C252.565 429 254.96 426.598 254.96 423.635V206.7C254.96 203.552 252.415 201 249.275 201H169.685ZM209.48 212.4C209.48 231.288 194.209 246.6 175.37 246.6C194.209 246.6 209.48 261.912 209.48 280.8C209.48 261.912 224.752 246.6 243.59 246.6C224.752 246.6 209.48 231.288 209.48 212.4Z" fill="white"/>
<path fillRule="evenodd" clipRule="evenodd" d="M272.015 429C268.875 429 266.33 426.448 266.33 423.3L266.33 286.835C266.33 239.43 304.659 201 351.94 201C354.895 201 357.291 203.402 357.291 206.365L357.291 423.3C357.291 426.448 354.745 429 351.606 429H272.015ZM311.81 417.6C311.81 398.712 296.539 383.4 277.7 383.4C296.539 383.4 311.81 368.088 311.81 349.2C311.81 368.088 327.082 383.4 345.92 383.4C327.082 383.4 311.81 398.712 311.81 417.6Z" fill="white"/>
</g>
<path d="M438.7 327.92C429.503 327.92 421.67 326.299 415.202 323.056C408.733 319.712 403.781 315.051 400.345 309.072C396.909 303.093 395.19 296.101 395.19 288.096V220H420.205V288.096C420.205 292.048 420.963 295.443 422.479 298.28C423.995 301.117 426.117 303.347 428.846 304.968C431.676 306.488 434.96 307.248 438.7 307.248C442.54 307.248 445.825 306.488 448.554 304.968C451.283 303.347 453.405 301.117 454.921 298.28C456.437 295.443 457.195 292.048 457.195 288.096V220H482.209V288.096C482.209 296.101 480.491 303.093 477.055 309.072C473.619 315.051 468.666 319.712 462.198 323.056C455.73 326.299 447.897 327.92 438.7 327.92Z" fill="white"/>
<path d="M507.889 326.096V220H539.725L569.287 295.088L567.62 256.48V220H591.118V326.096H559.282L529.416 252.376L531.387 289.616V326.096H507.889Z" fill="white"/>
<path d="M647.572 326.096V220H672.586V326.096H647.572ZM623.316 220H696.843V240.52H623.316V220ZM623.316 305.576H696.843V326.096H623.316V305.576Z" fill="white"/>
<path d="M749.052 286.424V265.904H772.854C775.886 265.904 778.513 265.347 780.737 264.232C783.062 263.117 784.83 261.547 786.043 259.52C787.357 257.493 788.014 255.213 788.014 252.68C788.014 250.248 787.407 248.12 786.195 246.296C785.083 244.472 783.516 243.053 781.495 242.04C779.474 241.027 777.149 240.52 774.521 240.52H749.052V220H774.521C782.202 220 788.974 221.317 794.836 223.952C800.799 226.485 805.448 230.184 808.783 235.048C812.118 239.912 813.786 245.789 813.786 252.68C813.786 256.835 812.775 260.939 810.754 264.992C808.834 268.944 806.004 272.541 802.264 275.784C798.626 279.027 794.179 281.611 788.923 283.536C783.769 285.461 777.907 286.424 771.338 286.424H749.052ZM731.012 326.096V220H756.026V326.096H731.012ZM788.62 326.096C788.62 321.637 787.812 317.128 786.195 312.568C784.578 307.907 782.202 303.499 779.069 299.344C776.037 295.088 772.247 291.237 767.699 287.792C763.151 284.347 757.896 281.56 751.933 279.432L779.676 273.808C785.538 276.747 790.642 280.243 794.987 284.296C799.333 288.349 802.921 292.707 805.751 297.368C808.682 302.029 810.855 306.843 812.27 311.808C813.685 316.672 814.392 321.435 814.392 326.096H788.62Z" fill="white"/>
<path d="M843.407 326.096V220H921.785V240.52H868.421V261.04H902.835V281.56H868.421V305.576H922.391V326.096H843.407Z" fill="white"/>
<path d="M970.053 292.808V272.288H994.158C999.009 272.288 1002.9 270.819 1005.83 267.88C1008.76 264.84 1010.23 260.888 1010.23 256.024C1010.23 251.363 1008.76 247.613 1005.83 244.776C1002.9 241.939 999.009 240.52 994.158 240.52H970.053V220H994.309C1002.7 220 1010.03 221.469 1016.29 224.408C1022.56 227.347 1027.41 231.552 1030.84 237.024C1034.28 242.395 1036 248.728 1036 256.024C1036 263.421 1034.28 269.907 1030.84 275.48C1027.41 280.952 1022.56 285.208 1016.29 288.248C1010.13 291.288 1002.8 292.808 994.309 292.808H970.053ZM952.164 326.096V220H977.178V326.096H952.164Z" fill="white"/>
<path d="M403.643 386.231V379.106H421.645C426.256 379.106 429.983 377.871 432.826 375.401C435.668 372.931 437.089 369.669 437.089 365.616C437.089 361.626 435.763 358.428 433.11 356.021C430.52 353.614 427.078 352.411 422.782 352.411H403.643V345.286H422.877C427.488 345.286 431.499 346.141 434.91 347.851C438.321 349.498 440.974 351.841 442.869 354.881C444.764 357.858 445.712 361.436 445.712 365.616C445.712 369.733 444.701 373.343 442.68 376.446C440.722 379.549 437.942 381.956 434.342 383.666C430.741 385.376 426.509 386.231 421.645 386.231H403.643ZM397.768 411.596V345.286H405.917V411.596H397.768Z" fill="white"/>
<path d="M488.386 382.906V375.781H505.726C508.821 375.781 511.537 375.306 513.874 374.356C516.275 373.343 518.138 371.918 519.465 370.081C520.854 368.181 521.549 365.996 521.549 363.526C521.549 361.246 520.949 359.283 519.749 357.636C518.549 355.989 516.938 354.723 514.917 353.836C512.895 352.886 510.653 352.411 508.189 352.411H488.386V345.286H508.189C512.421 345.286 516.18 346.014 519.465 347.471C522.812 348.928 525.434 351.018 527.329 353.741C529.224 356.464 530.171 359.726 530.171 363.526C530.171 366.059 529.603 368.498 528.466 370.841C527.392 373.121 525.781 375.179 523.634 377.016C521.486 378.789 518.896 380.214 515.864 381.291C512.832 382.368 509.358 382.906 505.442 382.906H488.386ZM482.512 411.596V345.286H490.66V411.596H482.512ZM521.17 411.596C520.665 408.556 519.749 405.579 518.422 402.666C517.159 399.753 515.454 396.966 513.306 394.306C511.221 391.646 508.6 389.144 505.442 386.801C502.283 384.458 498.62 382.304 494.45 380.341L503.547 378.251C507.968 380.404 511.727 382.779 514.822 385.376C517.917 387.909 520.475 390.601 522.497 393.451C524.581 396.238 526.16 399.151 527.234 402.191C528.308 405.231 529.034 408.366 529.413 411.596H521.17Z" fill="white"/>
<path d="M589.048 412.736C583.49 412.736 578.657 411.343 574.552 408.556C570.446 405.706 567.256 401.716 564.982 396.586C562.771 391.393 561.666 385.344 561.666 378.441C561.666 371.474 562.771 365.426 564.982 360.296C567.256 355.166 570.446 351.208 574.552 348.421C578.657 345.571 583.49 344.146 589.048 344.146C594.607 344.146 599.439 345.571 603.545 348.421C607.651 351.208 610.809 355.166 613.02 360.296C615.294 365.426 616.431 371.474 616.431 378.441C616.431 385.344 615.294 391.393 613.02 396.586C610.809 401.716 607.651 405.706 603.545 408.556C599.439 411.343 594.607 412.736 589.048 412.736ZM589.048 405.611C592.838 405.611 596.123 404.503 598.902 402.286C601.745 400.069 603.924 396.934 605.44 392.881C607.019 388.764 607.809 383.951 607.809 378.441C607.809 372.931 607.019 368.149 605.44 364.096C603.924 360.043 601.745 356.908 598.902 354.691C596.123 352.411 592.838 351.271 589.048 351.271C585.258 351.271 581.942 352.411 579.1 354.691C576.32 356.908 574.141 360.043 572.562 364.096C570.983 368.149 570.193 372.931 570.193 378.441C570.193 383.951 570.983 388.764 572.562 392.881C574.141 396.934 576.32 400.069 579.1 402.286C581.942 404.503 585.258 405.611 589.048 405.611Z" fill="white"/>
<path d="M669.15 411.596V352.411H647.167V345.286H699.375V352.411H677.393V411.596H669.15Z" fill="white"/>
<path d="M757.778 412.736C752.219 412.736 747.387 411.343 743.281 408.556C739.175 405.706 735.986 401.716 733.712 396.586C731.501 391.393 730.395 385.344 730.395 378.441C730.395 371.474 731.501 365.426 733.712 360.296C735.986 355.166 739.175 351.208 743.281 348.421C747.387 345.571 752.219 344.146 757.778 344.146C763.337 344.146 768.169 345.571 772.275 348.421C776.381 351.208 779.539 355.166 781.75 360.296C784.024 365.426 785.161 371.474 785.161 378.441C785.161 385.344 784.024 391.393 781.75 396.586C779.539 401.716 776.381 405.706 772.275 408.556C768.169 411.343 763.337 412.736 757.778 412.736ZM757.778 405.611C761.568 405.611 764.853 404.503 767.632 402.286C770.475 400.069 772.654 396.934 774.17 392.881C775.749 388.764 776.539 383.951 776.539 378.441C776.539 372.931 775.749 368.149 774.17 364.096C772.654 360.043 770.475 356.908 767.632 354.691C764.853 352.411 761.568 351.271 757.778 351.271C753.988 351.271 750.672 352.411 747.829 354.691C745.05 356.908 742.871 360.043 741.292 364.096C739.712 368.149 738.923 372.931 738.923 378.441C738.923 383.951 739.712 388.764 741.292 392.881C742.871 396.934 745.05 400.069 747.829 402.286C750.672 404.503 753.988 405.611 757.778 405.611Z" fill="white"/>
<path d="M843.375 412.736C837.563 412.736 832.51 411.248 828.215 408.271C823.983 405.294 820.729 401.241 818.455 396.111C816.181 390.918 815.044 384.996 815.044 378.346C815.044 371.379 816.245 365.331 818.645 360.201C821.045 355.071 824.393 351.113 828.688 348.326C832.984 345.539 837.942 344.146 843.564 344.146C848.175 344.146 852.313 345.064 855.977 346.901C859.64 348.674 862.641 351.239 864.978 354.596C867.315 357.953 868.705 361.911 869.147 366.471H860.051C859.546 361.911 857.808 358.238 854.84 355.451C851.871 352.664 848.081 351.271 843.47 351.271C839.553 351.271 836.111 352.379 833.142 354.596C830.173 356.813 827.836 359.979 826.13 364.096C824.488 368.149 823.667 372.931 823.667 378.441C823.667 384.014 824.519 388.859 826.225 392.976C827.931 397.029 830.268 400.164 833.237 402.381C836.205 404.534 839.585 405.611 843.375 405.611C846.596 405.611 849.407 404.946 851.808 403.616C854.271 402.286 856.229 400.418 857.682 398.011C859.198 395.604 860.114 392.786 860.43 389.556H869.431C868.989 394.179 867.631 398.264 865.357 401.811C863.146 405.294 860.177 407.986 856.45 409.886C852.724 411.786 848.365 412.736 843.375 412.736Z" fill="white"/>
<path d="M926.508 412.736C920.949 412.736 916.117 411.343 912.011 408.556C907.905 405.706 904.715 401.716 902.441 396.586C900.231 391.393 899.125 385.344 899.125 378.441C899.125 371.474 900.231 365.426 902.441 360.296C904.715 355.166 907.905 351.208 912.011 348.421C916.117 345.571 920.949 344.146 926.508 344.146C932.067 344.146 936.899 345.571 941.005 348.421C945.111 351.208 948.269 355.166 950.48 360.296C952.754 365.426 953.891 371.474 953.891 378.441C953.891 385.344 952.754 391.393 950.48 396.586C948.269 401.716 945.111 405.706 941.005 408.556C936.899 411.343 932.067 412.736 926.508 412.736ZM926.508 405.611C930.298 405.611 933.583 404.503 936.362 402.286C939.204 400.069 941.384 396.934 942.9 392.881C944.479 388.764 945.269 383.951 945.269 378.441C945.269 372.931 944.479 368.149 942.9 364.096C941.384 360.043 939.204 356.908 936.362 354.691C933.583 352.411 930.298 351.271 926.508 351.271C922.718 351.271 919.402 352.411 916.559 354.691C913.78 356.908 911.601 360.043 910.021 364.096C908.442 368.149 907.653 372.931 907.653 378.441C907.653 383.951 908.442 388.764 910.021 392.881C911.601 396.934 913.78 400.069 916.559 402.286C919.402 404.503 922.718 405.611 926.508 405.611Z" fill="white"/>
<path d="M991.259 411.596V345.286H999.408V404.471H1034.94V411.596H991.259Z" fill="white"/>
</g>
<defs>
<filter id="filter0_f_3379_19686" x="-1340.02" y="-466.753" width="1954.28" height="1119.35" filterUnits="userSpaceOnUse" color-interpolation-filters="sRGB">
<feFlood flood-opacity="0" result="BackgroundImageFix"/>
<feBlend mode="normal" in="SourceGraphic" in2="BackgroundImageFix" result="shape"/>
<feGaussianBlur stdDeviation="131.046" result="effect1_foregroundBlur_3379_19686"/>
</filter>
<filter id="filter1_f_3379_19686" x="733.135" y="35.6291" width="987.331" height="1106.23" filterUnits="userSpaceOnUse" color-interpolation-filters="sRGB">
<feFlood flood-opacity="0" result="BackgroundImageFix"/>
<feBlend mode="normal" in="SourceGraphic" in2="BackgroundImageFix" result="shape"/>
<feGaussianBlur stdDeviation="131.046" result="effect1_foregroundBlur_3379_19686"/>
</filter>
<radialGradient id="paint0_radial_3379_19686" cx="0" cy="0" r="1" gradientUnits="userSpaceOnUse" gradientTransform="translate(699.204 594.599) rotate(38.492) scale(47.2016)">
<stop stop-color="#FFCEAA"/>
<stop offset="0.182292" stop-color="#4FFFEA"/>
<stop offset="1" stop-color="#FF7D1F"/>
</radialGradient>
<radialGradient id="paint1_radial_3379_19686" cx="0" cy="0" r="1" gradientUnits="userSpaceOnUse" gradientTransform="translate(126.786 544.081) rotate(38.492) scale(56.3286)">
<stop stop-color="#55FFE0"/>
<stop offset="0.291667" stop-color="#FF6E4F"/>
<stop offset="1" stop-color="#1FE4FF"/>
</radialGradient>
<radialGradient id="paint2_radial_3379_19686" cx="0" cy="0" r="1" gradientUnits="userSpaceOnUse" gradientTransform="translate(1036.81 142.903) rotate(38.492) scale(74.1515)">
<stop stop-color="#FFDBC1"/>
<stop offset="0.182292" stop-color="#86FDF6"/>
<stop offset="1" stop-color="#F1A269"/>
</radialGradient>
<linearGradient id="paint3_linear_3379_19686" x1="1096.31" y1="55.0715" x2="1126.53" y2="114.244" gradientUnits="userSpaceOnUse">
<stop stop-color="#7FE8EE"/>
<stop offset="1" stop-color="#FFC187"/>
</linearGradient>
<linearGradient id="paint4_linear_3379_19686" x1="997.259" y1="230.23" x2="1027.48" y2="289.403" gradientUnits="userSpaceOnUse">
<stop stop-color="#FF9D87"/>
<stop offset="1" stop-color="#0EFFB7"/>
</linearGradient>
<linearGradient id="paint5_linear_3379_19686" x1="1032.92" y1="287.009" x2="1175.23" y2="281.002" gradientUnits="userSpaceOnUse">
<stop stop-color="#94D7FD" stop-opacity="0.47"/>
<stop offset="1" stop-color="#40D1FF"/>
</linearGradient>
<linearGradient id="paint6_linear_3379_19686" x1="970.473" y1="252.929" x2="899.528" y2="129.425" gradientUnits="userSpaceOnUse">
<stop stop-color="#89AEB0" stop-opacity="0.42"/>
<stop offset="0.0001" stop-color="#BDF9D1" stop-opacity="0.26"/>
<stop offset="1" stop-color="#36F3FF"/>
</linearGradient>
<clipPath id="clip0_3379_19686">
<rect width="1200" height="630" fill="white"/>
</clipPath>
<clipPath id="clip1_3379_19686">
<rect width="193.291" height="228" fill="white" transform="translate(164 201)"/>
</clipPath>
</defs>
</svg>
