<svg width="360" height="161" viewBox="0 0 360 161" fill="none" xmlns="http://www.w3.org/2000/svg">
<g clip-path="url(#clip0_1726_4120)">
<rect y="0.683105" width="360" height="160" rx="4" fill="#363337"/>
<rect x="53.5" y="16.1831" width="166" height="116" rx="2.02991" stroke="black" stroke-dasharray="2 2"/>
<rect x="247" y="18.6831" width="82" height="110" rx="2.53" fill="#100F11"/>
<rect x="249.316" y="13.9993" width="81.3675" height="109.368" rx="2.21368" fill="#1B1A1B" stroke="#363337" stroke-width="0.632479"/>
<rect x="27" y="71.6831" width="142" height="78" rx="2.53" fill="#100F11"/>
<rect x="29.3162" y="66.9993" width="141.368" height="77.3675" rx="2.21368" fill="#292629" stroke="#363337" stroke-width="0.632479"/>
<rect x="39.4276" y="125.857" width="120.705" height="12.3675" rx="2.21368" fill="#1B1A1B" stroke="#363337" stroke-width="0.632479"/>
<rect x="76" y="54.6831" width="205" height="61" rx="2.53" fill="#100F11"/>
<path d="M78.7499 52.2248C78.7499 51.2323 79.5502 50.4332 80.5307 50.4332H280.469C281.45 50.4332 282.25 51.2323 282.25 52.2248V108.141C282.25 109.134 281.45 109.933 280.469 109.933H80.5307C79.5502 109.933 78.7499 109.134 78.7499 108.141V52.2248Z" fill="#1B1A1B" stroke="#D168F9" stroke-width="1.5"/>
<path d="M108.858 73.5183H127.053V78.1937L115.079 91.9137H127.053V96.3849H108.37V91.7095L120.365 77.9896H108.858V73.5183Z" fill="#D168F9"/>
<path d="M133.701 64.6167H139.658V81.2971L146.814 73.5183H154.031L145.411 82.0525L154.519 96.3849H147.932L141.691 85.6866L139.658 87.6466V96.3849H133.701V64.6167Z" fill="#D168F9"/>
<path d="M157.324 81.6033H178.874V87.0954H157.324V81.6033Z" fill="#D168F9"/>
<path d="M183.875 64.6167H189.832V81.2971L196.988 73.5183H204.205L195.585 82.0525L204.693 96.3849H198.106L191.865 85.6866L189.832 87.6466V96.3849H183.875V64.6167Z" fill="#D168F9"/>
<path d="M209.918 73.5183H221.709V91.7912H229.109V96.3849H208.332V91.7912H215.752V78.1121H209.918V73.5183ZM215.752 62.3913H221.709V69.3738H215.752V62.3913Z" fill="#D168F9"/>
<path d="M244.539 67.0259V73.5183H252.325V78.1121H244.539V88.9328C244.539 89.9537 244.783 90.6887 245.271 91.1378C245.773 91.5734 246.599 91.7912 247.751 91.7912H252.325V96.3849H247.324C243.909 96.3849 241.598 95.8405 240.392 94.7516C239.186 93.6491 238.583 91.6142 238.583 88.647V78.1121H232.768V73.5183H238.583V67.0259H244.539Z" fill="#D168F9"/>
<rect x="196" y="30.6831" width="15" height="15" rx="2.52991" fill="#100F11"/>
<rect x="227" y="30.6831" width="15" height="15" rx="2.52991" fill="#100F11"/>
<rect x="257" y="30.6831" width="15" height="15" rx="2.52991" fill="#100F11"/>
<rect x="287" y="30.6831" width="15" height="15" rx="2.52991" fill="#100F11"/>
<rect x="198.316" y="25.9993" width="14.3675" height="14.3675" rx="2.21368" fill="#292629" stroke="#363337" stroke-width="0.632479"/>
<rect x="229.316" y="25.9993" width="14.3675" height="14.3675" rx="2.21368" fill="#292629" stroke="#363337" stroke-width="0.632479"/>
<rect x="259.316" y="25.9993" width="14.3675" height="14.3675" rx="2.21368" fill="#292629" stroke="#363337" stroke-width="0.632479"/>
<rect x="289.316" y="25.9993" width="14.3675" height="14.3675" rx="2.21368" fill="#292629" stroke="#363337" stroke-width="0.632479"/>
</g>
<defs>
<clipPath id="clip0_1726_4120">
<rect y="0.683105" width="360" height="160" rx="4" fill="white"/>
</clipPath>
</defs>
</svg>
