<svg width="321" height="180" viewBox="0 0 321 180" fill="none" xmlns="http://www.w3.org/2000/svg">
<rect width="320" height="180" transform="translate(0.828125)" fill="#FFDE17"/>
<path d="M32.7569 69V43.8H43.1249C44.7089 43.8 46.1009 44.124 47.3009 44.772C48.5249 45.396 49.4729 46.284 50.1449 47.436C50.8409 48.588 51.1889 49.956 51.1889 51.54V52.044C51.1889 53.604 50.8289 54.972 50.1089 56.148C49.4129 57.3 48.4529 58.2 47.2289 58.848C46.0289 59.472 44.6609 59.784 43.1249 59.784H37.5089V69H32.7569ZM37.5089 55.464H42.6569C43.7849 55.464 44.6969 55.152 45.3929 54.528C46.0889 53.904 46.4369 53.052 46.4369 51.972V51.612C46.4369 50.532 46.0889 49.68 45.3929 49.056C44.6969 48.432 43.7849 48.12 42.6569 48.12H37.5089V55.464ZM63.2314 69.504C61.2874 69.504 59.5714 69.156 58.0834 68.46C56.5954 67.764 55.4314 66.768 54.5914 65.472C53.7514 64.176 53.3314 62.616 53.3314 60.792V59.784H58.0114V60.792C58.0114 62.304 58.4794 63.444 59.4154 64.212C60.3514 64.956 61.6234 65.328 63.2314 65.328C64.8634 65.328 66.0754 65.004 66.8674 64.356C67.6834 63.708 68.0914 62.88 68.0914 61.872C68.0914 61.176 67.8874 60.612 67.4794 60.18C67.0954 59.748 66.5194 59.4 65.7514 59.136C65.0074 58.848 64.0954 58.584 63.0154 58.344L62.1874 58.164C60.4594 57.78 58.9714 57.3 57.7234 56.724C56.4994 56.124 55.5514 55.344 54.8794 54.384C54.2314 53.424 53.9074 52.176 53.9074 50.64C53.9074 49.104 54.2674 47.796 54.9874 46.716C55.7314 45.612 56.7634 44.772 58.0834 44.196C59.4274 43.596 60.9994 43.296 62.7994 43.296C64.5994 43.296 66.1954 43.608 67.5874 44.232C69.0034 44.832 70.1074 45.744 70.8994 46.968C71.7154 48.168 72.1234 49.68 72.1234 51.504V52.584H67.4434V51.504C67.4434 50.544 67.2514 49.776 66.8674 49.2C66.5074 48.6 65.9794 48.168 65.2834 47.904C64.5874 47.616 63.7594 47.472 62.7994 47.472C61.3594 47.472 60.2914 47.748 59.5954 48.3C58.9234 48.828 58.5874 49.56 58.5874 50.496C58.5874 51.12 58.7434 51.648 59.0554 52.08C59.3914 52.512 59.8834 52.872 60.5314 53.16C61.1794 53.448 62.0074 53.7 63.0154 53.916L63.8434 54.096C65.6434 54.48 67.2034 54.972 68.5234 55.572C69.8674 56.172 70.9114 56.964 71.6554 57.948C72.3994 58.932 72.7714 60.192 72.7714 61.728C72.7714 63.264 72.3754 64.62 71.5834 65.796C70.8154 66.948 69.7114 67.86 68.2714 68.532C66.8554 69.18 65.1754 69.504 63.2314 69.504ZM76.3155 69V43.8H92.5155V48.12H81.0675V54.132H91.5075V58.452H81.0675V64.68H92.7315V69H76.3155ZM135.115 69V64.824H138.427V47.976H135.115V43.8H145.483C148.867 43.8 151.435 44.664 153.187 46.392C154.963 48.096 155.851 50.64 155.851 54.024V58.776C155.851 62.16 154.963 64.716 153.187 66.444C151.435 68.148 148.867 69 145.483 69H135.115ZM143.179 64.68H145.555C147.475 64.68 148.879 64.176 149.767 63.168C150.655 62.16 151.099 60.744 151.099 58.92V53.88C151.099 52.032 150.655 50.616 149.767 49.632C148.879 48.624 147.475 48.12 145.555 48.12H143.179V64.68ZM168.092 69.504C166.316 69.504 164.744 69.132 163.376 68.388C162.032 67.62 160.976 66.552 160.208 65.184C159.464 63.792 159.092 62.16 159.092 60.288V59.856C159.092 57.984 159.464 56.364 160.208 54.996C160.952 53.604 161.996 52.536 163.34 51.792C164.684 51.024 166.244 50.64 168.02 50.64C169.772 50.64 171.296 51.036 172.592 51.828C173.888 52.596 174.896 53.676 175.616 55.068C176.336 56.436 176.696 58.032 176.696 59.856V61.404H163.7C163.748 62.628 164.204 63.624 165.068 64.392C165.932 65.16 166.988 65.544 168.236 65.544C169.508 65.544 170.444 65.268 171.044 64.716C171.644 64.164 172.1 63.552 172.412 62.88L176.12 64.824C175.784 65.448 175.292 66.132 174.644 66.876C174.02 67.596 173.18 68.22 172.124 68.748C171.068 69.252 169.724 69.504 168.092 69.504ZM163.736 58.02H172.088C171.992 56.988 171.572 56.16 170.828 55.536C170.108 54.912 169.16 54.6 167.984 54.6C166.76 54.6 165.788 54.912 165.068 55.536C164.348 56.16 163.904 56.988 163.736 58.02ZM183.95 69L178.262 51.144H183.086L187.226 65.688H187.874L192.014 51.144H196.838L191.15 69H183.95ZM207.789 69.504C206.061 69.504 204.489 69.144 203.073 68.424C201.681 67.704 200.577 66.66 199.761 65.292C198.945 63.924 198.537 62.268 198.537 60.324V59.82C198.537 57.876 198.945 56.22 199.761 54.852C200.577 53.484 201.681 52.44 203.073 51.72C204.489 51 206.061 50.64 207.789 50.64C209.493 50.64 210.957 50.94 212.181 51.54C213.405 52.14 214.389 52.968 215.133 54.024C215.901 55.056 216.405 56.232 216.645 57.552L212.253 58.488C212.157 57.768 211.941 57.12 211.605 56.544C211.269 55.968 210.789 55.512 210.165 55.176C209.565 54.84 208.809 54.672 207.897 54.672C206.985 54.672 206.157 54.876 205.413 55.284C204.693 55.668 204.117 56.256 203.685 57.048C203.277 57.816 203.073 58.764 203.073 59.892V60.252C203.073 61.38 203.277 62.34 203.685 63.132C204.117 63.9 204.693 64.488 205.413 64.896C206.157 65.28 206.985 65.472 207.897 65.472C209.265 65.472 210.297 65.124 210.993 64.428C211.713 63.708 212.169 62.772 212.361 61.62L216.753 62.664C216.441 63.936 215.901 65.1 215.133 66.156C214.389 67.188 213.405 68.004 212.181 68.604C210.957 69.204 209.493 69.504 207.789 69.504ZM228.991 69.504C227.215 69.504 225.619 69.144 224.203 68.424C222.787 67.704 221.671 66.66 220.855 65.292C220.039 63.924 219.631 62.28 219.631 60.36V59.784C219.631 57.864 220.039 56.22 220.855 54.852C221.671 53.484 222.787 52.44 224.203 51.72C225.619 51 227.215 50.64 228.991 50.64C230.767 50.64 232.363 51 233.779 51.72C235.195 52.44 236.311 53.484 237.127 54.852C237.943 56.22 238.351 57.864 238.351 59.784V60.36C238.351 62.28 237.943 63.924 237.127 65.292C236.311 66.66 235.195 67.704 233.779 68.424C232.363 69.144 230.767 69.504 228.991 69.504ZM228.991 65.472C230.383 65.472 231.535 65.028 232.447 64.14C233.359 63.228 233.815 61.932 233.815 60.252V59.892C233.815 58.212 233.359 56.928 232.447 56.04C231.559 55.128 230.407 54.672 228.991 54.672C227.599 54.672 226.447 55.128 225.535 56.04C224.623 56.928 224.167 58.212 224.167 59.892V60.252C224.167 61.932 224.623 63.228 225.535 64.14C226.447 65.028 227.599 65.472 228.991 65.472ZM242.538 69V51.144H247.002V53.484H247.65C247.938 52.86 248.478 52.272 249.27 51.72C250.062 51.144 251.262 50.856 252.87 50.856C254.262 50.856 255.474 51.18 256.506 51.828C257.562 52.452 258.378 53.328 258.954 54.456C259.53 55.56 259.818 56.856 259.818 58.344V69H255.282V58.704C255.282 57.36 254.946 56.352 254.274 55.68C253.626 55.008 252.69 54.672 251.466 54.672C250.074 54.672 248.994 55.14 248.226 56.076C247.458 56.988 247.074 58.272 247.074 59.928V69H242.538ZM276.058 69V68.064C276.058 67.128 276.13 66.336 276.274 65.688C276.418 65.016 276.73 64.26 277.21 63.42L285.67 48.48V47.904H272.278V43.8H290.422V49.272L281.494 65.22C281.182 65.772 280.966 66.264 280.846 66.696C280.726 67.128 280.666 67.656 280.666 68.28V69H276.058ZM41.0303 103.504C39.0863 103.504 37.3703 103.156 35.8823 102.46C34.3943 101.764 33.2303 100.768 32.3903 99.472C31.5503 98.176 31.1303 96.616 31.1303 94.792V93.784H35.8103V94.792C35.8103 96.304 36.2783 97.444 37.2143 98.212C38.1503 98.956 39.4223 99.328 41.0303 99.328C42.6623 99.328 43.8743 99.004 44.6663 98.356C45.4823 97.708 45.8903 96.88 45.8903 95.872C45.8903 95.176 45.6863 94.612 45.2783 94.18C44.8943 93.748 44.3183 93.4 43.5503 93.136C42.8063 92.848 41.8943 92.584 40.8143 92.344L39.9863 92.164C38.2583 91.78 36.7703 91.3 35.5223 90.724C34.2983 90.124 33.3503 89.344 32.6783 88.384C32.0303 87.424 31.7063 86.176 31.7063 84.64C31.7063 83.104 32.0663 81.796 32.7863 80.716C33.5303 79.612 34.5623 78.772 35.8823 78.196C37.2263 77.596 38.7983 77.296 40.5983 77.296C42.3983 77.296 43.9943 77.608 45.3863 78.232C46.8023 78.832 47.9063 79.744 48.6983 80.968C49.5143 82.168 49.9223 83.68 49.9223 85.504V86.584H45.2423V85.504C45.2423 84.544 45.0503 83.776 44.6663 83.2C44.3063 82.6 43.7783 82.168 43.0823 81.904C42.3863 81.616 41.5583 81.472 40.5983 81.472C39.1583 81.472 38.0903 81.748 37.3943 82.3C36.7223 82.828 36.3863 83.56 36.3863 84.496C36.3863 85.12 36.5423 85.648 36.8543 86.08C37.1903 86.512 37.6823 86.872 38.3303 87.16C38.9783 87.448 39.8063 87.7 40.8143 87.916L41.6423 88.096C43.4423 88.48 45.0023 88.972 46.3223 89.572C47.6663 90.172 48.7103 90.964 49.4543 91.948C50.1983 92.932 50.5703 94.192 50.5703 95.728C50.5703 97.264 50.1743 98.62 49.3823 99.796C48.6143 100.948 47.5103 101.86 46.0703 102.532C44.6543 103.18 42.9743 103.504 41.0303 103.504ZM62.7543 103.504C60.9783 103.504 59.3823 103.144 57.9663 102.424C56.5503 101.704 55.4343 100.66 54.6183 99.292C53.8023 97.924 53.3943 96.28 53.3943 94.36V93.784C53.3943 91.864 53.8023 90.22 54.6183 88.852C55.4343 87.484 56.5503 86.44 57.9663 85.72C59.3823 85 60.9783 84.64 62.7543 84.64C64.5303 84.64 66.1263 85 67.5423 85.72C68.9583 86.44 70.0743 87.484 70.8903 88.852C71.7063 90.22 72.1143 91.864 72.1143 93.784V94.36C72.1143 96.28 71.7063 97.924 70.8903 99.292C70.0743 100.66 68.9583 101.704 67.5423 102.424C66.1263 103.144 64.5303 103.504 62.7543 103.504ZM62.7543 99.472C64.1463 99.472 65.2983 99.028 66.2103 98.14C67.1223 97.228 67.5783 95.932 67.5783 94.252V93.892C67.5783 92.212 67.1223 90.928 66.2103 90.04C65.3223 89.128 64.1703 88.672 62.7543 88.672C61.3623 88.672 60.2103 89.128 59.2983 90.04C58.3863 90.928 57.9303 92.212 57.9303 93.892V94.252C57.9303 95.932 58.3863 97.228 59.2983 98.14C60.2103 99.028 61.3623 99.472 62.7543 99.472ZM83.1053 103.288C81.7133 103.288 80.4893 102.976 79.4333 102.352C78.4013 101.704 77.5973 100.816 77.0213 99.688C76.4453 98.56 76.1572 97.264 76.1572 95.8V85.144H80.6933V95.44C80.6933 96.784 81.0173 97.792 81.6653 98.464C82.3373 99.136 83.2853 99.472 84.5093 99.472C85.9013 99.472 86.9813 99.016 87.7493 98.104C88.5173 97.168 88.9013 95.872 88.9013 94.216V85.144H93.4373V103H88.9733V100.66H88.3253C88.0373 101.26 87.4973 101.848 86.7053 102.424C85.9133 103 84.7133 103.288 83.1053 103.288ZM105.325 103C104.149 103 103.189 102.64 102.445 101.92C101.725 101.176 101.365 100.192 101.365 98.968V88.888H96.9008V85.144H101.365V79.6H105.901V85.144H110.797V88.888H105.901V98.176C105.901 98.896 106.237 99.256 106.909 99.256H110.365V103H105.325ZM114.903 103V77.8H119.439V87.34H120.087C120.279 86.956 120.579 86.572 120.987 86.188C121.395 85.804 121.935 85.492 122.607 85.252C123.303 84.988 124.179 84.856 125.235 84.856C126.627 84.856 127.839 85.18 128.871 85.828C129.927 86.452 130.743 87.328 131.319 88.456C131.895 89.56 132.183 90.856 132.183 92.344V103H127.647V92.704C127.647 91.36 127.311 90.352 126.639 89.68C125.991 89.008 125.055 88.672 123.831 88.672C122.439 88.672 121.359 89.14 120.591 90.076C119.823 90.988 119.439 92.272 119.439 93.928V103H114.903ZM145.222 103.504C143.446 103.504 141.874 103.132 140.506 102.388C139.162 101.62 138.106 100.552 137.338 99.184C136.594 97.792 136.222 96.16 136.222 94.288V93.856C136.222 91.984 136.594 90.364 137.338 88.996C138.082 87.604 139.126 86.536 140.47 85.792C141.814 85.024 143.374 84.64 145.15 84.64C146.902 84.64 148.426 85.036 149.722 85.828C151.018 86.596 152.026 87.676 152.746 89.068C153.466 90.436 153.826 92.032 153.826 93.856V95.404H140.83C140.878 96.628 141.334 97.624 142.198 98.392C143.062 99.16 144.118 99.544 145.366 99.544C146.638 99.544 147.574 99.268 148.174 98.716C148.774 98.164 149.23 97.552 149.542 96.88L153.25 98.824C152.914 99.448 152.422 100.132 151.774 100.876C151.15 101.596 150.31 102.22 149.254 102.748C148.198 103.252 146.854 103.504 145.222 103.504ZM140.866 92.02H149.218C149.122 90.988 148.702 90.16 147.958 89.536C147.238 88.912 146.29 88.6 145.114 88.6C143.89 88.6 142.918 88.912 142.198 89.536C141.478 90.16 141.034 90.988 140.866 92.02ZM163.408 103.504C162.136 103.504 160.996 103.288 159.988 102.856C158.98 102.4 158.176 101.752 157.576 100.912C157 100.048 156.712 99.004 156.712 97.78C156.712 96.556 157 95.536 157.576 94.72C158.176 93.88 158.992 93.256 160.024 92.848C161.08 92.416 162.28 92.2 163.624 92.2H168.52V91.192C168.52 90.352 168.256 89.668 167.728 89.14C167.2 88.588 166.36 88.312 165.208 88.312C164.08 88.312 163.24 88.576 162.688 89.104C162.136 89.608 161.776 90.268 161.608 91.084L157.432 89.68C157.72 88.768 158.176 87.94 158.8 87.196C159.448 86.428 160.3 85.816 161.356 85.36C162.436 84.88 163.744 84.64 165.28 84.64C167.632 84.64 169.492 85.228 170.86 86.404C172.228 87.58 172.912 89.284 172.912 91.516V98.176C172.912 98.896 173.248 99.256 173.92 99.256H175.36V103H172.336C171.448 103 170.716 102.784 170.14 102.352C169.564 101.92 169.276 101.344 169.276 100.624V100.588H168.592C168.496 100.876 168.28 101.26 167.944 101.74C167.608 102.196 167.08 102.604 166.36 102.964C165.64 103.324 164.656 103.504 163.408 103.504ZM164.2 99.832C165.472 99.832 166.504 99.484 167.296 98.788C168.112 98.068 168.52 97.12 168.52 95.944V95.584H163.948C163.108 95.584 162.448 95.764 161.968 96.124C161.488 96.484 161.248 96.988 161.248 97.636C161.248 98.284 161.5 98.812 162.004 99.22C162.508 99.628 163.24 99.832 164.2 99.832ZM185.952 103.504C183.624 103.504 181.716 103 180.228 101.992C178.74 100.984 177.84 99.544 177.528 97.672L181.704 96.592C181.872 97.432 182.148 98.092 182.532 98.572C182.94 99.052 183.432 99.4 184.008 99.616C184.608 99.808 185.256 99.904 185.952 99.904C187.008 99.904 187.788 99.724 188.292 99.364C188.796 98.98 189.048 98.512 189.048 97.96C189.048 97.408 188.808 96.988 188.328 96.7C187.848 96.388 187.08 96.136 186.024 95.944L185.016 95.764C183.768 95.524 182.628 95.2 181.596 94.792C180.564 94.36 179.736 93.772 179.112 93.028C178.488 92.284 178.176 91.324 178.176 90.148C178.176 88.372 178.824 87.016 180.12 86.08C181.416 85.12 183.12 84.64 185.232 84.64C187.224 84.64 188.88 85.084 190.2 85.972C191.52 86.86 192.384 88.024 192.792 89.464L188.58 90.76C188.388 89.848 187.992 89.2 187.392 88.816C186.816 88.432 186.096 88.24 185.232 88.24C184.368 88.24 183.708 88.396 183.252 88.708C182.796 88.996 182.568 89.404 182.568 89.932C182.568 90.508 182.808 90.94 183.288 91.228C183.768 91.492 184.416 91.696 185.232 91.84L186.24 92.02C187.584 92.26 188.796 92.584 189.876 92.992C190.98 93.376 191.844 93.94 192.468 94.684C193.116 95.404 193.44 96.388 193.44 97.636C193.44 99.508 192.756 100.96 191.388 101.992C190.044 103 188.232 103.504 185.952 103.504ZM203.903 103C202.727 103 201.767 102.64 201.023 101.92C200.303 101.176 199.943 100.192 199.943 98.968V88.888H195.479V85.144H199.943V79.6H204.479V85.144H209.375V88.888H204.479V98.176C204.479 98.896 204.815 99.256 205.487 99.256H208.943V103H203.903ZM220.328 103L226.952 77.8H235.232L241.856 103H236.96L235.592 97.456H226.592L225.224 103H220.328ZM227.708 93.064H234.476L231.416 80.788H230.768L227.708 93.064ZM252.432 103.504C250.104 103.504 248.196 103 246.708 101.992C245.22 100.984 244.32 99.544 244.008 97.672L248.184 96.592C248.352 97.432 248.628 98.092 249.012 98.572C249.42 99.052 249.912 99.4 250.488 99.616C251.088 99.808 251.736 99.904 252.432 99.904C253.488 99.904 254.268 99.724 254.772 99.364C255.276 98.98 255.528 98.512 255.528 97.96C255.528 97.408 255.288 96.988 254.808 96.7C254.328 96.388 253.56 96.136 252.504 95.944L251.496 95.764C250.248 95.524 249.108 95.2 248.076 94.792C247.044 94.36 246.216 93.772 245.592 93.028C244.968 92.284 244.656 91.324 244.656 90.148C244.656 88.372 245.304 87.016 246.6 86.08C247.896 85.12 249.6 84.64 251.712 84.64C253.704 84.64 255.36 85.084 256.68 85.972C258 86.86 258.864 88.024 259.272 89.464L255.06 90.76C254.868 89.848 254.472 89.2 253.872 88.816C253.296 88.432 252.576 88.24 251.712 88.24C250.848 88.24 250.188 88.396 249.732 88.708C249.276 88.996 249.048 89.404 249.048 89.932C249.048 90.508 249.288 90.94 249.768 91.228C250.248 91.492 250.896 91.696 251.712 91.84L252.72 92.02C254.064 92.26 255.276 92.584 256.356 92.992C257.46 93.376 258.324 93.94 258.948 94.684C259.596 95.404 259.92 96.388 259.92 97.636C259.92 99.508 259.236 100.96 257.868 101.992C256.524 103 254.712 103.504 252.432 103.504ZM263.895 103V85.144H268.431V103H263.895ZM266.163 83.056C265.347 83.056 264.651 82.792 264.075 82.264C263.523 81.736 263.247 81.04 263.247 80.176C263.247 79.312 263.523 78.616 264.075 78.088C264.651 77.56 265.347 77.296 266.163 77.296C267.003 77.296 267.699 77.56 268.251 78.088C268.803 78.616 269.079 79.312 269.079 80.176C269.079 81.04 268.803 81.736 268.251 82.264C267.699 82.792 267.003 83.056 266.163 83.056ZM279.002 103.504C277.73 103.504 276.59 103.288 275.582 102.856C274.574 102.4 273.77 101.752 273.17 100.912C272.594 100.048 272.306 99.004 272.306 97.78C272.306 96.556 272.594 95.536 273.17 94.72C273.77 93.88 274.586 93.256 275.618 92.848C276.674 92.416 277.874 92.2 279.218 92.2H284.114V91.192C284.114 90.352 283.85 89.668 283.322 89.14C282.794 88.588 281.954 88.312 280.802 88.312C279.674 88.312 278.834 88.576 278.282 89.104C277.73 89.608 277.37 90.268 277.202 91.084L273.026 89.68C273.314 88.768 273.77 87.94 274.394 87.196C275.042 86.428 275.894 85.816 276.95 85.36C278.03 84.88 279.338 84.64 280.874 84.64C283.226 84.64 285.086 85.228 286.454 86.404C287.822 87.58 288.506 89.284 288.506 91.516V98.176C288.506 98.896 288.842 99.256 289.514 99.256H290.954V103H287.93C287.042 103 286.31 102.784 285.734 102.352C285.158 101.92 284.87 101.344 284.87 100.624V100.588H284.186C284.09 100.876 283.874 101.26 283.538 101.74C283.202 102.196 282.674 102.604 281.954 102.964C281.234 103.324 280.25 103.504 279.002 103.504ZM279.794 99.832C281.066 99.832 282.098 99.484 282.89 98.788C283.706 98.068 284.114 97.12 284.114 95.944V95.584H279.542C278.702 95.584 278.042 95.764 277.562 96.124C277.082 96.484 276.842 96.988 276.842 97.636C276.842 98.284 277.094 98.812 277.598 99.22C278.102 99.628 278.834 99.832 279.794 99.832Z" fill="#006838"/>
<path d="M103.95 69L110.43 60L104.022 51.144H109.278L113.346 57.084H113.994L118.062 51.144H123.318L116.91 60L123.39 69H118.062L113.994 62.988H113.346L109.278 69H103.95Z" fill="#EC008C"/>
<path d="M46.7429 140V131.6H50.1869C50.7709 131.6 51.2629 131.692 51.6629 131.876C52.0629 132.06 52.3629 132.316 52.5629 132.644C52.7709 132.964 52.8749 133.336 52.8749 133.76C52.8749 134.184 52.7829 134.54 52.5989 134.828C52.4149 135.116 52.1709 135.34 51.8669 135.5C51.5709 135.652 51.2429 135.74 50.8829 135.764L51.0749 135.632C51.4589 135.648 51.7989 135.752 52.0949 135.944C52.3989 136.128 52.6349 136.376 52.8029 136.688C52.9789 137 53.0669 137.34 53.0669 137.708C53.0669 138.156 52.9589 138.552 52.7429 138.896C52.5269 139.24 52.2149 139.512 51.8069 139.712C51.3989 139.904 50.8989 140 50.3069 140H46.7429ZM48.3629 138.68H50.0429C50.4829 138.68 50.8229 138.58 51.0629 138.38C51.3029 138.18 51.4229 137.892 51.4229 137.516C51.4229 137.14 51.2989 136.848 51.0509 136.64C50.8029 136.424 50.4589 136.316 50.0189 136.316H48.3629V138.68ZM48.3629 135.104H49.9229C50.3469 135.104 50.6709 135.008 50.8949 134.816C51.1189 134.624 51.2309 134.352 51.2309 134C51.2309 133.656 51.1189 133.388 50.8949 133.196C50.6709 132.996 50.3429 132.896 49.9109 132.896H48.3629V135.104ZM56.3158 140L59.3878 131.6H61.2238L64.2838 140H62.5678L60.2998 133.448L58.0198 140H56.3158ZM57.6718 138.092L58.1038 136.832H62.3758L62.7958 138.092H57.6718ZM67.9313 140V131.6H69.5513L73.4153 137.396V131.6H75.0353V140H73.4153L69.5513 134.216V140H67.9313ZM82.9358 140.144C82.1438 140.144 81.4478 139.968 80.8478 139.616C80.2558 139.256 79.7958 138.756 79.4678 138.116C79.1398 137.468 78.9758 136.716 78.9758 135.86C78.9758 134.996 79.1438 134.236 79.4798 133.58C79.8158 132.916 80.2998 132.396 80.9318 132.02C81.5718 131.644 82.3278 131.456 83.1998 131.456C84.1918 131.456 85.0118 131.692 85.6598 132.164C86.3158 132.636 86.7358 133.292 86.9198 134.132H85.1198C84.9998 133.764 84.7758 133.476 84.4478 133.268C84.1198 133.052 83.6998 132.944 83.1878 132.944C82.6438 132.944 82.1798 133.064 81.7958 133.304C81.4118 133.544 81.1198 133.88 80.9198 134.312C80.7198 134.744 80.6198 135.26 80.6198 135.86C80.6198 136.468 80.7198 136.984 80.9198 137.408C81.1198 137.832 81.4038 138.156 81.7718 138.38C82.1478 138.596 82.5878 138.704 83.0918 138.704C83.8278 138.704 84.3838 138.508 84.7598 138.116C85.1438 137.716 85.3718 137.2 85.4438 136.568H83.3798V135.356H87.0758V140H85.5878L85.4558 138.932C85.2798 139.196 85.0718 139.42 84.8318 139.604C84.5998 139.78 84.3278 139.912 84.0158 140C83.7038 140.096 83.3438 140.144 82.9358 140.144ZM91.1588 140V131.6H92.7788V134.924L95.8148 131.6H97.8188L94.7228 134.924L97.9028 140H95.9228L93.5708 136.184L92.7788 137.024V140H91.1588ZM104.748 140.144C103.94 140.144 103.228 139.96 102.612 139.592C102.004 139.224 101.528 138.716 101.184 138.068C100.84 137.412 100.668 136.656 100.668 135.8C100.668 134.944 100.84 134.192 101.184 133.544C101.528 132.888 102.004 132.376 102.612 132.008C103.228 131.64 103.94 131.456 104.748 131.456C105.556 131.456 106.264 131.64 106.872 132.008C107.488 132.376 107.968 132.888 108.312 133.544C108.656 134.192 108.828 134.944 108.828 135.8C108.828 136.656 108.656 137.412 108.312 138.068C107.968 138.716 107.488 139.224 106.872 139.592C106.264 139.96 105.556 140.144 104.748 140.144ZM104.748 138.692C105.244 138.692 105.672 138.576 106.032 138.344C106.4 138.104 106.68 137.768 106.872 137.336C107.072 136.904 107.172 136.392 107.172 135.8C107.172 135.2 107.072 134.688 106.872 134.264C106.68 133.832 106.4 133.5 106.032 133.268C105.672 133.036 105.244 132.92 104.748 132.92C104.26 132.92 103.832 133.036 103.464 133.268C103.096 133.5 102.812 133.832 102.612 134.264C102.412 134.688 102.312 135.2 102.312 135.8C102.312 136.392 102.412 136.904 102.612 137.336C102.812 137.768 103.096 138.104 103.464 138.344C103.832 138.576 104.26 138.692 104.748 138.692ZM112.769 140V131.6H114.389V134.924L117.425 131.6H119.429L116.333 134.924L119.513 140H117.533L115.181 136.184L114.389 137.024V140H112.769ZM122.648 141.476L123.332 138.428H124.892L123.704 141.476H122.648ZM136.054 140V132.908H133.594V131.6H140.11V132.908H137.662V140H136.054ZM149.118 140V131.6H150.738V140H149.118ZM143.826 140V131.6H145.446V140H143.826ZM145.23 136.364V135.056H149.394V136.364H145.23ZM154.383 140L157.455 131.6H159.291L162.351 140H160.635L158.367 133.448L156.087 140H154.383ZM155.739 138.092L156.171 136.832H160.443L160.863 138.092H155.739ZM165.998 140V131.6H167.618V140H165.998ZM171.847 140V131.6H173.467V138.74H177.151V140H171.847ZM180.529 140L183.601 131.6H185.437L188.497 140H186.781L184.513 133.448L182.233 140H180.529ZM181.885 138.092L182.317 136.832H186.589L187.009 138.092H181.885ZM192.144 140V131.6H193.764L197.628 137.396V131.6H199.248V140H197.628L193.764 134.216V140H192.144ZM203.477 140V131.6H206.165C207.141 131.6 207.945 131.776 208.577 132.128C209.209 132.472 209.677 132.96 209.981 133.592C210.293 134.216 210.449 134.952 210.449 135.8C210.449 136.648 210.293 137.388 209.981 138.02C209.677 138.644 209.209 139.132 208.577 139.484C207.945 139.828 207.141 140 206.165 140H203.477ZM205.097 138.608H206.081C206.769 138.608 207.309 138.496 207.701 138.272C208.093 138.048 208.373 137.728 208.541 137.312C208.709 136.888 208.793 136.384 208.793 135.8C208.793 135.208 208.709 134.704 208.541 134.288C208.373 133.864 208.093 133.54 207.701 133.316C207.309 133.092 206.769 132.98 206.081 132.98H205.097V138.608ZM219.191 141.368L222.179 130.652H223.763L220.763 141.368H219.191ZM225.414 141.368L228.402 130.652H229.986L226.986 141.368H225.414ZM238.783 140V138.812C239.303 138.404 239.807 137.996 240.295 137.588C240.783 137.18 241.219 136.776 241.603 136.376C241.995 135.968 242.303 135.572 242.527 135.188C242.759 134.804 242.875 134.432 242.875 134.072C242.875 133.848 242.831 133.644 242.743 133.46C242.663 133.268 242.535 133.116 242.359 133.004C242.183 132.884 241.951 132.824 241.663 132.824C241.383 132.824 241.143 132.888 240.943 133.016C240.751 133.144 240.603 133.316 240.499 133.532C240.403 133.74 240.355 133.976 240.355 134.24H238.795C238.811 133.624 238.947 133.108 239.203 132.692C239.467 132.276 239.815 131.968 240.247 131.768C240.687 131.56 241.175 131.456 241.711 131.456C242.303 131.456 242.803 131.568 243.211 131.792C243.627 132.008 243.943 132.304 244.159 132.68C244.383 133.056 244.495 133.488 244.495 133.976C244.495 134.344 244.423 134.704 244.279 135.056C244.143 135.408 243.955 135.752 243.715 136.088C243.483 136.416 243.219 136.732 242.923 137.036C242.627 137.34 242.315 137.632 241.987 137.912C241.659 138.184 241.343 138.44 241.039 138.68H244.687V140H238.783ZM251.815 140.144C251.071 140.144 250.427 139.96 249.883 139.592C249.347 139.224 248.935 138.716 248.647 138.068C248.359 137.412 248.215 136.656 248.215 135.8C248.215 134.944 248.359 134.192 248.647 133.544C248.935 132.888 249.347 132.376 249.883 132.008C250.419 131.64 251.063 131.456 251.815 131.456C252.567 131.456 253.211 131.64 253.747 132.008C254.283 132.376 254.695 132.888 254.983 133.544C255.271 134.192 255.415 134.944 255.415 135.8C255.415 136.656 255.271 137.412 254.983 138.068C254.695 138.716 254.283 139.224 253.747 139.592C253.211 139.96 252.567 140.144 251.815 140.144ZM251.815 138.692C252.199 138.692 252.539 138.576 252.835 138.344C253.131 138.104 253.359 137.768 253.519 137.336C253.687 136.904 253.771 136.392 253.771 135.8C253.771 135.2 253.687 134.688 253.519 134.264C253.359 133.832 253.131 133.5 252.835 133.268C252.539 133.036 252.199 132.92 251.815 132.92C251.431 132.92 251.091 133.036 250.795 133.268C250.499 133.5 250.267 133.832 250.099 134.264C249.939 134.688 249.859 135.2 249.859 135.8C249.859 136.392 249.939 136.904 250.099 137.336C250.267 137.768 250.499 138.104 250.795 138.344C251.091 138.576 251.431 138.692 251.815 138.692ZM259.08 140V138.812C259.6 138.404 260.104 137.996 260.592 137.588C261.08 137.18 261.516 136.776 261.9 136.376C262.292 135.968 262.6 135.572 262.824 135.188C263.056 134.804 263.172 134.432 263.172 134.072C263.172 133.848 263.128 133.644 263.04 133.46C262.96 133.268 262.832 133.116 262.656 133.004C262.48 132.884 262.248 132.824 261.96 132.824C261.68 132.824 261.44 132.888 261.24 133.016C261.048 133.144 260.9 133.316 260.796 133.532C260.7 133.74 260.652 133.976 260.652 134.24H259.092C259.108 133.624 259.244 133.108 259.5 132.692C259.764 132.276 260.112 131.968 260.544 131.768C260.984 131.56 261.472 131.456 262.008 131.456C262.6 131.456 263.1 131.568 263.508 131.792C263.924 132.008 264.24 132.304 264.456 132.68C264.68 133.056 264.792 133.488 264.792 133.976C264.792 134.344 264.72 134.704 264.576 135.056C264.44 135.408 264.252 135.752 264.012 136.088C263.78 136.416 263.516 136.732 263.22 137.036C262.924 137.34 262.612 137.632 262.284 137.912C261.956 138.184 261.64 138.44 261.336 138.68H264.984V140H259.08ZM272.606 140V138.476H268.478V137.192L272.39 131.6H274.226V137.072H275.318V138.476H274.226V140H272.606ZM270.206 137.072H272.714V133.388L270.206 137.072Z" fill="#EC008C"/>
</svg>
