<svg width="1440" height="135" viewBox="0 0 1440 135" fill="none" xmlns="http://www.w3.org/2000/svg">
<rect width="1440" height="135" fill="#FFDE17"/>
<path d="M509.922 78.9941H509.918C510.137 78.9211 510.433 78.2885 510.555 78.1101C510.758 77.8019 510.948 77.4896 511.123 77.1733C511.451 76.5732 511.731 75.9487 511.942 75.3121C512.543 73.5157 512.575 71.6057 512.21 69.7688C511.882 68.1143 511.22 66.5248 510.315 65.0974C510.303 65.0974 510.287 65.0893 510.275 65.0852C510.271 65.0852 510.267 65.0852 510.263 65.0852C510.234 65.1014 510.21 65.1136 510.181 65.1298C510.177 65.1339 510.173 65.1379 510.169 65.142C510.153 65.1663 510.137 65.1907 510.125 65.215C510.125 65.2271 510.116 65.2393 510.116 65.2555C510.116 65.2839 510.116 65.3164 510.116 65.3447C510.169 65.7178 510.218 66.103 510.173 66.472C510.169 66.837 510.096 67.202 509.954 67.5426C509.654 68.2644 509.078 68.8361 508.453 69.3106C507.057 70.373 505.572 71.2976 503.965 72.0072C503.47 72.2262 498.649 73.6901 498.714 74.1199C498.678 73.8685 498.645 73.6211 498.58 73.3738C498.511 73.1142 498.43 72.8466 498.471 72.579C498.576 71.9099 499.388 71.5652 499.899 71.2286C500.552 70.7988 501.222 70.3892 501.863 69.9472C503.795 68.6131 505.556 66.6545 505.978 64.2783C506.42 61.8006 505.199 59.4974 503.506 57.7658C502.691 58.6823 501.904 59.6433 500.419 59.8785C499.863 59.0351 500.617 58.5769 500.926 58.0456C501.701 56.7237 501.818 55.345 501.08 54.0555C499.826 51.8617 498.426 49.7206 496.511 47.7985C495.882 48.3987 496.369 48.8569 496.548 49.3313C497.047 50.6695 496.641 51.8617 495.517 52.8633C493.391 54.7651 490.729 56.2128 488.676 58.4876C487.961 55.7383 487.884 55.6532 489.986 54.3758C491.524 53.4391 492.859 52.3159 493.232 50.9006C494.166 47.3687 494.064 43.8611 491.419 40.5643C490.023 41.5659 489.649 43.2528 486.898 43.2123C489.54 41.0225 488.797 38.9423 487.726 36.7931C486.16 33.6545 485.799 32.6691 484.792 30.2442C484.216 28.8533 483.741 27.5841 483.388 25.9621C483.165 24.928 483.048 24.044 483.048 24.044C482.768 21.8827 482.979 20.8932 482.37 19.5307C482.127 18.9874 481.847 18.594 481.684 18.375C481.506 18.594 481.226 18.9792 480.978 19.5024C480.305 20.9257 480.548 21.9759 480.207 24.2265C480.207 24.2265 480.175 24.705 479.834 26.0756C478.982 29.5102 477.476 32.7705 475.829 35.9902C474.669 38.2651 473.804 40.54 475.468 42.9162C475.513 42.9771 475.212 43.192 475.074 43.3339C473.565 42.8432 472.871 41.6754 471.978 40.6251C470.262 42.7338 469.657 44.1084 469.398 46.29C469.154 48.3297 469.329 50.2964 470.676 52.109C471.435 53.1269 472.457 53.9095 473.654 54.5907C474.669 55.1666 475.135 56.0708 475.261 57.04C475.33 57.5753 474.904 58.001 474.064 58.3011C472.818 56.5696 470.895 55.3206 468.996 54.0393C466.594 52.4213 466.249 50.4343 466.371 49.745C466.391 49.6314 466.529 49.015 466.2 48.5649C466.119 48.4514 466.03 48.3825 465.977 48.3419C465.9 48.4433 465.786 48.5974 465.652 48.7839C465.437 49.088 465.287 49.3192 465.226 49.4084C464.938 49.8301 464.65 50.2518 464.362 50.6695C463.778 51.5211 463.197 52.3767 462.625 53.2364C462.508 53.4148 462.39 53.5891 462.272 53.7676C461.286 55.2639 461.108 56.7724 462.374 58.2606C462.792 58.7512 463.323 59.2905 462.491 59.8623C461.067 59.5622 460.592 58.2525 459.347 57.7415C455.845 62.3683 456.575 66.7072 461.323 70.0567C462.102 70.6082 463.068 70.9894 463.871 71.5206C464.894 72.1937 465.77 72.9601 464.906 74.1888C462.597 73.2643 460.288 72.5141 458.215 71.4598C456.044 70.3568 453.593 69.0592 453.175 66.4112C453.175 66.4112 453.175 66.4031 453.175 66.3991C453.167 66.3828 453.159 66.3666 453.155 66.3463C452.976 65.8638 453.057 65.3285 452.931 64.8338C452.911 64.7527 452.887 64.6716 452.858 64.5905C452.838 64.5256 452.867 64.5986 452.834 64.5337C452.826 64.5135 452.814 64.4932 452.802 64.477C452.781 64.477 452.733 64.477 452.704 64.477C452.311 65.0001 452.132 65.7624 451.901 66.3545C451.597 67.1371 451.361 67.9481 451.199 68.7753C450.513 72.2586 451.276 75.9163 453.435 78.7832C452.396 79.067 452.063 78.329 451.394 78.3534C451.195 78.3615 451.187 82.3435 451.179 82.6558C451.138 84.3386 451.341 86.6581 449.219 87.165C448.983 87.2218 448.74 87.242 448.501 87.242H439.318C437.792 87.242 436.555 88.4748 436.555 89.9954V113.872C436.555 115.396 437.788 116.625 439.318 116.625H448.521C450.046 116.625 451.284 115.392 451.284 113.872V89.9954C451.284 88.4707 452.518 87.242 454.047 87.242H463.25C464.776 87.242 466.013 86.0093 466.013 84.4887C466.013 80.7823 465.458 76.6584 466.423 73.0453C466.999 70.8961 467.507 70.5595 469.836 67.133C470.619 65.9814 471.686 64.5054 473.553 61.3505C474.393 59.9312 475.257 58.5282 476.146 57.1414C477.034 55.7545 477.963 54.3718 478.917 53.0133C479.668 51.9468 480.467 50.9088 481.226 49.8463C481.311 49.7287 481.433 49.6152 481.579 49.6152C481.672 49.6152 481.761 49.6638 481.83 49.7247C481.944 49.826 482.033 49.968 482.102 50.1059C483.616 53.2323 485.653 55.9613 487.718 58.7309C487.905 58.9783 488.168 59.2338 488.306 59.5095C489.856 61.5573 491.354 63.6376 492.888 65.6894C494.348 67.648 495.72 69.7283 496.479 72.0721C497.769 76.0541 497.225 80.3728 497.225 84.4846C497.225 86.0093 495.992 87.238 494.462 87.238H485.259C483.733 87.238 482.496 88.4707 482.496 89.9914V99.172C482.496 100.697 481.262 101.929 479.732 101.929H470.53C469.004 101.929 467.766 103.162 467.766 104.683V113.863C467.766 115.388 469 116.617 470.53 116.617H479.732C481.258 116.617 482.496 115.384 482.496 113.863V104.683C482.496 103.158 483.729 101.929 485.259 101.929H494.462C494.653 101.929 494.839 101.909 495.018 101.877C495.375 101.8 495.712 101.658 496.004 101.459C496.738 100.96 497.221 100.125 497.221 99.1761V89.9954C497.221 88.4707 498.455 87.242 499.984 87.242H509.187C509.378 87.242 509.565 87.2218 509.739 87.1893C511.468 86.8446 511.894 85.174 511.995 83.6371C512.028 83.118 511.877 78.3209 512.019 78.2723C511.309 78.5156 510.624 78.7508 509.934 78.986L509.922 78.9941ZM464.382 79.7726C463.457 80.0484 463.137 79.2252 462.431 79.0711C457.553 78.0127 457.225 77.6883 456.49 73.3819C458.194 73.978 459.826 74.497 461.404 75.1093C464.439 76.2853 464.674 76.6908 464.382 79.7726ZM470.615 63.8444C469.462 65.3447 468.407 66.8938 467.15 68.6456C463.526 65.7097 463.721 63.1104 467.58 59.104C468.894 59.1446 469.458 60.0529 470.201 60.7098C471.26 61.6465 471.508 62.6765 470.611 63.8403L470.615 63.8444ZM484.204 50.1991C482.674 49.307 483.226 47.3525 481.563 46.6104C480.593 47.0727 480.475 47.8229 480.187 48.5203C479.948 49.0921 479.534 49.6152 479.164 50.2113C476.998 48.0864 476.888 47.7985 478.187 46.0427C479.12 44.7856 480.219 43.6097 481.25 42.3891C485.892 45.6818 486.59 47.4579 484.204 50.1951V50.1991ZM497.842 67.6805C497.639 67.9075 497.387 68.0941 497.095 68.2279C496.876 68.3252 496.637 68.4225 496.393 68.459C496.044 68.5117 495.943 68.313 495.805 68.0616C495.204 66.9749 494.373 66.0219 493.618 65.0203C493.163 64.408 492.737 63.7754 492.441 63.0942C492.279 62.7211 492.165 62.3197 492.25 61.9182C492.336 61.5168 492.612 61.1762 492.928 60.8842C493.719 60.1502 494.734 59.5866 495.679 59.0148C498.268 60.9166 499.128 63.2929 498.58 66.0219C498.463 66.6018 498.268 67.202 497.846 67.6805H497.842ZM501.405 78.9819C500.528 79.1482 499.936 79.8375 498.994 79.8781C498.783 79.2536 498.775 78.5967 498.783 77.9438C498.795 77.3193 499.019 76.8287 499.489 76.3623C500.451 75.4134 501.887 75.0647 503.194 74.6227C504.29 74.2537 505.381 73.8847 506.477 73.5157C506.501 73.5076 506.712 73.4508 506.716 73.4346C506.229 77.4004 505.47 78.2114 501.405 78.9819Z" fill="#006838"/>
<line x1="569.945" y1="24" x2="569.945" y2="111" stroke="#EC008C" stroke-width="2"/>
<path d="M628.374 50.5V25.3H638.742C640.326 25.3 641.718 25.624 642.918 26.272C644.142 26.896 645.09 27.784 645.762 28.936C646.458 30.088 646.806 31.456 646.806 33.04V33.544C646.806 35.104 646.446 36.472 645.726 37.648C645.03 38.8 644.07 39.7 642.846 40.348C641.646 40.972 640.278 41.284 638.742 41.284H633.126V50.5H628.374ZM633.126 36.964H638.274C639.402 36.964 640.314 36.652 641.01 36.028C641.706 35.404 642.054 34.552 642.054 33.472V33.112C642.054 32.032 641.706 31.18 641.01 30.556C640.314 29.932 639.402 29.62 638.274 29.62H633.126V36.964ZM658.849 51.004C656.905 51.004 655.189 50.656 653.701 49.96C652.213 49.264 651.049 48.268 650.209 46.972C649.369 45.676 648.949 44.116 648.949 42.292V41.284H653.629V42.292C653.629 43.804 654.097 44.944 655.033 45.712C655.969 46.456 657.241 46.828 658.849 46.828C660.481 46.828 661.693 46.504 662.485 45.856C663.301 45.208 663.709 44.38 663.709 43.372C663.709 42.676 663.505 42.112 663.097 41.68C662.713 41.248 662.137 40.9 661.369 40.636C660.625 40.348 659.713 40.084 658.633 39.844L657.805 39.664C656.077 39.28 654.589 38.8 653.341 38.224C652.117 37.624 651.169 36.844 650.497 35.884C649.849 34.924 649.525 33.676 649.525 32.14C649.525 30.604 649.885 29.296 650.605 28.216C651.349 27.112 652.381 26.272 653.701 25.696C655.045 25.096 656.617 24.796 658.417 24.796C660.217 24.796 661.813 25.108 663.205 25.732C664.621 26.332 665.725 27.244 666.517 28.468C667.333 29.668 667.741 31.18 667.741 33.004V34.084H663.061V33.004C663.061 32.044 662.869 31.276 662.485 30.7C662.125 30.1 661.597 29.668 660.901 29.404C660.205 29.116 659.377 28.972 658.417 28.972C656.977 28.972 655.909 29.248 655.213 29.8C654.541 30.328 654.205 31.06 654.205 31.996C654.205 32.62 654.361 33.148 654.673 33.58C655.009 34.012 655.501 34.372 656.149 34.66C656.797 34.948 657.625 35.2 658.633 35.416L659.461 35.596C661.261 35.98 662.821 36.472 664.141 37.072C665.485 37.672 666.529 38.464 667.273 39.448C668.017 40.432 668.389 41.692 668.389 43.228C668.389 44.764 667.993 46.12 667.201 47.296C666.433 48.448 665.329 49.36 663.889 50.032C662.473 50.68 660.793 51.004 658.849 51.004ZM671.933 50.5V25.3H688.133V29.62H676.685V35.632H687.125V39.952H676.685V46.18H688.349V50.5H671.933ZM730.732 50.5V46.324H734.044V29.476H730.732V25.3H741.1C744.484 25.3 747.052 26.164 748.804 27.892C750.58 29.596 751.468 32.14 751.468 35.524V40.276C751.468 43.66 750.58 46.216 748.804 47.944C747.052 49.648 744.484 50.5 741.1 50.5H730.732ZM738.796 46.18H741.172C743.092 46.18 744.496 45.676 745.384 44.668C746.272 43.66 746.716 42.244 746.716 40.42V35.38C746.716 33.532 746.272 32.116 745.384 31.132C744.496 30.124 743.092 29.62 741.172 29.62H738.796V46.18ZM763.709 51.004C761.933 51.004 760.361 50.632 758.993 49.888C757.649 49.12 756.593 48.052 755.825 46.684C755.081 45.292 754.709 43.66 754.709 41.788V41.356C754.709 39.484 755.081 37.864 755.825 36.496C756.569 35.104 757.613 34.036 758.957 33.292C760.301 32.524 761.861 32.14 763.637 32.14C765.389 32.14 766.913 32.536 768.209 33.328C769.505 34.096 770.513 35.176 771.233 36.568C771.953 37.936 772.313 39.532 772.313 41.356V42.904H759.317C759.365 44.128 759.821 45.124 760.685 45.892C761.549 46.66 762.605 47.044 763.853 47.044C765.125 47.044 766.061 46.768 766.661 46.216C767.261 45.664 767.717 45.052 768.029 44.38L771.737 46.324C771.401 46.948 770.909 47.632 770.261 48.376C769.637 49.096 768.797 49.72 767.741 50.248C766.685 50.752 765.341 51.004 763.709 51.004ZM759.353 39.52H767.705C767.609 38.488 767.189 37.66 766.445 37.036C765.725 36.412 764.777 36.1 763.601 36.1C762.377 36.1 761.405 36.412 760.685 37.036C759.965 37.66 759.521 38.488 759.353 39.52ZM779.567 50.5L773.879 32.644H778.703L782.843 47.188H783.491L787.631 32.644H792.455L786.767 50.5H779.567ZM803.406 51.004C801.678 51.004 800.106 50.644 798.69 49.924C797.298 49.204 796.194 48.16 795.378 46.792C794.562 45.424 794.154 43.768 794.154 41.824V41.32C794.154 39.376 794.562 37.72 795.378 36.352C796.194 34.984 797.298 33.94 798.69 33.22C800.106 32.5 801.678 32.14 803.406 32.14C805.11 32.14 806.574 32.44 807.798 33.04C809.022 33.64 810.006 34.468 810.75 35.524C811.518 36.556 812.022 37.732 812.262 39.052L807.87 39.988C807.774 39.268 807.558 38.62 807.222 38.044C806.886 37.468 806.406 37.012 805.782 36.676C805.182 36.34 804.426 36.172 803.514 36.172C802.602 36.172 801.774 36.376 801.03 36.784C800.31 37.168 799.734 37.756 799.302 38.548C798.894 39.316 798.69 40.264 798.69 41.392V41.752C798.69 42.88 798.894 43.84 799.302 44.632C799.734 45.4 800.31 45.988 801.03 46.396C801.774 46.78 802.602 46.972 803.514 46.972C804.882 46.972 805.914 46.624 806.61 45.928C807.33 45.208 807.786 44.272 807.978 43.12L812.37 44.164C812.058 45.436 811.518 46.6 810.75 47.656C810.006 48.688 809.022 49.504 807.798 50.104C806.574 50.704 805.11 51.004 803.406 51.004ZM824.608 51.004C822.832 51.004 821.236 50.644 819.82 49.924C818.404 49.204 817.288 48.16 816.472 46.792C815.656 45.424 815.248 43.78 815.248 41.86V41.284C815.248 39.364 815.656 37.72 816.472 36.352C817.288 34.984 818.404 33.94 819.82 33.22C821.236 32.5 822.832 32.14 824.608 32.14C826.384 32.14 827.98 32.5 829.396 33.22C830.812 33.94 831.928 34.984 832.744 36.352C833.56 37.72 833.968 39.364 833.968 41.284V41.86C833.968 43.78 833.56 45.424 832.744 46.792C831.928 48.16 830.812 49.204 829.396 49.924C827.98 50.644 826.384 51.004 824.608 51.004ZM824.608 46.972C826 46.972 827.152 46.528 828.064 45.64C828.976 44.728 829.432 43.432 829.432 41.752V41.392C829.432 39.712 828.976 38.428 828.064 37.54C827.176 36.628 826.024 36.172 824.608 36.172C823.216 36.172 822.064 36.628 821.152 37.54C820.24 38.428 819.784 39.712 819.784 41.392V41.752C819.784 43.432 820.24 44.728 821.152 45.64C822.064 46.528 823.216 46.972 824.608 46.972ZM838.155 50.5V32.644H842.619V34.984H843.267C843.555 34.36 844.095 33.772 844.887 33.22C845.679 32.644 846.879 32.356 848.487 32.356C849.879 32.356 851.091 32.68 852.123 33.328C853.179 33.952 853.995 34.828 854.571 35.956C855.147 37.06 855.435 38.356 855.435 39.844V50.5H850.899V40.204C850.899 38.86 850.563 37.852 849.891 37.18C849.243 36.508 848.307 36.172 847.083 36.172C845.691 36.172 844.611 36.64 843.843 37.576C843.075 38.488 842.691 39.772 842.691 41.428V50.5H838.155ZM871.675 50.5V49.564C871.675 48.628 871.747 47.836 871.891 47.188C872.035 46.516 872.347 45.76 872.827 44.92L881.287 29.98V29.404H867.895V25.3H886.039V30.772L877.111 46.72C876.799 47.272 876.583 47.764 876.463 48.196C876.343 48.628 876.283 49.156 876.283 49.78V50.5H871.675ZM636.647 85.004C634.703 85.004 632.987 84.656 631.499 83.96C630.011 83.264 628.847 82.268 628.007 80.972C627.167 79.676 626.747 78.116 626.747 76.292V75.284H631.427V76.292C631.427 77.804 631.895 78.944 632.831 79.712C633.767 80.456 635.039 80.828 636.647 80.828C638.279 80.828 639.491 80.504 640.283 79.856C641.099 79.208 641.507 78.38 641.507 77.372C641.507 76.676 641.303 76.112 640.895 75.68C640.511 75.248 639.935 74.9 639.167 74.636C638.423 74.348 637.511 74.084 636.431 73.844L635.603 73.664C633.875 73.28 632.387 72.8 631.139 72.224C629.915 71.624 628.967 70.844 628.295 69.884C627.647 68.924 627.323 67.676 627.323 66.14C627.323 64.604 627.683 63.296 628.403 62.216C629.147 61.112 630.179 60.272 631.499 59.696C632.843 59.096 634.415 58.796 636.215 58.796C638.015 58.796 639.611 59.108 641.003 59.732C642.419 60.332 643.523 61.244 644.315 62.468C645.131 63.668 645.539 65.18 645.539 67.004V68.084H640.859V67.004C640.859 66.044 640.667 65.276 640.283 64.7C639.923 64.1 639.395 63.668 638.699 63.404C638.003 63.116 637.175 62.972 636.215 62.972C634.775 62.972 633.707 63.248 633.011 63.8C632.339 64.328 632.003 65.06 632.003 65.996C632.003 66.62 632.159 67.148 632.471 67.58C632.807 68.012 633.299 68.372 633.947 68.66C634.595 68.948 635.423 69.2 636.431 69.416L637.259 69.596C639.059 69.98 640.619 70.472 641.939 71.072C643.283 71.672 644.327 72.464 645.071 73.448C645.815 74.432 646.187 75.692 646.187 77.228C646.187 78.764 645.791 80.12 644.999 81.296C644.231 82.448 643.127 83.36 641.687 84.032C640.271 84.68 638.591 85.004 636.647 85.004ZM658.371 85.004C656.595 85.004 654.999 84.644 653.583 83.924C652.167 83.204 651.051 82.16 650.235 80.792C649.419 79.424 649.011 77.78 649.011 75.86V75.284C649.011 73.364 649.419 71.72 650.235 70.352C651.051 68.984 652.167 67.94 653.583 67.22C654.999 66.5 656.595 66.14 658.371 66.14C660.147 66.14 661.743 66.5 663.159 67.22C664.575 67.94 665.691 68.984 666.507 70.352C667.323 71.72 667.731 73.364 667.731 75.284V75.86C667.731 77.78 667.323 79.424 666.507 80.792C665.691 82.16 664.575 83.204 663.159 83.924C661.743 84.644 660.147 85.004 658.371 85.004ZM658.371 80.972C659.763 80.972 660.915 80.528 661.827 79.64C662.739 78.728 663.195 77.432 663.195 75.752V75.392C663.195 73.712 662.739 72.428 661.827 71.54C660.939 70.628 659.787 70.172 658.371 70.172C656.979 70.172 655.827 70.628 654.915 71.54C654.003 72.428 653.547 73.712 653.547 75.392V75.752C653.547 77.432 654.003 78.728 654.915 79.64C655.827 80.528 656.979 80.972 658.371 80.972ZM678.722 84.788C677.33 84.788 676.106 84.476 675.05 83.852C674.018 83.204 673.214 82.316 672.638 81.188C672.062 80.06 671.774 78.764 671.774 77.3V66.644H676.31V76.94C676.31 78.284 676.634 79.292 677.282 79.964C677.954 80.636 678.902 80.972 680.126 80.972C681.518 80.972 682.598 80.516 683.366 79.604C684.134 78.668 684.518 77.372 684.518 75.716V66.644H689.054V84.5H684.59V82.16H683.942C683.654 82.76 683.114 83.348 682.322 83.924C681.53 84.5 680.33 84.788 678.722 84.788ZM700.942 84.5C699.766 84.5 698.806 84.14 698.062 83.42C697.342 82.676 696.982 81.692 696.982 80.468V70.388H692.518V66.644H696.982V61.1H701.518V66.644H706.414V70.388H701.518V79.676C701.518 80.396 701.854 80.756 702.526 80.756H705.982V84.5H700.942ZM710.52 84.5V59.3H715.056V68.84H715.704C715.896 68.456 716.196 68.072 716.604 67.688C717.012 67.304 717.552 66.992 718.224 66.752C718.92 66.488 719.796 66.356 720.852 66.356C722.244 66.356 723.456 66.68 724.488 67.328C725.544 67.952 726.36 68.828 726.936 69.956C727.512 71.06 727.8 72.356 727.8 73.844V84.5H723.264V74.204C723.264 72.86 722.928 71.852 722.256 71.18C721.608 70.508 720.672 70.172 719.448 70.172C718.056 70.172 716.976 70.64 716.208 71.576C715.44 72.488 715.056 73.772 715.056 75.428V84.5H710.52ZM740.84 85.004C739.064 85.004 737.492 84.632 736.124 83.888C734.78 83.12 733.724 82.052 732.956 80.684C732.212 79.292 731.84 77.66 731.84 75.788V75.356C731.84 73.484 732.212 71.864 732.956 70.496C733.7 69.104 734.744 68.036 736.088 67.292C737.432 66.524 738.992 66.14 740.768 66.14C742.52 66.14 744.044 66.536 745.34 67.328C746.636 68.096 747.644 69.176 748.364 70.568C749.084 71.936 749.444 73.532 749.444 75.356V76.904H736.448C736.496 78.128 736.952 79.124 737.816 79.892C738.68 80.66 739.736 81.044 740.984 81.044C742.256 81.044 743.192 80.768 743.792 80.216C744.392 79.664 744.848 79.052 745.16 78.38L748.868 80.324C748.532 80.948 748.04 81.632 747.392 82.376C746.768 83.096 745.928 83.72 744.872 84.248C743.816 84.752 742.472 85.004 740.84 85.004ZM736.484 73.52H744.836C744.74 72.488 744.32 71.66 743.576 71.036C742.856 70.412 741.908 70.1 740.732 70.1C739.508 70.1 738.536 70.412 737.816 71.036C737.096 71.66 736.652 72.488 736.484 73.52ZM759.025 85.004C757.753 85.004 756.613 84.788 755.605 84.356C754.597 83.9 753.793 83.252 753.193 82.412C752.617 81.548 752.329 80.504 752.329 79.28C752.329 78.056 752.617 77.036 753.193 76.22C753.793 75.38 754.609 74.756 755.641 74.348C756.697 73.916 757.897 73.7 759.241 73.7H764.137V72.692C764.137 71.852 763.873 71.168 763.345 70.64C762.817 70.088 761.977 69.812 760.825 69.812C759.697 69.812 758.857 70.076 758.305 70.604C757.753 71.108 757.393 71.768 757.225 72.584L753.049 71.18C753.337 70.268 753.793 69.44 754.417 68.696C755.065 67.928 755.917 67.316 756.973 66.86C758.053 66.38 759.361 66.14 760.897 66.14C763.249 66.14 765.109 66.728 766.477 67.904C767.845 69.08 768.529 70.784 768.529 73.016V79.676C768.529 80.396 768.865 80.756 769.537 80.756H770.977V84.5H767.953C767.065 84.5 766.333 84.284 765.757 83.852C765.181 83.42 764.893 82.844 764.893 82.124V82.088H764.209C764.113 82.376 763.897 82.76 763.561 83.24C763.225 83.696 762.697 84.104 761.977 84.464C761.257 84.824 760.273 85.004 759.025 85.004ZM759.817 81.332C761.089 81.332 762.121 80.984 762.913 80.288C763.729 79.568 764.137 78.62 764.137 77.444V77.084H759.565C758.725 77.084 758.065 77.264 757.585 77.624C757.105 77.984 756.865 78.488 756.865 79.136C756.865 79.784 757.117 80.312 757.621 80.72C758.125 81.128 758.857 81.332 759.817 81.332ZM781.569 85.004C779.241 85.004 777.333 84.5 775.845 83.492C774.357 82.484 773.457 81.044 773.145 79.172L777.321 78.092C777.489 78.932 777.765 79.592 778.149 80.072C778.557 80.552 779.049 80.9 779.625 81.116C780.225 81.308 780.873 81.404 781.569 81.404C782.625 81.404 783.405 81.224 783.909 80.864C784.413 80.48 784.665 80.012 784.665 79.46C784.665 78.908 784.425 78.488 783.945 78.2C783.465 77.888 782.697 77.636 781.641 77.444L780.633 77.264C779.385 77.024 778.245 76.7 777.213 76.292C776.181 75.86 775.353 75.272 774.729 74.528C774.105 73.784 773.793 72.824 773.793 71.648C773.793 69.872 774.441 68.516 775.737 67.58C777.033 66.62 778.737 66.14 780.849 66.14C782.841 66.14 784.497 66.584 785.817 67.472C787.137 68.36 788.001 69.524 788.409 70.964L784.197 72.26C784.005 71.348 783.609 70.7 783.009 70.316C782.433 69.932 781.713 69.74 780.849 69.74C779.985 69.74 779.325 69.896 778.869 70.208C778.413 70.496 778.185 70.904 778.185 71.432C778.185 72.008 778.425 72.44 778.905 72.728C779.385 72.992 780.033 73.196 780.849 73.34L781.857 73.52C783.201 73.76 784.413 74.084 785.493 74.492C786.597 74.876 787.461 75.44 788.085 76.184C788.733 76.904 789.057 77.888 789.057 79.136C789.057 81.008 788.373 82.46 787.005 83.492C785.661 84.5 783.849 85.004 781.569 85.004ZM799.52 84.5C798.344 84.5 797.384 84.14 796.64 83.42C795.92 82.676 795.56 81.692 795.56 80.468V70.388H791.096V66.644H795.56V61.1H800.096V66.644H804.992V70.388H800.096V79.676C800.096 80.396 800.432 80.756 801.104 80.756H804.56V84.5H799.52ZM815.945 84.5L822.569 59.3H830.849L837.473 84.5H832.577L831.209 78.956H822.209L820.841 84.5H815.945ZM823.325 74.564H830.093L827.033 62.288H826.385L823.325 74.564ZM848.049 85.004C845.721 85.004 843.813 84.5 842.325 83.492C840.837 82.484 839.937 81.044 839.625 79.172L843.801 78.092C843.969 78.932 844.245 79.592 844.629 80.072C845.037 80.552 845.529 80.9 846.105 81.116C846.705 81.308 847.353 81.404 848.049 81.404C849.105 81.404 849.885 81.224 850.389 80.864C850.893 80.48 851.145 80.012 851.145 79.46C851.145 78.908 850.905 78.488 850.425 78.2C849.945 77.888 849.177 77.636 848.121 77.444L847.113 77.264C845.865 77.024 844.725 76.7 843.693 76.292C842.661 75.86 841.833 75.272 841.209 74.528C840.585 73.784 840.273 72.824 840.273 71.648C840.273 69.872 840.921 68.516 842.217 67.58C843.513 66.62 845.217 66.14 847.329 66.14C849.321 66.14 850.977 66.584 852.297 67.472C853.617 68.36 854.481 69.524 854.889 70.964L850.677 72.26C850.485 71.348 850.089 70.7 849.489 70.316C848.913 69.932 848.193 69.74 847.329 69.74C846.465 69.74 845.805 69.896 845.349 70.208C844.893 70.496 844.665 70.904 844.665 71.432C844.665 72.008 844.905 72.44 845.385 72.728C845.865 72.992 846.513 73.196 847.329 73.34L848.337 73.52C849.681 73.76 850.893 74.084 851.973 74.492C853.077 74.876 853.941 75.44 854.565 76.184C855.213 76.904 855.537 77.888 855.537 79.136C855.537 81.008 854.853 82.46 853.485 83.492C852.141 84.5 850.329 85.004 848.049 85.004ZM859.512 84.5V66.644H864.048V84.5H859.512ZM861.78 64.556C860.964 64.556 860.268 64.292 859.692 63.764C859.14 63.236 858.864 62.54 858.864 61.676C858.864 60.812 859.14 60.116 859.692 59.588C860.268 59.06 860.964 58.796 861.78 58.796C862.62 58.796 863.316 59.06 863.868 59.588C864.42 60.116 864.696 60.812 864.696 61.676C864.696 62.54 864.42 63.236 863.868 63.764C863.316 64.292 862.62 64.556 861.78 64.556ZM874.619 85.004C873.347 85.004 872.207 84.788 871.199 84.356C870.191 83.9 869.387 83.252 868.787 82.412C868.211 81.548 867.923 80.504 867.923 79.28C867.923 78.056 868.211 77.036 868.787 76.22C869.387 75.38 870.203 74.756 871.235 74.348C872.291 73.916 873.491 73.7 874.835 73.7H879.731V72.692C879.731 71.852 879.467 71.168 878.939 70.64C878.411 70.088 877.571 69.812 876.419 69.812C875.291 69.812 874.451 70.076 873.899 70.604C873.347 71.108 872.987 71.768 872.819 72.584L868.643 71.18C868.931 70.268 869.387 69.44 870.011 68.696C870.659 67.928 871.511 67.316 872.567 66.86C873.647 66.38 874.955 66.14 876.491 66.14C878.843 66.14 880.703 66.728 882.071 67.904C883.439 69.08 884.123 70.784 884.123 73.016V79.676C884.123 80.396 884.459 80.756 885.131 80.756H886.571V84.5H883.547C882.659 84.5 881.927 84.284 881.351 83.852C880.775 83.42 880.487 82.844 880.487 82.124V82.088H879.803C879.707 82.376 879.491 82.76 879.155 83.24C878.819 83.696 878.291 84.104 877.571 84.464C876.851 84.824 875.867 85.004 874.619 85.004ZM875.411 81.332C876.683 81.332 877.715 80.984 878.507 80.288C879.323 79.568 879.731 78.62 879.731 77.444V77.084H875.159C874.319 77.084 873.659 77.264 873.179 77.624C872.699 77.984 872.459 78.488 872.459 79.136C872.459 79.784 872.711 80.312 873.215 80.72C873.719 81.128 874.451 81.332 875.411 81.332Z" fill="#006838"/>
<path d="M699.567 50.5L706.047 41.5L699.639 32.644H704.895L708.963 38.584H709.611L713.679 32.644H718.935L712.527 41.5L719.007 50.5H713.679L709.611 44.488H708.963L704.895 50.5H699.567Z" fill="#EC008C"/>
<path d="M626.36 113.5V105.1H629.804C630.388 105.1 630.88 105.192 631.28 105.376C631.68 105.56 631.98 105.816 632.18 106.144C632.388 106.464 632.492 106.836 632.492 107.26C632.492 107.684 632.4 108.04 632.216 108.328C632.032 108.616 631.788 108.84 631.484 109C631.188 109.152 630.86 109.24 630.5 109.264L630.692 109.132C631.076 109.148 631.416 109.252 631.712 109.444C632.016 109.628 632.252 109.876 632.42 110.188C632.596 110.5 632.684 110.84 632.684 111.208C632.684 111.656 632.576 112.052 632.36 112.396C632.144 112.74 631.832 113.012 631.424 113.212C631.016 113.404 630.516 113.5 629.924 113.5H626.36ZM627.98 112.18H629.66C630.1 112.18 630.44 112.08 630.68 111.88C630.92 111.68 631.04 111.392 631.04 111.016C631.04 110.64 630.916 110.348 630.668 110.14C630.42 109.924 630.076 109.816 629.636 109.816H627.98V112.18ZM627.98 108.604H629.54C629.964 108.604 630.288 108.508 630.512 108.316C630.736 108.124 630.848 107.852 630.848 107.5C630.848 107.156 630.736 106.888 630.512 106.696C630.288 106.496 629.96 106.396 629.528 106.396H627.98V108.604ZM635.933 113.5L639.005 105.1H640.841L643.901 113.5H642.185L639.917 106.948L637.637 113.5H635.933ZM637.289 111.592L637.721 110.332H641.993L642.413 111.592H637.289ZM647.548 113.5V105.1H649.168L653.032 110.896V105.1H654.652V113.5H653.032L649.168 107.716V113.5H647.548ZM662.553 113.644C661.761 113.644 661.065 113.468 660.465 113.116C659.873 112.756 659.413 112.256 659.085 111.616C658.757 110.968 658.593 110.216 658.593 109.36C658.593 108.496 658.761 107.736 659.097 107.08C659.433 106.416 659.917 105.896 660.549 105.52C661.189 105.144 661.945 104.956 662.817 104.956C663.809 104.956 664.629 105.192 665.277 105.664C665.933 106.136 666.353 106.792 666.537 107.632H664.737C664.617 107.264 664.393 106.976 664.065 106.768C663.737 106.552 663.317 106.444 662.805 106.444C662.261 106.444 661.797 106.564 661.413 106.804C661.029 107.044 660.737 107.38 660.537 107.812C660.337 108.244 660.237 108.76 660.237 109.36C660.237 109.968 660.337 110.484 660.537 110.908C660.737 111.332 661.021 111.656 661.389 111.88C661.765 112.096 662.205 112.204 662.709 112.204C663.445 112.204 664.001 112.008 664.377 111.616C664.761 111.216 664.989 110.7 665.061 110.068H662.997V108.856H666.693V113.5H665.205L665.073 112.432C664.897 112.696 664.689 112.92 664.449 113.104C664.217 113.28 663.945 113.412 663.633 113.5C663.321 113.596 662.961 113.644 662.553 113.644ZM670.776 113.5V105.1H672.396V108.424L675.432 105.1H677.436L674.34 108.424L677.52 113.5H675.54L673.188 109.684L672.396 110.524V113.5H670.776ZM684.365 113.644C683.557 113.644 682.845 113.46 682.229 113.092C681.621 112.724 681.145 112.216 680.801 111.568C680.457 110.912 680.285 110.156 680.285 109.3C680.285 108.444 680.457 107.692 680.801 107.044C681.145 106.388 681.621 105.876 682.229 105.508C682.845 105.14 683.557 104.956 684.365 104.956C685.173 104.956 685.881 105.14 686.489 105.508C687.105 105.876 687.585 106.388 687.929 107.044C688.273 107.692 688.445 108.444 688.445 109.3C688.445 110.156 688.273 110.912 687.929 111.568C687.585 112.216 687.105 112.724 686.489 113.092C685.881 113.46 685.173 113.644 684.365 113.644ZM684.365 112.192C684.861 112.192 685.289 112.076 685.649 111.844C686.017 111.604 686.297 111.268 686.489 110.836C686.689 110.404 686.789 109.892 686.789 109.3C686.789 108.7 686.689 108.188 686.489 107.764C686.297 107.332 686.017 107 685.649 106.768C685.289 106.536 684.861 106.42 684.365 106.42C683.877 106.42 683.449 106.536 683.081 106.768C682.713 107 682.429 107.332 682.229 107.764C682.029 108.188 681.929 108.7 681.929 109.3C681.929 109.892 682.029 110.404 682.229 110.836C682.429 111.268 682.713 111.604 683.081 111.844C683.449 112.076 683.877 112.192 684.365 112.192ZM692.386 113.5V105.1H694.006V108.424L697.042 105.1H699.046L695.95 108.424L699.13 113.5H697.15L694.798 109.684L694.006 110.524V113.5H692.386ZM702.265 114.976L702.949 111.928H704.509L703.321 114.976H702.265ZM715.672 113.5V106.408H713.212V105.1H719.728V106.408H717.28V113.5H715.672ZM728.735 113.5V105.1H730.355V113.5H728.735ZM723.443 113.5V105.1H725.063V113.5H723.443ZM724.847 109.864V108.556H729.011V109.864H724.847ZM734 113.5L737.072 105.1H738.908L741.968 113.5H740.252L737.984 106.948L735.704 113.5H734ZM735.356 111.592L735.788 110.332H740.06L740.48 111.592H735.356ZM745.616 113.5V105.1H747.236V113.5H745.616ZM751.464 113.5V105.1H753.084V112.24H756.768V113.5H751.464ZM760.146 113.5L763.218 105.1H765.054L768.114 113.5H766.398L764.13 106.948L761.85 113.5H760.146ZM761.502 111.592L761.934 110.332H766.206L766.626 111.592H761.502ZM771.762 113.5V105.1H773.382L777.246 110.896V105.1H778.866V113.5H777.246L773.382 107.716V113.5H771.762ZM783.094 113.5V105.1H785.782C786.758 105.1 787.562 105.276 788.194 105.628C788.826 105.972 789.294 106.46 789.598 107.092C789.91 107.716 790.066 108.452 790.066 109.3C790.066 110.148 789.91 110.888 789.598 111.52C789.294 112.144 788.826 112.632 788.194 112.984C787.562 113.328 786.758 113.5 785.782 113.5H783.094ZM784.714 112.108H785.698C786.386 112.108 786.926 111.996 787.318 111.772C787.71 111.548 787.99 111.228 788.158 110.812C788.326 110.388 788.41 109.884 788.41 109.3C788.41 108.708 788.326 108.204 788.158 107.788C787.99 107.364 787.71 107.04 787.318 106.816C786.926 106.592 786.386 106.48 785.698 106.48H784.714V112.108ZM798.808 114.868L801.796 104.152H803.38L800.38 114.868H798.808ZM805.032 114.868L808.02 104.152H809.604L806.604 114.868H805.032ZM818.4 113.5V112.312C818.92 111.904 819.424 111.496 819.912 111.088C820.4 110.68 820.836 110.276 821.22 109.876C821.612 109.468 821.92 109.072 822.144 108.688C822.376 108.304 822.492 107.932 822.492 107.572C822.492 107.348 822.448 107.144 822.36 106.96C822.28 106.768 822.152 106.616 821.976 106.504C821.8 106.384 821.568 106.324 821.28 106.324C821 106.324 820.76 106.388 820.56 106.516C820.368 106.644 820.22 106.816 820.116 107.032C820.02 107.24 819.972 107.476 819.972 107.74H818.412C818.428 107.124 818.564 106.608 818.82 106.192C819.084 105.776 819.432 105.468 819.864 105.268C820.304 105.06 820.792 104.956 821.328 104.956C821.92 104.956 822.42 105.068 822.828 105.292C823.244 105.508 823.56 105.804 823.776 106.18C824 106.556 824.112 106.988 824.112 107.476C824.112 107.844 824.04 108.204 823.896 108.556C823.76 108.908 823.572 109.252 823.332 109.588C823.1 109.916 822.836 110.232 822.54 110.536C822.244 110.84 821.932 111.132 821.604 111.412C821.276 111.684 820.96 111.94 820.656 112.18H824.304V113.5H818.4ZM831.432 113.644C830.688 113.644 830.044 113.46 829.5 113.092C828.964 112.724 828.552 112.216 828.264 111.568C827.976 110.912 827.832 110.156 827.832 109.3C827.832 108.444 827.976 107.692 828.264 107.044C828.552 106.388 828.964 105.876 829.5 105.508C830.036 105.14 830.68 104.956 831.432 104.956C832.184 104.956 832.828 105.14 833.364 105.508C833.9 105.876 834.312 106.388 834.6 107.044C834.888 107.692 835.032 108.444 835.032 109.3C835.032 110.156 834.888 110.912 834.6 111.568C834.312 112.216 833.9 112.724 833.364 113.092C832.828 113.46 832.184 113.644 831.432 113.644ZM831.432 112.192C831.816 112.192 832.156 112.076 832.452 111.844C832.748 111.604 832.976 111.268 833.136 110.836C833.304 110.404 833.388 109.892 833.388 109.3C833.388 108.7 833.304 108.188 833.136 107.764C832.976 107.332 832.748 107 832.452 106.768C832.156 106.536 831.816 106.42 831.432 106.42C831.048 106.42 830.708 106.536 830.412 106.768C830.116 107 829.884 107.332 829.716 107.764C829.556 108.188 829.476 108.7 829.476 109.3C829.476 109.892 829.556 110.404 829.716 110.836C829.884 111.268 830.116 111.604 830.412 111.844C830.708 112.076 831.048 112.192 831.432 112.192ZM838.698 113.5V112.312C839.218 111.904 839.722 111.496 840.21 111.088C840.698 110.68 841.134 110.276 841.518 109.876C841.91 109.468 842.218 109.072 842.442 108.688C842.674 108.304 842.79 107.932 842.79 107.572C842.79 107.348 842.746 107.144 842.658 106.96C842.578 106.768 842.45 106.616 842.274 106.504C842.098 106.384 841.866 106.324 841.578 106.324C841.298 106.324 841.058 106.388 840.858 106.516C840.666 106.644 840.518 106.816 840.414 107.032C840.318 107.24 840.27 107.476 840.27 107.74H838.71C838.726 107.124 838.862 106.608 839.118 106.192C839.382 105.776 839.73 105.468 840.162 105.268C840.602 105.06 841.09 104.956 841.626 104.956C842.218 104.956 842.718 105.068 843.126 105.292C843.542 105.508 843.858 105.804 844.074 106.18C844.298 106.556 844.41 106.988 844.41 107.476C844.41 107.844 844.338 108.204 844.194 108.556C844.058 108.908 843.87 109.252 843.63 109.588C843.398 109.916 843.134 110.232 842.838 110.536C842.542 110.84 842.23 111.132 841.902 111.412C841.574 111.684 841.258 111.94 840.954 112.18H844.602V113.5H838.698ZM852.223 113.5V111.976H848.095V110.692L852.007 105.1H853.843V110.572H854.935V111.976H853.843V113.5H852.223ZM849.823 110.572H852.331V106.888L849.823 110.572Z" fill="#EC008C"/>
</svg>
