<svg width="1441" height="300" viewBox="0 0 1441 300" fill="none" xmlns="http://www.w3.org/2000/svg">
<mask id="path-1-inside-1_9192_59456" fill="white">
<path d="M0.648438 0H1440.65V300H0.648438V0Z"/>
</mask>
<path d="M0.648438 0H1440.65V300H0.648438V0Z" fill="#FFDE17"/>
<path d="M1440.65 299H0.648438V301H1440.65V299Z" fill="#AAADB6" mask="url(#path-1-inside-1_9192_59456)"/>
<path d="M440.66 175.477H440.651C441.136 175.315 441.793 173.913 442.063 173.517C442.512 172.834 442.935 172.142 443.322 171.441C444.05 170.111 444.671 168.727 445.139 167.316C446.47 163.334 446.542 159.1 445.732 155.029C445.004 151.362 443.538 147.838 441.532 144.675C441.505 144.675 441.469 144.657 441.442 144.648C441.433 144.648 441.424 144.648 441.415 144.648C441.352 144.684 441.298 144.711 441.235 144.746C441.226 144.755 441.217 144.764 441.208 144.773C441.172 144.827 441.136 144.881 441.109 144.935C441.109 144.962 441.091 144.989 441.091 145.025C441.091 145.088 441.091 145.16 441.091 145.223C441.208 146.05 441.316 146.904 441.217 147.722C441.208 148.53 441.046 149.339 440.732 150.094C440.066 151.694 438.789 152.962 437.404 154.013C434.31 156.368 431.018 158.417 427.457 159.99C426.359 160.476 415.675 163.72 415.818 164.673C415.738 164.116 415.666 163.567 415.522 163.019C415.369 162.444 415.189 161.851 415.279 161.258C415.513 159.775 417.311 159.011 418.445 158.265C419.893 157.312 421.377 156.404 422.798 155.424C427.079 152.467 430.982 148.126 431.918 142.859C432.898 137.367 430.191 132.262 426.44 128.424C424.632 130.455 422.888 132.586 419.596 133.107C418.364 131.237 420.037 130.222 420.72 129.044C422.438 126.114 422.699 123.058 421.062 120.2C418.283 115.338 415.18 110.592 410.935 106.331C409.541 107.662 410.62 108.677 411.016 109.729C412.122 112.695 411.223 115.338 408.731 117.558C404.018 121.773 398.118 124.982 393.568 130.024C391.985 123.93 391.814 123.741 396.473 120.91C399.881 118.834 402.84 116.344 403.668 113.207C405.736 105.379 405.511 97.6041 399.647 90.2968C396.554 92.5168 395.726 96.2559 389.628 96.166C395.483 91.3124 393.837 86.7015 391.463 81.9379C387.991 74.9811 387.191 72.797 384.96 67.4221C383.683 64.3392 382.631 61.526 381.849 57.9307C381.354 55.6388 381.093 53.6794 381.093 53.6794C380.472 48.8888 380.94 46.6957 379.591 43.6757C379.051 42.4713 378.431 41.5994 378.071 41.1141C377.675 41.5994 377.055 42.4533 376.506 43.6128C375.013 46.7676 375.553 49.0955 374.797 54.0839C374.797 54.0839 374.725 55.1444 373.97 58.1824C372.081 65.7953 368.744 73.0217 365.093 80.1582C362.521 85.2005 360.605 90.2428 364.292 95.5099C364.391 95.6447 363.726 96.121 363.42 96.4356C360.074 95.3481 358.536 92.7595 356.558 90.4316C352.753 95.1054 351.413 98.1523 350.838 102.988C350.298 107.509 350.685 111.868 353.671 115.886C355.353 118.142 357.619 119.876 360.272 121.386C362.521 122.663 363.555 124.667 363.834 126.815C363.987 128.002 363.042 128.945 361.181 129.611C358.419 125.773 354.156 123.004 349.947 120.164C344.623 116.578 343.858 112.174 344.128 110.646C344.173 110.394 344.479 109.028 343.75 108.03C343.571 107.779 343.373 107.626 343.256 107.536C343.085 107.761 342.833 108.102 342.536 108.516C342.06 109.19 341.727 109.702 341.592 109.9C340.953 110.835 340.315 111.769 339.676 112.695C338.381 114.583 337.095 116.479 335.827 118.384C335.566 118.78 335.305 119.166 335.044 119.562C332.859 122.879 332.463 126.222 335.269 129.521C336.196 130.608 337.374 131.804 335.53 133.071C332.373 132.406 331.321 129.503 328.56 128.37C320.798 138.626 322.417 148.243 332.94 155.667C334.667 156.889 336.807 157.734 338.588 158.912C340.854 160.404 342.797 162.102 340.881 164.826C335.764 162.777 330.646 161.114 326.05 158.777C321.239 156.332 315.806 153.456 314.88 147.587C314.88 147.587 314.88 147.569 314.88 147.56C314.862 147.524 314.844 147.488 314.835 147.443C314.439 146.373 314.619 145.187 314.34 144.09C314.295 143.911 314.241 143.731 314.178 143.551C314.134 143.407 314.196 143.569 314.125 143.425C314.107 143.38 314.08 143.335 314.053 143.299C314.008 143.299 313.9 143.299 313.837 143.299C312.964 144.459 312.569 146.149 312.056 147.461C311.381 149.196 310.86 150.993 310.5 152.827C308.98 160.548 310.671 168.655 315.456 175.009C313.153 175.638 312.416 174.003 310.932 174.057C310.491 174.075 310.473 182.901 310.455 183.593C310.365 187.323 310.815 192.464 306.111 193.588C305.589 193.713 305.05 193.758 304.519 193.758H284.166C280.784 193.758 278.041 196.491 278.041 199.861V252.783C278.041 256.163 280.775 258.886 284.166 258.886H304.564C307.946 258.886 310.689 256.154 310.689 252.783V199.861C310.689 196.482 313.423 193.758 316.814 193.758H337.212C340.594 193.758 343.337 191.026 343.337 187.656C343.337 179.44 342.105 170.3 344.245 162.291C345.522 157.528 346.646 156.782 351.809 149.187C353.545 146.634 355.91 143.362 360.047 136.37C361.909 133.224 363.825 130.114 365.794 127.04C367.764 123.966 369.824 120.901 371.937 117.89C373.601 115.526 375.373 113.225 377.055 110.87C377.244 110.61 377.513 110.358 377.837 110.358C378.044 110.358 378.242 110.466 378.395 110.601C378.647 110.826 378.845 111.14 378.997 111.446C382.352 118.375 386.867 124.424 391.445 130.563C391.859 131.112 392.443 131.678 392.749 132.289C396.185 136.828 399.504 141.439 402.903 145.987C406.141 150.328 409.181 154.939 410.863 160.134C413.723 168.96 412.518 178.533 412.518 187.647C412.518 191.026 409.784 193.749 406.393 193.749H385.995C382.613 193.749 379.87 196.482 379.87 199.852V220.201C379.87 223.581 377.136 226.313 373.745 226.313H353.347C349.965 226.313 347.222 229.046 347.222 232.416V252.765C347.222 256.145 349.956 258.868 353.347 258.868H373.745C377.127 258.868 379.87 256.136 379.87 252.765V232.416C379.87 229.037 382.604 226.313 385.995 226.313H406.393C406.816 226.313 407.229 226.268 407.625 226.196C408.416 226.026 409.163 225.711 409.811 225.271C411.438 224.165 412.509 222.313 412.509 220.21V199.861C412.509 196.482 415.243 193.758 418.634 193.758H439.032C439.454 193.758 439.868 193.713 440.255 193.642C444.086 192.878 445.031 189.174 445.255 185.768C445.327 184.618 444.995 173.985 445.309 173.877C443.735 174.416 442.216 174.937 440.687 175.459L440.66 175.477ZM339.721 177.202C337.671 177.814 336.96 175.989 335.395 175.647C324.584 173.302 323.856 172.583 322.228 163.037C326.005 164.358 329.621 165.509 333.12 166.866C339.847 169.473 340.369 170.371 339.721 177.202ZM353.536 141.897C350.981 145.223 348.643 148.656 345.855 152.539C337.823 146.032 338.255 140.27 346.808 131.39C349.722 131.48 350.972 133.493 352.618 134.949C354.966 137.026 355.514 139.309 353.527 141.888L353.536 141.897ZM383.656 111.652C380.266 109.675 381.489 105.343 377.801 103.698C375.652 104.723 375.391 106.385 374.752 107.931C374.222 109.199 373.304 110.358 372.486 111.679C367.683 106.97 367.44 106.331 370.318 102.44C372.387 99.6534 374.824 97.0468 377.109 94.3414C387.398 101.64 388.945 105.576 383.656 111.643V111.652ZM413.885 150.4C413.435 150.903 412.877 151.317 412.23 151.613C411.744 151.829 411.214 152.045 410.674 152.126C409.9 152.243 409.676 151.802 409.37 151.245C408.039 148.836 406.195 146.724 404.522 144.504C403.515 143.147 402.57 141.744 401.914 140.234C401.554 139.408 401.302 138.518 401.491 137.628C401.68 136.738 402.292 135.983 402.993 135.336C404.747 133.709 406.995 132.46 409.091 131.192C414.829 135.408 416.736 140.675 415.522 146.724C415.261 148.009 414.829 149.339 413.894 150.4H413.885ZM421.781 175.45C419.839 175.818 418.526 177.346 416.439 177.436C415.971 176.052 415.953 174.596 415.971 173.149C415.998 171.765 416.493 170.677 417.536 169.643C419.668 167.54 422.852 166.767 425.748 165.788C428.176 164.97 430.595 164.152 433.024 163.334C433.078 163.316 433.545 163.19 433.554 163.154C432.475 171.944 430.793 173.742 421.781 175.45Z" fill="#006838"/>
<line x1="498.258" y1="21.5" x2="498.258" y2="278.5" stroke="#EC008C" stroke-width="2"/>
<path d="M553.01 118V67.6H573.746C576.914 67.6 579.698 68.248 582.098 69.544C584.546 70.792 586.442 72.568 587.786 74.872C589.178 77.176 589.874 79.912 589.874 83.08V84.088C589.874 87.208 589.154 89.944 587.714 92.296C586.322 94.6 584.402 96.4 581.954 97.696C579.554 98.944 576.818 99.568 573.746 99.568H562.514V118H553.01ZM562.514 90.928H572.81C575.066 90.928 576.89 90.304 578.282 89.056C579.674 87.808 580.37 86.104 580.37 83.944V83.224C580.37 81.064 579.674 79.36 578.282 78.112C576.89 76.864 575.066 76.24 572.81 76.24H562.514V90.928ZM613.959 119.008C610.071 119.008 606.639 118.312 603.663 116.92C600.687 115.528 598.359 113.536 596.679 110.944C594.999 108.352 594.159 105.232 594.159 101.584V99.568H603.519V101.584C603.519 104.608 604.455 106.888 606.327 108.424C608.199 109.912 610.743 110.656 613.959 110.656C617.223 110.656 619.647 110.008 621.231 108.712C622.863 107.416 623.679 105.76 623.679 103.744C623.679 102.352 623.271 101.224 622.455 100.36C621.687 99.496 620.535 98.8 618.999 98.272C617.511 97.696 615.687 97.168 613.527 96.688L611.871 96.328C608.415 95.56 605.439 94.6 602.943 93.448C600.495 92.248 598.599 90.688 597.255 88.768C595.959 86.848 595.311 84.352 595.311 81.28C595.311 78.208 596.031 75.592 597.471 73.432C598.959 71.224 601.023 69.544 603.663 68.392C606.351 67.192 609.495 66.592 613.095 66.592C616.695 66.592 619.887 67.216 622.671 68.464C625.503 69.664 627.711 71.488 629.295 73.936C630.927 76.336 631.743 79.36 631.743 83.008V85.168H622.383V83.008C622.383 81.088 621.999 79.552 621.231 78.4C620.511 77.2 619.455 76.336 618.063 75.808C616.671 75.232 615.015 74.944 613.095 74.944C610.215 74.944 608.079 75.496 606.687 76.6C605.343 77.656 604.671 79.12 604.671 80.992C604.671 82.24 604.983 83.296 605.607 84.16C606.279 85.024 607.263 85.744 608.559 86.32C609.855 86.896 611.511 87.4 613.527 87.832L615.183 88.192C618.783 88.96 621.903 89.944 624.543 91.144C627.231 92.344 629.319 93.928 630.807 95.896C632.295 97.864 633.039 100.384 633.039 103.456C633.039 106.528 632.247 109.24 630.663 111.592C629.127 113.896 626.919 115.72 624.039 117.064C621.207 118.36 617.847 119.008 613.959 119.008ZM640.127 118V67.6H672.527V76.24H649.631V88.264H670.511V96.904H649.631V109.36H672.959V118H640.127ZM757.726 118V109.648H764.35V75.952H757.726V67.6H778.462C785.23 67.6 790.366 69.328 793.87 72.784C797.422 76.192 799.198 81.28 799.198 88.048V97.552C799.198 104.32 797.422 109.432 793.87 112.888C790.366 116.296 785.23 118 778.462 118H757.726ZM773.854 109.36H778.606C782.446 109.36 785.254 108.352 787.03 106.336C788.806 104.32 789.694 101.488 789.694 97.84V87.76C789.694 84.064 788.806 81.232 787.03 79.264C785.254 77.248 782.446 76.24 778.606 76.24H773.854V109.36ZM823.679 119.008C820.127 119.008 816.983 118.264 814.247 116.776C811.559 115.24 809.447 113.104 807.911 110.368C806.423 107.584 805.679 104.32 805.679 100.576V99.712C805.679 95.968 806.423 92.728 807.911 89.992C809.399 87.208 811.487 85.072 814.175 83.584C816.863 82.048 819.983 81.28 823.535 81.28C827.039 81.28 830.087 82.072 832.679 83.656C835.271 85.192 837.287 87.352 838.727 90.136C840.167 92.872 840.887 96.064 840.887 99.712V102.808H814.895C814.991 105.256 815.903 107.248 817.631 108.784C819.359 110.32 821.471 111.088 823.967 111.088C826.511 111.088 828.383 110.536 829.583 109.432C830.783 108.328 831.695 107.104 832.319 105.76L839.735 109.648C839.063 110.896 838.079 112.264 836.783 113.752C835.535 115.192 833.855 116.44 831.743 117.496C829.631 118.504 826.943 119.008 823.679 119.008ZM814.967 96.04H831.671C831.479 93.976 830.639 92.32 829.151 91.072C827.711 89.824 825.815 89.2 823.463 89.2C821.015 89.2 819.071 89.824 817.631 91.072C816.191 92.32 815.303 93.976 814.967 96.04ZM855.395 118L844.019 82.288H853.667L861.947 111.376H863.243L871.523 82.288H881.171L869.795 118H855.395ZM903.074 119.008C899.618 119.008 896.474 118.288 893.642 116.848C890.858 115.408 888.65 113.32 887.018 110.584C885.386 107.848 884.57 104.536 884.57 100.648V99.64C884.57 95.752 885.386 92.44 887.018 89.704C888.65 86.968 890.858 84.88 893.642 83.44C896.474 82 899.618 81.28 903.074 81.28C906.482 81.28 909.41 81.88 911.858 83.08C914.306 84.28 916.274 85.936 917.762 88.048C919.298 90.112 920.306 92.464 920.786 95.104L912.002 96.976C911.81 95.536 911.378 94.24 910.706 93.088C910.034 91.936 909.074 91.024 907.826 90.352C906.626 89.68 905.114 89.344 903.29 89.344C901.466 89.344 899.81 89.752 898.322 90.568C896.882 91.336 895.73 92.512 894.866 94.096C894.05 95.632 893.642 97.528 893.642 99.784V100.504C893.642 102.76 894.05 104.68 894.866 106.264C895.73 107.8 896.882 108.976 898.322 109.792C899.81 110.56 901.466 110.944 903.29 110.944C906.026 110.944 908.09 110.248 909.482 108.856C910.922 107.416 911.834 105.544 912.218 103.24L921.002 105.328C920.378 107.872 919.298 110.2 917.762 112.312C916.274 114.376 914.306 116.008 911.858 117.208C909.41 118.408 906.482 119.008 903.074 119.008ZM945.477 119.008C941.925 119.008 938.733 118.288 935.901 116.848C933.069 115.408 930.837 113.32 929.205 110.584C927.573 107.848 926.757 104.56 926.757 100.72V99.568C926.757 95.728 927.573 92.44 929.205 89.704C930.837 86.968 933.069 84.88 935.901 83.44C938.733 82 941.925 81.28 945.477 81.28C949.029 81.28 952.221 82 955.053 83.44C957.885 84.88 960.117 86.968 961.749 89.704C963.381 92.44 964.197 95.728 964.197 99.568V100.72C964.197 104.56 963.381 107.848 961.749 110.584C960.117 113.32 957.885 115.408 955.053 116.848C952.221 118.288 949.029 119.008 945.477 119.008ZM945.477 110.944C948.261 110.944 950.565 110.056 952.389 108.28C954.213 106.456 955.125 103.864 955.125 100.504V99.784C955.125 96.424 954.213 93.856 952.389 92.08C950.613 90.256 948.309 89.344 945.477 89.344C942.693 89.344 940.389 90.256 938.565 92.08C936.741 93.856 935.829 96.424 935.829 99.784V100.504C935.829 103.864 936.741 106.456 938.565 108.28C940.389 110.056 942.693 110.944 945.477 110.944ZM972.571 118V82.288H981.499V86.968H982.795C983.371 85.72 984.451 84.544 986.035 83.44C987.619 82.288 990.019 81.712 993.235 81.712C996.019 81.712 998.443 82.36 1000.51 83.656C1002.62 84.904 1004.25 86.656 1005.4 88.912C1006.56 91.12 1007.13 93.712 1007.13 96.688V118H998.059V97.408C998.059 94.72 997.387 92.704 996.043 91.36C994.747 90.016 992.875 89.344 990.427 89.344C987.643 89.344 985.483 90.28 983.947 92.152C982.411 93.976 981.643 96.544 981.643 99.856V118H972.571ZM570.506 187.008C566.618 187.008 563.186 186.312 560.21 184.92C557.234 183.528 554.906 181.536 553.226 178.944C551.546 176.352 550.706 173.232 550.706 169.584V167.568H560.066V169.584C560.066 172.608 561.002 174.888 562.874 176.424C564.746 177.912 567.29 178.656 570.506 178.656C573.77 178.656 576.194 178.008 577.778 176.712C579.41 175.416 580.226 173.76 580.226 171.744C580.226 170.352 579.818 169.224 579.002 168.36C578.234 167.496 577.082 166.8 575.546 166.272C574.058 165.696 572.234 165.168 570.074 164.688L568.418 164.328C564.962 163.56 561.986 162.6 559.49 161.448C557.042 160.248 555.146 158.688 553.802 156.768C552.506 154.848 551.858 152.352 551.858 149.28C551.858 146.208 552.578 143.592 554.018 141.432C555.506 139.224 557.57 137.544 560.21 136.392C562.898 135.192 566.042 134.592 569.642 134.592C573.242 134.592 576.434 135.216 579.218 136.464C582.05 137.664 584.258 139.488 585.842 141.936C587.474 144.336 588.29 147.36 588.29 151.008V153.168H578.93V151.008C578.93 149.088 578.546 147.552 577.778 146.4C577.058 145.2 576.002 144.336 574.61 143.808C573.218 143.232 571.562 142.944 569.642 142.944C566.762 142.944 564.626 143.496 563.234 144.6C561.89 145.656 561.218 147.12 561.218 148.992C561.218 150.24 561.53 151.296 562.154 152.16C562.826 153.024 563.81 153.744 565.106 154.32C566.402 154.896 568.058 155.4 570.074 155.832L571.73 156.192C575.33 156.96 578.45 157.944 581.09 159.144C583.778 160.344 585.866 161.928 587.354 163.896C588.842 165.864 589.586 168.384 589.586 171.456C589.586 174.528 588.794 177.24 587.21 179.592C585.674 181.896 583.466 183.72 580.586 185.064C577.754 186.36 574.394 187.008 570.506 187.008ZM613.954 187.008C610.402 187.008 607.21 186.288 604.378 184.848C601.546 183.408 599.314 181.32 597.682 178.584C596.05 175.848 595.234 172.56 595.234 168.72V167.568C595.234 163.728 596.05 160.44 597.682 157.704C599.314 154.968 601.546 152.88 604.378 151.44C607.21 150 610.402 149.28 613.954 149.28C617.506 149.28 620.698 150 623.53 151.44C626.362 152.88 628.594 154.968 630.226 157.704C631.858 160.44 632.674 163.728 632.674 167.568V168.72C632.674 172.56 631.858 175.848 630.226 178.584C628.594 181.32 626.362 183.408 623.53 184.848C620.698 186.288 617.506 187.008 613.954 187.008ZM613.954 178.944C616.738 178.944 619.042 178.056 620.866 176.28C622.69 174.456 623.602 171.864 623.602 168.504V167.784C623.602 164.424 622.69 161.856 620.866 160.08C619.09 158.256 616.786 157.344 613.954 157.344C611.17 157.344 608.866 158.256 607.042 160.08C605.218 161.856 604.306 164.424 604.306 167.784V168.504C604.306 171.864 605.218 174.456 607.042 176.28C608.866 178.056 611.17 178.944 613.954 178.944ZM654.656 186.576C651.872 186.576 649.424 185.952 647.312 184.704C645.248 183.408 643.64 181.632 642.488 179.376C641.336 177.12 640.76 174.528 640.76 171.6V150.288H649.832V170.88C649.832 173.568 650.48 175.584 651.776 176.928C653.12 178.272 655.016 178.944 657.464 178.944C660.248 178.944 662.408 178.032 663.944 176.208C665.48 174.336 666.248 171.744 666.248 168.432V150.288H675.32V186H666.392V181.32H665.096C664.52 182.52 663.44 183.696 661.856 184.848C660.272 186 657.872 186.576 654.656 186.576ZM699.095 186C696.743 186 694.823 185.28 693.335 183.84C691.895 182.352 691.175 180.384 691.175 177.936V157.776H682.247V150.288H691.175V139.2H700.247V150.288H710.039V157.776H700.247V176.352C700.247 177.792 700.919 178.512 702.263 178.512H709.175V186H699.095ZM718.251 186V135.6H727.323V154.68H728.619C729.003 153.912 729.603 153.144 730.419 152.376C731.235 151.608 732.315 150.984 733.659 150.504C735.051 149.976 736.803 149.712 738.915 149.712C741.699 149.712 744.123 150.36 746.187 151.656C748.299 152.904 749.931 154.656 751.083 156.912C752.235 159.12 752.811 161.712 752.811 164.688V186H743.739V165.408C743.739 162.72 743.067 160.704 741.723 159.36C740.427 158.016 738.555 157.344 736.107 157.344C733.323 157.344 731.163 158.28 729.627 160.152C728.091 161.976 727.323 164.544 727.323 167.856V186H718.251ZM778.89 187.008C775.338 187.008 772.194 186.264 769.458 184.776C766.77 183.24 764.658 181.104 763.122 178.368C761.634 175.584 760.89 172.32 760.89 168.576V167.712C760.89 163.968 761.634 160.728 763.122 157.992C764.61 155.208 766.698 153.072 769.386 151.584C772.074 150.048 775.194 149.28 778.746 149.28C782.25 149.28 785.298 150.072 787.89 151.656C790.482 153.192 792.498 155.352 793.938 158.136C795.378 160.872 796.098 164.064 796.098 167.712V170.808H770.106C770.202 173.256 771.114 175.248 772.842 176.784C774.57 178.32 776.682 179.088 779.178 179.088C781.722 179.088 783.594 178.536 784.794 177.432C785.994 176.328 786.906 175.104 787.53 173.76L794.946 177.648C794.274 178.896 793.29 180.264 791.994 181.752C790.746 183.192 789.066 184.44 786.954 185.496C784.842 186.504 782.154 187.008 778.89 187.008ZM770.178 164.04H786.882C786.69 161.976 785.85 160.32 784.362 159.072C782.922 157.824 781.026 157.2 778.674 157.2C776.226 157.2 774.282 157.824 772.842 159.072C771.402 160.32 770.514 161.976 770.178 164.04ZM815.261 187.008C812.717 187.008 810.437 186.576 808.421 185.712C806.405 184.8 804.797 183.504 803.597 181.824C802.445 180.096 801.869 178.008 801.869 175.56C801.869 173.112 802.445 171.072 803.597 169.44C804.797 167.76 806.429 166.512 808.493 165.696C810.605 164.832 813.005 164.4 815.693 164.4H825.485V162.384C825.485 160.704 824.957 159.336 823.901 158.28C822.845 157.176 821.165 156.624 818.861 156.624C816.605 156.624 814.925 157.152 813.821 158.208C812.717 159.216 811.997 160.536 811.661 162.168L803.309 159.36C803.885 157.536 804.797 155.88 806.045 154.392C807.341 152.856 809.045 151.632 811.157 150.72C813.317 149.76 815.933 149.28 819.005 149.28C823.709 149.28 827.429 150.456 830.165 152.808C832.901 155.16 834.269 158.568 834.269 163.032V176.352C834.269 177.792 834.941 178.512 836.285 178.512H839.165V186H833.117C831.341 186 829.877 185.568 828.725 184.704C827.573 183.84 826.997 182.688 826.997 181.248V181.176H825.629C825.437 181.752 825.005 182.52 824.333 183.48C823.661 184.392 822.605 185.208 821.165 185.928C819.725 186.648 817.757 187.008 815.261 187.008ZM816.845 179.664C819.389 179.664 821.453 178.968 823.037 177.576C824.669 176.136 825.485 174.24 825.485 171.888V171.168H816.341C814.661 171.168 813.341 171.528 812.381 172.248C811.421 172.968 810.941 173.976 810.941 175.272C810.941 176.568 811.445 177.624 812.453 178.44C813.461 179.256 814.925 179.664 816.845 179.664ZM860.349 187.008C855.693 187.008 851.877 186 848.901 183.984C845.925 181.968 844.125 179.088 843.501 175.344L851.853 173.184C852.189 174.864 852.741 176.184 853.509 177.144C854.325 178.104 855.309 178.8 856.461 179.232C857.661 179.616 858.957 179.808 860.349 179.808C862.461 179.808 864.021 179.448 865.029 178.728C866.037 177.96 866.541 177.024 866.541 175.92C866.541 174.816 866.061 173.976 865.101 173.4C864.141 172.776 862.605 172.272 860.493 171.888L858.477 171.528C855.981 171.048 853.701 170.4 851.637 169.584C849.573 168.72 847.917 167.544 846.669 166.056C845.421 164.568 844.797 162.648 844.797 160.296C844.797 156.744 846.093 154.032 848.685 152.16C851.277 150.24 854.685 149.28 858.909 149.28C862.893 149.28 866.205 150.168 868.845 151.944C871.485 153.72 873.213 156.048 874.029 158.928L865.605 161.52C865.221 159.696 864.429 158.4 863.229 157.632C862.077 156.864 860.637 156.48 858.909 156.48C857.181 156.48 855.861 156.792 854.949 157.416C854.037 157.992 853.581 158.808 853.581 159.864C853.581 161.016 854.061 161.88 855.021 162.456C855.981 162.984 857.277 163.392 858.909 163.68L860.925 164.04C863.613 164.52 866.037 165.168 868.197 165.984C870.405 166.752 872.133 167.88 873.381 169.368C874.677 170.808 875.325 172.776 875.325 175.272C875.325 179.016 873.957 181.92 871.221 183.984C868.533 186 864.909 187.008 860.349 187.008ZM896.251 186C893.899 186 891.979 185.28 890.491 183.84C889.051 182.352 888.331 180.384 888.331 177.936V157.776H879.403V150.288H888.331V139.2H897.403V150.288H907.195V157.776H897.403V176.352C897.403 177.792 898.075 178.512 899.419 178.512H906.331V186H896.251ZM929.101 186L942.349 135.6H958.909L972.157 186H962.365L959.629 174.912H941.629L938.893 186H929.101ZM943.861 166.128H957.397L951.277 141.576H949.981L943.861 166.128ZM993.31 187.008C988.654 187.008 984.838 186 981.862 183.984C978.886 181.968 977.086 179.088 976.462 175.344L984.814 173.184C985.15 174.864 985.702 176.184 986.47 177.144C987.286 178.104 988.27 178.8 989.422 179.232C990.622 179.616 991.918 179.808 993.31 179.808C995.422 179.808 996.982 179.448 997.99 178.728C998.998 177.96 999.502 177.024 999.502 175.92C999.502 174.816 999.022 173.976 998.062 173.4C997.102 172.776 995.566 172.272 993.454 171.888L991.438 171.528C988.942 171.048 986.662 170.4 984.598 169.584C982.534 168.72 980.878 167.544 979.63 166.056C978.382 164.568 977.758 162.648 977.758 160.296C977.758 156.744 979.054 154.032 981.646 152.16C984.238 150.24 987.646 149.28 991.87 149.28C995.854 149.28 999.166 150.168 1001.81 151.944C1004.45 153.72 1006.17 156.048 1006.99 158.928L998.566 161.52C998.182 159.696 997.39 158.4 996.19 157.632C995.038 156.864 993.598 156.48 991.87 156.48C990.142 156.48 988.822 156.792 987.91 157.416C986.998 157.992 986.542 158.808 986.542 159.864C986.542 161.016 987.022 161.88 987.982 162.456C988.942 162.984 990.238 163.392 991.87 163.68L993.886 164.04C996.574 164.52 998.998 165.168 1001.16 165.984C1003.37 166.752 1005.09 167.88 1006.34 169.368C1007.64 170.808 1008.29 172.776 1008.29 175.272C1008.29 179.016 1006.92 181.92 1004.18 183.984C1001.49 186 997.87 187.008 993.31 187.008ZM1016.24 186V150.288H1025.31V186H1016.24ZM1020.77 146.112C1019.14 146.112 1017.75 145.584 1016.6 144.528C1015.49 143.472 1014.94 142.08 1014.94 140.352C1014.94 138.624 1015.49 137.232 1016.6 136.176C1017.75 135.12 1019.14 134.592 1020.77 134.592C1022.45 134.592 1023.84 135.12 1024.95 136.176C1026.05 137.232 1026.6 138.624 1026.6 140.352C1026.6 142.08 1026.05 143.472 1024.95 144.528C1023.84 145.584 1022.45 146.112 1020.77 146.112ZM1046.45 187.008C1043.9 187.008 1041.62 186.576 1039.61 185.712C1037.59 184.8 1035.98 183.504 1034.78 181.824C1033.63 180.096 1033.06 178.008 1033.06 175.56C1033.06 173.112 1033.63 171.072 1034.78 169.44C1035.98 167.76 1037.62 166.512 1039.68 165.696C1041.79 164.832 1044.19 164.4 1046.88 164.4H1056.67V162.384C1056.67 160.704 1056.14 159.336 1055.09 158.28C1054.03 157.176 1052.35 156.624 1050.05 156.624C1047.79 156.624 1046.11 157.152 1045.01 158.208C1043.9 159.216 1043.18 160.536 1042.85 162.168L1034.5 159.36C1035.07 157.536 1035.98 155.88 1037.23 154.392C1038.53 152.856 1040.23 151.632 1042.34 150.72C1044.5 149.76 1047.12 149.28 1050.19 149.28C1054.9 149.28 1058.62 150.456 1061.35 152.808C1064.09 155.16 1065.46 158.568 1065.46 163.032V176.352C1065.46 177.792 1066.13 178.512 1067.47 178.512H1070.35V186H1064.3C1062.53 186 1061.06 185.568 1059.91 184.704C1058.76 183.84 1058.18 182.688 1058.18 181.248V181.176H1056.82C1056.62 181.752 1056.19 182.52 1055.52 183.48C1054.85 184.392 1053.79 185.208 1052.35 185.928C1050.91 186.648 1048.94 187.008 1046.45 187.008ZM1048.03 179.664C1050.58 179.664 1052.64 178.968 1054.22 177.576C1055.86 176.136 1056.67 174.24 1056.67 171.888V171.168H1047.53C1045.85 171.168 1044.53 171.528 1043.57 172.248C1042.61 172.968 1042.13 173.976 1042.13 175.272C1042.13 176.568 1042.63 177.624 1043.64 178.44C1044.65 179.256 1046.11 179.664 1048.03 179.664Z" fill="#006838"/>
<path d="M695.395 118L708.355 100L695.539 82.288H706.051L714.187 94.168H715.483L723.619 82.288H734.131L721.315 100L734.275 118H723.619L715.483 105.976H714.187L706.051 118H695.395Z" fill="#EC008C"/>
<path d="M549.618 233V219H555.358C556.331 219 557.144 219.153 557.798 219.46C558.464 219.767 558.971 220.193 559.318 220.74C559.664 221.273 559.838 221.893 559.838 222.6C559.838 223.307 559.684 223.9 559.378 224.38C559.071 224.86 558.664 225.233 558.158 225.5C557.664 225.753 557.118 225.9 556.518 225.94L556.838 225.72C557.478 225.747 558.044 225.92 558.538 226.24C559.044 226.547 559.438 226.96 559.718 227.48C560.011 228 560.158 228.567 560.158 229.18C560.158 229.927 559.978 230.587 559.618 231.16C559.258 231.733 558.731 232.187 558.038 232.52C557.358 232.84 556.524 233 555.538 233H549.618ZM552.318 230.8H555.118C555.851 230.8 556.418 230.633 556.818 230.3C557.218 229.967 557.418 229.487 557.418 228.86C557.418 228.233 557.211 227.747 556.798 227.4C556.384 227.04 555.811 226.86 555.078 226.86H552.318V230.8ZM552.318 224.84H554.918C555.624 224.84 556.158 224.68 556.518 224.36C556.891 224.04 557.078 223.587 557.078 223C557.078 222.427 556.891 221.98 556.518 221.66C556.158 221.327 555.618 221.16 554.898 221.16H552.318V224.84ZM565.515 233L570.635 219H573.695L578.795 233H575.935L572.135 222.08L568.335 233H565.515ZM567.775 229.82L568.495 227.72H575.615L576.315 229.82H567.775ZM584.795 233V219H587.495L593.935 228.66V219H596.635V233H593.935L587.495 223.38V233H584.795ZM609.666 233.24C608.346 233.24 607.186 232.947 606.186 232.36C605.2 231.76 604.433 230.927 603.886 229.86C603.34 228.78 603.066 227.527 603.066 226.1C603.066 224.66 603.346 223.393 603.906 222.3C604.48 221.193 605.293 220.327 606.346 219.7C607.4 219.073 608.653 218.76 610.106 218.76C611.76 218.76 613.126 219.153 614.206 219.94C615.3 220.727 616.006 221.82 616.326 223.22H613.306C613.106 222.607 612.733 222.127 612.186 221.78C611.64 221.42 610.94 221.24 610.086 221.24C609.18 221.24 608.406 221.44 607.766 221.84C607.126 222.24 606.64 222.8 606.306 223.52C605.986 224.24 605.826 225.1 605.826 226.1C605.826 227.113 605.986 227.973 606.306 228.68C606.64 229.387 607.113 229.927 607.726 230.3C608.353 230.66 609.086 230.84 609.926 230.84C611.153 230.84 612.08 230.513 612.706 229.86C613.346 229.193 613.726 228.333 613.846 227.28H610.406V225.26H616.566V233H614.086L613.866 231.22C613.573 231.66 613.233 232.033 612.846 232.34C612.46 232.633 612 232.853 611.466 233C610.946 233.16 610.346 233.24 609.666 233.24ZM623.254 233V219H625.954V224.54L631.014 219H634.334L629.194 224.54L634.494 233H631.194L627.254 226.64L625.954 228.04V233H623.254ZM645.966 233.24C644.593 233.24 643.379 232.933 642.326 232.32C641.286 231.707 640.466 230.86 639.866 229.78C639.279 228.687 638.986 227.427 638.986 226C638.986 224.573 639.279 223.32 639.866 222.24C640.466 221.147 641.286 220.293 642.326 219.68C643.379 219.067 644.593 218.76 645.966 218.76C647.353 218.76 648.573 219.067 649.626 219.68C650.679 220.293 651.499 221.147 652.086 222.24C652.673 223.32 652.966 224.573 652.966 226C652.966 227.427 652.673 228.687 652.086 229.78C651.499 230.86 650.679 231.707 649.626 232.32C648.573 232.933 647.353 233.24 645.966 233.24ZM645.966 230.82C646.833 230.82 647.579 230.627 648.206 230.24C648.846 229.84 649.339 229.28 649.686 228.56C650.033 227.84 650.206 226.987 650.206 226C650.206 225 650.033 224.147 649.686 223.44C649.339 222.72 648.846 222.167 648.206 221.78C647.579 221.393 646.833 221.2 645.966 221.2C645.113 221.2 644.366 221.393 643.726 221.78C643.099 222.167 642.613 222.72 642.266 223.44C641.919 224.147 641.746 225 641.746 226C641.746 226.987 641.919 227.84 642.266 228.56C642.613 229.28 643.099 229.84 643.726 230.24C644.366 230.627 645.113 230.82 645.966 230.82ZM659.427 233V219H662.127V224.54L667.187 219H670.507L665.367 224.54L670.667 233H667.367L663.427 226.64L662.127 228.04V233H659.427ZM675.695 235.46L676.835 230.38H679.435L677.455 235.46H675.695ZM697.865 233V221.18H693.765V219H704.645V221.18H700.545V233H697.865ZM719.539 233V219H722.239V233H719.539ZM710.719 233V219H713.419V233H710.719ZM713.039 226.94V224.76H719.999V226.94H713.039ZM728.218 233L733.338 219H736.398L741.498 233H738.638L734.838 222.08L731.038 233H728.218ZM730.478 229.82L731.198 227.72H738.318L739.018 229.82H730.478ZM747.498 233V219H750.198V233H747.498ZM757.089 233V219H759.789V230.9H765.929V233H757.089ZM771.502 233L776.622 219H779.682L784.782 233H781.922L778.122 222.08L774.322 233H771.502ZM773.762 229.82L774.482 227.72H781.602L782.302 229.82H773.762ZM790.782 233V219H793.482L799.922 228.66V219H802.622V233H799.922L793.482 223.38V233H790.782ZM809.513 233V219H814.313C815.94 219 817.28 219.293 818.333 219.88C819.4 220.453 820.186 221.267 820.693 222.32C821.213 223.36 821.473 224.587 821.473 226C821.473 227.413 821.213 228.647 820.693 229.7C820.186 230.74 819.4 231.553 818.333 232.14C817.28 232.713 815.933 233 814.293 233H809.513ZM812.213 230.68H814.153C815.3 230.68 816.206 230.493 816.873 230.12C817.54 229.747 818.013 229.213 818.293 228.52C818.573 227.813 818.713 226.973 818.713 226C818.713 225.013 818.573 224.173 818.293 223.48C818.013 222.773 817.54 222.233 816.873 221.86C816.206 221.487 815.3 221.3 814.153 221.3H812.213V230.68ZM844.826 235.28L849.826 217.42H852.446L847.446 235.28H844.826ZM855.139 235.28L860.139 217.42H862.759L857.759 235.28H855.139ZM886.589 233V219H889.289L895.729 228.66V219H898.429V233H895.729L889.289 223.38V233H886.589ZM911.84 233.24C910.467 233.24 909.253 232.933 908.2 232.32C907.16 231.707 906.34 230.86 905.74 229.78C905.153 228.687 904.86 227.427 904.86 226C904.86 224.573 905.153 223.32 905.74 222.24C906.34 221.147 907.16 220.293 908.2 219.68C909.253 219.067 910.467 218.76 911.84 218.76C913.227 218.76 914.447 219.067 915.5 219.68C916.553 220.293 917.373 221.147 917.96 222.24C918.547 223.32 918.84 224.573 918.84 226C918.84 227.427 918.547 228.687 917.96 229.78C917.373 230.86 916.553 231.707 915.5 232.32C914.447 232.933 913.227 233.24 911.84 233.24ZM911.84 230.82C912.707 230.82 913.453 230.627 914.08 230.24C914.72 229.84 915.213 229.28 915.56 228.56C915.907 227.84 916.08 226.987 916.08 226C916.08 225 915.907 224.147 915.56 223.44C915.213 222.72 914.72 222.167 914.08 221.78C913.453 221.393 912.707 221.2 911.84 221.2C910.987 221.2 910.24 221.393 909.6 221.78C908.973 222.167 908.487 222.72 908.14 223.44C907.793 224.147 907.62 225 907.62 226C907.62 226.987 907.793 227.84 908.14 228.56C908.487 229.28 908.973 229.84 909.6 230.24C910.24 230.627 910.987 230.82 911.84 230.82ZM928.853 233L923.773 219H926.653L930.513 230.24L934.413 219H937.273L932.173 233H928.853ZM943.134 233V219H952.334V221.18H945.834V224.84H951.734V226.94H945.834V230.82H952.334V233H943.134ZM958.955 233V219H962.175L966.495 227.72L970.775 219H973.995V233H971.295V223.58L967.555 231.02H965.415L961.655 223.58V233H958.955ZM980.909 233V219H986.649C987.623 219 988.436 219.153 989.089 219.46C989.756 219.767 990.263 220.193 990.609 220.74C990.956 221.273 991.129 221.893 991.129 222.6C991.129 223.307 990.976 223.9 990.669 224.38C990.363 224.86 989.956 225.233 989.449 225.5C988.956 225.753 988.409 225.9 987.809 225.94L988.129 225.72C988.769 225.747 989.336 225.92 989.829 226.24C990.336 226.547 990.729 226.96 991.009 227.48C991.303 228 991.449 228.567 991.449 229.18C991.449 229.927 991.269 230.587 990.909 231.16C990.549 231.733 990.023 232.187 989.329 232.52C988.649 232.84 987.816 233 986.829 233H980.909ZM983.609 230.8H986.409C987.143 230.8 987.709 230.633 988.109 230.3C988.509 229.967 988.709 229.487 988.709 228.86C988.709 228.233 988.503 227.747 988.089 227.4C987.676 227.04 987.103 226.86 986.369 226.86H983.609V230.8ZM983.609 224.84H986.209C986.916 224.84 987.449 224.68 987.809 224.36C988.183 224.04 988.369 223.587 988.369 223C988.369 222.427 988.183 221.98 987.809 221.66C987.449 221.327 986.909 221.16 986.189 221.16H983.609V224.84ZM997.824 233V219H1007.02V221.18H1000.52V224.84H1006.42V226.94H1000.52V230.82H1007.02V233H997.824ZM1013.65 233V219H1018.87C1020 219 1020.93 219.193 1021.67 219.58C1022.4 219.967 1022.95 220.487 1023.31 221.14C1023.67 221.78 1023.85 222.493 1023.85 223.28C1023.85 224.027 1023.67 224.727 1023.33 225.38C1022.98 226.02 1022.43 226.54 1021.69 226.94C1020.95 227.327 1020.01 227.52 1018.85 227.52H1016.35V233H1013.65ZM1020.91 233L1018.03 226.84H1020.95L1023.99 233H1020.91ZM1016.35 225.56H1018.71C1019.52 225.56 1020.12 225.36 1020.51 224.96C1020.89 224.56 1021.09 224.033 1021.09 223.38C1021.09 222.727 1020.89 222.213 1020.51 221.84C1020.13 221.453 1019.53 221.26 1018.71 221.26H1016.35V225.56ZM1029.46 235.46L1030.6 230.38H1033.2L1031.22 235.46H1029.46ZM1048.01 233V231.02C1048.85 230.34 1049.67 229.66 1050.47 228.98C1051.27 228.3 1051.99 227.627 1052.63 226.96C1053.27 226.28 1053.78 225.62 1054.15 224.98C1054.53 224.34 1054.71 223.72 1054.71 223.12C1054.71 222.747 1054.64 222.407 1054.49 222.1C1054.36 221.78 1054.15 221.527 1053.87 221.34C1053.59 221.14 1053.22 221.04 1052.75 221.04C1052.3 221.04 1051.91 221.147 1051.59 221.36C1051.27 221.573 1051.03 221.86 1050.87 222.22C1050.71 222.567 1050.63 222.96 1050.63 223.4H1048.01C1048.05 222.373 1048.29 221.513 1048.71 220.82C1049.14 220.127 1049.71 219.613 1050.43 219.28C1051.15 218.933 1051.95 218.76 1052.83 218.76C1053.82 218.76 1054.65 218.947 1055.33 219.32C1056.01 219.68 1056.53 220.173 1056.87 220.8C1057.23 221.427 1057.41 222.147 1057.41 222.96C1057.41 223.573 1057.3 224.173 1057.07 224.76C1056.85 225.347 1056.54 225.92 1056.15 226.48C1055.77 227.027 1055.33 227.553 1054.83 228.06C1054.34 228.567 1053.83 229.053 1053.29 229.52C1052.77 229.973 1052.26 230.4 1051.75 230.8H1057.73V233H1048.01ZM1069.72 233.24C1068.43 233.24 1067.32 232.933 1066.4 232.32C1065.48 231.707 1064.77 230.86 1064.26 229.78C1063.77 228.687 1063.52 227.427 1063.52 226C1063.52 224.573 1063.77 223.32 1064.26 222.24C1064.77 221.147 1065.48 220.293 1066.4 219.68C1067.32 219.067 1068.43 218.76 1069.72 218.76C1071.01 218.76 1072.12 219.067 1073.04 219.68C1073.96 220.293 1074.67 221.147 1075.16 222.24C1075.65 223.32 1075.9 224.573 1075.9 226C1075.9 227.427 1075.65 228.687 1075.16 229.78C1074.67 230.86 1073.95 231.707 1073.02 232.32C1072.1 232.933 1071 233.24 1069.72 233.24ZM1069.72 230.82C1070.4 230.82 1070.99 230.627 1071.5 230.24C1072.02 229.84 1072.42 229.28 1072.7 228.56C1072.99 227.84 1073.14 226.987 1073.14 226C1073.14 225 1072.99 224.147 1072.7 223.44C1072.42 222.72 1072.02 222.167 1071.5 221.78C1070.99 221.393 1070.4 221.2 1069.72 221.2C1069.04 221.2 1068.44 221.393 1067.92 221.78C1067.4 222.167 1066.99 222.72 1066.7 223.44C1066.42 224.147 1066.28 225 1066.28 226C1066.28 226.987 1066.42 227.84 1066.7 228.56C1066.99 229.28 1067.4 229.84 1067.92 230.24C1068.44 230.627 1069.04 230.82 1069.72 230.82ZM1081.92 233V231.02C1082.76 230.34 1083.58 229.66 1084.38 228.98C1085.18 228.3 1085.9 227.627 1086.54 226.96C1087.18 226.28 1087.69 225.62 1088.06 224.98C1088.44 224.34 1088.62 223.72 1088.62 223.12C1088.62 222.747 1088.55 222.407 1088.4 222.1C1088.27 221.78 1088.06 221.527 1087.78 221.34C1087.5 221.14 1087.13 221.04 1086.66 221.04C1086.21 221.04 1085.82 221.147 1085.5 221.36C1085.18 221.573 1084.94 221.86 1084.78 222.22C1084.62 222.567 1084.54 222.96 1084.54 223.4H1081.92C1081.96 222.373 1082.2 221.513 1082.62 220.82C1083.05 220.127 1083.62 219.613 1084.34 219.28C1085.06 218.933 1085.86 218.76 1086.74 218.76C1087.73 218.76 1088.56 218.947 1089.24 219.32C1089.92 219.68 1090.44 220.173 1090.78 220.8C1091.14 221.427 1091.32 222.147 1091.32 222.96C1091.32 223.573 1091.21 224.173 1090.98 224.76C1090.76 225.347 1090.45 225.92 1090.06 226.48C1089.68 227.027 1089.24 227.553 1088.74 228.06C1088.25 228.567 1087.74 229.053 1087.2 229.52C1086.68 229.973 1086.17 230.4 1085.66 230.8H1091.64V233H1081.92ZM1104.23 233V230.46H1097.35V228.32L1103.87 219H1106.93V228.12H1108.75V230.46H1106.93V233H1104.23ZM1100.23 228.12H1104.41V221.98L1100.23 228.12Z" fill="#EC008C"/>
</svg>
