<svg width="203" height="48" viewBox="0 0 203 48" fill="none" xmlns="http://www.w3.org/2000/svg">
<path d="M9.14097 20.2026V0.602635H17.205C18.437 0.602635 19.5196 0.854635 20.453 1.35864C21.405 1.84397 22.1423 2.53464 22.665 3.43064C23.2063 4.32664 23.477 5.39064 23.477 6.62264V7.01464C23.477 8.22797 23.197 9.29197 22.637 10.2066C22.0956 11.1026 21.349 11.8026 20.397 12.3066C19.4636 12.792 18.3996 13.0346 17.205 13.0346H12.837V20.2026H9.14097ZM12.837 9.67464H16.841C17.7183 9.67464 18.4276 9.43197 18.969 8.94664C19.5103 8.4613 19.781 7.79864 19.781 6.95864V6.67864C19.781 5.83864 19.5103 5.17597 18.969 4.69064C18.4276 4.2053 17.7183 3.96264 16.841 3.96264H12.837V9.67464ZM32.8434 20.5946C31.3314 20.5946 29.9967 20.324 28.8394 19.7826C27.6821 19.2413 26.7767 18.4666 26.1234 17.4586C25.4701 16.4506 25.1434 15.2373 25.1434 13.8186V13.0346H28.7834V13.8186C28.7834 14.9946 29.1474 15.8813 29.8754 16.4786C30.6034 17.0573 31.5927 17.3466 32.8434 17.3466C34.1127 17.3466 35.0554 17.0946 35.6714 16.5906C36.3061 16.0866 36.6234 15.4426 36.6234 14.6586C36.6234 14.1173 36.4647 13.6786 36.1474 13.3426C35.8487 13.0066 35.4007 12.736 34.8034 12.5306C34.2247 12.3066 33.5154 12.1013 32.6754 11.9146L32.0314 11.7746C30.6874 11.476 29.5301 11.1026 28.5594 10.6546C27.6074 10.188 26.8701 9.5813 26.3474 8.83464C25.8434 8.08797 25.5914 7.1173 25.5914 5.92264C25.5914 4.72797 25.8714 3.71064 26.4314 2.87064C27.0101 2.01197 27.8127 1.35864 28.8394 0.910636C29.8847 0.443969 31.1074 0.210635 32.5074 0.210635C33.9074 0.210635 35.1487 0.453302 36.2314 0.938636C37.3327 1.4053 38.1914 2.11464 38.8074 3.06664C39.4421 3.99997 39.7594 5.17597 39.7594 6.59464V7.43464H36.1194V6.59464C36.1194 5.84797 35.9701 5.25064 35.6714 4.80264C35.3914 4.33597 34.9807 3.99997 34.4394 3.79464C33.8981 3.57064 33.2541 3.45864 32.5074 3.45864C31.3874 3.45864 30.5567 3.6733 30.0154 4.10264C29.4927 4.5133 29.2314 5.08264 29.2314 5.81064C29.2314 6.29597 29.3527 6.70664 29.5954 7.04264C29.8567 7.37864 30.2394 7.65864 30.7434 7.88264C31.2474 8.10664 31.8914 8.30264 32.6754 8.47064L33.3194 8.61064C34.7194 8.9093 35.9327 9.29197 36.9594 9.75864C38.0047 10.2253 38.8167 10.8413 39.3954 11.6066C39.9741 12.372 40.2634 13.352 40.2634 14.5466C40.2634 15.7413 39.9554 16.796 39.3394 17.7106C38.7421 18.6066 37.8834 19.316 36.7634 19.8386C35.6621 20.3426 34.3554 20.5946 32.8434 20.5946ZM43.0199 20.2026V0.602635H55.6199V3.96264H46.7159V8.63864H54.8359V11.9986H46.7159V16.8426H55.7879V20.2026H43.0199ZM88.7528 20.2026V16.9546H91.3288V3.85064H88.7528V0.602635H96.8168C99.4488 0.602635 101.446 1.27464 102.809 2.61864C104.19 3.94397 104.881 5.92264 104.881 8.55464V12.2506C104.881 14.8826 104.19 16.8706 102.809 18.2146C101.446 19.54 99.4488 20.2026 96.8168 20.2026H88.7528ZM95.0248 16.8426H96.8728C98.3662 16.8426 99.4582 16.4506 100.149 15.6666C100.84 14.8826 101.185 13.7813 101.185 12.3626V8.44264C101.185 7.0053 100.84 5.90397 100.149 5.13864C99.4582 4.35464 98.3662 3.96264 96.8728 3.96264H95.0248V16.8426ZM114.401 20.5946C113.02 20.5946 111.797 20.3053 110.733 19.7266C109.688 19.1293 108.867 18.2986 108.269 17.2346C107.691 16.152 107.401 14.8826 107.401 13.4266V13.0906C107.401 11.6346 107.691 10.3746 108.269 9.31064C108.848 8.22797 109.66 7.3973 110.705 6.81864C111.751 6.2213 112.964 5.92264 114.345 5.92264C115.708 5.92264 116.893 6.23064 117.901 6.84664C118.909 7.44397 119.693 8.28397 120.253 9.36664C120.813 10.4306 121.093 11.672 121.093 13.0906V14.2946H110.985C111.023 15.2466 111.377 16.0213 112.049 16.6186C112.721 17.216 113.543 17.5146 114.513 17.5146C115.503 17.5146 116.231 17.3 116.697 16.8706C117.164 16.4413 117.519 15.9653 117.761 15.4426L120.645 16.9546C120.384 17.44 120.001 17.972 119.497 18.5506C119.012 19.1106 118.359 19.596 117.537 20.0066C116.716 20.3986 115.671 20.5946 114.401 20.5946ZM111.013 11.6626H117.509C117.435 10.86 117.108 10.216 116.529 9.73064C115.969 9.2453 115.232 9.00264 114.317 9.00264C113.365 9.00264 112.609 9.2453 112.049 9.73064C111.489 10.216 111.144 10.86 111.013 11.6626ZM126.735 20.2026L122.311 6.31464H126.063L129.283 17.6266H129.787L133.007 6.31464H136.759L132.335 20.2026H126.735ZM145.277 20.5946C143.933 20.5946 142.71 20.3146 141.609 19.7546C140.526 19.1946 139.668 18.3826 139.033 17.3186C138.398 16.2546 138.081 14.9666 138.081 13.4546V13.0626C138.081 11.5506 138.398 10.2626 139.033 9.19864C139.668 8.13464 140.526 7.32264 141.609 6.76264C142.71 6.20264 143.933 5.92264 145.277 5.92264C146.602 5.92264 147.741 6.15597 148.693 6.62264C149.645 7.0893 150.41 7.7333 150.989 8.55464C151.586 9.3573 151.978 10.272 152.165 11.2986L148.749 12.0266C148.674 11.4666 148.506 10.9626 148.245 10.5146C147.984 10.0666 147.61 9.71197 147.125 9.45064C146.658 9.1893 146.07 9.05864 145.361 9.05864C144.652 9.05864 144.008 9.2173 143.429 9.53464C142.869 9.8333 142.421 10.2906 142.085 10.9066C141.768 11.504 141.609 12.2413 141.609 13.1186V13.3986C141.609 14.276 141.768 15.0226 142.085 15.6386C142.421 16.236 142.869 16.6933 143.429 17.0106C144.008 17.3093 144.652 17.4586 145.361 17.4586C146.425 17.4586 147.228 17.188 147.769 16.6466C148.329 16.0866 148.684 15.3586 148.833 14.4626L152.249 15.2746C152.006 16.264 151.586 17.1693 150.989 17.9906C150.41 18.7933 149.645 19.428 148.693 19.8946C147.741 20.3613 146.602 20.5946 145.277 20.5946ZM161.767 20.5946C160.386 20.5946 159.145 20.3146 158.043 19.7546C156.942 19.1946 156.074 18.3826 155.439 17.3186C154.805 16.2546 154.487 14.976 154.487 13.4826V13.0346C154.487 11.5413 154.805 10.2626 155.439 9.19864C156.074 8.13464 156.942 7.32264 158.043 6.76264C159.145 6.20264 160.386 5.92264 161.767 5.92264C163.149 5.92264 164.39 6.20264 165.491 6.76264C166.593 7.32264 167.461 8.13464 168.095 9.19864C168.73 10.2626 169.047 11.5413 169.047 13.0346V13.4826C169.047 14.976 168.73 16.2546 168.095 17.3186C167.461 18.3826 166.593 19.1946 165.491 19.7546C164.39 20.3146 163.149 20.5946 161.767 20.5946ZM161.767 17.4586C162.85 17.4586 163.746 17.1133 164.455 16.4226C165.165 15.7133 165.519 14.7053 165.519 13.3986V13.1186C165.519 11.812 165.165 10.8133 164.455 10.1226C163.765 9.4133 162.869 9.05864 161.767 9.05864C160.685 9.05864 159.789 9.4133 159.079 10.1226C158.37 10.8133 158.015 11.812 158.015 13.1186V13.3986C158.015 14.7053 158.37 15.7133 159.079 16.4226C159.789 17.1133 160.685 17.4586 161.767 17.4586ZM172.304 20.2026V6.31464H175.776V8.13464H176.28C176.504 7.6493 176.924 7.19197 177.54 6.76264C178.156 6.31464 179.089 6.09064 180.34 6.09064C181.422 6.09064 182.365 6.34264 183.168 6.84664C183.989 7.33197 184.624 8.0133 185.072 8.89064C185.52 9.7493 185.744 10.7573 185.744 11.9146V20.2026H182.216V12.1946C182.216 11.1493 181.954 10.3653 181.432 9.84264C180.928 9.31997 180.2 9.05864 179.248 9.05864C178.165 9.05864 177.325 9.42264 176.728 10.1506C176.13 10.86 175.832 11.8586 175.832 13.1466V20.2026H172.304ZM7.82388 47.5946C6.31188 47.5946 4.97721 47.324 3.81988 46.7826C2.66254 46.2413 1.75721 45.4666 1.10388 44.4586C0.450542 43.4506 0.123875 42.2373 0.123875 40.8186V40.0346H3.76388V40.8186C3.76388 41.9946 4.12788 42.8813 4.85588 43.4786C5.58388 44.0573 6.57321 44.3466 7.82388 44.3466C9.09321 44.3466 10.0359 44.0946 10.6519 43.5906C11.2865 43.0866 11.6039 42.4426 11.6039 41.6586C11.6039 41.1173 11.4452 40.6786 11.1279 40.3426C10.8292 40.0066 10.3812 39.736 9.78388 39.5306C9.20521 39.3066 8.49588 39.1013 7.65588 38.9146L7.01188 38.7746C5.66788 38.476 4.51054 38.1026 3.53988 37.6546C2.58788 37.188 1.85054 36.5813 1.32788 35.8346C0.823875 35.088 0.571875 34.1173 0.571875 32.9226C0.571875 31.728 0.851875 30.7106 1.41188 29.8706C1.99054 29.012 2.79321 28.3586 3.81988 27.9106C4.86521 27.444 6.08788 27.2106 7.48788 27.2106C8.88788 27.2106 10.1292 27.4533 11.2119 27.9386C12.3132 28.4053 13.1719 29.1146 13.7879 30.0666C14.4225 31 14.7399 32.176 14.7399 33.5946V34.4346H11.0999V33.5946C11.0999 32.848 10.9505 32.2506 10.6519 31.8026C10.3719 31.336 9.96121 31 9.41988 30.7946C8.87854 30.5706 8.23454 30.4586 7.48788 30.4586C6.36788 30.4586 5.53721 30.6733 4.99588 31.1026C4.47321 31.5133 4.21188 32.0826 4.21188 32.8106C4.21188 33.296 4.33321 33.7066 4.57588 34.0426C4.83721 34.3786 5.21988 34.6586 5.72388 34.8826C6.22788 35.1066 6.87188 35.3026 7.65588 35.4706L8.29988 35.6106C9.69988 35.9093 10.9132 36.292 11.9399 36.7586C12.9852 37.2253 13.7972 37.8413 14.3759 38.6066C14.9545 39.372 15.2439 40.352 15.2439 41.5466C15.2439 42.7413 14.9359 43.796 14.3199 44.7106C13.7225 45.6066 12.8639 46.316 11.7439 46.8386C10.6425 47.3426 9.33588 47.5946 7.82388 47.5946ZM24.7203 47.5946C23.339 47.5946 22.0977 47.3146 20.9963 46.7546C19.895 46.1946 19.027 45.3826 18.3923 44.3186C17.7577 43.2546 17.4403 41.976 17.4403 40.4826V40.0346C17.4403 38.5413 17.7577 37.2626 18.3923 36.1986C19.027 35.1346 19.895 34.3226 20.9963 33.7626C22.0977 33.2026 23.339 32.9226 24.7203 32.9226C26.1017 32.9226 27.343 33.2026 28.4443 33.7626C29.5457 34.3226 30.4137 35.1346 31.0483 36.1986C31.683 37.2626 32.0003 38.5413 32.0003 40.0346V40.4826C32.0003 41.976 31.683 43.2546 31.0483 44.3186C30.4137 45.3826 29.5457 46.1946 28.4443 46.7546C27.343 47.3146 26.1017 47.5946 24.7203 47.5946ZM24.7203 44.4586C25.803 44.4586 26.699 44.1133 27.4083 43.4226C28.1177 42.7133 28.4723 41.7053 28.4723 40.3986V40.1186C28.4723 38.812 28.1177 37.8133 27.4083 37.1226C26.7177 36.4133 25.8217 36.0586 24.7203 36.0586C23.6377 36.0586 22.7417 36.4133 22.0323 37.1226C21.323 37.8133 20.9683 38.812 20.9683 40.1186V40.3986C20.9683 41.7053 21.323 42.7133 22.0323 43.4226C22.7417 44.1133 23.6377 44.4586 24.7203 44.4586ZM40.5489 47.4266C39.4662 47.4266 38.5142 47.184 37.6929 46.6986C36.8902 46.1946 36.2649 45.504 35.8169 44.6266C35.3689 43.7493 35.1449 42.7413 35.1449 41.6026V33.3146H38.6729V41.3226C38.6729 42.368 38.9249 43.152 39.4289 43.6746C39.9515 44.1973 40.6889 44.4586 41.6409 44.4586C42.7235 44.4586 43.5635 44.104 44.1609 43.3946C44.7582 42.6666 45.0569 41.6586 45.0569 40.3706V33.3146H48.5849V47.2026H45.1129V45.3826H44.6089C44.3849 45.8493 43.9649 46.3066 43.3489 46.7546C42.7329 47.2026 41.7995 47.4266 40.5489 47.4266ZM57.8308 47.2026C56.9161 47.2026 56.1694 46.9226 55.5908 46.3626C55.0308 45.784 54.7508 45.0186 54.7508 44.0666V36.2266H51.2788V33.3146H54.7508V29.0026H58.2788V33.3146H62.0868V36.2266H58.2788V43.4506C58.2788 44.0106 58.5401 44.2906 59.0628 44.2906H61.7508V47.2026H57.8308ZM65.2803 47.2026V27.6026H68.8083V35.0226H69.3123C69.4616 34.724 69.695 34.4253 70.0123 34.1266C70.3296 33.828 70.7496 33.5853 71.2723 33.3986C71.8136 33.1933 72.495 33.0906 73.3163 33.0906C74.399 33.0906 75.3416 33.3426 76.1443 33.8466C76.9656 34.332 77.6003 35.0133 78.0483 35.8906C78.4963 36.7493 78.7203 37.7573 78.7203 38.9146V47.2026H75.1923V39.1946C75.1923 38.1493 74.931 37.3653 74.4083 36.8426C73.9043 36.32 73.1763 36.0586 72.2243 36.0586C71.1416 36.0586 70.3016 36.4226 69.7043 37.1506C69.107 37.86 68.8083 38.8586 68.8083 40.1466V47.2026H65.2803ZM88.8622 47.5946C87.4809 47.5946 86.2582 47.3053 85.1942 46.7266C84.1489 46.1293 83.3276 45.2986 82.7302 44.2346C82.1516 43.152 81.8622 41.8826 81.8622 40.4266V40.0906C81.8622 38.6346 82.1516 37.3746 82.7302 36.3106C83.3089 35.228 84.1209 34.3973 85.1662 33.8186C86.2116 33.2213 87.4249 32.9226 88.8062 32.9226C90.1689 32.9226 91.3542 33.2306 92.3622 33.8466C93.3702 34.444 94.1542 35.284 94.7142 36.3666C95.2742 37.4306 95.5542 38.672 95.5542 40.0906V41.2946H85.4462C85.4836 42.2466 85.8382 43.0213 86.5102 43.6186C87.1822 44.216 88.0036 44.5146 88.9742 44.5146C89.9636 44.5146 90.6916 44.3 91.1582 43.8706C91.6249 43.4413 91.9796 42.9653 92.2222 42.4426L95.1062 43.9546C94.8449 44.44 94.4622 44.972 93.9582 45.5506C93.4729 46.1106 92.8196 46.596 91.9982 47.0066C91.1769 47.3986 90.1316 47.5946 88.8622 47.5946ZM85.4742 38.6626H91.9702C91.8956 37.86 91.5689 37.216 90.9902 36.7306C90.4302 36.2453 89.6929 36.0026 88.7782 36.0026C87.8262 36.0026 87.0702 36.2453 86.5102 36.7306C85.9502 37.216 85.6049 37.86 85.4742 38.6626ZM103.006 47.5946C102.017 47.5946 101.13 47.4266 100.346 47.0906C99.5624 46.736 98.937 46.232 98.4704 45.5786C98.0224 44.9066 97.7984 44.0946 97.7984 43.1426C97.7984 42.1906 98.0224 41.3973 98.4704 40.7626C98.937 40.1093 99.5717 39.624 100.374 39.3066C101.196 38.9706 102.129 38.8026 103.174 38.8026H106.982V38.0186C106.982 37.3653 106.777 36.8333 106.366 36.4226C105.956 35.9933 105.302 35.7786 104.406 35.7786C103.529 35.7786 102.876 35.984 102.446 36.3946C102.017 36.7866 101.737 37.3 101.606 37.9346L98.3584 36.8426C98.5824 36.1333 98.937 35.4893 99.4224 34.9106C99.9264 34.3133 100.589 33.8373 101.41 33.4826C102.25 33.1093 103.268 32.9226 104.462 32.9226C106.292 32.9226 107.738 33.38 108.802 34.2946C109.866 35.2093 110.398 36.5346 110.398 38.2706V43.4506C110.398 44.0106 110.66 44.2906 111.182 44.2906H112.302V47.2026H109.95C109.26 47.2026 108.69 47.0346 108.242 46.6986C107.794 46.3626 107.57 45.9146 107.57 45.3546V45.3266H107.038C106.964 45.5506 106.796 45.8493 106.534 46.2226C106.273 46.5773 105.862 46.8946 105.302 47.1746C104.742 47.4546 103.977 47.5946 103.006 47.5946ZM103.622 44.7386C104.612 44.7386 105.414 44.468 106.03 43.9266C106.665 43.3666 106.982 42.6293 106.982 41.7146V41.4346H103.426C102.773 41.4346 102.26 41.5746 101.886 41.8546C101.513 42.1346 101.326 42.5266 101.326 43.0306C101.326 43.5346 101.522 43.9453 101.914 44.2626C102.306 44.58 102.876 44.7386 103.622 44.7386ZM120.541 47.5946C118.73 47.5946 117.246 47.2026 116.089 46.4186C114.931 45.6346 114.231 44.5146 113.989 43.0586L117.237 42.2186C117.367 42.872 117.582 43.3853 117.881 43.7586C118.198 44.132 118.581 44.4026 119.029 44.5706C119.495 44.72 119.999 44.7946 120.541 44.7946C121.362 44.7946 121.969 44.6546 122.361 44.3746C122.753 44.076 122.949 43.712 122.949 43.2826C122.949 42.8533 122.762 42.5266 122.389 42.3026C122.015 42.06 121.418 41.864 120.597 41.7146L119.812 41.5746C118.842 41.388 117.955 41.136 117.153 40.8186C116.35 40.4826 115.706 40.0253 115.221 39.4466C114.735 38.868 114.493 38.1213 114.493 37.2066C114.493 35.8253 114.997 34.7706 116.005 34.0426C117.013 33.296 118.338 32.9226 119.981 32.9226C121.53 32.9226 122.818 33.268 123.845 33.9586C124.871 34.6493 125.543 35.5546 125.861 36.6746L122.585 37.6826C122.435 36.9733 122.127 36.4693 121.661 36.1706C121.213 35.872 120.653 35.7226 119.981 35.7226C119.309 35.7226 118.795 35.844 118.441 36.0866C118.086 36.3106 117.909 36.628 117.909 37.0386C117.909 37.4866 118.095 37.8226 118.469 38.0466C118.842 38.252 119.346 38.4106 119.981 38.5226L120.765 38.6626C121.81 38.8493 122.753 39.1013 123.593 39.4186C124.451 39.7173 125.123 40.156 125.609 40.7346C126.113 41.2946 126.365 42.06 126.365 43.0306C126.365 44.4866 125.833 45.616 124.769 46.4186C123.723 47.2026 122.314 47.5946 120.541 47.5946ZM134.503 47.2026C133.588 47.2026 132.841 46.9226 132.263 46.3626C131.703 45.784 131.423 45.0186 131.423 44.0666V36.2266H127.951V33.3146H131.423V29.0026H134.951V33.3146H138.759V36.2266H134.951V43.4506C134.951 44.0106 135.212 44.2906 135.735 44.2906H138.423V47.2026H134.503ZM147.277 47.2026L152.429 27.6026H158.869L164.021 47.2026H160.213L159.149 42.8906H152.149L151.085 47.2026H147.277ZM153.017 39.4746H158.281L155.901 29.9266H155.397L153.017 39.4746ZM172.248 47.5946C170.437 47.5946 168.953 47.2026 167.796 46.4186C166.638 45.6346 165.938 44.5146 165.696 43.0586L168.944 42.2186C169.074 42.872 169.289 43.3853 169.588 43.7586C169.905 44.132 170.288 44.4026 170.736 44.5706C171.202 44.72 171.706 44.7946 172.248 44.7946C173.069 44.7946 173.676 44.6546 174.068 44.3746C174.46 44.076 174.656 43.712 174.656 43.2826C174.656 42.8533 174.469 42.5266 174.096 42.3026C173.722 42.06 173.125 41.864 172.304 41.7146L171.52 41.5746C170.549 41.388 169.662 41.136 168.86 40.8186C168.057 40.4826 167.413 40.0253 166.928 39.4466C166.442 38.868 166.2 38.1213 166.2 37.2066C166.2 35.8253 166.704 34.7706 167.712 34.0426C168.72 33.296 170.045 32.9226 171.688 32.9226C173.237 32.9226 174.525 33.268 175.552 33.9586C176.578 34.6493 177.25 35.5546 177.568 36.6746L174.292 37.6826C174.142 36.9733 173.834 36.4693 173.368 36.1706C172.92 35.872 172.36 35.7226 171.688 35.7226C171.016 35.7226 170.502 35.844 170.148 36.0866C169.793 36.3106 169.616 36.628 169.616 37.0386C169.616 37.4866 169.802 37.8226 170.176 38.0466C170.549 38.252 171.053 38.4106 171.688 38.5226L172.472 38.6626C173.517 38.8493 174.46 39.1013 175.3 39.4186C176.158 39.7173 176.83 40.156 177.316 40.7346C177.82 41.2946 178.072 42.06 178.072 43.0306C178.072 44.4866 177.54 45.616 176.476 46.4186C175.43 47.2026 174.021 47.5946 172.248 47.5946ZM181.163 47.2026V33.3146H184.691V47.2026H181.163ZM182.927 31.6906C182.292 31.6906 181.751 31.4853 181.303 31.0746C180.874 30.664 180.659 30.1226 180.659 29.4506C180.659 28.7786 180.874 28.2373 181.303 27.8266C181.751 27.416 182.292 27.2106 182.927 27.2106C183.58 27.2106 184.122 27.416 184.551 27.8266C184.98 28.2373 185.195 28.7786 185.195 29.4506C185.195 30.1226 184.98 30.664 184.551 31.0746C184.122 31.4853 183.58 31.6906 182.927 31.6906ZM192.913 47.5946C191.923 47.5946 191.037 47.4266 190.253 47.0906C189.469 46.736 188.843 46.232 188.377 45.5786C187.929 44.9066 187.705 44.0946 187.705 43.1426C187.705 42.1906 187.929 41.3973 188.377 40.7626C188.843 40.1093 189.478 39.624 190.281 39.3066C191.102 38.9706 192.035 38.8026 193.081 38.8026H196.889V38.0186C196.889 37.3653 196.683 36.8333 196.273 36.4226C195.862 35.9933 195.209 35.7786 194.313 35.7786C193.435 35.7786 192.782 35.984 192.353 36.3946C191.923 36.7866 191.643 37.3 191.513 37.9346L188.265 36.8426C188.489 36.1333 188.843 35.4893 189.329 34.9106C189.833 34.3133 190.495 33.8373 191.317 33.4826C192.157 33.1093 193.174 32.9226 194.369 32.9226C196.198 32.9226 197.645 33.38 198.709 34.2946C199.773 35.2093 200.305 36.5346 200.305 38.2706V43.4506C200.305 44.0106 200.566 44.2906 201.089 44.2906H202.209V47.2026H199.857C199.166 47.2026 198.597 47.0346 198.149 46.6986C197.701 46.3626 197.477 45.9146 197.477 45.3546V45.3266H196.945C196.87 45.5506 196.702 45.8493 196.441 46.2226C196.179 46.5773 195.769 46.8946 195.209 47.1746C194.649 47.4546 193.883 47.5946 192.913 47.5946ZM193.529 44.7386C194.518 44.7386 195.321 44.468 195.937 43.9266C196.571 43.3666 196.889 42.6293 196.889 41.7146V41.4346H193.333C192.679 41.4346 192.166 41.5746 191.793 41.8546C191.419 42.1346 191.233 42.5266 191.233 43.0306C191.233 43.5346 191.429 43.9453 191.821 44.2626C192.213 44.58 192.782 44.7386 193.529 44.7386Z" fill="#006838"/>
<path d="M64.5132 20.2026L69.5532 13.2026L64.5692 6.31464H68.6572L71.8212 10.9346H72.3252L75.4892 6.31464H79.5772L74.5932 13.2026L79.6332 20.2026H75.4892L72.3252 15.5266H71.8212L68.6572 20.2026H64.5132Z" fill="#EC008C"/>
</svg>
