<svg width="556" height="30" viewBox="0 0 556 30" fill="none" xmlns="http://www.w3.org/2000/svg">
<path d="M0.64 29.2026V1.20263H12.16C13.92 1.20263 15.4667 1.56263 16.8 2.28264C18.16 2.97597 19.2133 3.96264 19.96 5.24264C20.7333 6.52264 21.12 8.04264 21.12 9.80264V10.3626C21.12 12.096 20.72 13.616 19.92 14.9226C19.1467 16.2026 18.08 17.2026 16.72 17.9226C15.3867 18.616 13.8667 18.9626 12.16 18.9626H5.92V29.2026H0.64ZM5.92 14.1626H11.64C12.8933 14.1626 13.9067 13.816 14.68 13.1226C15.4533 12.4293 15.84 11.4826 15.84 10.2826V9.88264C15.84 8.68264 15.4533 7.73597 14.68 7.04264C13.9067 6.3493 12.8933 6.00264 11.64 6.00264H5.92V14.1626ZM34.5006 29.7626C32.3406 29.7626 30.434 29.376 28.7806 28.6026C27.1273 27.8293 25.834 26.7226 24.9006 25.2826C23.9673 23.8426 23.5006 22.1093 23.5006 20.0826V18.9626H28.7006V20.0826C28.7006 21.7626 29.2206 23.0293 30.2606 23.8826C31.3006 24.7093 32.714 25.1226 34.5006 25.1226C36.314 25.1226 37.6606 24.7626 38.5406 24.0426C39.4473 23.3226 39.9006 22.4026 39.9006 21.2826C39.9006 20.5093 39.674 19.8826 39.2206 19.4026C38.794 18.9226 38.154 18.536 37.3006 18.2426C36.474 17.9226 35.4606 17.6293 34.2606 17.3626L33.3406 17.1626C31.4206 16.736 29.7673 16.2026 28.3806 15.5626C27.0206 14.896 25.9673 14.0293 25.2206 12.9626C24.5006 11.896 24.1406 10.5093 24.1406 8.80263C24.1406 7.09597 24.5406 5.64264 25.3406 4.44264C26.1673 3.21597 27.314 2.28264 28.7806 1.64264C30.274 0.975969 32.0206 0.642635 34.0206 0.642635C36.0206 0.642635 37.794 0.989302 39.3406 1.68264C40.914 2.3493 42.1406 3.36263 43.0206 4.72263C43.9273 6.05597 44.3806 7.73597 44.3806 9.76264V10.9626H39.1806V9.76264C39.1806 8.69597 38.9673 7.84264 38.5406 7.20264C38.1406 6.53597 37.554 6.05597 36.7806 5.76264C36.0073 5.44264 35.0873 5.28263 34.0206 5.28263C32.4206 5.28263 31.234 5.5893 30.4606 6.20263C29.714 6.7893 29.3406 7.60264 29.3406 8.64264C29.3406 9.33597 29.514 9.92264 29.8606 10.4026C30.234 10.8826 30.7806 11.2826 31.5006 11.6026C32.2206 11.9226 33.1406 12.2026 34.2606 12.4426L35.1806 12.6426C37.1806 13.0693 38.914 13.616 40.3806 14.2826C41.874 14.9493 43.034 15.8293 43.8606 16.9226C44.6873 18.016 45.1006 19.416 45.1006 21.1226C45.1006 22.8293 44.6606 24.336 43.7806 25.6426C42.9273 26.9226 41.7006 27.936 40.1006 28.6826C38.5273 29.4026 36.6606 29.7626 34.5006 29.7626ZM49.0384 29.2026V1.20263H67.0384V6.00264H54.3184V12.6826H65.9184V17.4826H54.3184V24.4026H67.2784V29.2026H49.0384ZM114.371 29.2026V24.5626H118.051V5.84263H114.371V1.20263H125.891C129.651 1.20263 132.505 2.16264 134.451 4.08264C136.425 5.97597 137.411 8.80264 137.411 12.5626V17.8426C137.411 21.6026 136.425 24.4426 134.451 26.3626C132.505 28.256 129.651 29.2026 125.891 29.2026H114.371ZM123.331 24.4026H125.971C128.105 24.4026 129.665 23.8426 130.651 22.7226C131.638 21.6026 132.131 20.0293 132.131 18.0026V12.4026C132.131 10.3493 131.638 8.77597 130.651 7.68263C129.665 6.56263 128.105 6.00264 125.971 6.00264H123.331V24.4026ZM151.012 29.7626C149.039 29.7626 147.292 29.3493 145.772 28.5226C144.279 27.6693 143.105 26.4826 142.252 24.9626C141.425 23.416 141.012 21.6026 141.012 19.5226V19.0426C141.012 16.9626 141.425 15.1626 142.252 13.6426C143.079 12.096 144.239 10.9093 145.732 10.0826C147.225 9.2293 148.959 8.80263 150.932 8.80263C152.879 8.80263 154.572 9.24264 156.012 10.1226C157.452 10.976 158.572 12.176 159.372 13.7226C160.172 15.2426 160.572 17.016 160.572 19.0426V20.7626H146.132C146.185 22.1226 146.692 23.2293 147.652 24.0826C148.612 24.936 149.785 25.3626 151.172 25.3626C152.585 25.3626 153.625 25.056 154.292 24.4426C154.959 23.8293 155.465 23.1493 155.812 22.4026L159.932 24.5626C159.559 25.256 159.012 26.016 158.292 26.8426C157.599 27.6426 156.665 28.336 155.492 28.9226C154.319 29.4826 152.825 29.7626 151.012 29.7626ZM146.172 17.0026H155.452C155.345 15.856 154.879 14.936 154.052 14.2426C153.252 13.5493 152.199 13.2026 150.892 13.2026C149.532 13.2026 148.452 13.5493 147.652 14.2426C146.852 14.936 146.359 15.856 146.172 17.0026ZM168.632 29.2026L162.312 9.36264H167.672L172.272 25.5226H172.992L177.592 9.36264H182.952L176.632 29.2026H168.632ZM195.12 29.7626C193.2 29.7626 191.453 29.3626 189.88 28.5626C188.333 27.7626 187.107 26.6026 186.2 25.0826C185.293 23.5626 184.84 21.7226 184.84 19.5626V19.0026C184.84 16.8426 185.293 15.0026 186.2 13.4826C187.107 11.9626 188.333 10.8026 189.88 10.0026C191.453 9.20264 193.2 8.80263 195.12 8.80263C197.013 8.80263 198.64 9.13597 200 9.80264C201.36 10.4693 202.453 11.3893 203.28 12.5626C204.133 13.7093 204.693 15.016 204.96 16.4826L200.08 17.5226C199.973 16.7226 199.733 16.0026 199.36 15.3626C198.987 14.7226 198.453 14.216 197.76 13.8426C197.093 13.4693 196.253 13.2826 195.24 13.2826C194.227 13.2826 193.307 13.5093 192.48 13.9626C191.68 14.3893 191.04 15.0426 190.56 15.9226C190.107 16.776 189.88 17.8293 189.88 19.0826V19.4826C189.88 20.736 190.107 21.8026 190.56 22.6826C191.04 23.536 191.68 24.1893 192.48 24.6426C193.307 25.0693 194.227 25.2826 195.24 25.2826C196.76 25.2826 197.907 24.896 198.68 24.1226C199.48 23.3226 199.987 22.2826 200.2 21.0026L205.08 22.1626C204.733 23.576 204.133 24.8693 203.28 26.0426C202.453 27.1893 201.36 28.096 200 28.7626C198.64 29.4293 197.013 29.7626 195.12 29.7626ZM218.678 29.7626C216.704 29.7626 214.931 29.3626 213.358 28.5626C211.784 27.7626 210.544 26.6026 209.638 25.0826C208.731 23.5626 208.278 21.736 208.278 19.6026V18.9626C208.278 16.8293 208.731 15.0026 209.638 13.4826C210.544 11.9626 211.784 10.8026 213.358 10.0026C214.931 9.20264 216.704 8.80263 218.678 8.80263C220.651 8.80263 222.424 9.20264 223.998 10.0026C225.571 10.8026 226.811 11.9626 227.718 13.4826C228.624 15.0026 229.078 16.8293 229.078 18.9626V19.6026C229.078 21.736 228.624 23.5626 227.718 25.0826C226.811 26.6026 225.571 27.7626 223.998 28.5626C222.424 29.3626 220.651 29.7626 218.678 29.7626ZM218.678 25.2826C220.224 25.2826 221.504 24.7893 222.518 23.8026C223.531 22.7893 224.038 21.3493 224.038 19.4826V19.0826C224.038 17.216 223.531 15.7893 222.518 14.8026C221.531 13.7893 220.251 13.2826 218.678 13.2826C217.131 13.2826 215.851 13.7893 214.838 14.8026C213.824 15.7893 213.318 17.216 213.318 19.0826V19.4826C213.318 21.3493 213.824 22.7893 214.838 23.8026C215.851 24.7893 217.131 25.2826 218.678 25.2826ZM233.73 29.2026V9.36264H238.69V11.9626H239.41C239.73 11.2693 240.33 10.616 241.21 10.0026C242.09 9.36264 243.423 9.04264 245.21 9.04264C246.756 9.04264 248.103 9.40264 249.25 10.1226C250.423 10.816 251.33 11.7893 251.97 13.0426C252.61 14.2693 252.93 15.7093 252.93 17.3626V29.2026H247.89V17.7626C247.89 16.2693 247.516 15.1493 246.77 14.4026C246.05 13.656 245.01 13.2826 243.65 13.2826C242.103 13.2826 240.903 13.8026 240.05 14.8426C239.196 15.856 238.77 17.2826 238.77 19.1226V29.2026H233.73ZM278.094 29.7626C275.934 29.7626 274.028 29.376 272.374 28.6026C270.721 27.8293 269.428 26.7226 268.494 25.2826C267.561 23.8426 267.094 22.1093 267.094 20.0826V18.9626H272.294V20.0826C272.294 21.7626 272.814 23.0293 273.854 23.8826C274.894 24.7093 276.308 25.1226 278.094 25.1226C279.908 25.1226 281.254 24.7626 282.134 24.0426C283.041 23.3226 283.494 22.4026 283.494 21.2826C283.494 20.5093 283.268 19.8826 282.814 19.4026C282.388 18.9226 281.748 18.536 280.894 18.2426C280.068 17.9226 279.054 17.6293 277.854 17.3626L276.934 17.1626C275.014 16.736 273.361 16.2026 271.974 15.5626C270.614 14.896 269.561 14.0293 268.814 12.9626C268.094 11.896 267.734 10.5093 267.734 8.80263C267.734 7.09597 268.134 5.64264 268.934 4.44264C269.761 3.21597 270.908 2.28264 272.374 1.64264C273.868 0.975969 275.614 0.642635 277.614 0.642635C279.614 0.642635 281.388 0.989302 282.934 1.68264C284.508 2.3493 285.734 3.36263 286.614 4.72263C287.521 6.05597 287.974 7.73597 287.974 9.76264V10.9626H282.774V9.76264C282.774 8.69597 282.561 7.84264 282.134 7.20264C281.734 6.53597 281.148 6.05597 280.374 5.76264C279.601 5.44264 278.681 5.28263 277.614 5.28263C276.014 5.28263 274.828 5.5893 274.054 6.20263C273.308 6.7893 272.934 7.60264 272.934 8.64264C272.934 9.33597 273.108 9.92264 273.454 10.4026C273.828 10.8826 274.374 11.2826 275.094 11.6026C275.814 11.9226 276.734 12.2026 277.854 12.4426L278.774 12.6426C280.774 13.0693 282.508 13.616 283.974 14.2826C285.468 14.9493 286.628 15.8293 287.454 16.9226C288.281 18.016 288.694 19.416 288.694 21.1226C288.694 22.8293 288.254 24.336 287.374 25.6426C286.521 26.9226 285.294 27.936 283.694 28.6826C282.121 29.4026 280.254 29.7626 278.094 29.7626ZM302.232 29.7626C300.259 29.7626 298.486 29.3626 296.912 28.5626C295.339 27.7626 294.099 26.6026 293.192 25.0826C292.286 23.5626 291.832 21.736 291.832 19.6026V18.9626C291.832 16.8293 292.286 15.0026 293.192 13.4826C294.099 11.9626 295.339 10.8026 296.912 10.0026C298.486 9.20264 300.259 8.80263 302.232 8.80263C304.206 8.80263 305.979 9.20264 307.552 10.0026C309.126 10.8026 310.366 11.9626 311.272 13.4826C312.179 15.0026 312.632 16.8293 312.632 18.9626V19.6026C312.632 21.736 312.179 23.5626 311.272 25.0826C310.366 26.6026 309.126 27.7626 307.552 28.5626C305.979 29.3626 304.206 29.7626 302.232 29.7626ZM302.232 25.2826C303.779 25.2826 305.059 24.7893 306.072 23.8026C307.086 22.7893 307.592 21.3493 307.592 19.4826V19.0826C307.592 17.216 307.086 15.7893 306.072 14.8026C305.086 13.7893 303.806 13.2826 302.232 13.2826C300.686 13.2826 299.406 13.7893 298.392 14.8026C297.379 15.7893 296.872 17.216 296.872 19.0826V19.4826C296.872 21.3493 297.379 22.7893 298.392 23.8026C299.406 24.7893 300.686 25.2826 302.232 25.2826ZM324.844 29.5226C323.298 29.5226 321.938 29.176 320.764 28.4826C319.618 27.7626 318.724 26.776 318.084 25.5226C317.444 24.2693 317.124 22.8293 317.124 21.2026V9.36264H322.164V20.8026C322.164 22.296 322.524 23.416 323.244 24.1626C323.991 24.9093 325.044 25.2826 326.404 25.2826C327.951 25.2826 329.151 24.776 330.004 23.7626C330.858 22.7226 331.284 21.2826 331.284 19.4426V9.36264H336.324V29.2026H331.364V26.6026H330.644C330.324 27.2693 329.724 27.9226 328.844 28.5626C327.964 29.2026 326.631 29.5226 324.844 29.5226ZM349.533 29.2026C348.226 29.2026 347.159 28.8026 346.333 28.0026C345.533 27.176 345.133 26.0826 345.133 24.7226V13.5226H340.173V9.36264H345.133V3.20264H350.173V9.36264H355.613V13.5226H350.173V23.8426C350.173 24.6426 350.546 25.0426 351.293 25.0426H355.133V29.2026H349.533ZM360.175 29.2026V1.20263H365.215V11.8026H365.935C366.148 11.376 366.482 10.9493 366.935 10.5226C367.388 10.096 367.988 9.7493 368.735 9.48264C369.508 9.1893 370.482 9.04264 371.655 9.04264C373.202 9.04264 374.548 9.40264 375.695 10.1226C376.868 10.816 377.775 11.7893 378.415 13.0426C379.055 14.2693 379.375 15.7093 379.375 17.3626V29.2026H374.335V17.7626C374.335 16.2693 373.962 15.1493 373.215 14.4026C372.495 13.656 371.455 13.2826 370.095 13.2826C368.548 13.2826 367.348 13.8026 366.495 14.8426C365.642 15.856 365.215 17.2826 365.215 19.1226V29.2026H360.175ZM393.863 29.7626C391.89 29.7626 390.143 29.3493 388.623 28.5226C387.13 27.6693 385.957 26.4826 385.103 24.9626C384.277 23.416 383.863 21.6026 383.863 19.5226V19.0426C383.863 16.9626 384.277 15.1626 385.103 13.6426C385.93 12.096 387.09 10.9093 388.583 10.0826C390.077 9.2293 391.81 8.80263 393.783 8.80263C395.73 8.80263 397.423 9.24264 398.863 10.1226C400.303 10.976 401.423 12.176 402.223 13.7226C403.023 15.2426 403.423 17.016 403.423 19.0426V20.7626H388.983C389.037 22.1226 389.543 23.2293 390.503 24.0826C391.463 24.936 392.637 25.3626 394.023 25.3626C395.437 25.3626 396.477 25.056 397.143 24.4426C397.81 23.8293 398.317 23.1493 398.663 22.4026L402.783 24.5626C402.41 25.256 401.863 26.016 401.143 26.8426C400.45 27.6426 399.517 28.336 398.343 28.9226C397.17 29.4826 395.677 29.7626 393.863 29.7626ZM389.023 17.0026H398.303C398.197 15.856 397.73 14.936 396.903 14.2426C396.103 13.5493 395.05 13.2026 393.743 13.2026C392.383 13.2026 391.303 13.5493 390.503 14.2426C389.703 14.936 389.21 15.856 389.023 17.0026ZM414.069 29.7626C412.656 29.7626 411.389 29.5226 410.269 29.0426C409.149 28.536 408.256 27.816 407.589 26.8826C406.949 25.9226 406.629 24.7626 406.629 23.4026C406.629 22.0426 406.949 20.9093 407.589 20.0026C408.256 19.0693 409.163 18.376 410.309 17.9226C411.483 17.4426 412.816 17.2026 414.309 17.2026H419.749V16.0826C419.749 15.1493 419.456 14.3893 418.869 13.8026C418.283 13.1893 417.349 12.8826 416.069 12.8826C414.816 12.8826 413.883 13.176 413.269 13.7626C412.656 14.3226 412.256 15.056 412.069 15.9626L407.429 14.4026C407.749 13.3893 408.256 12.4693 408.949 11.6426C409.669 10.7893 410.616 10.1093 411.789 9.60264C412.989 9.0693 414.443 8.80263 416.149 8.80263C418.763 8.80263 420.829 9.45597 422.349 10.7626C423.869 12.0693 424.629 13.9626 424.629 16.4426V23.8426C424.629 24.6426 425.003 25.0426 425.749 25.0426H427.349V29.2026H423.989C423.003 29.2026 422.189 28.9626 421.549 28.4826C420.909 28.0026 420.589 27.3626 420.589 26.5626V26.5226H419.829C419.723 26.8426 419.483 27.2693 419.109 27.8026C418.736 28.3093 418.149 28.7626 417.349 29.1626C416.549 29.5626 415.456 29.7626 414.069 29.7626ZM414.949 25.6826C416.363 25.6826 417.509 25.296 418.389 24.5226C419.296 23.7226 419.749 22.6693 419.749 21.3626V20.9626H414.669C413.736 20.9626 413.003 21.1626 412.469 21.5626C411.936 21.9626 411.669 22.5226 411.669 23.2426C411.669 23.9626 411.949 24.5493 412.509 25.0026C413.069 25.456 413.883 25.6826 414.949 25.6826ZM439.118 29.7626C436.531 29.7626 434.411 29.2026 432.758 28.0826C431.105 26.9626 430.105 25.3626 429.758 23.2826L434.398 22.0826C434.585 23.016 434.891 23.7493 435.318 24.2826C435.771 24.816 436.318 25.2026 436.958 25.4426C437.625 25.656 438.345 25.7626 439.118 25.7626C440.291 25.7626 441.158 25.5626 441.718 25.1626C442.278 24.736 442.558 24.216 442.558 23.6026C442.558 22.9893 442.291 22.5226 441.758 22.2026C441.225 21.856 440.371 21.576 439.198 21.3626L438.078 21.1626C436.691 20.896 435.425 20.536 434.278 20.0826C433.131 19.6026 432.211 18.9493 431.518 18.1226C430.825 17.296 430.478 16.2293 430.478 14.9226C430.478 12.9493 431.198 11.4426 432.638 10.4026C434.078 9.33597 435.971 8.80263 438.318 8.80263C440.531 8.80263 442.371 9.29597 443.838 10.2826C445.305 11.2693 446.265 12.5626 446.718 14.1626L442.038 15.6026C441.825 14.5893 441.385 13.8693 440.718 13.4426C440.078 13.016 439.278 12.8026 438.318 12.8026C437.358 12.8026 436.625 12.976 436.118 13.3226C435.611 13.6426 435.358 14.096 435.358 14.6826C435.358 15.3226 435.625 15.8026 436.158 16.1226C436.691 16.416 437.411 16.6426 438.318 16.8026L439.438 17.0026C440.931 17.2693 442.278 17.6293 443.478 18.0826C444.705 18.5093 445.665 19.136 446.358 19.9626C447.078 20.7626 447.438 21.856 447.438 23.2426C447.438 25.3226 446.678 26.936 445.158 28.0826C443.665 29.2026 441.651 29.7626 439.118 29.7626ZM459.064 29.2026C457.757 29.2026 456.691 28.8026 455.864 28.0026C455.064 27.176 454.664 26.0826 454.664 24.7226V13.5226H449.704V9.36264H454.664V3.20264H459.704V9.36264H465.144V13.5226H459.704V23.8426C459.704 24.6426 460.077 25.0426 460.824 25.0426H464.664V29.2026H459.064ZM477.314 29.2026L484.674 1.20263H493.874L501.234 29.2026H495.794L494.274 23.0426H484.274L482.754 29.2026H477.314ZM485.514 18.1626H493.034L489.634 4.52263H488.914L485.514 18.1626ZM512.985 29.7626C510.399 29.7626 508.279 29.2026 506.625 28.0826C504.972 26.9626 503.972 25.3626 503.625 23.2826L508.265 22.0826C508.452 23.016 508.759 23.7493 509.185 24.2826C509.639 24.816 510.185 25.2026 510.825 25.4426C511.492 25.656 512.212 25.7626 512.985 25.7626C514.159 25.7626 515.025 25.5626 515.585 25.1626C516.145 24.736 516.425 24.216 516.425 23.6026C516.425 22.9893 516.159 22.5226 515.625 22.2026C515.092 21.856 514.239 21.576 513.065 21.3626L511.945 21.1626C510.559 20.896 509.292 20.536 508.145 20.0826C506.999 19.6026 506.079 18.9493 505.385 18.1226C504.692 17.296 504.345 16.2293 504.345 14.9226C504.345 12.9493 505.065 11.4426 506.505 10.4026C507.945 9.33597 509.839 8.80263 512.185 8.80263C514.399 8.80263 516.239 9.29597 517.705 10.2826C519.172 11.2693 520.132 12.5626 520.585 14.1626L515.905 15.6026C515.692 14.5893 515.252 13.8693 514.585 13.4426C513.945 13.016 513.145 12.8026 512.185 12.8026C511.225 12.8026 510.492 12.976 509.985 13.3226C509.479 13.6426 509.225 14.096 509.225 14.6826C509.225 15.3226 509.492 15.8026 510.025 16.1226C510.559 16.416 511.279 16.6426 512.185 16.8026L513.305 17.0026C514.799 17.2693 516.145 17.6293 517.345 18.0826C518.572 18.5093 519.532 19.136 520.225 19.9626C520.945 20.7626 521.305 21.856 521.305 23.2426C521.305 25.3226 520.545 26.936 519.025 28.0826C517.532 29.2026 515.519 29.7626 512.985 29.7626ZM525.722 29.2026V9.36264H530.762V29.2026H525.722ZM528.242 7.04264C527.335 7.04264 526.562 6.7493 525.922 6.16264C525.309 5.57597 525.002 4.80264 525.002 3.84264C525.002 2.88264 525.309 2.1093 525.922 1.52264C526.562 0.935968 527.335 0.642635 528.242 0.642635C529.175 0.642635 529.949 0.935968 530.562 1.52264C531.175 2.1093 531.482 2.88264 531.482 3.84264C531.482 4.80264 531.175 5.57597 530.562 6.16264C529.949 6.7493 529.175 7.04264 528.242 7.04264ZM542.507 29.7626C541.094 29.7626 539.827 29.5226 538.707 29.0426C537.587 28.536 536.694 27.816 536.027 26.8826C535.387 25.9226 535.067 24.7626 535.067 23.4026C535.067 22.0426 535.387 20.9093 536.027 20.0026C536.694 19.0693 537.6 18.376 538.747 17.9226C539.92 17.4426 541.254 17.2026 542.747 17.2026H548.187V16.0826C548.187 15.1493 547.894 14.3893 547.307 13.8026C546.72 13.1893 545.787 12.8826 544.507 12.8826C543.254 12.8826 542.32 13.176 541.707 13.7626C541.094 14.3226 540.694 15.056 540.507 15.9626L535.867 14.4026C536.187 13.3893 536.694 12.4693 537.387 11.6426C538.107 10.7893 539.054 10.1093 540.227 9.60264C541.427 9.0693 542.88 8.80263 544.587 8.80263C547.2 8.80263 549.267 9.45597 550.787 10.7626C552.307 12.0693 553.067 13.9626 553.067 16.4426V23.8426C553.067 24.6426 553.44 25.0426 554.187 25.0426H555.787V29.2026H552.427C551.44 29.2026 550.627 28.9626 549.987 28.4826C549.347 28.0026 549.027 27.3626 549.027 26.5626V26.5226H548.267C548.16 26.8426 547.92 27.2693 547.547 27.8026C547.174 28.3093 546.587 28.7626 545.787 29.1626C544.987 29.5626 543.894 29.7626 542.507 29.7626ZM543.387 25.6826C544.8 25.6826 545.947 25.296 546.827 24.5226C547.734 23.7226 548.187 22.6693 548.187 21.3626V20.9626H543.107C542.174 20.9626 541.44 21.1626 540.907 21.5626C540.374 21.9626 540.107 22.5226 540.107 23.2426C540.107 23.9626 540.387 24.5493 540.947 25.0026C541.507 25.456 542.32 25.6826 543.387 25.6826Z" fill="#006838"/>
<path d="M79.7431 29.2026L86.9431 19.2026L79.8231 9.36264H85.6631L90.1831 15.9626H90.9031L95.4231 9.36264H101.263L94.1431 19.2026L101.343 29.2026H95.4231L90.9031 22.5226H90.1831L85.6631 29.2026H79.7431Z" fill="#EC008C"/>
</svg>
