<svg width="80" height="81" viewBox="0 0 80 81" fill="none" xmlns="http://www.w3.org/2000/svg">
  <path d="M39.9994 7.16675C58.4094 7.16675 73.3327 22.0901 73.3327 40.5001C73.3327 42.9234 73.076 45.2834 72.5827 47.5601L66.6427 41.6167C66.8873 35.7659 65.1991 29.9973 61.8389 25.2013C58.4787 20.4054 53.6332 16.8489 48.0506 15.0808C42.4679 13.3128 36.4585 13.4315 30.95 15.4187C25.4416 17.4059 20.7404 21.1511 17.5723 26.076C14.4041 31.0009 12.9452 36.8318 13.4207 42.6684C13.8962 48.505 16.2797 54.0228 20.2032 58.3699C24.1268 62.7171 29.3722 65.6519 35.1296 66.7213C40.8871 67.7906 46.8365 66.9351 52.0594 64.2868C53.3316 66.3032 55.1216 67.9412 57.2427 69.0301C52.0433 72.1803 46.0786 73.8419 39.9994 73.8334C21.5894 73.8334 6.66602 58.9101 6.66602 40.5001C6.66602 22.0901 21.5894 7.16675 39.9994 7.16675ZM63.3327 47.7401L68.046 52.4534C68.9635 53.3706 69.5935 54.5356 69.8587 55.8055C70.1239 57.0755 70.0128 58.3952 69.539 59.603C69.0652 60.8107 68.2493 61.854 67.1914 62.6048C66.1334 63.3557 64.8794 63.7816 63.5829 63.8303C62.2865 63.8789 61.004 63.5483 59.8927 62.8788C58.7815 62.2094 57.8897 61.2303 57.3266 60.0615C56.7636 58.8926 56.5539 57.5849 56.7231 56.2987C56.8923 55.0124 57.4332 53.8035 58.2794 52.8201L58.6194 52.4534L63.3327 47.7401ZM39.9994 50.5001C44.886 50.5001 49.2827 52.6034 52.3327 55.9567L49.1827 58.8234C46.5494 57.7734 43.3927 57.1668 39.9994 57.1668C36.606 57.1668 33.4494 57.7768 30.816 58.8201L27.666 55.9534C29.2267 54.2332 31.1306 52.8592 33.2549 51.92C35.3791 50.9807 37.6767 50.497 39.9994 50.5001ZM28.3327 33.8334C29.6588 33.8334 30.9305 34.3602 31.8682 35.2979C32.8059 36.2356 33.3327 37.5073 33.3327 38.8334C33.3327 40.1595 32.8059 41.4313 31.8682 42.3689C30.9305 43.3066 29.6588 43.8334 28.3327 43.8334C27.0066 43.8334 25.7348 43.3066 24.7971 42.3689C23.8595 41.4313 23.3327 40.1595 23.3327 38.8334C23.3327 37.5073 23.8595 36.2356 24.7971 35.2979C25.7348 34.3602 27.0066 33.8334 28.3327 33.8334ZM51.666 33.8334C52.9921 33.8334 54.2639 34.3602 55.2015 35.2979C56.1392 36.2356 56.666 37.5073 56.666 38.8334C56.666 40.1595 56.1392 41.4313 55.2015 42.3689C54.2639 43.3066 52.9921 43.8334 51.666 43.8334C50.3399 43.8334 49.0682 43.3066 48.1305 42.3689C47.1928 41.4313 46.666 40.1595 46.666 38.8334C46.666 37.5073 47.1928 36.2356 48.1305 35.2979C49.0682 34.3602 50.3399 33.8334 51.666 33.8334Z" fill="#50C3E0"/>
</svg>
