<svg width="36" height="35" viewBox="0 0 36 35" fill="none" xmlns="http://www.w3.org/2000/svg">
<g clip-path="url(#clip0_5224_47325)">
<path d="M26.7955 24.2331L33.0416 30.4777L30.978 32.5412L24.7335 26.2952C22.4099 28.1578 19.5199 29.1709 16.542 29.1666C9.29699 29.1666 3.41699 23.2866 3.41699 16.0416C3.41699 8.79663 9.29699 2.91663 16.542 2.91663C23.787 2.91663 29.667 8.79663 29.667 16.0416C29.6712 19.0195 28.6581 21.9096 26.7955 24.2331ZM23.8701 23.151C25.7209 21.2477 26.7545 18.6964 26.7503 16.0416C26.7503 10.4008 22.1814 5.83329 16.542 5.83329C10.9012 5.83329 6.33366 10.4008 6.33366 16.0416C6.33366 21.681 10.9012 26.25 16.542 26.25C19.1968 26.2541 21.7481 25.2205 23.6514 23.3698L23.8701 23.151Z" fill="#50C3E0"/>
<path fillRule="evenodd" clipRule="evenodd" d="M13.139 20.4168L16.5419 17.0139L16.5418 17.0138L13.1389 20.4167L13.139 20.4168ZM20.9168 12.6388L17.5139 16.0417L17.514 16.0418L20.9169 12.6389L20.9168 12.6388ZM20.9168 19.4446L19.9448 20.4167L19.9449 20.4168L20.9169 19.4447L20.9168 19.4446ZM21.9481 19.4447L18.5452 16.0418L21.9481 12.6389L19.9449 10.6356L16.5419 14.0386L13.139 10.6356L11.1357 12.6389L14.5387 16.0418L11.1357 19.4447L13.139 21.448L16.5419 18.0451L19.9449 21.448L21.9481 19.4447Z" fill="#50C3E0"/>
</g>
<defs>
<clipPath id="clip0_5224_47325">
<rect width="35" height="35" fill="white" transform="translate(0.5)"/>
</clipPath>
</defs>
</svg>
