<svg width="16" height="17" viewBox="0 0 16 17" fill="none" xmlns="http://www.w3.org/2000/svg">
<g id="PSE icons">
<path id="2 blocks" d="M8.3 1.21998V4.57012C8.3 5.12236 7.85565 5.56891 7.30612 5.56891H3.99388C3.44435 5.56891 3 6.01545 3 6.56769V15.2224C3 15.7747 3.44435 16.2212 3.99388 16.2212H7.30612C7.85565 16.2212 8.3 15.7747 8.3 15.2224V10.895V6.56769C8.3 6.01545 8.74435 5.56891 9.29388 5.56891H12.6061C13.1556 5.56891 13.6 5.12236 13.6 4.57012V1.22645C13.5979 0.676362 13.1556 0.22982 12.6083 0.22982L9.29388 0.221191C8.74435 0.221191 8.29785 0.667733 8.29785 1.21998H8.3Z" fill="#E3533A"/>
</g>
</svg>
