<svg width="16" height="17" viewBox="0 0 16 17" fill="none" xmlns="http://www.w3.org/2000/svg">
<g id="PSE icons">
<path id="arch" d="M12.7435 14.4981C12.3279 14.4981 11.9919 14.162 11.9919 13.7464V10.49C11.9919 8.28216 10.2062 6.48995 7.99838 6.48346C5.79221 6.49158 4.00487 8.28216 4.00487 10.49V13.7464C4.00487 14.162 3.66883 14.4981 3.25325 14.4981H0.751623C0.336039 14.4981 0 14.162 0 13.7464V10.4753C0 6.05651 3.58117 2.47534 8 2.47534C12.4188 2.47534 16 6.05651 16 10.4753V13.7464C16 14.1101 15.7419 14.412 15.401 14.4818C15.3523 14.4916 15.3019 14.4964 15.25 14.4964H12.7451L12.7435 14.4981Z" fill="#E3533A"/>
</g>
</svg>
