<svg width="16" height="17" viewBox="0 0 16 17" fill="none" xmlns="http://www.w3.org/2000/svg">
<g id="PSE icons">
<path id="3 blocks" d="M10.6674 1.23131V4.56599C10.6674 5.11853 10.2201 5.56532 9.66698 5.56532H6.33301C5.77988 5.56532 5.33261 6.0121 5.33261 6.56464V9.89501C5.33261 10.4476 4.88534 10.8943 4.33221 10.8943H1.0004C0.447265 10.8943 0 11.3411 0 11.8915V15.2219C0 15.7744 0.447265 16.2212 1.0004 16.2212H4.33437C4.88751 16.2212 5.33477 15.7744 5.33477 15.2219V11.8915C5.33477 11.339 5.78204 10.8922 6.33518 10.8922H9.66914C9.73828 10.8922 9.80526 10.8857 9.87008 10.8727C9.99972 10.8468 10.1207 10.795 10.2266 10.7217C10.4924 10.5425 10.6674 10.2382 10.6674 9.89285V6.56248C10.6674 6.00994 11.1146 5.56316 11.6678 5.56316H15.0017C15.0709 5.56316 15.1379 5.55668 15.2027 5.54373C15.6586 5.45092 16 5.04731 16 4.56599V1.22052C16.0022 0.665816 15.5527 0.221191 14.9996 0.221191L11.6656 0.234142C11.1146 0.234142 10.6695 0.683083 10.6695 1.23347L10.6674 1.23131Z" fill="#E3533A"/>
</g>
</svg>
