<svg width="100" height="100" viewBox="0 0 100 100" fill="none" xmlns="http://www.w3.org/2000/svg">
<path d="M100 56.2505C100 58.0655 98.71 59.572 97.006 59.9205C96.7625 59.969 96.511 59.9935 96.2515 59.9935H83.7325C81.655 59.9935 79.9755 61.6705 79.9755 63.7445V76.2455C79.9755 77.542 79.3185 78.676 78.3205 79.3565C77.923 79.624 77.4685 79.8185 76.982 79.924C76.7385 79.9725 76.487 79.997 76.227 79.997H63.708C61.631 79.997 59.9515 81.674 59.9515 83.748V96.249C59.9515 98.323 58.272 100 56.1945 100H43.6754C41.5984 100 39.9189 98.323 39.9189 96.249V83.748C39.9189 81.674 41.5984 79.997 43.6754 79.997H56.1945C58.272 79.997 59.9515 78.3195 59.9515 76.2455V63.7445C59.9515 61.6705 61.631 59.9935 63.708 59.9935H76.227C78.3045 59.9935 79.984 58.3165 79.984 56.2425V39.9903C79.984 28.9719 71.059 20.0276 60.0245 19.9952C48.998 20.0357 40.0649 28.9719 40.0649 39.9903V56.2425C40.0649 58.3165 38.3854 59.9935 36.3083 59.9935H23.7891C21.712 59.9935 20.0324 61.6705 20.0324 63.7445V96.249C20.0324 98.323 18.353 100 16.2759 100H3.75659C1.67951 100 0 98.323 0 96.249V63.7445C0 61.6705 1.67951 59.9935 3.75659 59.9935H16.2759C18.353 59.9935 20.0324 58.3165 20.0324 56.2425V39.9173C20.0324 17.8725 37.931 0 60.016 0C82.1015 0 100 17.8725 100 39.9254V56.2505Z" fill="#50C3E0"/>
</svg>
