<svg width="300" height="300" viewBox="0 0 300 300" fill="none" xmlns="http://www.w3.org/2000/svg">
<path d="M150.001 296.213C230.752 296.213 296.214 230.751 296.214 150C296.214 69.249 230.752 3.78735 150.001 3.78735C69.2498 3.78735 3.78809 69.249 3.78809 150C3.78809 230.751 69.2498 296.213 150.001 296.213Z" fill="#002C00"/>
<path d="M150 300C109.931 300 72.2669 284.397 43.932 256.068C15.5971 227.739 0 190.063 0 150C0 109.937 15.6034 72.2669 43.932 43.932C72.2606 15.5971 109.931 0 150 0C190.069 0 227.733 15.6034 256.068 43.932C284.397 72.2606 300 109.931 300 150C300 190.069 284.397 227.733 256.068 256.068C227.739 284.397 190.069 300 150 300ZM150 7.57448C111.957 7.57448 76.193 22.3889 49.2909 49.2909C22.3889 76.193 7.57448 111.957 7.57448 150C7.57448 188.043 22.3889 223.807 49.2909 250.709C76.193 277.611 111.957 292.426 150 292.426C188.043 292.426 223.807 277.611 250.709 250.709C277.611 223.807 292.426 188.043 292.426 150C292.426 111.957 277.611 76.193 250.709 49.2909C223.807 22.3889 188.043 7.57448 150 7.57448Z" fill="#A3DFF0"/>
<path d="M43.0838 134.731L23.125 130.571L24.6336 123.331C25.6814 118.313 28.9447 115.826 33.2559 116.723L33.6914 116.811C37.952 117.701 39.9719 121.293 38.9304 126.311L38.3497 129.107L44.018 130.287L43.0901 134.737L43.0838 134.731ZM27.9032 126.923L34.493 128.299L35.1179 125.288C35.5535 123.199 34.512 121.678 32.53 121.267C30.4975 120.844 28.9637 121.823 28.5281 123.912L27.9032 126.923Z" fill="#A3DFF0"/>
<path d="M47.5884 115.473L28.7974 107.57L31.8777 100.242C33.8407 95.5711 37.1609 93.5387 41.3205 95.2871L41.7308 95.4575C44.4639 96.6063 45.739 98.6451 45.7263 101.252L54.3865 99.3079L52.3477 104.162L44.6659 105.708L43.3782 108.77L49.3558 111.282L47.5947 115.467L47.5884 115.473ZM34.1058 104.875L40.0833 107.387L41.5414 103.916C42.3052 102.104 41.6361 100.406 39.8182 99.6487C38.0319 98.8976 36.3277 99.5919 35.5639 101.403L34.1058 104.875Z" fill="#A3DFF0"/>
<path d="M56.8256 95.7795L39.5747 85.2257L41.948 81.3501L59.1989 91.9039L56.8256 95.7795Z" fill="#A3DFF0"/>
<path d="M65.3085 83.2752L45.8862 74.9433L48.9034 71.3643L64.6015 78.4023L65.2075 77.6827L55.3859 63.6762L58.3147 60.2046L70.0804 77.6259L65.3148 83.2815L65.3085 83.2752Z" fill="#A3DFF0"/>
<path d="M74.3905 72.513L66.9233 52.5668L72.6484 47.9653L90.7135 59.3902L87.0399 62.3379L82.6215 59.4533L76.038 64.7491L77.9253 69.6662L74.3842 72.513H74.3905ZM79.295 57.3009L72.4906 52.8572L71.689 53.501L74.6114 61.0692L79.295 57.3009Z" fill="#A3DFF0"/>
<path d="M87.9499 49.5687L87.6722 49.0259C85.3998 44.5569 85.8417 38.3332 92.0843 35.1583C97.0014 32.6587 101.767 33.9022 104.405 37.9987L100.328 40.0691C98.8887 38.0997 96.446 37.6894 94.0032 38.9329C90.7903 40.5677 90.1718 43.8058 91.9139 47.2396C93.6371 50.6228 96.6543 52.0367 99.9618 50.3577C102.455 49.089 103.68 46.8482 102.96 44.5127L107.012 42.455C108.59 46.6589 107.05 51.5128 101.887 54.1387C95.3666 57.4525 90.014 53.6526 87.9436 49.575L87.9499 49.5687Z" fill="#A3DFF0"/>
<path d="M119.086 46.716L117.029 39.3246L116.069 39.5897L107.018 29.0864L111.499 27.8366L117.931 35.5373L118.783 35.2975L119.907 25.4948L124.149 24.3145L122.286 37.8602L121.327 38.1253L123.385 45.5167L119.086 46.716Z" fill="#A3DFF0"/>
<path d="M145.057 39.7534L144.918 34.6028L140.019 34.7353L139.925 31.1374L144.823 31.0049L144.684 25.829L148.617 25.7217L148.755 30.8976L153.685 30.765L153.78 34.3629L148.85 34.4955L148.989 39.6461L145.057 39.7534Z" fill="#A3DFF0"/>
<path d="M166.624 36.9257L170.922 37.8788C170.588 39.3937 171.452 40.978 174.242 41.5966C176.704 42.1395 178.263 41.382 178.598 39.8671C178.882 38.5984 178.017 37.639 175.656 36.8878L174.198 36.4207C170.322 35.2214 168.296 32.4441 169.079 28.9283C169.919 25.1411 173.308 23.4242 177.714 24.4025C182.366 25.4314 184.581 28.619 183.723 32.4883L179.393 31.5289C179.709 30.096 178.938 28.5874 176.881 28.133C174.905 27.6974 173.687 28.5874 173.396 29.8877C173.144 31.0239 173.668 32.1033 175.454 32.6398L176.938 33.1132C181.154 34.445 183.729 37.1719 182.915 40.8265C182.069 44.639 178.408 46.438 173.403 45.3271C168.019 44.1341 165.759 40.7634 166.611 36.9257H166.624Z" fill="#A3DFF0"/>
<path d="M188.892 38.5161L189.138 37.9606C191.183 33.3844 196.296 29.8117 202.697 32.6711C207.727 34.9182 209.76 39.4061 208.239 44.0328L204.066 42.1708C204.698 39.81 203.473 37.6576 200.967 36.5404C197.679 35.0697 194.769 36.6225 193.203 40.1383C191.657 43.6036 192.452 46.8417 195.842 48.3566C198.398 49.4991 200.904 49.0383 202.267 47.0121L206.414 48.8679C204.142 52.7372 199.395 54.5929 194.112 52.2322C187.434 49.2529 187.024 42.6947 188.892 38.5224V38.5161Z" fill="#A3DFF0"/>
<path d="M205.223 56.8526L222.568 44.4873L228.489 48.83L222.114 69.2369L218.314 66.4533L219.961 61.4415L213.144 56.4424L208.884 59.5353L205.216 56.8463L205.223 56.8526ZM221.186 57.6669L223.723 49.9409L222.896 49.335L216.338 54.1132L221.186 57.6669Z" fill="#A3DFF0"/>
<path d="M224.794 72.2293L239.533 58.3806L242.645 61.6945L230.816 72.8163L236.245 78.5919L233.335 81.325L224.794 72.2419V72.2293Z" fill="#A3DFF0"/>
<path d="M236.07 85.0992L252.456 73.2515L255.12 76.9314L238.734 88.7791L236.07 85.0992Z" fill="#A3DFF0"/>
<path d="M242.388 93.6205L260.535 84.689L263.824 91.3734L252.349 105.512L252.519 105.86L267.359 98.5566L269.24 102.388L251.093 111.32L247.779 104.585L259.254 90.4456L259.084 90.0984L244.244 97.4015L242.382 93.6205H242.388Z" fill="#A3DFF0"/>
<path d="M262.347 113.466L262.94 113.327C267.907 112.184 273.79 114.413 275.299 120.977C276.523 126.298 274.188 130.729 269.719 132.206L268.703 127.782C270.779 126.936 271.783 124.6 271.165 121.93C270.369 118.478 267.314 117.045 263.641 117.891C259.778 118.781 257.739 121.52 258.604 125.276C259.064 127.277 260.169 128.754 261.576 129.423L263.224 129.044L262.037 123.887L265.225 123.155L267.718 134.005L264.531 134.737L264.158 133.115L260.813 133.885C257.701 132.838 255.485 130.111 254.583 126.191C252.961 119.115 257.461 114.589 262.347 113.466Z" fill="#A3DFF0"/>
<path d="M205.723 154.185C205.723 156.129 204.347 157.751 202.51 158.124C202.251 158.18 201.98 158.206 201.702 158.206H188.289C186.067 158.206 184.268 160.005 184.268 162.227V175.64C184.268 177.028 183.567 178.253 182.494 178.972C182.065 179.263 181.579 179.471 181.055 179.578C180.796 179.629 180.525 179.66 180.247 179.66H166.834C164.612 179.66 162.813 181.459 162.813 183.681V197.094C162.813 199.316 161.014 201.115 158.792 201.115H145.379C143.157 201.115 141.359 199.316 141.359 197.094V183.681C141.359 181.459 143.157 179.66 145.379 179.66H158.792C161.014 179.66 162.813 177.861 162.813 175.64V162.227C162.813 160.005 164.612 158.206 166.834 158.206H180.247C182.469 158.206 184.268 156.407 184.268 154.185V136.751C184.268 124.928 174.705 115.34 162.889 115.296C151.079 115.34 141.51 124.928 141.51 136.751V154.185C141.51 156.407 139.711 158.206 137.489 158.206H124.076C121.854 158.206 120.055 160.005 120.055 162.227V179.66V197.094C120.055 199.316 118.256 201.115 116.035 201.115H102.621C100.4 201.115 98.6006 199.316 98.6006 197.094V162.227C98.6006 160.005 100.4 158.206 102.621 158.206H116.035C118.256 158.206 120.055 156.407 120.055 154.185V136.675C120.055 113.018 139.231 93.8416 162.889 93.8416C186.547 93.8416 205.723 113.018 205.723 136.675V154.185Z" fill="#A3DFF0"/>
<path d="M38.3091 213.67L55.3895 202.832L62.0993 213.405L58.918 215.425L54.5816 208.595L50.9585 210.893L55.055 217.35L51.8737 219.37L47.7772 212.913L43.87 215.393L48.3074 222.387L45.1261 224.407L38.3154 213.67H38.3091Z" fill="#A3DFF0"/>
<path d="M48.6171 229.406L61.0077 227.272L63.9365 216.188L67.3009 219.868L65.2936 227.033L65.7229 227.506L73.0007 226.105L76.2703 229.684L64.7887 231.659L61.7715 243.804L58.3882 240.105L60.5596 231.887L60.1114 231.394L51.8805 232.985L48.6108 229.406H48.6171Z" fill="#A3DFF0"/>
<path d="M67.1299 248.33L79.4132 232.063L85.315 236.52C89.4052 239.606 90.2636 243.621 87.6062 247.137L87.3411 247.49C84.7216 250.962 80.6062 251.258 76.5222 248.172L74.2436 246.455L70.753 251.075L67.1299 248.336V248.33ZM80.6693 237.94L76.6106 243.312L79.066 245.161C80.7703 246.449 82.5881 246.152 83.8064 244.542C85.0562 242.882 84.8289 241.077 83.1247 239.789L80.6693 237.94Z" fill="#A3DFF0"/>
<path d="M85.7578 261.339L95.1312 243.419L99.1583 245.527L91.6343 259.912L98.6534 263.586L96.8039 267.121L85.7578 261.345V261.339Z" fill="#A3DFF0"/>
<path d="M105.11 260.279L105.287 259.698C106.745 254.901 111.807 250.848 118.618 252.925C125.403 254.989 127.398 261.188 125.934 265.985L125.757 266.565C124.431 270.914 119.388 275.491 112.394 273.357C105.394 271.224 103.785 264.628 105.11 260.279ZM121.439 264.962C122.538 261.358 121.042 258.095 117.381 256.977C113.726 255.866 110.69 257.747 109.592 261.352C108.557 264.748 109.97 268.188 113.631 269.299C117.286 270.409 120.411 268.352 121.439 264.956V264.962Z" fill="#A3DFF0"/>
<path d="M131.065 277.258L132.808 256.939L140.729 257.621C145.779 258.056 148.733 260.588 148.348 265.088L148.31 265.53C148.058 268.484 146.511 270.327 144.024 271.11L148.537 278.754L143.292 278.306L139.46 271.47L136.147 271.186L135.591 277.643L131.065 277.251V277.258ZM137.005 261.168L136.45 267.626L140.205 267.947C142.162 268.118 143.57 266.956 143.74 265C143.904 263.068 142.718 261.661 140.761 261.49L137.005 261.168Z" fill="#A3DFF0"/>
<path d="M153.932 278.767L158.332 257.924L165.628 257.11L174.749 276.444L170.066 276.968L167.888 272.164L159.487 273.098L158.445 278.262L153.932 278.76V278.767ZM166.234 268.56L162.876 261.156L161.86 261.27L160.263 269.223L166.241 268.56H166.234Z" fill="#A3DFF0"/>
<path d="M183.611 273.982L179.086 258.36L173.632 259.938L172.527 256.132L187.828 251.7L188.932 255.507L183.454 257.091L187.979 272.713L183.618 273.976L183.611 273.982Z" fill="#A3DFF0"/>
<path d="M199.696 268.453L191.535 249.946L195.694 248.109L203.856 266.616L199.696 268.453Z" fill="#A3DFF0"/>
<path d="M205.585 255.286L205.251 254.774C202.511 250.57 202.657 244.094 208.628 240.212C214.567 236.343 220.602 238.792 223.335 242.996L223.669 243.507C226.15 247.313 226.415 254.118 220.286 258.107C214.157 262.096 208.066 259.092 205.585 255.286ZM219.661 245.786C217.604 242.63 214.145 241.677 210.938 243.766C207.738 245.855 207.227 249.39 209.284 252.546C211.222 255.519 214.763 256.649 217.97 254.56C221.17 252.47 221.599 248.759 219.661 245.786Z" fill="#A3DFF0"/>
<path d="M235.532 246.278L220.982 232.227L226.158 226.868L243.346 232.878L243.618 232.6L231.719 221.112L234.686 218.044L249.235 232.089L244.021 237.492L226.834 231.483L226.562 231.76L238.461 243.248L235.538 246.278H235.532Z" fill="#A3DFF0"/>
<path d="M248.728 222.507L251.089 218.789C252.396 219.622 254.182 219.345 255.716 216.933C257.067 214.806 256.884 213.083 255.571 212.25C254.472 211.549 253.273 212.042 251.764 214.005L250.83 215.217C248.381 218.455 245.08 219.408 242.044 217.476C238.768 215.4 238.307 211.625 240.731 207.812C243.287 203.792 247.037 202.794 250.382 204.915L248.009 208.658C246.772 207.869 245.093 208.084 243.963 209.864C242.877 211.568 243.3 213.02 244.423 213.733C245.408 214.358 246.601 214.232 247.712 212.736L248.659 211.499C251.348 207.989 254.788 206.5 257.944 208.5C261.239 210.596 261.687 214.648 258.935 218.979C255.981 223.631 252.042 224.609 248.722 222.501L248.728 222.507Z" fill="#A3DFF0"/>
<path d="M35.6998 167.304L29.7627 168.516C28.7825 168.717 28.1501 169.674 28.3502 170.654L29.5624 176.591C29.7626 177.571 30.7195 178.204 31.6998 178.003L37.6369 176.791C38.6172 176.591 39.2496 175.634 39.0494 174.654L37.8372 168.717C37.637 167.737 36.6801 167.104 35.6998 167.304Z" fill="#A3DFF0"/>
<path d="M261.366 168.719L260.154 174.656C259.954 175.636 260.586 176.593 261.566 176.793L267.504 178.005C268.484 178.205 269.441 177.573 269.641 176.593L270.853 170.656C271.053 169.675 270.421 168.718 269.441 168.518L263.504 167.306C262.523 167.106 261.566 167.738 261.366 168.719Z" fill="#A3DFF0"/>
<path d="M149.999 244.327C97.9625 244.327 55.6274 201.992 55.6274 149.956C55.6274 97.919 97.9625 55.584 149.999 55.584C202.036 55.584 244.371 97.919 244.371 149.956C244.371 201.992 202.036 244.327 149.999 244.327ZM149.999 59.3712C100.052 59.3712 59.4147 100.008 59.4147 149.956C59.4147 199.903 100.052 240.54 149.999 240.54C199.947 240.54 240.584 199.903 240.584 149.956C240.584 100.008 199.947 59.3712 149.999 59.3712Z" fill="#A3DFF0"/>
</svg>
