<svg width="16" height="17" viewBox="0 0 16 17" fill="none" xmlns="http://www.w3.org/2000/svg">
<g id="Github" clip-path="url(#clip0_3238_6912)">
<g id="Group">
<path id="Vector" fill-rule="evenodd" clip-rule="evenodd" d="M7.99714 1.1499C6.10979 1.15088 4.28433 1.81934 2.84717 3.03576C1.41 4.25218 0.454856 5.93723 0.152513 7.7896C-0.149831 9.64198 0.220342 11.5409 1.19685 13.1468C2.17336 14.7527 3.69251 15.9609 5.48268 16.5553C5.87762 16.6286 6.02638 16.3838 6.02638 16.1757C6.02638 15.9676 6.01848 15.3641 6.01585 14.7044C3.80418 15.1822 3.33684 13.7711 3.33684 13.7711C2.97613 12.8548 2.45481 12.614 2.45481 12.614C1.73338 12.1244 2.50879 12.1336 2.50879 12.1336C3.30788 12.1898 3.72784 12.9491 3.72784 12.9491C4.4361 14.1572 5.588 13.8077 6.04086 13.6035C6.11195 13.0917 6.31864 12.7435 6.54639 12.5459C4.77969 12.3469 2.92347 11.6689 2.92347 8.63989C2.91252 7.85434 3.20569 7.09466 3.74232 6.51803C3.66069 6.31907 3.38818 5.51535 3.81998 4.42366C3.81998 4.42366 4.48744 4.21161 6.00664 5.23392C7.30972 4.8796 8.68456 4.8796 9.98764 5.23392C11.5055 4.21161 12.1717 4.42366 12.1717 4.42366C12.6048 5.51273 12.3323 6.31645 12.2507 6.51803C12.789 7.09476 13.0828 7.85576 13.0708 8.64251C13.0708 11.678 11.2106 12.3469 9.4413 12.542C9.72566 12.788 9.97974 13.2684 9.97974 14.0067C9.97974 15.0644 9.97053 15.9152 9.97053 16.1757C9.97053 16.3864 10.114 16.6325 10.5169 16.5553C12.3072 15.9608 13.8265 14.7524 14.803 13.1462C15.7795 11.5401 16.1495 9.64086 15.8468 7.78831C15.5441 5.93576 14.5885 4.2507 13.1509 3.03449C11.7132 1.81828 9.88734 1.15026 7.99977 1.1499H7.99714Z" fill="#9DABA7"/>
<path id="Vector_2" d="M3.05754 12.5002C3.04042 12.5394 2.97723 12.5512 2.92589 12.5237C2.87455 12.4962 2.83638 12.4452 2.85481 12.4046C2.87324 12.364 2.93511 12.3536 2.98645 12.381C3.03779 12.4085 3.07729 12.4609 3.05754 12.5002Z" fill="#9DABA7"/>
<path id="Vector_3" d="M3.38002 12.8574C3.35276 12.8711 3.32156 12.8749 3.29179 12.8682C3.26201 12.8615 3.23549 12.8448 3.21678 12.8208C3.16544 12.7658 3.1549 12.6899 3.19439 12.6558C3.23389 12.6218 3.30498 12.6375 3.35632 12.6925C3.40767 12.7475 3.41951 12.8234 3.38002 12.8574Z" fill="#9DABA7"/>
<path id="Vector_4" d="M3.6936 13.3116C3.64489 13.3456 3.56195 13.3116 3.51587 13.2435C3.50313 13.2313 3.493 13.2167 3.48608 13.2005C3.47916 13.1843 3.47559 13.1669 3.47559 13.1493C3.47559 13.1317 3.47916 13.1143 3.48608 13.0981C3.493 13.0819 3.50313 13.0673 3.51587 13.055C3.56458 13.0223 3.64753 13.055 3.6936 13.1218C3.73968 13.1886 3.74099 13.2776 3.6936 13.3116Z" fill="#9DABA7"/>
<path id="Vector_5" d="M4.11848 13.7514C4.07504 13.7998 3.98684 13.7867 3.91443 13.7213C3.84202 13.6558 3.82491 13.5668 3.86835 13.5197C3.91179 13.4726 4 13.4857 4.07503 13.5498C4.15007 13.6139 4.16456 13.7043 4.11848 13.7514Z" fill="#9DABA7"/>
<path id="Vector_6" d="M4.71522 14.008C4.69547 14.0695 4.60595 14.097 4.51643 14.0708C4.42691 14.0446 4.36767 13.9713 4.38478 13.9085C4.4019 13.8457 4.49273 13.8169 4.58357 13.8457C4.67441 13.8745 4.73233 13.9438 4.71522 14.008Z" fill="#9DABA7"/>
<path id="Vector_7" d="M5.36538 14.0525C5.36538 14.1166 5.29166 14.1716 5.19687 14.1729C5.10209 14.1742 5.02441 14.1218 5.02441 14.0577C5.02441 13.9936 5.09813 13.9386 5.19292 13.9373C5.2877 13.936 5.36538 13.987 5.36538 14.0525Z" fill="#9DABA7"/>
<path id="Vector_8" d="M5.97102 13.9517C5.98286 14.0158 5.91704 14.0826 5.82225 14.0983C5.72747 14.114 5.64453 14.076 5.63268 14.0132C5.62083 13.9504 5.68929 13.8823 5.78144 13.8653C5.8736 13.8483 5.95917 13.8876 5.97102 13.9517Z" fill="#9DABA7"/>
</g>
</g>
<defs>
<clipPath id="clip0_3238_6912">
<rect width="16" height="16" fill="white" transform="translate(0 0.75)"/>
</clipPath>
</defs>
</svg>
