<svg width="16" height="17" viewBox="0 0 16 17" fill="none" xmlns="http://www.w3.org/2000/svg">
<g id="globe" clip-path="url(#clip0_3238_6922)">
<path id="Vector" d="M10.8548 5.75C10.3871 2.95937 9.28387 1 8 1C6.71613 1 5.6129 2.95937 5.14516 5.75H10.8548ZM4.90323 8.75C4.90323 9.44375 4.94194 10.1094 5.00968 10.75H10.9871C11.0548 10.1094 11.0935 9.44375 11.0935 8.75C11.0935 8.05625 11.0548 7.39062 10.9871 6.75H5.00968C4.94194 7.39062 4.90323 8.05625 4.90323 8.75ZM15.3774 5.75C14.4548 3.62812 12.5871 1.9875 10.2806 1.325C11.0677 2.38125 11.6097 3.97187 11.8935 5.75H15.3774ZM5.71613 1.325C3.4129 1.9875 1.54194 3.62812 0.622581 5.75H4.10645C4.3871 3.97187 4.92903 2.38125 5.71613 1.325ZM15.7226 6.75H12.0226C12.0903 7.40625 12.129 8.07812 12.129 8.75C12.129 9.42188 12.0903 10.0938 12.0226 10.75H15.7194C15.8968 10.1094 15.9968 9.44375 15.9968 8.75C15.9968 8.05625 15.8968 7.39062 15.7226 6.75ZM3.87097 8.75C3.87097 8.07812 3.90968 7.40625 3.97742 6.75H0.277419C0.103226 7.39062 0 8.05625 0 8.75C0 9.44375 0.103226 10.1094 0.277419 10.75H3.97419C3.90968 10.0938 3.87097 9.42188 3.87097 8.75ZM5.14516 11.75C5.6129 14.5406 6.71613 16.5 8 16.5C9.28387 16.5 10.3871 14.5406 10.8548 11.75H5.14516ZM10.2839 16.175C12.5871 15.5125 14.4581 13.8719 15.3806 11.75H11.8968C11.6129 13.5281 11.071 15.1188 10.2839 16.175ZM0.622581 11.75C1.54516 13.8719 3.4129 15.5125 5.71935 16.175C4.93226 15.1188 4.39032 13.5281 4.10645 11.75H0.622581Z" fill="#9DABA7"/>
</g>
<defs>
<clipPath id="clip0_3238_6922">
<rect width="16" height="16" fill="white" transform="translate(0 0.75)"/>
</clipPath>
</defs>
</svg>
