<svg width="41" height="40" viewBox="0 0 41 40" fill="none" xmlns="http://www.w3.org/2000/svg">
<g id="Logo">
<path id="Vector" d="M40.2797 22.5002C40.2797 23.2261 39.7601 23.8289 39.0738 23.9682C38.9757 23.9877 38.8744 23.9974 38.7699 23.9974H33.7271C32.8905 23.9974 32.214 24.6682 32.214 25.4979V30.4983C32.214 31.0168 31.9493 31.4705 31.5473 31.7427C31.3871 31.8496 31.2041 31.9274 31.008 31.9695C30.91 31.989 30.8087 31.9987 30.7041 31.9987H25.6614C24.8247 31.9987 24.1482 32.6695 24.1482 33.4992V38.4996C24.1482 39.3292 23.4717 40 22.6351 40H17.5924C16.7557 40 16.0792 39.3292 16.0792 38.4996V33.4992C16.0792 32.6695 16.7557 31.9987 17.5924 31.9987H22.6351C23.4717 31.9987 24.1482 31.3279 24.1482 30.4983V25.4979C24.1482 24.6682 24.8247 23.9974 25.6614 23.9974H30.7041C31.5407 23.9974 32.2172 23.3266 32.2172 22.497V15.9961C32.2172 11.5888 28.6223 8.01102 24.1776 7.99806C19.7362 8.01426 16.138 11.5888 16.138 15.9961V22.497C16.138 23.3266 15.4615 23.9974 14.6249 23.9974H9.58216C8.74552 23.9974 8.06902 24.6682 8.06902 25.4979V38.4996C8.06902 39.3292 7.39251 40 6.55587 40H1.51315C0.676503 40 0 39.3292 0 38.4996V25.4979C0 24.6682 0.676503 23.9974 1.51315 23.9974H6.55587C7.39251 23.9974 8.06902 23.3266 8.06902 22.497V15.9669C8.06902 7.14899 15.2785 0 24.1744 0C33.0702 0 40.2797 7.14899 40.2797 15.9702V22.5002Z" fill="#171C1B"/>
</g>
</svg>
