<svg fill="none" height="42" viewBox="0 0 95 42" width="95" xmlns="http://www.w3.org/2000/svg"><g fill="#030c0c"><path d="m48.149 41.6292c-3.0715 0-5.7827-.5499-8.1337-1.6495-2.351-1.0997-4.1901-2.6734-5.5173-4.721-1.3271-2.0477-1.9907-4.5124-1.9907-7.3943v-.2829c0-.7233.5864-1.3097 1.3097-1.3097h4.7748c.7234 0 1.3098.5864 1.3098 1.3097v.2829c0 2.3889.7394 4.1901 2.2182 5.4035 1.4789 1.1755 3.4886 1.7633 6.0292 1.7633 2.5785 0 4.4935-.5119 5.7448-1.5358 1.2893-1.0238 1.9339-2.332 1.9339-3.9246 0-1.0997-.3223-1.9908-.967-2.6733-.6067-.6826-1.5167-1.2324-2.7302-1.6495-1.1755-.4551-2.6164-.8722-4.3228-1.2514l-1.3082-.2844c-2.7302-.6067-5.0812-1.3651-7.053-2.2751-1.9339-.948-3.4317-2.1804-4.4934-3.6972-1.0239-1.5167-1.5358-3.4885-1.5358-5.9154 0-2.42682.5688-4.49342 1.7064-6.1998 1.1755-1.74429 2.806-3.07146 4.8916-3.98153 2.1235-.947985 4.6072-1.421979 7.4512-1.421979 2.8439 0 5.3656.492954 7.5649 1.478859 2.2372.94798 3.9815 2.38892 5.2328 4.32281 1.2893 1.89597 1.9339 4.28484 1.9339 7.16674v.3967c0 .7233-.5864 1.3097-1.3097 1.3097h-4.7748c-.7234 0-1.3097-.5864-1.3097-1.3097v-.3967c0-1.5168-.3034-2.7302-.9101-3.64024-.5688-.94799-1.403-1.63053-2.5027-2.04765-1.0996-.45503-2.4079-.68255-3.9246-.68255-2.2752 0-3.9626.43608-5.0623 1.30822-1.0617.83423-1.5926 1.99072-1.5926 3.46962 0 .9859.2465 1.8201.7394 2.5027.5309.6825 1.3083 1.2513 2.3321 1.7064 1.0238.455 2.332.8531 3.9246 1.1944l1.3083.2844c2.8439.6067 5.3087 1.3841 7.3942 2.3321 2.1235.9479 3.773 2.1993 4.9485 3.754s1.7633 3.5454 1.7633 5.9723c0 2.4268-.6257 4.5693-1.877 6.4273-1.2135 1.8201-2.9578 3.2611-5.2329 4.3228-2.2373 1.0238-4.8916 1.5358-7.9631 1.5358z"/><path d="m70.1312 7.83907c-.7234.00142-1.3098.58779-1.3098 1.31113v30.3729c0 .7234.5864 1.3097 1.3098 1.3097h23.3174c.7233 0 1.3097-.5863 1.3097-1.3097v-4.206c0-.7234-.5864-1.3097-1.3097-1.3097h-17.1191v-9.8401h15.1852c.7233 0 1.3097-.5864 1.3097-1.3098v-4.206c0-.7233-.5864-1.3097-1.3097-1.3097h-15.1852v-8.43092c.0748-.54841.5258-.98404 1.1006-1.06789h15.6772c.7233 0 1.3097-.58639 1.3097-1.30974v-4.20602c0-.72334-.5864-1.30973-1.3097-1.30973h-15.4725c-.7225 0-1.3086.58516-1.3097 1.30772l-.0065 4.25935c0 .68772-.5875 1.24381-1.3139 1.24381-1.6272 0-3.2492.00751-4.8735.01069z"/><path d="m7.5065 25.1068c-.09193.6534-.68186 1.1564-1.39754 1.1564h-4.69897c-.0531 0-.1055.0027-.15707.0081-.696987.0298-1.25292.6042-1.25292 1.3085v11.9433c0 .7234.586388 1.3097 1.30973 1.3097h4.88857c.72335 0 1.30974-.5863 1.30974-1.3097v-.1917c.0072-.0548.01091-.1106.01091-.1672v-11.5663c0-.6818.60297-1.3261 1.29882-1.3261h7.56343c2.4268 0 4.5882-.4929 6.4842-1.4789 1.9339-1.0238 3.4506-2.4458 4.5503-4.2659 1.1376-1.858 1.7064-4.0194 1.7064-6.4842v-.7963c0-2.5027-.5499-4.66408-1.6495-6.48422-1.0618-1.82012-2.5596-3.22314-4.4935-4.20905-1.8959-1.02382-4.0952-1.53573-6.5979-1.53573h-15.07134c-.723392 0-1.30980112.58646-1.30972849 1.30986l.00158728 15.80934c.00007262.7233.58643921 1.3096 1.30973121 1.3096.82418 0 1.64819.0013 2.47247.0026h.00157c.82533.0012 1.65092.0025 2.4772.0025.68772 0 1.24381.5874 1.24381 1.3139v1.4659h.00078zm.00154-17.26381v10.36061c.03068.6568.5165 1.1857 1.13188 1.2427h7.00178c1.7823 0 3.2232-.4929 4.3229-1.4788 1.0996-.9859 1.6494-2.3321 1.6494-4.0385v-.5687c0-1.7064-.5498-3.0526-1.6494-4.03846-1.0997-.9859-2.5406-1.47885-4.3229-1.47885z"/></g></svg>