<svg fill="none" height="48" viewBox="0 0 49 48" width="49" xmlns="http://www.w3.org/2000/svg"><path d="m48.3357 27.0002c0 .8711-.6236 1.5945-1.4472 1.7617-.1176.0233-.2392.035-.3647.035h-6.0513c-1.0039 0-1.8157.805-1.8157 1.8005v6.0005c0 .6222-.3177 1.1667-.8001 1.4933-.1921.1284-.4118.2217-.6471.2722-.1176.0234-.2392.035-.3647.035h-6.0513c-1.0039 0-1.8157.805-1.8157 1.8006v6.0005c0 .9955-.8118 1.8005-1.8158 1.8005h-6.0513c-1.0039 0-1.8157-.805-1.8157-1.8005v-6.0005c0-.9956.8118-1.8006 1.8157-1.8006h6.0513c1.004 0 1.8158-.8049 1.8158-1.8005v-6.0005c0-.9955.8118-1.8005 1.8157-1.8005h6.0513c1.004 0 1.8158-.805 1.8158-1.8005v-7.8011c0-5.2888-4.3139-9.58208-9.6475-9.59763-5.3297.01944-9.6476 4.30883-9.6476 9.59763v7.8011c0 .9955-.8118 1.8005-1.8157 1.8005h-6.0513c-1.004 0-1.81578.805-1.81578 1.8005v15.6021c0 .9955-.8118 1.8005-1.81577 1.8005h-6.05128c-1.003966 0-1.81577-.805-1.81577-1.8005v-15.6021c0-.9955.811804-1.8005 1.81577-1.8005h6.05128c1.00397 0 1.81577-.805 1.81577-1.8005v-7.8361c0-10.58151 8.65138-19.1603 19.32638-19.1603 10.6751 0 19.3265 8.57879 19.3265 19.1642z" fill="#171c1b"/></svg>