<svg fill="none" height="253" viewBox="0 0 255 253" width="255" xmlns="http://www.w3.org/2000/svg"><g fill="#171c1b"><path d="m127.333 252.221c-33.9941 0-65.9483-13.107-89.9876-36.903-24.034-23.801-37.2719137-55.444-37.2719137-89.097 0-33.6525 13.2379137-65.2956 37.2719137-89.0969 24.0339-23.8013 55.9935-36.902909 89.9876-36.902909 33.995 0 65.949 13.106909 89.989 36.902909 24.034 23.796 37.271 55.4391 37.271 89.0969 0 33.658-13.237 65.296-37.271 89.097-24.034 23.796-55.994 36.903-89.989 36.903zm0-245.63724c-32.2751 0-62.6174 12.44414-85.4411 35.04184s-35.39222 52.6396-35.39222 84.5954c0 31.956 12.56852 61.998 35.39222 84.596s53.166 35.042 85.4411 35.042c32.276 0 62.618-12.444 85.442-35.042s35.392-52.64 35.392-84.596c0-31.9558-12.568-61.9977-35.392-84.5954s-53.166-35.04184-85.442-35.04184z"/><path d="m36.6222 113.394-16.933-3.494 1.2799-6.082c.8889-4.2152 3.6575-6.3043 7.3151-5.5514l.3695.0743c3.6147.7476 5.3284 3.7641 4.4448 7.9801l-.4927 2.348 4.809.992-.7873 3.738zm-12.8792-6.559 5.5908 1.156.5302-2.529c.3695-1.755-.5141-3.033-2.1956-3.378-1.7244-.355-3.0257.467-3.3952 2.222z"/><path d="m40.4457 97.2168-15.9423-6.6382 2.6133-6.1558c1.6655-3.9236 4.4823-5.6309 8.0114-4.1622l.3481.1432c2.3187.9649 3.4005 2.6775 3.3898 4.8673l7.3472-1.633-1.7297 4.0773-6.5172 1.299-1.0925 2.5716 5.0714 2.1102-1.4941 3.5153zm-11.4386-8.9023 5.0714 2.1103 1.237-2.9162c.648-1.5217.0803-2.948-1.462-3.5842-1.5155-.631-2.9614-.0477-3.6093 1.474z"/><path d="m48.2803 80.6744-14.6357-8.8652 2.0136-3.2555 14.6356 8.8652z"/><path d="m55.4778 70.1719-16.4778-6.9988 2.5598-3.0064 13.3182 5.9119.5141-.6044-8.3326-11.7655 2.4848-2.9161 9.982 14.6339-4.0431 4.7507z"/><path d="m63.1842 61.1316-6.3351-16.7548 4.8571-3.8652 15.3265 9.5968-3.1167 2.4761-3.7486-2.423-5.5855 4.4484 1.6012 4.1304-3.0042 2.3913zm4.161-12.7782-5.7729-3.7327-.6801.5408 2.4795 6.3573z"/><path d="m74.6874 41.8585-.2356-.456c-1.9279-3.7539-1.553-8.9818 3.7432-11.6488 4.1717-2.0996 8.2149-1.0551 10.4533 2.386l-3.4594 1.7391c-1.221-1.6543-3.2934-1.9989-5.3659-.9544-2.7258 1.3732-3.2506 4.0932-1.7725 6.9776 1.4619 2.8419 4.0217 4.0296 6.8278 2.6193 2.1153-1.0658 3.1542-2.948 2.5437-4.9098l3.438-1.7285c1.3388 3.5312.0321 7.6085-4.3484 9.8142-5.5319 2.7837-10.073-.4082-11.8295-3.8334z"/><path d="m101.104 39.4612-1.7458-6.2088-.814.2227-7.6793-8.8228 3.8022-1.0498 5.4569 6.4686.723-.2015.953-8.2342 3.599-.9915-1.58 11.3784-.814.2227 1.746 6.2088z"/><path d="m123.135 33.613-.117-4.3266-4.156.1114-.08-3.0223 4.155-.1113-.117-4.3478 3.336-.0901.118 4.3478 4.182-.1114.08 3.0222-4.182.1114.118 4.3265z"/><path d="m141.434 31.2377 3.647.8006c-.284 1.2725.45 2.6034 2.816 3.123 2.089.456 3.412-.1803 3.696-1.4528.241-1.0657-.493-1.8716-2.496-2.5026l-1.237-.3924c-3.288-1.0074-5.007-3.3403-4.343-6.2936.712-3.1813 3.588-4.6235 7.326-3.8016 3.947.8642 5.826 3.5418 5.098 6.792l-3.674-.8059c.268-1.2036-.385-2.4708-2.131-2.8526-1.676-.3658-2.71.3818-2.956 1.474-.214.9544.23 1.8611 1.746 2.3118l1.258.3976c3.577 1.1188 5.762 3.4093 5.071 6.4792-.717 3.2025-3.823 4.7136-8.07 3.7804-4.568-1.0021-6.485-3.8334-5.762-7.0571z"/><path d="m160.327 32.5735.209-.4665c1.735-3.8441 6.072-6.8451 11.502-4.4432 4.268 1.8875 5.993 5.6574 4.702 9.5438l-3.539-1.5641c.535-1.983-.504-3.791-2.63-4.7295-2.79-1.2354-5.259.0689-6.587 3.0222-1.312 2.9109-.637 5.6309 2.239 6.9034 2.169.9597 4.295.5726 5.451-1.1294l3.519 1.5589c-1.928 3.2502-5.955 4.809-10.438 2.826-5.665-2.5026-6.013-8.0115-4.428-11.5163z"/><path d="m174.18 47.9768 14.716-10.3869 5.023 3.6479-5.408 17.1418-3.224-2.3382 1.398-4.2099-5.784-4.1993-3.615 2.598-3.111-2.2587zm13.544.684 2.152-6.4898-.701-.509-5.564 4.0137z"/><path d="m190.787 60.8925 12.504-11.6329 2.64 2.7837-10.036 9.3423 4.606 4.8515-2.469 2.2958-7.245-7.6298z"/><path d="m200.351 71.7032 13.902-9.9521 2.26 3.0912-13.902 9.9521z"/><path d="m205.711 78.8621 15.396-7.5025 2.79 5.6149-9.735 11.8768.144.2917 12.59-6.1346 1.596 3.2184-15.396 7.5025-2.811-5.6574 9.735-11.8768-.144-.2916-12.59 6.1346-1.58-3.176z"/><path d="m222.645 95.5321.503-.1167c4.215-.9597 9.206.912 10.486 6.4266 1.039 4.469-.948 8.191-4.734 9.432l-.862-3.717c1.761-.71 2.613-2.672 2.088-4.915-.675-2.9-3.267-4.1036-6.383-3.3931-3.278.7476-5.007 3.0491-4.274 6.2031.391 1.681 1.328 2.922 2.523 3.484l1.397-.318-1.006-4.332 2.704-.615 2.115 9.114-2.704.615-.316-1.362-2.838.647c-2.64-.881-4.52-3.171-5.286-6.464-1.376-5.944 2.442-9.7451 6.587-10.6889z"/><path d="m174.609 129.736c0 1.633-1.167 2.996-2.726 3.309-.219.047-.45.069-.685.069h-11.38c-1.885 0-3.411 1.511-3.411 3.377v11.267c0 1.167-.595 2.195-1.505 2.8-.364.244-.776.419-1.221.509-.219.042-.45.069-.685.069h-11.38c-1.885 0-3.411 1.511-3.411 3.377v11.267c0 1.866-1.527 3.378-3.412 3.378h-11.379c-1.885 0-3.411-1.512-3.411-3.378v-11.267c0-1.866 1.526-3.377 3.411-3.377h11.379c1.885 0 3.412-1.511 3.412-3.378v-11.267c0-1.866 1.526-3.377 3.411-3.377h11.38c1.885 0 3.411-1.511 3.411-3.378v-14.644c0-9.931-8.113-17.9852-18.138-18.0223-10.02.0371-18.138 8.0913-18.138 18.0223v14.644c0 1.867-1.526 3.378-3.411 3.378h-11.38c-1.885 0-3.411 1.511-3.411 3.377v29.289c0 1.866-1.526 3.378-3.4114 3.378h-11.3797c-1.885 0-3.4112-1.512-3.4112-3.378v-29.289c0-1.866 1.5262-3.377 3.4112-3.377h11.3797c1.8854 0 3.4114-1.511 3.4114-3.378v-14.708c0-19.8723 16.269-35.9802 36.34-35.9802s36.34 16.1079 36.34 35.9802z"/><path d="m127.333 205.493c-44.1478 0-80.0648-35.561-80.0648-79.272s35.917-79.2724 80.0648-79.2724c44.148 0 80.065 35.5614 80.065 79.2724s-35.917 79.272-80.065 79.272zm0-155.3631c-42.3752 0-76.8517 34.1351-76.8517 76.0911s34.4765 76.091 76.8517 76.091c42.376 0 76.852-34.135 76.852-76.091s-34.476-76.0911-76.852-76.0911z"/><path d="m32.5741 179.704 14.4911-9.103 5.6925 8.881-2.699 1.696-3.679-5.737-3.0738 1.93 3.4755 5.424-2.699 1.697-3.4755-5.424-3.3149 2.084 3.7647 5.875-2.699 1.696-5.7782-9.019z"/><path d="m41.3193 192.922 10.5122-1.792 2.4847-9.311 2.8544 3.091-1.703 6.018.3642.398 6.1745-1.177 2.7739 3.006-9.741 1.66-2.5598 10.201-2.8703-3.107 1.8421-6.903-.3802-.414-6.9831 1.336-2.774-3.006z"/><path d="m57.0261 208.818 10.4211-13.664 5.0071 3.744c3.4701 2.592 4.1931 5.964 1.9439 8.918l-.2249.297c-2.2224 2.916-5.714 3.165-9.1788.572l-1.9332-1.442-2.9614 3.881-3.0738-2.301zm11.4868-8.728-3.4434 4.513 2.0832 1.553c1.4459 1.082 2.9881.833 4.0217-.519 1.0603-1.395.8675-2.911-.5784-3.993z"/><path d="m72.8288 219.747 7.9524-15.053 3.4166 1.771-6.3834 12.083 5.955 3.086-1.5691 2.969-9.3715-4.851z"/><path d="m89.2478 218.856.15-.488c1.237-4.029 5.5319-7.433 11.3102-5.689 5.757 1.734 7.449 6.941 6.206 10.97l-.149.488c-1.125 3.653-5.404 7.497-11.3373 5.705-5.9389-1.792-7.3045-7.333-6.1799-10.986zm13.8542 3.934c.931-3.027-.338-5.768-3.4437-6.707-3.1007-.933-5.6765.647-6.6083 3.674-.8783 2.853.3213 5.743 3.4273 6.676 3.1006.933 5.7517-.795 6.6247-3.648z"/><path d="m111.268 233.118 1.478-17.068 6.721.573c4.284.365 6.79 2.492 6.464 6.272l-.032.371c-.215 2.482-1.527 4.03-3.637 4.687l3.829 6.421-4.45-.376-3.25-5.743-2.812-.238-.471 5.424-3.84-.329zm5.039-13.516-.471 5.424 3.187.271c1.66.143 2.854-.833 2.998-2.476.14-1.623-.867-2.805-2.527-2.948z"/><path d="m130.67 234.386 3.732-17.508 6.191-.684 7.738 16.241-3.973.44-1.848-4.035-7.128.784-.883 4.338-3.829.419zm10.437-8.574-2.849-6.219-.862.095-1.355 6.681 5.071-.557z"/><path d="m155.85 230.366-3.84-13.123-4.627 1.325-.937-3.197 12.981-3.722.937 3.197-4.653 1.331 3.839 13.123-3.7 1.06z"/><path d="m169.495 225.722-6.924-15.546 3.529-1.542 6.924 15.545z"/><path d="m174.491 214.662-.284-.43c-2.324-3.531-2.201-8.971 2.865-12.232 5.039-3.25 10.159-1.193 12.477 2.338l.284.43c2.105 3.197 2.33 8.913-2.87 12.264s-10.368.827-12.472-2.37zm11.942-7.98c-1.746-2.651-4.681-3.452-7.401-1.697-2.715 1.755-3.149 4.724-1.403 7.376 1.644 2.497 4.648 3.446 7.369 1.691 2.72-1.755 3.079-4.873 1.435-7.37z"/><path d="m199.896 207.095-12.344-11.802 4.391-4.502 14.582 5.048.231-.233-10.095-9.65 2.517-2.577 12.344 11.797-4.424 4.539-14.582-5.048-.23.233 10.094 9.65-2.479 2.545z"/><path d="m211.094 187.128 2.002-3.123c1.109.7 2.624.467 3.926-1.559 1.146-1.786.99-3.234-.123-3.934-.932-.588-1.95-.175-3.23 1.474l-.792 1.018c-2.078 2.72-4.879 3.521-7.454 1.898-2.78-1.744-3.171-4.915-1.114-8.117 2.168-3.378 5.349-4.215 8.188-2.434l-2.014 3.144c-1.049-.663-2.474-.482-3.433 1.013-.921 1.432-.562 2.651.391 3.25.836.525 1.848.419 2.79-.838l.804-1.039c2.281-2.948 5.2-4.199 7.877-2.518 2.796 1.76 3.176 5.164.841 8.801-2.506 3.908-5.848 4.73-8.665 2.959z"/><path d="m221.962 141.944-1.028 4.987c-.17.823.366 1.627 1.198 1.795l5.037 1.019c.832.168 1.644-.364 1.813-1.187l1.029-4.987c.17-.824-.367-1.627-1.199-1.796l-5.037-1.018c-.831-.168-1.643.363-1.813 1.187z"/><path d="m30.8972 140.756-5.037 1.018c-.8317.169-1.3682.972-1.1984 1.796l1.0284 4.987c.1698.823.9817 1.355 1.8133 1.186l5.0371-1.018c.8316-.168 1.3682-.972 1.1984-1.795l-1.0285-4.987c-.1698-.824-.9816-1.355-1.8133-1.187z"/></g></svg>