<svg fill="none" height="333" viewBox="0 0 333 333" width="333" xmlns="http://www.w3.org/2000/svg"><path d="m166.501 328.303c89.5 0 162.053-72.553 162.053-162.053 0-89.4988-72.553-162.05232-162.053-162.05232-89.4988 0-162.05225 72.55352-162.05225 162.05232 0 89.5 72.55345 162.053 162.05225 162.053z" fill="#002c00"/><g fill="#a3dff0"><path d="m166.5 332.5c-44.41 0-86.1541-17.293-117.5586-48.691-31.4046-31.397-48.6914-73.156-48.6914-117.559s17.2938-86.1541 48.6914-117.5586c31.3975-31.4046 73.1486-48.6914 117.5586-48.6914s86.155 17.2938 117.559 48.6914c31.398 31.3975 48.691 73.1486 48.691 117.5586s-17.293 86.155-48.691 117.559c-31.397 31.398-73.149 48.691-117.559 48.691zm0-324.10494c-42.164 0-81.8027 16.41934-111.6191 46.23584-29.8165 29.8164-46.23584 69.4551-46.23584 111.6191s16.41934 81.803 46.23584 111.62c29.8164 29.816 69.4551 46.235 111.6191 46.235s81.803-16.419 111.62-46.235c29.816-29.817 46.235-69.456 46.235-111.62s-16.419-81.8027-46.235-111.6191c-29.817-29.8165-69.456-46.23584-111.62-46.23584z"/><path d="m48.0012 149.327-22.121-4.61 1.6721-8.024c1.1613-5.562 4.7782-8.319 9.5563-7.325l.4828.098c4.7222.986 6.9609 4.967 5.8065 10.529l-.6436 3.099 6.2823 1.308-1.0284 4.932zm-16.8251-8.654 7.3037 1.525.6926-3.337c.4828-2.315-.6716-4.001-2.8683-4.456-2.2527-.469-3.9527.615-4.4354 2.931z"/><path d="m52.994 127.983-20.8268-8.759 3.414-8.122c2.1757-5.177 5.8556-7.43 10.4659-5.492l.4547.189c3.0292 1.273 4.4424 3.533 4.4284 6.422l9.5983-2.155-2.2596 5.38-8.514 1.714-1.4272 3.393 6.6251 2.785-1.9518 4.638zm-14.9432-11.746 6.6251 2.784 1.616-3.848c.8465-2.008.105-3.889-1.9099-4.729-1.9798-.832-3.8687-.063-4.7152 1.945z"/><path d="m63.2313 106.156-19.1197-11.6975 2.6304-4.2955 19.1198 11.697z"/><path d="m72.6336 92.2968-21.5264-9.2346 3.3441-3.9667 17.3987 7.8005.6716-.7976-10.8856-15.5239 3.2461-3.8477 13.0404 19.3087-5.2819 6.2683z"/><path d="m82.6995 80.3687-8.2762-22.107 6.3453-5.1 20.0224 12.6625-4.0718 3.2671-4.8971-3.1971-7.2967 5.8695 2.0918 5.4498-3.9247 3.1552zm5.4358-16.8601-7.5416-4.9251-.8885.7136 3.2391 8.388z"/><path d="m97.7281 54.9387-.3078-.6016c-2.5185-4.9531-2.0288-11.8511 4.8897-15.37 5.45-2.7704 10.732-1.3922 13.656 3.1482l-4.519 2.2946c-1.595-2.1827-4.302-2.6374-7.01-1.2593-3.561 1.812-4.246 5.4009-2.315 9.2066 1.909 3.7498 5.253 5.3169 8.919 3.456 2.764-1.4062 4.121-3.8897 3.323-6.4782l4.492-2.2806c1.749 4.6592.042 10.039-5.681 12.9493-7.227 3.6729-13.159-.5386-15.4539-5.058z"/><path d="m132.238 51.7769-2.281-8.1922-1.064.2939-10.032-11.6412 4.967-1.3852 7.129 8.535.945-.2658 1.245-10.8646 4.701-1.3083-2.064 15.0132-1.063.2938 2.281 8.1922z"/><path d="m161.021 44.0601-.154-5.7086-5.429.1469-.105-3.9876 5.429-.147-.154-5.7366 4.359-.1189.154 5.7366 5.463-.1469.105 3.9877-5.463.1469.154 5.7086z"/><path d="m184.924 40.926 4.765 1.0564c-.371 1.679.587 3.435 3.679 4.1206 2.729.6016 4.457-.2379 4.828-1.9169.314-1.4062-.644-2.4695-3.261-3.302l-1.616-.5177c-4.295-1.3293-6.541-4.4074-5.673-8.3041.93-4.1976 4.687-6.1005 9.57-5.0161 5.156 1.1403 7.612 4.6733 6.66 8.9617l-4.799-1.0633c.35-1.5881-.504-3.2601-2.784-3.7638-2.19-.4827-3.54.5037-3.862 1.9448-.28 1.2593.301 2.4556 2.281 3.0502l1.644.5247c4.673 1.4762 7.527 4.4984 6.625 8.549-.938 4.2255-4.995 6.2193-10.543 4.9881-5.968-1.3223-8.472-5.0581-7.528-9.3116z"/><path d="m209.606 42.6886.273-.6156c2.266-5.0721 7.933-9.0317 15.027-5.8626 5.575 2.4905 7.828 7.4646 6.142 12.5926l-4.624-2.0638c.699-2.6164-.658-5.002-3.435-6.2403-3.645-1.6301-6.87.0909-8.605 3.9876-1.714 3.8408-.833 7.4297 2.924 9.1087 2.834 1.2662 5.611.7556 7.122-1.4901l4.596 2.0568c-2.518 4.2884-7.779 6.3452-13.635 3.7288-7.401-3.3021-7.856-10.5708-5.785-15.1951z"/><path d="m227.705 63.0118 19.225-13.705 6.562 4.8132-7.066 22.6177-4.211-3.0852 1.826-5.5547-7.556-5.5408-4.722 3.428-4.065-2.9802zm17.693.9024 2.812-8.5629-.916-.6716-7.269 5.2958z"/><path d="m249.397 80.0541 16.336-15.349 3.449 3.6729-13.111 12.3267 6.017 6.4013-3.225 3.0292-9.466-10.0671z"/><path d="m261.895 94.3184 18.161-13.1313 2.952 4.0786-18.161 13.1313z"/><path d="m268.897 103.763 20.113-9.8992 3.645 7.4082-12.718 15.671.189.385 16.447-8.094 2.085 4.246-20.113 9.899-3.673-7.464 12.718-15.671-.189-.3847-16.447 8.0947-2.064-4.191z"/><path d="m291.018 125.758.657-.154c5.506-1.266 12.026 1.203 13.698 8.479 1.358 5.898-1.231 10.809-6.184 12.446l-1.126-4.904c2.301-.938 3.414-3.526 2.728-6.486-.881-3.826-4.267-5.414-8.339-4.477-4.281.986-6.541 4.023-5.583 8.185.511 2.218 1.735 3.855 3.295 4.597l1.826-.42-1.315-5.716 3.533-.811 2.763 12.026-3.533.811-.412-1.798-3.708.854c-3.449-1.162-5.905-4.184-6.905-8.528-1.798-7.843 3.19-12.859 8.605-14.104z"/><path d="m228.26 170.889c0 2.154-1.525 3.952-3.561 4.365-.287.063-.588.091-.896.091h-14.866c-2.463 0-4.456 1.994-4.456 4.456v14.867c0 1.539-.777 2.896-1.966 3.693-.476.322-1.015.553-1.595.672-.287.056-.588.091-.896.091h-14.866c-2.463 0-4.456 1.994-4.456 4.456v14.867c0 2.462-1.994 4.456-4.457 4.456h-14.866c-2.463 0-4.456-1.994-4.456-4.456v-14.867c0-2.462 1.993-4.456 4.456-4.456h14.866c2.463 0 4.457-1.994 4.457-4.456v-14.867c0-2.462 1.993-4.456 4.456-4.456h14.866c2.463 0 4.457-1.994 4.457-4.456v-19.323c0-13.103-10.599-23.73-23.695-23.779-13.09.049-23.695 10.676-23.695 23.779v19.323c0 2.462-1.994 4.456-4.457 4.456h-14.866c-2.463 0-4.456 1.994-4.456 4.456v38.646c0 2.462-1.994 4.456-4.457 4.456h-14.866c-2.463 0-4.456-1.994-4.456-4.456v-38.646c0-2.462 1.993-4.456 4.456-4.456h14.866c2.463 0 4.457-1.994 4.457-4.456v-19.407c0-26.221 21.253-47.474 47.474-47.474 26.22 0 47.474 21.253 47.474 47.474z"/><path d="m42.7092 236.818 18.9308-12.012 7.4367 11.718-3.5259 2.239-4.8062-7.57-4.0157 2.547 4.5404 7.157-3.526 2.238-4.5403-7.156-4.3304 2.749 4.9181 7.751-3.526 2.239-7.5485-11.9z"/><path d="m54.1342 254.259 13.733-2.365 3.2461-12.284 3.7288 4.078-2.2247 7.94.4757.525 8.0663-1.553 3.6238 3.967-12.7255 2.189-3.344 13.461-3.7498-4.1 2.4066-9.109-.4967-.545-9.1227 1.763-3.6238-3.967z"/><path d="m74.6526 275.233 13.614-18.029 6.5412 4.939c4.5333 3.421 5.4852 7.871 2.5395 11.767l-.2938.392c-2.9033 3.848-7.4646 4.177-11.991.756l-2.5255-1.903-3.8687 5.121-4.0157-3.036zm15.0062-11.516-4.4983 5.954 2.7214 2.05c1.8888 1.427 3.9037 1.098 5.2539-.686 1.3852-1.84 1.1333-3.841-.7556-5.268z"/><path d="m95.2985 289.651 10.3885-19.861 4.464 2.336-8.339 15.944 7.779 4.072-2.05 3.917-12.2425-6.401z"/><path d="m116.747 288.476.196-.644c1.616-5.316 7.227-9.808 14.776-7.506 7.52 2.287 9.731 9.157 8.108 14.474l-.196.644c-1.469 4.82-7.059 9.892-14.81 7.527-7.759-2.364-9.543-9.675-8.074-14.495zm18.099 5.191c1.217-3.995-.441-7.612-4.499-8.85-4.05-1.231-7.415.854-8.632 4.848-1.148 3.764.419 7.577 4.477 8.808 4.051 1.231 7.513-1.049 8.654-4.813z"/><path d="m145.515 307.295 1.931-22.52 8.779.756c5.597.482 8.871 3.288 8.444 8.276l-.042.489c-.279 3.274-1.993 5.317-4.75 6.185l5.002 8.472-5.813-.497-4.247-7.577-3.673-.314-.615 7.156-5.016-.433zm6.583-17.833-.616 7.157 4.163.357c2.168.189 3.729-1.099 3.917-3.267.182-2.141-1.133-3.701-3.302-3.89z"/><path d="m170.859 308.967 4.876-23.101 8.087-.902 10.109 21.428-5.191.581-2.413-5.324-9.312 1.036-1.154 5.722-5.002.553zm13.635-11.313-3.722-8.206-1.127.126-1.769 8.815 6.625-.735z"/><path d="m203.753 303.664-5.016-17.315-6.044 1.749-1.225-4.218 16.958-4.911 1.225 4.218-6.073 1.756 5.016 17.315-4.834 1.399z"/><path d="m221.58 297.536-9.046-20.512 4.611-2.036 9.045 20.512z"/><path d="m228.107 282.942-.37-.567c-3.037-4.659-2.876-11.837 3.742-16.139 6.584-4.289 13.272-1.574 16.301 3.085l.371.567c2.749 4.218 3.043 11.76-3.75 16.181-6.793 4.422-13.544 1.092-16.294-3.127zm15.601-10.529c-2.28-3.498-6.114-4.554-9.668-2.238-3.547 2.315-4.114 6.233-1.833 9.731 2.148 3.295 6.072 4.547 9.626 2.232 3.547-2.316 4.023-6.43 1.875-9.725z"/><path d="m261.298 272.959-16.125-15.573 5.737-5.939 19.049 6.66.301-.308-13.187-12.733 3.288-3.4 16.125 15.566-5.778 5.989-19.05-6.66-.301.307 13.187 12.733-3.239 3.358z"/><path d="m275.924 246.612 2.617-4.12c1.448.923 3.428.616 5.128-2.057 1.497-2.358 1.294-4.267-.161-5.191-1.217-.776-2.546-.231-4.219 1.945l-1.035 1.343c-2.714 3.589-6.373 4.646-9.738 2.505-3.631-2.302-4.142-6.485-1.455-10.711 2.833-4.456 6.989-5.562 10.696-3.211l-2.63 4.148c-1.371-.874-3.232-.636-4.484 1.337-1.204 1.889-.735 3.498.51 4.288 1.092.693 2.414.553 3.645-1.105l1.05-1.371c2.98-3.89 6.793-5.541 10.29-3.323 3.652 2.322 4.149 6.814 1.099 11.613-3.274 5.156-7.64 6.24-11.319 3.903z"/><path d="m39.8176 185.429-6.5802 1.344c-1.0865.222-1.7874 1.282-1.5656 2.369l1.3436 6.58c.2218 1.086 1.2824 1.787 2.3689 1.565l6.5802-1.343c1.0865-.222 1.7874-1.283 1.5656-2.369l-1.3435-6.58c-.2219-1.087-1.2825-1.788-2.369-1.566z"/><path d="m289.931 186.997-1.344 6.58c-.221 1.087.48 2.147 1.566 2.369l6.58 1.344c1.087.221 2.147-.479 2.369-1.566l1.344-6.58c.222-1.087-.479-2.147-1.566-2.369l-6.58-1.344c-1.087-.222-2.147.479-2.369 1.566z"/><path d="m166.5 270.797c-57.674 0-104.5957-46.922-104.5957-104.596s46.9217-104.5952 104.5957-104.5952 104.595 46.9212 104.595 104.5952-46.921 104.596-104.595 104.596zm0-204.9937c-55.359 0-100.3982 45.0397-100.3982 100.3977 0 55.359 45.0392 100.398 100.3982 100.398 55.358 0 100.398-45.039 100.398-100.398 0-55.358-45.04-100.3977-100.398-100.3977z"/></g></svg>