<svg width="25" height="24" viewBox="0 0 25 24" fill="none" xmlns="http://www.w3.org/2000/svg">
<g id="github-fill" clip-path="url(#clip0_3593_4160)">
<path id="Vector" d="M12.5205 2C6.99551 2 2.52051 6.475 2.52051 12C2.51938 14.0993 3.17932 16.1456 4.40672 17.8487C5.63413 19.5517 7.36665 20.8251 9.35851 21.488C9.85851 21.575 10.0455 21.275 10.0455 21.012C10.0455 20.775 10.0325 19.988 10.0325 19.15C7.52051 19.613 6.87051 18.538 6.67051 17.975C6.55751 17.687 6.07051 16.8 5.64551 16.562C5.29551 16.375 4.79551 15.912 5.63251 15.9C6.42051 15.887 6.98251 16.625 7.17051 16.925C8.07051 18.437 9.50851 18.012 10.0825 17.75C10.1705 17.1 10.4325 16.663 10.7205 16.413C8.49551 16.163 6.17051 15.3 6.17051 11.475C6.17051 10.387 6.55751 9.488 7.19551 8.787C7.09551 8.537 6.74551 7.512 7.29551 6.137C7.29551 6.137 8.13251 5.875 10.0455 7.163C10.8596 6.93706 11.7007 6.82334 12.5455 6.825C13.3955 6.825 14.2455 6.937 15.0455 7.162C16.9575 5.862 17.7955 6.138 17.7955 6.138C18.3455 7.513 17.9955 8.538 17.8955 8.788C18.5325 9.488 18.9205 10.375 18.9205 11.475C18.9205 15.313 16.5835 16.163 14.3585 16.413C14.7205 16.725 15.0335 17.325 15.0335 18.263C15.0335 19.6 15.0205 20.675 15.0205 21.013C15.0205 21.275 15.2085 21.587 15.7085 21.487C17.6935 20.8168 19.4184 19.541 20.6404 17.8392C21.8624 16.1373 22.5199 14.0951 22.5205 12C22.5205 6.475 18.0455 2 12.5205 2Z" fill="#4A5754"/>
</g>
<defs>
<clipPath id="clip0_3593_4160">
<rect width="24" height="24" fill="white" transform="translate(0.520508)"/>
</clipPath>
</defs>
</svg>
