<svg xmlns="http://www.w3.org/2000/svg" width="20" height="20" viewBox="0 0 20 20" fill="none">
	<path fill-rule="evenodd" clip-rule="evenodd" d="M9.99667 0.395996C7.63749 0.39722 5.35566 1.2328 3.5592 2.75332C1.76275 4.27384 0.568814 6.38015 0.190885 8.69562C-0.187044 11.0111 0.275672 13.3847 1.49631 15.3921C2.71694 17.3995 4.61589 18.9097 6.8536 19.6527C7.34727 19.7444 7.53323 19.4384 7.53323 19.1782C7.53323 18.9181 7.52335 18.1638 7.52006 17.3391C4.75547 17.9363 4.1713 16.1725 4.1713 16.1725C3.72041 15.0271 3.06875 14.7261 3.06875 14.7261C2.16697 14.1141 3.13623 14.1256 3.13623 14.1256C4.1351 14.1959 4.66004 15.1449 4.66004 15.1449C5.54536 16.6552 6.98524 16.2183 7.55132 15.963C7.64019 15.3233 7.89855 14.888 8.18323 14.641C5.97486 14.3923 3.65458 13.5447 3.65458 9.75848C3.64089 8.77654 4.00735 7.82695 4.67814 7.10616C4.57611 6.85745 4.23547 5.85281 4.77522 4.4882C4.77522 4.4882 5.60954 4.22313 7.50855 5.50102C9.13739 5.05812 10.8559 5.05812 12.4848 5.50102C14.3822 4.22313 15.2148 4.4882 15.2148 4.4882C15.7562 5.84954 15.4156 6.85418 15.3136 7.10616C15.9865 7.82706 16.3537 8.77831 16.3388 9.76175C16.3388 13.5562 14.0135 14.3923 11.8019 14.6361C12.1573 14.9437 12.4749 15.5442 12.4749 16.467C12.4749 17.7891 12.4634 18.8526 12.4634 19.1782C12.4634 19.4417 12.6428 19.7493 13.1463 19.6527C15.3843 18.9096 17.2834 17.3991 18.504 15.3914C19.7246 13.3837 20.1871 11.0097 19.8088 8.69401C19.4304 6.37832 18.2359 4.27199 16.4388 2.75173C14.6418 1.23147 12.3594 0.396444 9.99996 0.395996H9.99667Z" fill="#3A3B40" />
	<path d="M3.8218 14.5836C3.80041 14.6327 3.72142 14.6474 3.65724 14.613C3.59307 14.5787 3.54535 14.5149 3.56839 14.4641C3.59142 14.4134 3.66877 14.4003 3.73294 14.4347C3.79712 14.469 3.84649 14.5345 3.8218 14.5836Z" fill="#3A3B40" />
	<path d="M4.2249 15.0302C4.19082 15.0473 4.15183 15.0521 4.11461 15.0437C4.07739 15.0353 4.04425 15.0144 4.02085 14.9844C3.95667 14.9157 3.9435 14.8208 3.99287 14.7782C4.04224 14.7357 4.1311 14.7553 4.19528 14.8241C4.25946 14.8928 4.27427 14.9877 4.2249 15.0302Z" fill="#3A3B40" />
	<path d="M4.61725 15.5979C4.55636 15.6405 4.45268 15.5979 4.39509 15.5129C4.37916 15.4976 4.3665 15.4793 4.35784 15.4591C4.34919 15.4388 4.34473 15.417 4.34473 15.3951C4.34473 15.3731 4.34919 15.3513 4.35784 15.331C4.3665 15.3108 4.37916 15.2925 4.39509 15.2772C4.45597 15.2363 4.55965 15.2772 4.61725 15.3607C4.67484 15.4441 4.67649 15.5554 4.61725 15.5979Z" fill="#3A3B40" />
	<path d="M5.14883 16.1481C5.09453 16.2087 4.98428 16.1923 4.89377 16.1105C4.80326 16.0287 4.78186 15.9174 4.83617 15.8585C4.89047 15.7996 5.00073 15.816 5.09453 15.8962C5.18832 15.9763 5.20643 16.0892 5.14883 16.1481Z" fill="#3A3B40" />
	<path d="M5.89426 16.4688C5.86958 16.5457 5.75768 16.5801 5.64578 16.5474C5.53388 16.5147 5.45983 16.423 5.48122 16.3445C5.50261 16.266 5.61616 16.23 5.72971 16.266C5.84325 16.3019 5.91566 16.3887 5.89426 16.4688Z" fill="#3A3B40" />
	<path d="M6.70648 16.5244C6.70648 16.6046 6.61433 16.6733 6.49585 16.6749C6.37736 16.6766 6.28027 16.6111 6.28027 16.5309C6.28027 16.4508 6.37242 16.382 6.4909 16.3804C6.60939 16.3788 6.70648 16.4426 6.70648 16.5244Z" fill="#3A3B40" />
	<path d="M7.46365 16.3981C7.47846 16.4783 7.39618 16.5617 7.2777 16.5814C7.15921 16.601 7.05554 16.5536 7.04073 16.475C7.02592 16.3965 7.11149 16.3114 7.22668 16.2901C7.34187 16.2689 7.44884 16.3179 7.46365 16.3981Z" fill="#3A3B40" />
</svg>
