<svg xmlns="http://www.w3.org/2000/svg" width="20" height="21" viewBox="0 0 20 21" fill="none">
	<g clip-path="url(#clip0_7993_65541)">
		<path d="M13.5685 7.146C12.9839 3.65771 11.6048 1.2085 10 1.2085C8.39516 1.2085 7.01613 3.65771 6.43145 7.146H13.5685ZM6.12903 10.896C6.12903 11.7632 6.17742 12.5952 6.2621 13.396H13.7339C13.8185 12.5952 13.8669 11.7632 13.8669 10.896C13.8669 10.0288 13.8185 9.19678 13.7339 8.396H6.2621C6.17742 9.19678 6.12903 10.0288 6.12903 10.896ZM19.2218 7.146C18.0686 4.49365 15.7339 2.44287 12.8508 1.61475C13.8347 2.93506 14.5121 4.92334 14.8669 7.146H19.2218ZM7.14516 1.61475C4.26613 2.44287 1.92742 4.49365 0.778226 7.146H5.13306C5.48387 4.92334 6.16129 2.93506 7.14516 1.61475ZM19.6532 8.396H15.0282C15.1129 9.21631 15.1613 10.0562 15.1613 10.896C15.1613 11.7358 15.1129 12.5757 15.0282 13.396H19.6492C19.871 12.5952 19.996 11.7632 19.996 10.896C19.996 10.0288 19.871 9.19678 19.6532 8.396ZM4.83871 10.896C4.83871 10.0562 4.8871 9.21631 4.97177 8.396H0.346774C0.129032 9.19678 0 10.0288 0 10.896C0 11.7632 0.129032 12.5952 0.346774 13.396H4.96774C4.8871 12.5757 4.83871 11.7358 4.83871 10.896ZM6.43145 14.646C7.01613 18.1343 8.39516 20.5835 10 20.5835C11.6048 20.5835 12.9839 18.1343 13.5685 14.646H6.43145ZM12.8548 20.1772C15.7339 19.3491 18.0726 17.2983 19.2258 14.646H14.871C14.5161 16.8687 13.8387 18.8569 12.8548 20.1772ZM0.778226 14.646C1.93145 17.2983 4.26613 19.3491 7.14919 20.1772C6.16532 18.8569 5.4879 16.8687 5.13306 14.646H0.778226Z" fill="#3A3B40" />
	</g>
	<defs>
		<clipPath id="clip0_7993_65541">
			<rect width="20" height="20" fill="white" transform="translate(0 0.895996)" />
		</clipPath>
	</defs>
</svg>
