<svg width="25" height="24" viewBox="0 0 25 24" fill="none" xmlns="http://www.w3.org/2000/svg">
<g id="global-line" clip-path="url(#clip0_3593_4165)">
<path id="Vector" d="M12.5205 22C6.99751 22 2.52051 17.523 2.52051 12C2.52051 6.477 6.99751 2 12.5205 2C18.0435 2 22.5205 6.477 22.5205 12C22.5205 17.523 18.0435 22 12.5205 22ZM10.2305 19.667C9.24392 17.5743 8.67238 15.3102 8.54751 13H4.58251C4.77709 14.5389 5.41443 15.9882 6.41708 17.1717C7.41972 18.3552 8.74452 19.2221 10.2305 19.667V19.667ZM10.5505 13C10.7015 15.439 11.3985 17.73 12.5205 19.752C13.6728 17.6766 14.346 15.3695 14.4905 13H10.5505V13ZM20.4585 13H16.4935C16.3686 15.3102 15.7971 17.5743 14.8105 19.667C16.2965 19.2221 17.6213 18.3552 18.6239 17.1717C19.6266 15.9882 20.2639 14.5389 20.4585 13V13ZM4.58251 11H8.54751C8.67238 8.68979 9.24392 6.42569 10.2305 4.333C8.74452 4.77788 7.41972 5.64475 6.41708 6.8283C5.41443 8.01184 4.77709 9.4611 4.58251 11V11ZM10.5515 11H14.4895C14.3453 8.6306 13.6725 6.32353 12.5205 4.248C11.3682 6.32345 10.6951 8.63052 10.5505 11H10.5515ZM14.8105 4.333C15.7971 6.42569 16.3686 8.68979 16.4935 11H20.4585C20.2639 9.4611 19.6266 8.01184 18.6239 6.8283C17.6213 5.64475 16.2965 4.77788 14.8105 4.333V4.333Z" fill="#4A5754"/>
</g>
<defs>
<clipPath id="clip0_3593_4165">
<rect width="24" height="24" fill="white" transform="translate(0.520508)"/>
</clipPath>
</defs>
</svg>
