<svg width="25" height="24" viewBox="0 0 25 24" fill="none" xmlns="http://www.w3.org/2000/svg">
<g id="twitter-fill" clip-path="url(#clip0_3593_4170)">
<path id="Vector" d="M22.6828 5.65593C21.9194 5.99362 21.1098 6.2154 20.2808 6.31393C21.1546 5.79136 21.8085 4.96894 22.1208 3.99993C21.3008 4.48793 20.4018 4.82993 19.4648 5.01493C18.8354 4.34151 18.0012 3.89489 17.0918 3.74451C16.1824 3.59413 15.2487 3.74842 14.4361 4.18338C13.6234 4.61834 12.9772 5.30961 12.5979 6.14972C12.2186 6.98983 12.1276 7.93171 12.3388 8.82893C10.6759 8.74558 9.04914 8.31345 7.56409 7.56059C6.07905 6.80773 4.76893 5.75097 3.7188 4.45893C3.34709 5.09738 3.15176 5.82315 3.1528 6.56193C3.1528 8.01193 3.8908 9.29293 5.0128 10.0429C4.34881 10.022 3.69944 9.84271 3.1188 9.51993V9.57193C3.11901 10.5376 3.45317 11.4735 4.06465 12.221C4.67613 12.9684 5.52729 13.4814 6.4738 13.6729C5.85742 13.84 5.21111 13.8646 4.5838 13.7449C4.85067 14.5762 5.37081 15.3031 6.0714 15.824C6.77198 16.3449 7.61793 16.6337 8.4908 16.6499C7.62329 17.3313 6.62998 17.8349 5.56769 18.1321C4.50539 18.4293 3.39493 18.5142 2.2998 18.3819C4.2115 19.6114 6.4369 20.264 8.7098 20.2619C16.4028 20.2619 20.6098 13.8889 20.6098 8.36193C20.6098 8.18193 20.6048 7.99993 20.5968 7.82193C21.4157 7.23009 22.1224 6.49695 22.6838 5.65693L22.6828 5.65593Z" fill="#4A5754"/>
</g>
<defs>
<clipPath id="clip0_3593_4170">
<rect width="24" height="24" fill="white" transform="translate(0.520508)"/>
</clipPath>
</defs>
</svg>
