<svg width="25" height="24" viewBox="0 0 25 24" fill="none" xmlns="http://www.w3.org/2000/svg">
<g id="youtube-fill" clip-path="url(#clip0_3593_4175)">
<path id="Vector" d="M22.0635 6.498C22.5205 8.28 22.5205 12 22.5205 12C22.5205 12 22.5205 15.72 22.0635 17.502C21.8095 18.487 21.0665 19.262 20.1255 19.524C18.4165 20 12.5205 20 12.5205 20C12.5205 20 6.62751 20 4.91551 19.524C3.97051 19.258 3.22851 18.484 2.97751 17.502C2.52051 15.72 2.52051 12 2.52051 12C2.52051 12 2.52051 8.28 2.97751 6.498C3.23151 5.513 3.97451 4.738 4.91551 4.476C6.62751 4 12.5205 4 12.5205 4C12.5205 4 18.4165 4 20.1255 4.476C21.0705 4.742 21.8125 5.516 22.0635 6.498ZM10.5205 15.5L16.5205 12L10.5205 8.5V15.5Z" fill="#4A5754"/>
</g>
<defs>
<clipPath id="clip0_3593_4175">
<rect width="24" height="24" fill="white" transform="translate(0.520508)"/>
</clipPath>
</defs>
</svg>
